<?xml version="1.0" encoding="utf-8"?>
<!-- Generator: Adobe Illustrator 19.1.0, SVG Export Plug-In . SVG Version: 6.00 Build 0)  -->
<svg version="1.1" xmlns="http://www.w3.org/2000/svg" xmlns:xlink="http://www.w3.org/1999/xlink" x="0px" y="0px" width="800px"
	 height="460px" viewBox="0 0 800 460" style="enable-background:new 0 0 800 460;" xml:space="preserve">
<style type="text/css">
	.st0{fill:#FFFFFF;}
	.st1{opacity:0.5;fill:#C6C6C6;}
	.st2{opacity:0.6;fill:#C6C6C6;}
	.st3{opacity:0.7;fill:#C6C6C6;}
	.st4{opacity:0.5;fill:#DFB945;}
	.st5{opacity:0.5;fill:#515251;}
	.st6{opacity:0.3;fill:#515251;}
	.st7{opacity:0.5;fill:#559DD5;}
	.st8{opacity:0.5;fill:#63C8CE;}
	.st9{opacity:0.5;fill:#ADD255;}
	.st10{fill:#1E1E1E;}
	.st11{fill:none;stroke:#A5CCCE;stroke-width:2;stroke-miterlimit:10;stroke-dasharray:5,10;}
	.st12{opacity:0.5;fill:#8BC174;}
	.st13{opacity:0.5;fill:#864C9E;}
</style>
<g id="Layer_2">
	<rect y="0" class="st0" width="800" height="460"/>
</g>
<g id="Layer_5">
	<path class="st1" d="M391.7,51.7c-3.3-0.7-2.7-1.3-6-1.9c1.4-1.2,2.6-2.8,3.6-4.6c0.9-1.6,3.3-9.5-1.3-9.1
		c-0.6,0.1-1.3,0.1-1.9,0.2c-0.3-0.9-0.8-1.6-1.9-2.1c-13.6-6.2-28.5-3.4-42.8-2.5c-0.1,0-0.3,0-0.4,0
		c-112.8-5.3-78.1-6.9-190.9-4.8c-35.9,0.7-71.8,1.7-107.6,3.1c-3.5,0.1-6.2,3.3-7.3,6.4c-0.6,1.5-1.1,5.4,0.5,6.8
		c-1,1.1-1.8,2.4-2.3,3.8c-0.7,1.9-1.4,7.4,2.2,7.3c0.6,0,1.2,0,1.8-0.1c-3.2,4-5.4,11.1-0.5,11c48.4-1.2,96.7-2.4,145.1-3.6
		c0.4,0.3,0.9,0.5,1.5,0.6c7.9,1.5,15.8,1.7,23.7,1.5c8.2,0.5,16.4,1,24.7,1.5c1.7,0.1,3.5-1,4.9-2.7c5.4-0.2,10.7-0.4,16.1-0.7
		c19-0.8,37.9-1.6,56.9-2.3c0.4,1.1,1.2,1.9,2.7,2.1c1.6,0.2,3.2,0.3,4.7,0.2c0.2,0,0.4,0,0.6,0c0.2,0.9,0.7,1.6,1.7,1.9
		c16.6,5.8-113.9,6.2-96.5,6c18.4-0.2,36.8-0.6,55.2-1c37.5-0.8,71.1-1.8,108.6-3.1C391.8,65.2,398.9,53.2,391.7,51.7z"/>
	<path class="st2" d="M245.1,54.2c-1.7-1.8-4-2.1-6.3-2.1c2-3.8,2.5-8.4-1.4-8.6c-26.6-1.6-53.3-3.2-79.9-4.8
		c-4.3-0.3-8.7,7.2-8,11.3c-0.6,0-1.2,0-1.8,0c-5.3,0.2-12.2,13-5.2,13.7c12.8,1.4,25.8,1,38.7-0.1c3.1,0.1,6.3,0.1,9.4,0.2
		c7.9,0.3,15.7,0.6,23.6,1c3.9,0.2,7.8,0.4,11.8,0.6c2,0.1,3.9,0.2,5.9,0.3c1,0.1,2,0.1,2.9,0.2c0.3,0.1,0.5,0.1,0.7,0.1
		c0.5,0.5,1.1,0.9,1.8,0.9c3.4,0,5.3-2.3,7.1-4.9C245.5,60.3,246.8,56.1,245.1,54.2z"/>
	<path class="st2" d="M55.1,37.4c-0.9,0.6-1.8,1.3-2.6,2.2c-0.1-0.2-0.2-0.4-0.4-0.6c-1.8-3-6,0-7.4,1.8c-2,2.5-3.7,6.5-1.9,9.6
		c2,3.4,5.9,5.7,9.9,5.4c6.1-0.5,11-7,10.8-12.9C63.5,38.2,59.7,34.6,55.1,37.4z M56.6,42.2C56.6,42.2,56.6,42.2,56.6,42.2
		C56.7,42.2,56.7,42.2,56.6,42.2z"/>
	<path class="st2" d="M91.9,37.4c-1.8-0.7-3.5-0.7-5.1-0.3c-0.4-0.3-0.9-0.5-1.6-0.6c-4.7-0.3-8.4,4.6-9.2,9.5
		c-0.6,1.1-1.1,2.3-1.2,3.4c-0.2,1.3-0.4,3.4,0.6,4.3c2.7,2.5,5.8,3.4,9,2.8c2.4,0.1,4.9-0.7,6.9-2.3c2.9-2.5,4.8-6.6,4.6-10.4
		C95.7,41.1,94.4,38.4,91.9,37.4z"/>
	<path class="st2" d="M115.7,39.4c-1.8-1.5-4.2-1.8-6.4-1.2c-3.4,0.8-6.2,3.4-8,6.3c-1.5,2.5-3.1,9.1,0.8,10.2
		c0.5,1.3,1.3,2.4,2.6,3.1c2.2,1.2,4.8,0.7,6.9-0.4c3.5-1.8,6-5.8,6.7-9.6C118.8,44.5,118.1,41.4,115.7,39.4z"/>
	<path class="st3" d="M168.8,47.9c-0.3-0.6-0.6-1.2-1-1.8c-0.3-0.3-0.6-0.6-0.9-0.8c-0.6-0.3-1.2-0.4-1.8-0.3
		c-0.6,0.1-1.2,0.2-1.8,0.5c-1.4-0.2-3.1,0.8-4,1.6c-1.4,1.2-2.7,3.1-3.3,4.8c-0.9,2.5-1.3,6.7,2.2,7.3c0.5,0.1,0.9,0.1,1.3,0.1
		c0.6,1.1,2.3,1.3,3.3,1c1.5-0.4,3.1-1.7,4-2.8C169,54.9,170.6,51.1,168.8,47.9z"/>
	<path class="st3" d="M117.7,40.3c-0.7-3.4-4.8-2.5-6.7-0.7c0,0-0.1,0.1-0.1,0.1c-0.1-0.2-0.2-0.3-0.3-0.4c-0.8-0.8-1.2-1.2-2.4-1.4
		c-1-0.1-2.2,0.3-3.1,0.7c-2.4,1.3-4,3.7-5,6.1c-0.9,2.2-1.2,5.2,0.4,7.1c0.8,1,2,1.7,3.2,2.2c3.3,1.4,6.4,0.9,9.2-1.4
		C116.4,49.6,118.6,44.9,117.7,40.3z"/>
	<path class="st3" d="M94.3,46.1c-0.9-1.2-2.1-1.2-3.4-1.1c1-0.1,0-0.1-0.2-0.1c-0.3,0-0.6-0.1-0.9-0.1c-0.1,0-0.3-0.1-0.5-0.2
		c-0.3-0.2-0.7-0.3-1-0.5c-0.2-0.1-0.3-0.2-0.4-0.3c0.4-2.3,0-5-2.6-5.4c-4-0.5-7.1,3.9-8.3,7.2c-1.1,2.8-1,6,0.8,8.6
		c2.5,3.6,6.6,4.8,10.8,4.3c1.4-0.1,3.2-1.8,4-2.8c1.2-1.4,2.2-3.4,2.5-5.2C95.1,49,95.2,47.3,94.3,46.1z"/>
	<path class="st3" d="M64.1,43.3c-3.3-0.6-6.4-1.6-9.3-3c-0.3-0.3-0.6-0.6-1.1-0.8c-0.6-0.2-1.2-0.5-1.8-0.7
		c-3.2-1.3-6.2,1.7-7.6,4.2c-1.3,2.2-2.8,7,0.1,8.7c4.5,2.6,9.4,4.3,14.5,5.2C64.7,58,70.8,44.5,64.1,43.3z"/>
	<path class="st4" d="M390,109.6c-1.8-0.2-3.6-0.4-5.4-0.5c-0.1-1.7-0.4-3.5-0.7-5.2c3.5-3.6,6.8-11.3,1.2-11.8
		c-0.6-0.1-1.2-0.1-1.7-0.1c1.1-1,2-2.4,2.7-3.7c0.9-1.8,2.3-6.8-0.6-7.8c-2.9-1.1-5.8-1.8-8.7-2.2c3.5-0.3,6.2-3.2,7.3-6.4
		c0.7-1.9,1.4-7.5-2.2-7.3c-34.3,1.5-68.5,2.9-102.8,3.4c-92.2,0-36.7-6.8-128.9-7c-36-0.1-72,0.9-107.9,3.6
		c-3.5,0.3-6.2,3.2-7.3,6.4c-0.4,1.1-0.9,3.8-0.3,5.6c-4.1,3.3-7.1,11.1-1.6,12.3c4.7,1.1,9.5,1.9,14.2,2.6c-2,0-4,0-6.1,0
		c-4.3,0-11.1,8.6-7.2,12.5c2,2,3.1,2.8,4.9,3.1c-1.1,0.8-2.1,1.6-3.1,2.5c-2.8,2.4-7.1,13,0.2,12c2.4-0.3,4.8-0.7,7.2-1
		c0.2,1.5,1,2.5,2.9,2.6c92,3.7,184.2,4,276.2,0.9c16.8-0.6-114-1.3-97.1-2.1c0.4,1.1,1.2,1.9,2.7,2c27.8,2.7,55.8,3.7,83.7,2.9
		c24.1,0.8,48.2,1.6,72.3,2.5c5.1,0.2,8.9-7,7.6-11.6C393.5,114.1,393.6,110,390,109.6z M349.7,79.9c-2,0.4-4,0.8-6,1.2
		c-42.1,1-84.2,1.8-126.3,1.4c-3.2-0.4-6.3-0.7-9.5-1.1c19.7,0.5,39.4,0.7,59.2,0.5c5.1-0.1,10.2-0.2,15.3-0.3
		C304.7,81.6,327.2,81,349.7,79.9z M373.3,111.3C373.3,111.3,373.3,111.3,373.3,111.3c0.1,0.4,0.2,0.9,0.3,1.4c0,0-0.1,0-0.1,0
		C373.5,112.2,373.4,111.7,373.3,111.3z"/>
	<path class="st5" d="M108.6,348.9c-0.6-20.3-2.4-27.7-3.8-47.9c2.2-43.8,3.3-87.6,3.5-131.5c0-0.6-1.3-1-3.1-1.3
		c0.6-7.8,1.3-15.6,2-23.4c0.5-4.5,2-10.4,1.2-14.9c-0.6-3.4-2.9-3.9-5.5-4.2c-1.7-0.2-8.3-1.2-9.3,1.1c-0.2,0.4-0.3,0.8-0.5,1.2
		c-3.3-0.5-8.1-0.2-9.1,0.9c-0.2-1.2-0.3-2.4-0.6-3.5c-0.4-2-9.4-2-11.8-0.5c-3.4-0.7-9.8-1-10.1,1c0,0.2-0.1,0.4-0.1,0.7
		c-0.7-0.8-1.6-1.4-2.7-1.7c-3.8-1.1-9.5-1.6-13.1,1.3c-3.1-0.9-10.6-0.8-11,0.9c-0.4,1.8-0.9,3.6-1.3,5.3c0,0.1,0.6,0.4,1.6,0.6
		c1.9,37.7,1.3,75.4,0,113.1c-1.3,39.9-2.8,67.2-0.7,107.1c0.6,10.7,1.4,10.4,2.2,21.1c0.6,7.6,1.4,15.8,6.7,20.8
		c1.7,1.5,10.5,2.1,11.9,0c2.2-3.2,2.8-7.7,2.8-12.3c0.4,5,0.7,9.9,1.1,14.9c0.1,2,12.2,2,12.3,0c0-0.2,0-0.3,0-0.5
		c1.1,1.1,7.6,1.5,10.6,0.7c1.9,0.9,4.2,1,6.2,1c2.3,0.1,5.1,0.1,7.6-0.8c0.5,0.3,0.9,0.6,1.4,0.8c1.2,0.6,11.4,1.6,11.5-0.7
		C109,378.2,109.2,369.1,108.6,348.9z M83.9,289.7c0-2.8,0-5.6,0-8.3c0.1,0,0.1,0,0.2,0C84.1,284.2,84,286.9,83.9,289.7z
		 M84.4,389.8c0.3,0.2,0.7,0.5,1,0.7c-0.4,0.7-0.8,1.3-1.3,1.9C84.2,391.5,84.3,390.7,84.4,389.8z"/>
	<path class="st6" d="M108.1,348.8c-0.9-19.1-1.5-25.5-1.9-44.6c-0.8-38.3-0.7-76.7,0.4-115c0.3-10.6,0.6-21.1,1.1-31.7
		c0.2-5.6,0.5-11.2,0.7-16.8c0.2-4,1.8-9.3-1.5-12.3c-3.1-2.8-9.7-1.9-13,0c-1.1,0.6-1.5,1.3-1.6,2.6c-0.1,0.8,0.7,1.5,1.4,1.9
		c0.1,3.5-0.4,7.4-0.6,10.8c-0.2,4.6-0.4,9.2-0.6,13.9c-0.4,9.6-0.7,19.2-1,28.7c-0.5,18.8-0.9,37.7-0.9,56.5
		c-0.2,37.3,0.5,62,2,99.3c0.7,17.8,1.6,34.9-1.7,52.5c-0.8,4.2,13.2,4.4,14.7,0.9c0.4-1,0.9-2,1.3-3c0.4-0.8,0.2-1.5-0.3-2.1
		C108.9,376.4,108.7,362.9,108.1,348.8z"/>
	<path class="st4" d="M385.8,113c-127.5,2.2-107.2-6.3-234.6-4.4c-36.3,0.5-72.5,1.9-108.7,4.6c-3.5,0.3-6.2,3.2-7.3,6.4
		c-0.7,1.8-1.4,7.6,2.2,7.3c127.2-9.4,107.1-2.5,234.4-0.4c36.3,0.6,72.6,0.8,109,0.2C386.4,126.6,392.1,112.9,385.8,113z"/>
</g>
<g id="Layer_1">
	<g>
		<g>
			<g>
				<path class="st10" d="M139.5,421.2c-1,6-1.2,12.2-1.6,18.3c-0.2,2.4,3.7,2.5,3.8,0c0.4-5.9,1-12,0.7-17.9
					C142.3,420,139.8,419.5,139.5,421.2L139.5,421.2z"/>
			</g>
		</g>
		<g>
			<g>
				<path class="st10" d="M140.8,421.7c0.7,5.1,2.6,11.4,5.1,15.9c1,1.8,3.8,0.6,3.3-1.4c-0.7-2.8-2.1-5.4-3.1-8.1
					c-0.9-2.5-1.7-5.1-2.8-7.5C142.6,419.1,140.6,420.3,140.8,421.7L140.8,421.7z"/>
			</g>
		</g>
		<g>
			<g>
				<path class="st10" d="M148.7,438.6c2.8-4.9,3.7-10.5,6.3-15.5c-1,0-2.1,0-3.1,0c1,1.8,0.1,6.2,0,8.1c-0.1,2.9-0.1,5.8-0.2,8.8
					c-0.1,2.4,3.8,2.5,3.8,0c0-3.6,0-7.2,0.1-10.8c0-2.6,0.6-5.5-0.6-7.9c-0.6-1.2-2.4-1.1-3.1,0c-2.8,5.1-3.6,10.9-5.7,16.3
					C145.6,439,147.9,440,148.7,438.6L148.7,438.6z"/>
			</g>
		</g>
		<g>
			<g>
				<path class="st10" d="M160.4,439.4c2.1-5.5,4.4-10.9,6.3-16.5c-1.2,0-2.3,0-3.5,0c1.1,5.6,2.6,11.1,4.5,16.4
					c0.8,2.3,4.1,1.4,3.7-1c-0.4-2.5-1.7-5.1-2.5-7.5c-0.9-2.9-1.6-5.9-2.2-8.8c-0.4-1.8-3-1.7-3.5,0c-1.6,5.6-3,11.3-4.9,16.9
					C157.9,440.1,160,440.6,160.4,439.4L160.4,439.4z"/>
			</g>
		</g>
		<g>
			<g>
				<path class="st10" d="M160.8,435.8c1.9,0.6,4,0.5,5.9,0.4c2.8-0.1,2.3-4.3-0.5-3.8c-1.8,0.3-3.6,0.3-5.4,0.6
					C159.3,433.3,159.5,435.4,160.8,435.8L160.8,435.8z"/>
			</g>
		</g>
		<g>
			<g>
				<path class="st10" d="M174.6,421.9c-1.1,2.4-0.8,5.1-0.8,7.7c0,2.9-0.3,5.9,0.3,8.8c0.3,1.8,3.5,1.9,3.8,0
					c0.4-2.9,0.1-5.9,0-8.8c-0.1-2.6,0.2-5.4-1.1-7.7C176.3,421.1,175,421.1,174.6,421.9L174.6,421.9z"/>
			</g>
		</g>
		<g>
			<g>
				<path class="st10" d="M184.8,438.6c0.1-5.7,0.3-11.5,0.8-17.2c-1.3,0.2-2.5,0.3-3.8,0.5c2.1,5.6,4.6,11,7.1,16.5
					c0.9,1.9,3.9,0.9,3.8-1c-0.2-5-0.2-9.9,0.2-14.9c0.2-2.6-3.8-2.6-4,0c-0.4,4.9-0.5,9.9-0.2,14.9c1.3-0.3,2.5-0.7,3.8-1
					c-2.6-5-4.8-10.2-6.9-15.4c-0.8-2-3.7-1.8-3.8,0.5c-0.3,5.7-0.3,11.4,0,17.2C181.8,440.5,184.8,440.6,184.8,438.6L184.8,438.6z"
					/>
			</g>
		</g>
		<g>
			<g>
				<path class="st10" d="M204,421.8c0,5.3,0.2,10.6,0.3,16c0,1.1,0.9,1.9,1.9,1.9c1.8,0.1,3.6,0.2,5.4,0.4c2.6,0.2,2.6-3.9,0-4
					c-1.8-0.1-3.6-0.2-5.4-0.2c0.6,0.6,1.3,1.3,1.9,1.9c-0.5-5.4-0.9-10.9-1.7-16.3C206.3,420,204,420.4,204,421.8L204,421.8z"/>
			</g>
		</g>
		<g>
			<g>
				<path class="st10" d="M217.2,438.8c2.3-5.4,4.4-11,6.1-16.6c-1.1,0-2.3,0-3.4,0c1.6,5.3,3,10.7,3.6,16.2
					c0.3,2.8,4.4,2.3,3.8-0.5c-1.1-5.6-2.3-11.2-4.1-16.6c-0.6-1.7-2.8-1.6-3.4,0c-1.9,5.4-3.7,11-5,16.6
					C214.7,439.1,216.6,440.1,217.2,438.8L217.2,438.8z"/>
			</g>
		</g>
		<g>
			<g>
				<path class="st10" d="M217.7,435c2,0.2,4,0.1,6-0.2c2.3-0.3,1.4-4.1-1-3.5c-1.6,0.4-3.3,0.7-5,0.8
					C215.8,432.1,215.8,434.9,217.7,435L217.7,435z"/>
			</g>
		</g>
		<g>
			<g>
				<path class="st10" d="M227.7,422.5c1.3,2.8,3.4,5.4,5.2,7.9c1.6,2.3,5-0.2,3.1-2.4c-2.1-2.4-3.7-5.1-5.9-7.4
					C228.8,419.3,227,421,227.7,422.5L227.7,422.5z"/>
			</g>
		</g>
		<g>
			<g>
				<path class="st10" d="M238.5,420.6c-2.1,2.4-4.8,5.2-6.2,8.1c-1.5,3.1-0.8,7.2-0.1,10.5c0.5,2.4,4.1,1.8,4.1-0.6
					c0-3.3-1.2-6.6,0.5-9.7c1.3-2.4,3.1-4.3,3.8-7C241,420.7,239.4,419.6,238.5,420.6L238.5,420.6z"/>
			</g>
		</g>
		<g>
			<g>
				<path class="st10" d="M254.3,425.3c0-4.1-4.6-6.4-8.1-4.5c-4.5,2.4-5,8.4-4.3,13c0.6,4,4.3,8,8.5,5.7c4.8-2.6,4.5-10.3,4.7-14.9
					c0.1-2.5-3.9-2.5-3.9,0c0,2.1,0,4.2-0.4,6.3c-0.2,1.1-0.6,2.6-1.2,3.5c-1.1,1.6-2.9,1-3.5-0.9c-0.5-1.6-0.4-3.9,0-5.6
					c0.4-1.9,4.1-7,5.6-2.3C252.1,427,254.3,426.9,254.3,425.3L254.3,425.3z"/>
			</g>
		</g>
		<g>
			<g>
				<path class="st10" d="M257.8,421.4c-0.5,4.1-1.1,8.9-0.6,13c0.3,2.8,2.5,4.8,5.4,5c8,0.8,7.1-11.9,7-16.9c0-2.7-4.2-2.7-4.1,0
					c0.1,1.8,0.7,14-3.1,12.5c-1.7-0.7-1.2-5.1-1.2-6.5c-0.1-2.4-0.2-4.8-0.5-7.1C260.5,419.5,258.1,419.5,257.8,421.4L257.8,421.4z
					"/>
			</g>
		</g>
		<g>
			<g>
				<path class="st10" d="M273.1,423.9c3,0.7,6.3,1.4,9.4,1.6c2.2,0.1,2.7-3.4,0.5-3.9c-3-0.6-6.4-0.8-9.5-0.9
					C271.7,420.6,271.2,423.4,273.1,423.9L273.1,423.9z"/>
			</g>
		</g>
		<g>
			<g>
				<path class="st10" d="M276.5,423c-0.8,5.1-1.4,10.2-1.3,15.4c0,2.9,4.7,2.9,4.5,0c-0.3-5-0.4-9.9,0.1-14.9
					C280,421.5,276.8,421.1,276.5,423L276.5,423z"/>
			</g>
		</g>
	</g>
	<g>
		<g>
			<g>
				<path class="st10" d="M379.7,424.9c1.2-5.3-7.6-5.8-9.7-2c-1.3,2.3,0.2,4.8,2,6.2c1.4,1.1,3.3,1.6,4.6,2.9c1.1,1,2,3.2-0.4,3.8
					c-1.5,0.4-2.6-1.4-3-2.5c-0.6-1.7-3.5-1.6-3.4,0.5c0.2,5.7,8,8,10.9,2.8c1.2-2.2,0.7-4.8-1-6.6c-1.1-1.2-2.6-1.9-3.9-2.7
					c-1-0.6-3.6-1.5-1.6-3.2c0.8-0.6,2.4,0,2.7,0.9C377.3,426.2,379.4,426.3,379.7,424.9L379.7,424.9z"/>
			</g>
		</g>
		<g>
			<g>
				<path class="st10" d="M392,420.7c-2.3-0.3-6.6-1.5-8.3,0.7c-1.7,2.2-0.5,6.6-0.4,9.2c0.1,2.2,0.2,4.3,0.4,6.5
					c0.1,1,0,2.1,0.6,2.9c1.6,2.1,6.2,0.6,8.2,0.1c2.6-0.6,1.5-4.6-1.1-4c-1.4,0.4-3.5,1-4.9,0.6c0.5,0.5,1,1,1.4,1.4
					c-0.9-3.1-0.5-7-0.8-10.2c-0.1-0.9-0.1-1.7-0.2-2.6c-0.5-1-0.3-1.5,0.6-1.5c0.8-0.5,3.5-0.2,4.4-0.3
					C393.9,423.4,393.9,420.9,392,420.7L392,420.7z"/>
			</g>
		</g>
		<g>
			<g>
				<path class="st10" d="M385.8,431.8c1.5,0,3.1,0,4.6,0.1c2.4,0.2,2.4-3.9,0-3.7c-1.5,0.1-3.1,0.1-4.6,0.1
					C383.6,428.4,383.6,431.7,385.8,431.8L385.8,431.8z"/>
			</g>
		</g>
		<g>
			<g>
				<path class="st10" d="M399.5,437.7c1.1-4.7,2.3-9.3,3.7-14c-1.2,0.2-2.4,0.3-3.5,0.5c1.1,2.4,2,4.9,2.7,7.5
					c0.6,2.4,0.8,4.9,1.6,7.2c0.8,2.5,4.8,1.4,3.9-1.1c-1-2.6-1.2-5.5-2-8.2c-0.7-2.6-1.8-5-2.9-7.4c-0.8-1.5-3.1-1.1-3.5,0.5
					c-1.3,4.6-2.5,9.3-3.3,14.1C395.8,438.9,399,439.8,399.5,437.7L399.5,437.7z"/>
			</g>
		</g>
		<g>
			<g>
				<path class="st10" d="M399.2,434.8c1.1,0,2.3,0,3.4,0c1,0,1.8-0.8,1.8-1.8c0-0.9-0.8-1.9-1.8-1.8c-1.3,0.2-2.6,0.3-3.9,0.5
					c-0.7,0.1-1.2,1-1.1,1.7C397.8,434.3,398.4,434.8,399.2,434.8L399.2,434.8z"/>
			</g>
		</g>
		<g>
			<g>
				<path class="st10" d="M410.4,422.5c-0.1,5.1,0.1,10.2-0.3,15.3c0.2-0.5,0.4-1,0.6-1.5c0,0-0.1,0.1-0.1,0.1c-2,2,1.2,5.1,3.1,3.1
					c1.5-1.6,0.9-5.5,0.9-7.5c0-3.3-0.2-6.7-0.9-9.9C413.4,420.1,410.5,420.6,410.4,422.5L410.4,422.5z"/>
			</g>
		</g>
		<g>
			<g>
				<path class="st10" d="M413,423.1c1.3,0.6,4.6,1.2,5.2,2.7c0.9,2.1-2.9,2.5-4.1,2.5c-2.8,0.1-2.8,4.5,0,4.4
					c3.7-0.2,8.3-1.8,8.3-6.4c0-4.2-4.9-5.4-8.2-6.1C412.6,419.7,411.3,422.3,413,423.1L413,423.1z"/>
			</g>
		</g>
		<g>
			<g>
				<path class="st10" d="M415.5,431.2c0.7,1.4,1.5,2.7,2.1,4.1c0.5,1.4,0.7,2.9,1.3,4.3c0.8,1.8,4,1,3.8-1
					c-0.2-1.7-1.1-3.4-1.9-4.9c-0.8-1.5-1.8-3-2.9-4.3C416.6,428.2,414.8,429.7,415.5,431.2L415.5,431.2z"/>
			</g>
		</g>
		<g>
			<g>
				<path class="st10" d="M435.6,425.7c0.2-3.1-2.5-5.8-5.7-5.1c-3.9,0.8-4.7,5.6-4.6,8.9c0.1,3.5,1,8.1,4.6,9.7
					c3.5,1.6,6.2-0.6,7.9-3.5c1.3-2.2-2-4.1-3.4-2c-1,1.6-2.3,3.1-3.9,0.9c-0.8-1.1-1-2.7-1.2-3.9c-0.2-1.3-0.3-2.7,0-4
					c0.5-2.2,2.7-3.5,3.2-0.6C432.9,427.9,435.5,427.4,435.6,425.7L435.6,425.7z"/>
			</g>
		</g>
		<g>
			<g>
				<path class="st10" d="M440.6,422.5c-0.5,4.8-0.4,9.6-0.5,14.5c-0.1,2.7,4.2,2.7,4.2,0c-0.1-4.8-0.1-9.7-0.6-14.5
					C443.5,420.5,440.8,420.5,440.6,422.5L440.6,422.5z"/>
			</g>
		</g>
		<g>
			<g>
				<path class="st10" d="M443,432.1c2-0.1,3.9-0.3,5.9,0c1.2,0.2,2.4-0.4,2.6-1.7c0.2-1.1-0.8-2.5-2.1-2.4
					c-2.3,0.3-4.7,0.5-6.8,1.2C441.1,429.7,441.3,432.2,443,432.1L443,432.1z"/>
			</g>
		</g>
		<g>
			<g>
				<path class="st10" d="M449.6,422.7c-1.1,2.1-0.9,4.6-1.1,6.9c-0.2,2.8-0.4,5.7-0.4,8.5c0,2.8,4.2,2.8,4.4,0
					c0.2-2.8,0.1-5.7,0.2-8.5c0-2.4,0.3-4.7-0.6-6.9C451.6,421.8,450,421.9,449.6,422.7L449.6,422.7z"/>
			</g>
		</g>
		<g>
			<g>
				<path class="st10" d="M465.3,421.3C465.3,421.3,465.3,421.3,465.3,421.3c-0.3,0.6-0.6,1.3-0.9,1.9c0,0,0.1,0,0.1,0
					c-0.6-0.5-1.2-0.9-1.8-1.4c-0.7,5.3-0.7,10.6-0.2,16c0.1,1.1,0.8,2,2,2c1.9,0.1,3.8,0,5.7-0.2c3-0.4,2.5-4.8-0.6-4.2
					c-1.7,0.4-3.4,0.4-5.1,0.3c0.7,0.7,1.3,1.3,2,2c-0.3-3.4-0.5-6.8-0.6-10.2c0-1.8,0.8-5.5-0.8-6.8c-1-0.8-2.4-0.3-2.5,1
					c0,0,0,0.1,0,0.1c0,0.8,0.6,1.3,1.4,1.4c0,0,0.1,0,0.1,0C465.3,423.3,465.7,422.2,465.3,421.3L465.3,421.3z"/>
			</g>
		</g>
		<g>
			<g>
				<path class="st10" d="M476.3,439.4c1.6-5.6,3-11.1,4.8-16.6c-1.2,0.2-2.3,0.3-3.5,0.5c2.2,4.8,4,9.9,5.4,15
					c0.7,2.7,5,1.4,4.1-1.1c-2-5.3-3.7-10.7-6.1-15.8c-0.7-1.6-3.1-1-3.5,0.5c-1.8,5.6-3.3,11.4-4.1,17.2
					C473.1,440.8,475.8,441,476.3,439.4L476.3,439.4z"/>
			</g>
		</g>
		<g>
			<g>
				<path class="st10" d="M476.8,434.8c0.7,0.7,1.5,0.6,2.4,0.6c0.8,0,1.6-0.1,2.4-0.1c1.1,0,2-1,1.9-2.2c-0.1-1.1-1.3-1.9-2.4-1.6
					c-0.8,0.2-1.5,0.4-2.3,0.6c-0.9,0.2-1.6,0.3-2.2,1.1C476.3,433.7,476.4,434.4,476.8,434.8L476.8,434.8z"/>
			</g>
		</g>
		<g>
			<g>
				<path class="st10" d="M486,422.8c0.8,1.7,1.7,3.4,2.5,5.1c0.6,1.4,1.4,3.6,2.6,4.5c1,0.8,2.5,0.9,3.2-0.4c0,0,0-0.1,0-0.1
					c0.6-1,0.2-2.2-0.7-2.8c0,0,0,0-0.1,0c-2.3-1.6-4.5,2.7-1.6,3.8c0,0,0,0,0.1,0c-0.5-0.8-1-1.7-1.4-2.5c0,0,0,0.1,0,0.1
					c1-0.4,2-0.8,3-1.2c-0.5-0.2-1-1.4-1.2-1.8c-0.5-0.8-0.9-1.6-1.3-2.4c-0.8-1.4-1.5-2.9-2.6-4.1
					C487.1,419.5,485.3,421.3,486,422.8L486,422.8z"/>
			</g>
		</g>
		<g>
			<g>
				<path class="st10" d="M497.6,420.8c-2.5,2.4-4.5,5.8-6.3,8.8c-1.6,2.6-0.9,5.4-0.6,8.3c0.2,2.6,4.4,2.6,4.1,0
					c-0.1-1.4-0.3-2.8-0.4-4.1c-0.1-1.7,0.3-2.3,1.2-3.8c1.5-2.5,3.3-5.1,4.1-7.9C500.1,420.8,498.5,420,497.6,420.8L497.6,420.8z"
					/>
			</g>
		</g>
		<g>
			<g>
				<path class="st10" d="M512.6,429.7c0.6-3.7-0.2-9.1-5.1-8.7c-5.1,0.4-6.5,6.6-6.3,10.7c0.2,4,2.2,8.7,6.9,8.6
					c5.9-0.1,5.6-7.6,5.1-11.6c-0.3-2.5-4.3-2.6-4,0c0.2,1.7,1,5.7-0.3,7.1c-1.8,2.2-3.4-1.8-3.6-3.1c-0.3-2-0.3-4.5,0.7-6.3
					c0.7-1.3,1.6-2.3,3.1-0.8c0.8,0.8,0.7,2.6,0.7,3.7C509.8,430.8,512.3,431.3,512.6,429.7L512.6,429.7z"/>
			</g>
		</g>
		<g>
			<g>
				<path class="st10" d="M517,421.6c-0.7,4.3-0.6,9.1,0,13.4c0.4,2.7,1.9,5.4,5,5.5c8.2,0.2,7.3-12.9,7.4-18.1c0-2.7-4.2-2.7-4.2,0
					c0,1.6-0.2,16.2-3.9,13.4c-1.3-0.9-1.1-6.1-1.3-7.5c-0.2-2.2-0.2-4.4-0.6-6.6C519.3,420.3,517.2,420.3,517,421.6L517,421.6z"/>
			</g>
		</g>
		<g>
			<g>
				<path class="st10" d="M531.5,424.1c3.4,0.2,6.8,1.4,10.2,1.2c3-0.2,2.5-4.6-0.6-4.1c-1.6,0.3-3.2-0.1-4.9-0.1
					c-1.6,0-3.2,0.1-4.8,0.3C529.8,421.6,529.8,423.9,531.5,424.1L531.5,424.1z"/>
			</g>
		</g>
		<g>
			<g>
				<path class="st10" d="M536.3,423.1c-1.6,4.3-1.5,9.7-1.7,14.2c-0.2,2.9,4.6,3,4.6,0c-0.1-4.6,0.6-9.7-0.4-14.2
					C538.4,421.8,536.7,422,536.3,423.1L536.3,423.1z"/>
			</g>
		</g>
	</g>
	<g>
		<g>
			<g>
				<path class="st10" d="M600.6,421.1c-0.6,5.2-3.1,18.3,5.2,19.3c8.4,0.9,5.9-13.6,5.9-18.1c0-2.4-3.8-2.3-3.7,0
					c0.1,2.4,0.2,4.8,0.1,7.2c0,1.3,0.2,9.7-3.5,5.9c-1.3-1.3-0.9-4.9-1-6.6c-0.1-2.6-0.3-5.1-0.3-7.6
					C603.4,419.3,600.8,419.4,600.6,421.1L600.6,421.1z"/>
			</g>
		</g>
		<g>
			<g>
				<path class="st10" d="M625.9,423.8c-1.5-3.4-10.2-5.5-10.5-0.3c-0.2,2.7,1.8,5,3.7,6.6c1.4,1.1,3.2,2.3,3.5,4.2
					c0.3,1.6-0.7,4.2-2.4,2.8c-0.6-0.5-0.8-2.1-0.9-2.7c-0.5-2.2-3.9-1.3-3.5,1c0.5,2.4,1.7,5.6,4.3,6.2c2.6,0.6,5.1-2.1,5.8-4.4
					c0.9-2.8-0.3-5.7-2.2-7.7c-1.3-1.3-3.6-2.3-4.3-4.1c-0.5-1.3-0.4-1.2,1-1c1,0.2,1.9,0.3,2.5,1.2
					C624.2,427.3,626.8,425.7,625.9,423.8L625.9,423.8z"/>
			</g>
		</g>
		<g>
			<g>
				<path class="st10" d="M639.6,421.5c-2.1-1.2-6.4-2.1-8.7-1.1c-2.6,1.3-1.3,5.5-1.2,7.8c0.1,2.1,0.2,4.1,0.4,6.2
					c0.1,1.4-0.1,3.3,0.5,4.5c1.3,2.5,5.4,1.4,7.6,1.2c2.6-0.2,2.6-4.3,0-4c-0.7,0.1-4.2,0.8-4.7,0.4c0.6,0.6,0.5-1.5,0.5-1.5
					c0.1-1-0.1-2.1-0.2-3.1c-0.2-3.1-0.8-6.5-0.5-9.6c-0.3,0.6-0.6,1.1-1,1.7c1.8-0.8,4.9,0.1,6.8-0.2
					C640.4,423.7,640.5,422,639.6,421.5L639.6,421.5z"/>
			</g>
		</g>
		<g>
			<g>
				<path class="st10" d="M633,432.1c1.8,0.1,3.6,0.1,5.3,0.1c2.8,0,2.3-4.3-0.5-3.8c-1.6,0.3-3.2,0.4-4.8,0.5
					C630.9,429,630.9,432,633,432.1L633,432.1z"/>
			</g>
		</g>
		<g>
			<g>
				<path class="st10" d="M643.4,422.2c-0.4,5-0.3,10,0,15c0.2,2.6,4.2,2.6,4,0c-0.4-5-0.4-10-0.5-15
					C646.9,419.9,643.6,420,643.4,422.2L643.4,422.2z"/>
			</g>
		</g>
		<g>
			<g>
				<path class="st10" d="M646.3,423.6c1,0.5,4.6,0.9,4.7,2.3c0.2,1.8-2.9,2.2-4.1,2.5c-2.5,0.5-1.5,4.5,1.1,3.9
					c3.3-0.7,7.1-2.6,6.7-6.6c-0.4-3.6-5-4.8-8.1-4.3C645.6,421.6,645.4,423.2,646.3,423.6L646.3,423.6z"/>
			</g>
		</g>
		<g>
			<g>
				<path class="st10" d="M648.5,431.2c0.7,2.4,1.6,4.8,2.1,7.3c0.6,2.6,4.9,1.4,4-1.1c-1-2.6-1.9-5-3.4-7.3
					C650.3,428.7,648,429.5,648.5,431.2L648.5,431.2z"/>
			</g>
		</g>
		<g>
			<g>
				<path class="st10" d="M664.9,422.2c-0.1,2.5-0.1,5.1,0,7.6c0,2.5-0.3,5.5,0.2,7.9c0.7,3.2,5.8,2.4,8.3,2.6c2.6,0.3,2.7-4,0-4.1
					c-1.7-0.1-4.1,0.2-5.8-0.3c0.4,0.4,0.9,0.9,1.3,1.3c-0.6-2.2-0.3-5.1-0.5-7.4c-0.2-2.5-0.4-5.1-0.7-7.6
					C667.5,420.4,664.9,420.3,664.9,422.2L664.9,422.2z"/>
			</g>
		</g>
		<g>
			<g>
				<path class="st10" d="M677,422.4c-0.3,5.2-0.5,10.4-0.5,15.5c0,2.4,3.6,2.9,4.2,0.6c0.1-0.2,0.1-0.5,0.2-0.7
					c0.7-2.6-3-3.5-4-1.1c-0.1,0.2-0.2,0.5-0.3,0.7c1.4,0.2,2.8,0.4,4.2,0.6c0.1-5.2,0-10.4-0.4-15.5
					C680.1,420.2,677.1,420.2,677,422.4L677,422.4z"/>
			</g>
		</g>
		<g>
			<g>
				<path class="st10" d="M694.7,423.2c-2.7-3.8-9.4-4.9-11.8,0c-1.1,2.2,0,4.4,1.6,5.9c1.2,1.1,2.7,1.8,3.8,2.9
					c0.4,0.4,1.4,1.3,1.4,1.9c-0.9,1.6-1.8,1.9-2.5,0.8c-0.4-0.3-0.8-0.8-1-1.3c-1.3-2.4-5.1-0.2-3.7,2.2c1.3,2.3,3.4,4.2,6.2,4.1
					c2.5,0,4.8-1.7,5.2-4.3c0.4-2.5-0.9-4.9-2.7-6.5c-1-0.9-3.9-2.1-4.2-3.3c-0.4-1.3,1.3-2.2,2.7-1.9c1,0.2,1.9,0.9,2.7,1.5
					C693.9,426.2,695.7,424.5,694.7,423.2L694.7,423.2z"/>
			</g>
		</g>
		<g>
			<g>
				<path class="st10" d="M699.3,420.6c0,0-0.1,0-0.1,0c-0.7-0.2-1.5,0.2-1.9,0.8c0,0,0,0.1-0.1,0.1c-0.5,0.8-0.1,1.9,0.6,2.3
					c1.1,0.7,2.9,0.7,4.2,0.8c1.6,0.2,3.2,0.5,4.9,0.8c3.1,0.5,3.7-4.1,0.6-4.2c-1.4-0.1-2.8-0.1-4.3-0.2c-1.3-0.1-2.9,0-4.1-0.3
					c0.4,0.5,0.8,1.1,1.3,1.6c0,0,0-0.1,0-0.1c-0.4,0.5-0.8,1.1-1.2,1.6c0,0,0.1,0,0.1,0C700.7,423.2,700.9,421.1,699.3,420.6
					L699.3,420.6z"/>
			</g>
		</g>
		<g>
			<g>
				<path class="st10" d="M701.7,422.5c-0.5,2.3-0.8,4.6-1,6.9c-0.2,2.1,0.2,5.7-0.6,7.6c-1.4,3,3.2,4.9,4.2,1.8
					c0.7-2.2,0.2-4.7,0.1-7c-0.1-3-0.1-6-0.1-8.9C704.3,421.4,702,421,701.7,422.5L701.7,422.5z"/>
			</g>
		</g>
	</g>
</g>
<g id="Layer_6">
	<g>
		<g>
			<path class="st10" d="M37.1,66c10.7,0.8,21.6,0.2,32.3,0.2c25.1-0.1,50.2-0.3,75.3-0.4c60.3-0.3,120.5-0.6,180.8-0.2
				c19.2,0.1,38.5,0,57.7,1.2c2.7,0.2,2.7-4.1,0-4.2c-16.2-1.1-32.6-0.6-48.8-0.7c-27.9-0.1-55.8-0.1-83.7,0
				c-58,0.2-115.9,0.4-173.9,0.9c-13.2,0.1-26.6,1-39.8,0.6C35.5,63.4,35.5,65.9,37.1,66L37.1,66z"/>
		</g>
	</g>
	<g>
		<g>
			<path class="st10" d="M60.7,39.7c-5-3.5-12.5-3.1-16.3,2c-3.2,4.2-1.9,11.2,2.3,14.5c4.5,3.5,12,2.9,15.8-1.3
				c3.3-3.7,4.7-10.6,0.1-13.8c-1.4-1-2.9,1.2-1.8,2.3c2.9,2.9,1.6,7.6-1.3,10.1c-3.1,2.7-9.8,2.2-12.1-1.4c-2.2-3.3-2.1-7.7,1.5-10
				c3.4-2.2,7.3-0.9,10.8,0.1C61.2,42.6,61.9,40.5,60.7,39.7L60.7,39.7z"/>
		</g>
	</g>
	<g>
		<g>
			<path class="st10" d="M88.4,38C82.6,36,75.2,38,72,43.7c-2.8,5.1-0.8,11.6,4.6,13.7c5.2,2.1,12.4,2,15.5-3.4
				c2.5-4.5,2.5-12.2-2.6-15c-1.8-1-3,1.5-1.5,2.6c3.3,2.5,3.5,7.9,1.2,11.3c-2.5,3.7-8.8,3.2-12.3,1.3c-4.3-2.4-3.8-8.1-0.6-11.1
				c3.2-3.1,7.6-2.9,11.7-2.9C89.5,40.3,89.6,38.4,88.4,38L88.4,38z"/>
		</g>
	</g>
	<g>
		<g>
			<path class="st10" d="M110.4,37.5c-6.4-2.3-10.6,3.8-11.7,9.3c-1.3,6.3,2.5,11.3,8.8,12.4c5.6,1,10.7-2.3,12.8-7.5
				c2.4-6.3-0.6-11.5-6.6-14c-1.9-0.8-3.7,1.8-1.7,2.9c3.6,2,6.5,4,5.6,8.7c-0.8,3.8-3.9,6.9-7.9,6.9c-5,0.1-8.8-3.4-7.8-8.5
				c0.9-4.6,3.3-7.9,8.3-7.6C111.6,40.1,111.7,37.9,110.4,37.5L110.4,37.5z"/>
		</g>
	</g>
	<g>
		<g>
			<path class="st10" d="M140.6,65.1c2.5-3.6,4.6-7.4,6.9-11.1c1.9-3,4-7.8,6.8-10.1c3.7-3,12.7-1.1,17.3-1.3
				c7.8-0.3,15.5-0.2,23.3,0.1c13.2,0.5,26.7-0.6,39.8,1c0.7,0.1,1.5,0.1,2.1,0.3c-1.6-0.5-0.7-0.9-0.5,0.2c0.3,1.7,1.7,3.7,2.5,5.3
				c2.2,4.7,4.8,9.2,6.8,14c1,2.2,4.4,0.3,3.3-1.9c-2.5-5-5.1-9.8-7.5-14.9c-1.3-2.7-1.7-5.5-4.6-6.3c-5.3-1.4-11.5-1.1-16.9-0.9
				c-9,0.3-18-0.1-26.9-0.3c-8.8-0.2-17.5,0.5-26.3,0.6c-4.1,0.1-10.4-1.2-13.9,1.7c-2.8,2.2-4.8,6.7-6.7,9.6
				c-2.6,4.2-5.5,8.4-7.5,12.9C138,65.2,139.7,66.3,140.6,65.1L140.6,65.1z"/>
		</g>
	</g>
	<g>
		<g>
			<path class="st10" d="M166.2,48.9c-2.4-1.9-6.2-1.9-8.3,0.6c-1.9,2.2-1.4,6,0.9,7.8c2.3,1.9,6.3,1.6,8.3-0.6
				c1.7-1.9,2.5-5.6,0-7.3c-1-0.6-1.9,0.8-1.2,1.5c3.2,3.5-3.8,7.8-6.2,4c-1-1.5-1-3.5,0.6-4.6c1.6-1.1,3.5-0.3,5.2,0
				C166.1,50.5,166.9,49.5,166.2,48.9L166.2,48.9z"/>
		</g>
	</g>
	<g>
		<g>
			<path class="st10" d="M37,51.3c0.1-3.3-0.4-6.7,0-10c0.8-6.6,4.8-8.4,10.9-8.8c5.1-0.4,10.3-0.1,15.4-0.1c1,0,2,0,3,0
				c6.2,0,12.4,0,18.6,0c24.2,0,48.4,0.1,72.6,0.1c56.9,0,113.7,0.1,170.6,0.1c11.7,0,23.4-0.4,35,0.1c3.7,0.2,7.3,0.3,11,0.5
				c4.6,0.2,8.4,0.9,9.9,5.8c1.7,5.4,0.6,11.7,0.6,17.3c0,1,0,2,0,2.9c0,5.9,0,11.9,0.1,17.8c0.2,53.8,0.4,107.6,0.6,161.4
				c0.2,42.9,0.5,85.7,0.5,128.6c0,1.9-0.1,3.8-0.1,5.7c-0.2,6,1.5,17.7-5.6,19.9c-6.3,2-14.3,1.1-20.9,1.3c-3.2,0.1-6.4,0-9.6,0.1
				c-21,0.1-42,0.2-63,0.4c-57.6,0.3-115.1,0.7-172.7,1c-12.6,0.1-25.4,0.9-38,0.2c-4-0.2-7.6-0.7-11.7-0.4
				c-7,0.5-16.4,1.5-22.7-2.4c-5.9-3.7-4.2-15.4-4.4-21.4c0-0.8,0-1.5-0.1-2.3c0-4.1,0-8.3,0-12.4c0.1-50.7,0-101.5,0-152.2
				c0-48.3-0.1-96.7-0.1-145C36.9,56.7,36.9,54,37,51.3c0-1.4-2.2-1.4-2.2,0c-0.1,37.9-0.3,75.8-0.5,113.7
				c-0.2,57.7-0.5,115.4-0.6,173c0,12.2-0.3,24.5,0.1,36.7c0.2,5-0.4,11.1,1.7,15.8c2.2,5,7,6.5,12,7.4c6.2,1.2,12.1,0.7,18.4,0.4
				c3.4-0.2,6.7,0.4,10.1,0.5c4.2,0.2,8.5,0,12.7-0.1c54.1-0.3,108.2-0.6,162.4-0.9c26.7-0.2,53.3-0.3,80-0.5
				c7.6,0,15.1-0.1,22.7-0.1c8.6-0.1,17.7,0.7,26-1.1c3.5-0.8,6.6-2.6,8-6.1c1-2.4,0.9-5.2,1-7.8c0.2-4.5,0.5-9,0.5-13.5
				c0-0.8,0-1.6,0-2.4c0-5.8-0.1-11.6-0.1-17.4c-0.1-23.8-0.2-47.7-0.3-71.5c-0.3-59.3-0.5-118.7-0.8-178
				c-0.1-14.2-0.2-28.4-0.2-42.6c0-5.7,0.8-11.7-0.3-17.3c-0.9-4.4-3.2-8.2-7.8-9.2c-5.7-1.2-12.5-0.9-18.3-1c-3.3-0.1-6.6,0-9.9,0
				c-52,0-104.1,0-156.1,0c-43.7,0-87.4,0.2-131.2,0.1c-5.4,0-10.9-0.2-16.3,0.1c-4.6,0.3-9.1,1.1-11.6,5.4
				C33.5,40,34.9,46,34.7,51.3C34.7,52.8,36.9,52.7,37,51.3z"/>
		</g>
	</g>
	<g>
		<g>
			<path class="st10" d="M105.6,126.8c-0.7,13-0.2,26.2-0.3,39.3c-0.1,19.5-0.3,39.1-0.6,58.6c-0.5,42.1-1,84.3-1.2,126.4
				c-0.1,15.4-0.2,30.7,0.2,46.1c0.1,2.2,3.4,2.2,3.4,0c-0.8-32.6-0.1-65.2,0.2-97.8c0.4-42.1,0.8-84.3,0.9-126.4
				c0-15.2,0.9-30.9-0.7-46.1C107.4,125.6,105.6,125.5,105.6,126.8L105.6,126.8z"/>
		</g>
	</g>
	<g>
		<g>
			<path class="st10" d="M386.5,125.6c-19.9-0.9-40.1-0.2-60-0.3c-24-0.1-48-0.3-72-0.6c-49.5-0.5-99.1-1-148.6-1.2
				c-22.9-0.1-45.8-0.1-68.7,0.2c-2.2,0-2.2,3.4,0,3.4c44-0.5,88-0.1,132.1,0.2c49.5,0.4,99.1,0.9,148.6,0.9
				c22.8,0,45.9,0.9,68.7-0.7C387.8,127.4,387.8,125.6,386.5,125.6L386.5,125.6z"/>
		</g>
	</g>
	<path class="st11" d="M362.2,375.2H132.3c-3.3,0-6-2.7-6-6V150.3c0-3.3,2.7-6,6-6h229.9c3.3,0,6,2.7,6,6v218.8
		C368.2,372.5,365.5,375.2,362.2,375.2z"/>
	<g>
		<path class="st0" d="M349.8,104.1c0.2-2.3-0.2-4.5,0-6.8c0.2-2.3,1.1-4.7,3.1-5.8c0.5-0.3,1-0.5,1.6-0.6c1.2-0.3,2.5-0.4,3.7-0.5
			c3.6-0.2,7.1-0.1,10.7-0.1l174.1,0c3.4,0.2,6.9,0.3,10.3,0.5c1.5,0.1,3,0.2,4.3,1c0.9,0.6,1.6,1.6,2,2.6c1,2.5,1,5.2,0.9,7.9
			c0,1.7-0.1,3.4-0.1,5.2l0.9,211.5c-0.1,3.5-0.3,6.9-0.4,10.4c-0.1,1.6-0.2,3.2-1,4.5c-1.6,2.4-5,2.7-7.9,2.8
			c-3.5,0.1-7,0.2-10.5,0.3L377.7,338c-1.9-0.3-3.8-0.5-5.7-0.4c-2,0-4.1,0.3-6.1,0.4c-3.4,0.1-6.9-0.2-10.2-1.1
			c-1.2-0.3-2.4-0.7-3.4-1.5c-2.3-1.8-2.6-5-2.6-7.8c-0.1-2.8-0.2-5.6-0.3-8.3L349.8,104.1z"/>
		<g>
			<path class="st10" d="M350.9,104.1c0.1-2.1-0.2-4.3,0.1-6.5c0.8-5.4,4.7-5.8,9-5.9c3-0.1,6,0,9,0c0.7,0,1.4,0,2.2,0
				c4.2,0,8.4,0,12.6,0c16,0,32.1,0.1,48.1,0.1c33.8,0,67.7,0.1,101.5,0.1c3.1,0,6.1,0,9.2,0c4,0.1,12.3-0.7,15.2,2.2
				c2.6,2.6,1.1,10.2,1.1,13.6c-0.1,7.9,0.1,15.9,0.1,23.8c0.1,35.9,0.3,71.8,0.4,107.7c0.1,26.1,0.4,52.2,0.3,78.3
				c0,0.7,0,1.4,0,2.1c-0.1,4,0.6,12.5-3.3,14.5c-3.5,1.7-9.3,0.8-13.1,1c-2.7,0.1-5.4,0.1-8,0.1c-13.9,0.1-27.7,0.2-41.6,0.3
				c-34.8,0.2-69.5,0.5-104.3,0.7c-3.6,0-7.2,0.2-10.8,0.1c-2.9-0.1-5.8-0.5-8.8-0.3c-4.3,0.3-8.4,0.4-12.7-0.6
				c-6.5-1.5-5.6-8.4-5.8-13.7c-0.2-6.8-0.1-13.7-0.1-20.5c0-34.7,0-69.3-0.1-104c-0.1-29.4-0.1-58.8-0.2-88.3
				C350.9,107.4,350.9,105.7,350.9,104.1c0-1.4-2.2-1.4-2.2,0c0,23.3-0.3,46.6-0.4,69.9c-0.2,38.2-0.5,76.3-0.6,114.5
				c0,9.8-0.1,19.6-0.1,29.4c0,5.9-1.5,15.7,4.3,19.4c6.4,4.1,14.9,1.8,21.9,2.1c1.7,0.1,3.4,0.4,5.1,0.4
				c31.1,0.5,62.4-0.4,93.5-0.6c17.5-0.1,34.9-0.2,52.4-0.4c4.7,0,9.4-0.1,14.1-0.1c0.8,0,1.6,0,2.4,0c5.2-0.1,12.9,1,17.6-1.8
				c5.4-3.2,4-12.7,4-17.9c0-0.5,0-1,0-1.5c0-3.6,0-7.1-0.1-10.7c-0.1-14.8-0.2-29.6-0.2-44.4c-0.2-38.7-0.4-77.4-0.5-116.1
				c-0.1-11.7-0.1-23.3-0.2-35c0-4.1,0.3-8.2,0.1-12.2c-0.4-6.5-3.3-9.5-9.6-9.8c-3.4-0.2-6.8-0.4-10.2-0.4c-29.4-0.4-58.9,0-88.3,0
				c-28.3,0-56.5,0.2-84.8,0.1c-4.8,0-10.4-0.7-15.1,0.7c-6.6,2-5.4,9.1-5.4,14.5C348.7,105.5,350.9,105.5,350.9,104.1z"/>
		</g>
	</g>
	<g>
		<g>
			<path class="st10" d="M548.3,131.1c-7.6-0.7-15.5-0.2-23.1-0.1c-7.8,0-15.7,0.1-23.5,0c-15.6,0-31.2-0.1-46.7-0.1
				c-31.1-0.1-62.3-0.3-93.4,0.4c-2.2,0.1-2.2,3.4,0,3.4c31.1-0.5,62.2-0.5,93.4-0.5c15.6,0,31.2,0,46.7-0.1
				c7.5-0.1,15.1-0.1,22.6-0.2c7.9-0.1,16.2,0.2,24.1-0.8C549.6,132.8,549.6,131.2,548.3,131.1L548.3,131.1z"/>
		</g>
	</g>
	<g>
		<g>
			<path class="st10" d="M548.3,292.1c-7.6-0.7-15.5-0.2-23.1-0.1c-7.8,0-15.7,0.1-23.5,0c-15.6,0-31.2-0.1-46.7-0.1
				c-31.1-0.1-62.3-0.3-93.4,0.4c-2.2,0.1-2.2,3.4,0,3.4c31.1-0.5,62.2-0.5,93.4-0.5c15.6,0,31.2,0,46.7-0.1
				c7.5-0.1,15.1-0.1,22.6-0.2c7.9-0.1,16.2,0.2,24.1-0.8C549.6,293.9,549.6,292.2,548.3,292.1L548.3,292.1z"/>
		</g>
	</g>
	<g>
		<g>
			<g>
				<path class="st10" d="M377.3,112.3c-1-3.3-6.6-3.8-8.2-0.6c-0.7,1.4,0,2.9,1.2,3.9c0.9,0.8,2,1.1,2.9,2c0.4,0.4,0.9,0.8,1.1,1.3
					c0.5,1.5,0.1,2.2-1.2,2.1c-0.8,0.5-1.4,0.3-1.7-0.6c-1.1-1.6-3.6-0.1-2.6,1.5c1,1.5,2.5,3.1,4.5,2.9c2-0.2,3.3-2.1,3.8-3.9
					c0.5-2-0.4-3.7-1.7-5c-0.8-0.8-1.7-1.2-2.5-1.9c-0.5-0.4-1.1-0.5-0.7-1.3c0.4-0.8,2.6,0.4,2.9,0.9
					C376,114.4,377.6,113.4,377.3,112.3L377.3,112.3z"/>
			</g>
		</g>
		<g>
			<g>
				<path class="st10" d="M387.1,109.7c-1.9-0.5-6.4-1.3-7,1.3c-0.5,1.9-0.2,4.4-0.3,6.4c-0.1,1.9-0.6,4.2-0.1,6.1
					c0.1,0.5,0.5,0.9,1,1c2,0.4,4.4-0.2,6.5-0.5c2-0.3,1.2-3.6-0.9-3.1c-1.4,0.3-3.4,1-4.8,0.7c0.3,0.3,0.7,0.7,1,1
					c-0.5-1.7,0-4,0.1-5.7c0.1-1.6-0.3-4,0.2-5.5c-0.3,0.3-0.7,0.7-1,1c1.6-0.4,3.5-0.1,5.1-0.3C388.3,111.9,388.2,110,387.1,109.7
					L387.1,109.7z"/>
			</g>
		</g>
		<g>
			<g>
				<path class="st10" d="M381.3,118.8c1.3,0.2,2.9,0.4,4.1,0c1.4-0.5,1.2-2.6-0.4-2.7c-0.7,0-1.3,0.2-2,0.3
					c-0.6,0.1-1.2,0.2-1.8,0.3C380.2,116.9,380.2,118.7,381.3,118.8L381.3,118.8z"/>
			</g>
		</g>
		<g>
			<g>
				<path class="st10" d="M391.5,124.2c2-4.1,2.8-9.1,3.7-13.6c-0.8,0.1-1.5,0.2-2.3,0.3c2,3.9,3.4,8.4,3.6,12.8
					c0.1,2.1,3.2,1.7,2.8-0.4c-0.8-4.8-2-9.3-4.2-13.7c-0.5-1-2.1-0.8-2.3,0.3c-0.9,4.5-2.4,9.2-2.9,13.8
					C389.8,124.6,391.2,124.9,391.5,124.2L391.5,124.2z"/>
			</g>
		</g>
		<g>
			<g>
				<path class="st10" d="M392.2,120.9c1.2,0,2.5-0.3,3.7-0.5c0.8-0.1,1.5-0.7,1.4-1.6c-0.1-0.9-0.9-1.4-1.8-1.2
					c-1.3,0.3-2.7,0.6-3.9,1.1C390.5,119.2,391.1,120.9,392.2,120.9L392.2,120.9z"/>
			</g>
		</g>
		<g>
			<g>
				<path class="st10" d="M403,111.7c0.1-0.2,0.1-0.4,0.2-0.6c-0.6-0.1-1.3-0.2-1.9-0.3c-0.2,2,0.2,4.2,0.3,6.2
					c0.1,2.1,0.1,4.2,0.3,6.3c0.2,1.8,2.7,1.8,2.8,0c0.1-3.9-0.1-9-1.4-12.7c-0.5-1.3-2.4-0.6-1.8,0.8c0.1,0.2,0.2,0.4,0.2,0.5
					C401.9,112.5,402.8,112.2,403,111.7L403,111.7z"/>
			</g>
		</g>
		<g>
			<g>
				<path class="st10" d="M403,112.8c0.7-0.6,1.5-0.7,2.4-0.5c0.5,0.2,1.7,0.6,1.8,1.3c0.2,1.6-3,1.5-3.8,1.6
					c-1.8,0.4-1.2,2.8,0.4,2.9c3,0.3,7.4-2.1,6-5.7c-1.2-3-5.9-3.6-8.1-1.5C400.8,112,402,113.6,403,112.8L403,112.8z"/>
			</g>
		</g>
		<g>
			<g>
				<path class="st10" d="M405.2,117.6c0,0,0.1,0,0.1,0c-0.2-0.1-0.4-0.3-0.6-0.4c0.9,1.9,1.8,4.1,2.4,6.1c0.6,2.1,4,0.7,2.8-1.2
					c-0.8-1.4-1.5-2.8-2.4-4.2c-0.5-0.8-1.1-2.3-2.3-2C404.4,116.1,404.4,117.3,405.2,117.6L405.2,117.6z"/>
			</g>
		</g>
		<g>
			<g>
				<path class="st10" d="M420.5,113.5c-0.1-2.4-1.6-4.6-4.3-4c-3.1,0.7-3.7,4.3-3.7,6.9c0,2.4,0.2,6.5,3,7.4c2.9,1,5-1.7,6.1-4
					c0.8-1.7-1.8-3.3-2.6-1.5c-0.2,0.5-0.4,1-0.8,1.5c-0.5,0.8-0.7,1.1-1.7,0.8c-1.3-0.5-1.3-2.6-1.3-3.9c0-1.2-0.1-2.9,0.6-3.9
					c1.3-1.8,2.1-0.1,2.7,1.1C419,115,420.5,114.5,420.5,113.5L420.5,113.5z"/>
			</g>
		</g>
		<g>
			<g>
				<path class="st10" d="M424,110.2c-0.3,4.3-0.2,8.6-0.2,12.9c0,1.9,3.1,1.9,3,0c-0.1-4.4-0.2-8.8-0.9-13.1
					C425.7,108.8,424,109.2,424,110.2L424,110.2z"/>
			</g>
		</g>
		<g>
			<g>
				<path class="st10" d="M425,117.3c1.6,0.5,3.3,0.5,5,0.7c2,0.3,2-3.4-0.4-3c-1.4,0.3-2.9,0.1-4.3,0.2
					C424.1,115.3,423.9,116.9,425,117.3L425,117.3z"/>
			</g>
		</g>
		<g>
			<g>
				<path class="st10" d="M430.3,110.2c-0.4,4.1-0.6,8.5-0.2,12.6c0.2,2,3,2,3.2,0c0.3-4.2-0.1-8.8-0.9-12.9
					C432.1,108.7,430.4,109.2,430.3,110.2L430.3,110.2z"/>
			</g>
		</g>
		<g>
			<g>
				<path class="st10" d="M441.4,110.3c-0.4,4.3-1.5,13.6,4.7,14.3c5.9,0.7,4.8-10.3,4.7-13.7c0-1.9-3-1.9-3,0c0,1.8,0,3.6-0.1,5.4
					c-0.1,1-0.2,4.9-1.3,5.3c-1.1,0.4-2-1.9-2.1-2.5c-0.2-1-0.3-2.1-0.3-3.1c-0.2-1.9-0.3-3.8-0.4-5.6
					C443.7,108.8,441.6,108.8,441.4,110.3L441.4,110.3z"/>
			</g>
		</g>
		<g>
			<g>
				<path class="st10" d="M461.3,112.8c-0.5-3.7-6.5-3.8-7.8-0.5c-0.7,1.8,0.3,3.4,1.7,4.6c0.8,0.7,1.8,1.3,2.7,2
					c0.6,0.5,1.6,1.1,0.7,2.1c-0.7,0.8-2-0.1-2.4-0.7c-1.1-1.7-3.8-0.1-2.7,1.6c2,3,7,3.4,8.5-0.4c0.7-1.8-0.4-3.3-1.7-4.5
					c-0.8-0.7-1.8-1.2-2.7-1.8c-0.7-0.5-2.1-1.2-0.7-2.5c0.7-0.7,2.3,0.4,2.8,1C460.4,114.5,461.4,113.6,461.3,112.8L461.3,112.8z"
					/>
			</g>
		</g>
		<g>
			<g>
				<path class="st10" d="M471.7,109.9c-2-0.4-4-0.3-6-0.3c-0.7,0-1.6,0.7-1.5,1.5c0.4,3.9,0.7,7.8,0.8,11.6c0,1.1,0.9,1.6,1.9,1.4
					c1.4-0.2,2.9-0.2,4.3-0.2c2,0,2-3.2,0-3.2c-1.7,0-3.4,0.2-5.1,0.5c0.6,0.5,1.3,1,1.9,1.4c-0.1-3.9-0.4-7.8-0.8-11.6
					c-0.5,0.5-1,1-1.5,1.5c2-0.1,4,0,6-0.4C472.8,111.9,472.9,110.1,471.7,109.9L471.7,109.9z"/>
			</g>
		</g>
		<g>
			<g>
				<path class="st10" d="M466.7,118.5c0.8,0,1.6-0.1,2.5-0.2c0.8-0.1,1.6-0.1,2.2-0.5c1.7-1.1-0.2-3.6-1.7-2.2
					c0.2-0.1-0.5,0.1-0.6,0.1c-0.3,0.1-0.6,0.1-0.9,0.2c-0.6,0.1-1.2,0.3-1.8,0.5C465.3,116.9,465.4,118.5,466.7,118.5L466.7,118.5z
					"/>
			</g>
		</g>
		<g>
			<g>
				<path class="st10" d="M476.6,111.4c0-0.1,0.1-0.1,0.1-0.2c1-1.5-2.1-2.5-2.1-0.6c0,4.3,0.1,8.6,0,12.9c-0.1,1.9,2.9,1.9,2.9,0
					c0.1-4.4,0-8.9-0.7-13.2c-0.6,0.4-1.2,0.7-1.9,1.1c0.1,0.1,0.1,0.1,0.2,0.2C475.5,112.1,476.3,111.9,476.6,111.4L476.6,111.4z"
					/>
			</g>
		</g>
		<g>
			<g>
				<path class="st10" d="M475.6,112c1,0.2,4.8,0.4,4.5,2c-0.3,1.8-3.2,1.7-4.3,2.5c-1.2,0.8-0.7,2.4,0.7,2.6
					c1.5,0.2,3.4-0.7,4.6-1.6c1.2-0.9,2-2.2,2-3.8c-0.1-3.6-4.8-4.2-7.6-3.6C474.6,110.2,474.7,111.8,475.6,112L475.6,112z"/>
			</g>
		</g>
		<g>
			<g>
				<path class="st10" d="M478.4,117.8c0.3,1.2,1.1,2.2,1.6,3.3c0.5,1,0.9,2.4,1.6,3.2c1.5,1.7,3.9-1.1,2-2.6c0.4,0.3,0.1,0,0-0.2
					c-0.1-0.3-0.3-0.6-0.5-0.9c-0.3-0.5-0.7-1-1-1.5c-0.6-0.9-1.3-1.9-2.2-2.5C479.1,116.2,478.2,117,478.4,117.8L478.4,117.8z"/>
			</g>
		</g>
		<g>
			<g>
				<path class="st10" d="M494,112.2c-1.3-3.6-6.5-3.7-7.8-0.1c-0.7,1.9,0.3,3.7,1.7,4.9c0.9,0.8,1.9,1.4,2.8,2.1
					c2.1,1.8-1.1,3.7-2.4,1.4c-0.9-1.6-3.3-0.2-2.5,1.4c1.8,3.8,6.7,3.5,8.4-0.3c0.8-1.8,0.2-3.2-1.2-4.4c-0.8-0.7-1.7-1.2-2.6-1.8
					c-0.5-0.3-1.4-0.9-1.5-1.5c1.1-1.7,1.9-2.1,2.5-1.2c0.2,0.2,0.3,0.4,0.6,0.5C492.8,114.1,494.4,113.4,494,112.2L494,112.2z"/>
			</g>
		</g>
	</g>
	<g>
		<g>
			<g>
				<path class="st10" d="M437.1,306.2c0.9,0.8,2.5,0.5,3.6,0.6c1.6,0.1,3.2,0.3,4.7,0c1.9-0.4,1.1-3.5-0.8-2.9
					c-1.1,0.3-2.3,0.3-3.4,0.4c-0.8,0.1-2.4,0.5-3.2,0.3C437.1,304.4,436.3,305.6,437.1,306.2L437.1,306.2z"/>
			</g>
		</g>
		<g>
			<g>
				<g>
					<path class="st10" d="M397.7,306.1c1.8,0.8,3.9,0.4,5.8,0.8c2.1,0.5,2.1-3,0-2.5c-1.8,0.4-3.8-0.2-5.6,0.1
						C397.2,304.6,397,305.8,397.7,306.1L397.7,306.1z"/>
				</g>
			</g>
			<g>
				<g>
					<g>
						<path class="st10" d="M373.9,304c-2.4,2.1-4.1,4.9-6,7.4c-1.2,1.5,1,3.3,2.2,1.7c1.8-2.6,4.1-5,5.6-7.7
							C376.3,304.2,374.8,303.2,373.9,304L373.9,304z"/>
					</g>
				</g>
				<g>
					<g>
						<path class="st10" d="M374.4,304.7c0,4.2-0.3,8.5,0,12.7c0.1,1.8,3,1.8,2.8,0c-0.4-4.3,0.2-8.7-0.7-12.9
							C376.2,303.2,374.4,303.5,374.4,304.7L374.4,304.7z"/>
					</g>
				</g>
				<g>
					<g>
						<path class="st10" d="M368.3,314.6c3.1,0.8,6.6-0.2,9.7,0.2c2,0.2,2-3,0-3.1c-3.1-0.1-6.8,0.2-9.7,1.1
							C367.4,313,367.4,314.3,368.3,314.6L368.3,314.6z"/>
					</g>
				</g>
				<g>
					<g>
						<path class="st10" d="M386,304.8c-1.1,3.9-0.2,8.6-0.4,12.6c-0.1,1.8,2.8,1.8,2.9,0c0-3.9,0.5-8.9-0.8-12.6
							C387.3,304.1,386.2,304,386,304.8L386,304.8z"/>
					</g>
				</g>
				<g>
					<g>
						<path class="st10" d="M387.7,306.5c0,0,0.1-0.1,0.1-0.1c-0.2,0.1-0.4,0.2-0.7,0.3c1.5,0.1,3.5-0.2,4.3,1.5
							c0.7,1.6-2.6,2-3.6,1.9c-1.9-0.1-1.9,2.8,0,3c3,0.2,8-2,6.2-5.8c-0.7-1.5-2-2.5-3.6-2.8c-1.3-0.2-3.5-0.2-4.3,1
							C385.7,306.3,387,307.2,387.7,306.5L387.7,306.5z"/>
					</g>
				</g>
				<g>
					<g>
						<path class="st10" d="M389.6,312.1c0.9,2.1,1.7,4.2,2.4,6.4c0.6,2,3.6,0.8,2.7-1.1c-1-2-2-4.1-3.3-6
							C390.7,310.6,389.1,311.1,389.6,312.1L389.6,312.1z"/>
					</g>
				</g>
				<g>
					<g>
						<path class="st10" d="M397.5,304.8c-0.8,1.7-0.6,3.7-0.6,5.6c-0.1,2.3-0.1,4.6-0.2,7c0,0.8,0.7,1.4,1.4,1.4c2,0,4,0.1,6-0.3
							c1.6-0.3,1.2-2.8-0.4-2.8c-1.9,0-3.7,0.3-5.6,0.3c0.5,0.5,0.9,0.9,1.4,1.4c0-2.3,0-4.6,0-7c0-1.9,0.2-3.8-0.5-5.6
							C398.8,304.2,397.8,304.3,397.5,304.8L397.5,304.8z"/>
					</g>
				</g>
				<g>
					<g>
						<path class="st10" d="M397.8,311.6c0.3,0.9,1.1,1,1.9,1.1c1,0.1,1.9,0.3,2.8-0.1c1.1-0.5,0.7-2.1-0.3-2.4
							c-0.6-0.2-1.3,0-2,0.1c-0.3,0-0.5,0.1-0.8,0.1c-0.1,0-0.2,0-0.3,0c-0.4,0-0.4,0-0.1,0C398.3,310.2,397.6,310.9,397.8,311.6
							L397.8,311.6z"/>
					</g>
				</g>
				<g>
					<g>
						<path class="st10" d="M414.7,307.4c-0.3-4-5.7-4.9-7.6-1.5c-0.8,1.5-0.7,3.2,0.5,4.3c1,1,2.5,1.3,3.6,2.2
							c0.8,0.7,2.3,2,1.2,3.4c-0.6,0.2-1.1,0.3-1.7,0.5c-0.8-0.2-1.3-0.7-1.6-1.4c-0.9-1.6-3.4-0.1-2.5,1.5c2,3.3,7.2,4.1,8.7-0.1
							c0.6-1.8-0.1-3.8-1.4-5.1c-0.8-0.9-1.9-1.6-3-2.2c-0.5-0.3-1.7-0.8-1.4-1.7c0.5-0.3,1-0.5,1.4-0.8c0.8,0.2,1.5,0.7,1.8,1.4
							C413.3,308.7,414.7,308.5,414.7,307.4L414.7,307.4z"/>
					</g>
				</g>
				<g>
					<g>
						<path class="st10" d="M418.3,304.9c0,3.1-0.3,6.7,0.4,9.8c0.5,2.1,2.3,3.5,4.4,3.7c5.9,0.5,5-9.6,4.6-13.2
							c-0.2-1.8-3.1-1.9-2.9,0c0.2,1.9,1.1,10.3-1.8,10.3c-2.7,0-2.5-8.7-2.7-10.6C420.1,303.7,418.2,303.6,418.3,304.9L418.3,304.9
							z"/>
					</g>
				</g>
				<g>
					<g>
						<path class="st10" d="M430.5,305.3c-0.2,2-0.1,4-0.1,6c0,1.7-0.3,3.7,0,5.3c0.5,2.8,4.8,1.7,6.7,1.4c1.9-0.3,1.1-3.3-0.8-2.9
							c-1.1,0.2-2.9,0.6-4,0.1c0.3,0.3,0.7,0.7,1,1c-0.4-1.8-0.2-4-0.3-5.9c-0.1-1.8-0.2-3.6-0.5-5.4
							C432.3,303.8,430.6,304.2,430.5,305.3L430.5,305.3z"/>
					</g>
				</g>
				<g>
					<g>
						<path class="st10" d="M440.4,306.1c-0.2,3.6-0.5,7.9,0.1,11.4c0.2,1.3,2.5,1.3,2.7,0c0.6-3.6-0.1-8.1-1-11.7
							C442,304.8,440.5,305.1,440.4,306.1L440.4,306.1z"/>
					</g>
				</g>
				<g>
					<g>
						<path class="st10" d="M455.7,307.1c-1.1-3-5.6-4.3-7.2-0.9c-0.8,1.6,0,3.5,1.1,4.6c0.8,0.8,1.9,1.3,2.7,2.1
							c0.6,0.6,1.6,2.1,0.6,2.9c-1,0.8-2.4-0.7-2.9-1.3c-1.2-1.5-3.2,0.6-2.1,2.1c2.3,2.8,7,3.9,8.3-0.5c0.5-1.7-0.1-3.6-1.4-4.9
							c-0.8-0.8-1.8-1.2-2.6-1.9c-0.3-0.3-0.7-0.7-1-1c0.2-0.4,0.4-0.9,0.7-1.3c0.8-0.4,2,0.4,2.5,1
							C454.9,308.5,455.9,307.9,455.7,307.1L455.7,307.1z"/>
					</g>
				</g>
			</g>
		</g>
	</g>
	<path class="st11" d="M533.1,269.4H376.3c-3.3,0-6-2.7-6-6V159.2c0-3.3,2.7-6,6-6h156.9c3.3,0,6,2.7,6,6v104.2
		C539.1,266.7,536.4,269.4,533.1,269.4z"/>
	<g>
		<path class="st0" d="M531.6,62.6c0.2-1.4-0.2-2.9,0-4.3c0.2-1.4,1.2-3,3.5-3.7c0.6-0.2,1.2-0.3,1.8-0.4c1.3-0.2,2.8-0.3,4.1-0.3
			c4-0.1,7.9-0.1,11.9-0.1l193.8,0c3.8,0.1,7.6,0.2,11.4,0.3c1.6,0,3.4,0.1,4.7,0.6c1.1,0.4,1.8,1,2.3,1.7c1.2,1.6,1.1,3.3,1.1,5
			c0,1.1-0.1,2.2-0.1,3.3l1,135.3c-0.2,2.2-0.3,4.4-0.5,6.7c-0.1,1-0.2,2-1.1,2.9c-1.8,1.5-5.6,1.7-8.8,1.8
			c-3.9,0.1-7.8,0.1-11.7,0.2l-182.2,0.7c-2.1-0.2-4.2-0.3-6.3-0.3c-2.3,0-4.5,0.2-6.8,0.2c-3.8,0.1-7.7-0.1-11.3-0.7
			c-1.3-0.2-2.7-0.4-3.8-0.9c-2.5-1.1-2.8-3.2-2.9-5c-0.1-1.8-0.2-3.6-0.3-5.3L531.6,62.6z"/>
		<g>
			<path class="st10" d="M532.7,62.6c0.1-2.5,0.2-5.2,2.6-6.8c1.2-0.8,4.1-0.5,5.6-0.6c4-0.1,7.9,0,11.9,0c0.4,0,0.7,0,1.1,0
				c2.7,0,5.4,0,8.2,0c11.2,0,22.4,0.1,33.6,0.1c32.2,0,64.4,0.1,96.6,0.1c18.1,0,36.2-0.2,54.3,0c3.2,0,6.4,0.2,9.5,0.2
				c1,0,2.7-0.2,3.6,0.1c1.2,0.4,4.6,4,4.8,5c0.3,1.2-0.1,2.8-0.1,4c0,0.6,0,1.1,0,1.7c0,3.7,0,7.4,0.1,11
				c0.1,14.2,0.2,28.3,0.3,42.5c0.2,26.1,0.6,52.2,0.5,78.4c0,0.6,0,1.1,0,1.7c-0.1,3.2,0.2,7.5-3,9.1c-2.9,1.5-8.5,0.6-11.6,0.7
				c-3.1,0.1-6.1,0.1-9.2,0.1c-9.4,0-18.8,0.1-28.2,0.1c-31.6,0.1-63.1,0.2-94.7,0.4c-18.6,0.1-37.4,0.8-56,0.2
				c-7.2-0.2-14.5,0.4-21.6-0.4c-3.1-0.3-4.5-0.2-6.4-2.7c-1.7-2.2-1.6-3.7-1.7-6.3c0-0.4,0-0.8-0.1-1.2c-0.1-2.7,0-5.3,0-8
				c0-13,0-25.9,0-38.9c0-28.4-0.1-56.7-0.1-85.1C532.7,66.1,532.6,64.3,532.7,62.6c0-1.4-2.2-1.4-2.2,0
				c-0.1,23.6-0.4,47.2-0.5,70.8c-0.1,15.8-0.2,31.6-0.4,47.3c-0.1,8.3-0.8,17.1,0.2,25.4c0.6,4.8,3.8,6.4,8.3,7.1
				c7.6,1.2,15.2,0.2,22.9,0.6c2,0.1,4,0.1,6,0.1c10.5,0,21-0.1,31.5-0.1c33.3-0.1,66.6-0.2,99.8-0.4c12.3-0.1,24.6-0.1,37-0.2
				c2.9,0,5.7,0,8.6,0c1.3,0,2.6,0,3.9-0.1c5.2-0.1,13.4,1.2,18-1.9c5-3.5,2.8-20.2,2.8-25.9c-0.1-15.2-0.3-30.3-0.4-45.5
				c-0.2-25-0.9-50-0.6-75c0-3.4,0.8-7.3-1.8-10c-4-4-13-2.4-18.1-2.5c-1.8,0-3.5,0-5.3,0c-10.1,0-20.2,0-30.3,0
				c-33.2,0-66.5,0-99.7,0c-19.8,0-39.5,0.1-59.3,0.1c-5.6,0-12.8-1.1-18.2,0.9c-4.6,1.7-4.2,5.1-4.2,9.3
				C530.5,64,532.7,64,532.7,62.6z"/>
		</g>
	</g>
	<g>
		<g>
			<path class="st10" d="M603.2,217c-3.1,8.9-11.6,14.1-19.8,17.8c-9.2,4.1-19,7-29,8.5c-19.8,3-40,0.8-58.6-6.4
				c-1.8-0.7-3.3,1.6-2.4,3.1c2,3.2,3.9,6.3,5.9,9.5c1.1-0.9,2.2-1.7,3.4-2.6c-2.8-3.4-5.1-6.9-7.2-10.8c-0.4,1.1-0.9,2.1-1.3,3.2
				c4.7-1,9.4-2.1,14.1-3.1c2.7-0.6,1.6-4.8-1.2-4.2c-4.7,1-9.4,2.1-14.1,3.1c-1.4,0.3-1.9,2-1.3,3.2c2.2,4.2,4.8,8.1,7.9,11.7
				c1.6,1.9,4.7-0.6,3.4-2.6c-2-3.2-4-6.3-5.9-9.5c-0.8,1-1.6,2.1-2.4,3.1c20.4,7.7,42.8,9.7,64.2,5.6c16.8-3.2,41.8-10.3,47.6-28.8
				C607,215.9,603.9,215,603.2,217L603.2,217z"/>
		</g>
	</g>
	<g>
		<g>
			<path class="st10" d="M349,172.2c-8.5,0-17.8,3.5-25.6,6.5c-8.5,3.3-16.7,7.4-24.4,12.4c-15.3,9.8-28.1,22.7-38.4,37.6
				c-1.4,2.1,2,4.1,3.4,2c9.6-14.8,22.6-27.4,37.4-36.9c7.2-4.7,14.8-8.7,22.8-11.8c8.2-3.3,16.8-4.6,25-7.5
				C350.4,173.9,350.3,172.2,349,172.2L349,172.2z"/>
		</g>
	</g>
	<g>
		<g>
			<path class="st10" d="M260.6,221.4c0.1,0,0.2-0.1,0.3-0.1c-0.4-0.2-0.9-0.4-1.3-0.5c0.7,1.2-0.4,4.6-0.5,5.9
				c-0.3,2.3-0.6,4.6-0.9,6.8c-0.2,1.6,1.2,3.1,2.8,2.2c3.8-2.2,7.4-4.6,11.2-6.8c2.3-1.3,0.2-4.8-2.1-3.5c-3.8,2.2-7.6,4.4-11.1,7
				c1,0.6,1.9,1.1,2.9,1.7c0.2-4,0.7-8.1,0.6-12.1c0-1.4-0.8-3.5-2.6-2.8C258.7,219.8,259.1,221.8,260.6,221.4L260.6,221.4z"/>
		</g>
	</g>
	<path class="st7" d="M569.7,74.1c-6.7-6-21.1-1.5-20.8,8.3c0.2,8.2,16.8,15.2,21.1,6.8c0.4-0.8,0.6-1.7,0.7-2.6
		c0.3-0.4,0.6-0.8,0.9-1.2C573.9,81.7,572.9,77,569.7,74.1z"/>
	<path class="st8" d="M571.7,117.5c1.3-1.6,2.3-3.5,2-5.5c-0.4-3.9-4.7-5.9-8-6.6c-3.4-0.7-8.1-0.8-11,1.5c-1.9,1.5-2.7,3.7-2.6,6
		c-0.2,0.3-0.3,0.6-0.4,1c-2.9,1.6-3.8,5.4-1,8.1c3.4,3.4,10.6,4.5,15,2.6c1.1-0.5,2.3-1.4,3.2-2.5c0.4-0.4,0.8-0.7,1.1-1.2
		c0.8-0.2,1.5-0.6,2-1.2C572.7,118.9,572.4,118.1,571.7,117.5z"/>
	<path class="st9" d="M562.9,137.6c-3.8-1.4-7.1,1.4-9.2,4.6c-0.7,0.7-1.3,1.6-1.5,2.7c0,0.1-0.1,0.1-0.1,0.2
		c-1.4,3.1-0.9,6.3,1.1,8.5c0.8,1.3,2.1,2.2,3.7,2.8c0.3,0.3,0.6,0.5,1.1,0.6c0.7,0.1,1.3,0.1,1.9,0c0.5,0,1.1,0,1.6,0
		c0.5,0,1.2-0.2,2-0.4c1,0.3,2.4,0,3.1-0.8c0.2-0.2,0.4-0.5,0.6-0.7c0.3-0.2,0.6-0.3,0.8-0.5c1.8-0.8,3.1-2.2,3.3-4
		c0.3-0.5,0.4-1,0.5-1.6C572.2,144.6,566.7,139.1,562.9,137.6z"/>
	<path class="st7" d="M571.3,179.5c0-0.6-0.1-1.3-0.2-1.9c-1.7-6.2-11-9-16.2-5.9c-4.5,2.6-5.4,7.6-3.5,11.5c0,0.4,0,0.8,0.1,1.2
		c-0.3,3.3,2.9,5.9,6.4,6.8c2,0.8,4.4,1,6.5,0.7C569.8,191,575.4,184.7,571.3,179.5z"/>
	<path class="st10" d="M565.7,185.7c-0.3-0.6-0.7-1.2-1.2-1.7c0.7-0.4,1.4-1,1.8-1.8c2-3.8-3.2-7.6-6.4-5c-0.2,0.1-0.3,0.3-0.4,0.5
		c-0.2,0.2-0.3,0.4-0.5,0.6c-0.9,1.3-1.2,3.3-0.4,4.7c0.3,0.6,0.8,1.1,1.4,1.4c-1.9,1.6-3.2,4.5-2.4,6.7c0.3,0.9,9,0.7,9.3-0.2
		C567.4,189.1,566.4,187.2,565.7,185.7z"/>
	<path class="st10" d="M567.5,154.4c-0.9-1.6-2.4-4.1-4.3-4.9c0.2-0.1,0.4-0.3,0.6-0.4c0.5-0.4,0.8-0.8,1-1.4
		c0.5-0.9,0.7-2.1,0.3-3.2c-0.3-0.9-1.2-1.6-2.1-1.6c-1.5-0.8-3.6-0.6-5,0.6c-1,0.9-1.5,2.4-1.2,3.8c0.4,1.4,1.6,2.4,2.9,2.7
		c0.1,0,0.1,0,0.2,0c-2.3,1.6-3.5,5.1-3.6,7.6c-0.1,1.6,9.6,1.6,10.6-0.4C567.7,156.5,568,155.3,567.5,154.4z"/>
	<path class="st10" d="M567.5,118.6c-0.7-0.9-1.5-2.1-2.5-3c0.3-0.2,0.5-0.4,0.7-0.7c1.2-1.4,1.1-3,0.3-4.2
		c-0.7-1.7-2.9-2.5-4.8-2.5c-2.8,0-5,2.6-5,5.3c0,1.5,0.8,2.7,2.1,3.4c0.1,0.1,0.3,0.1,0.5,0.2c-1.1,2.1-1.6,4.7-2.3,6.8
		c-0.5,1.5,7.7,2.9,9.4,2.1c0.4-0.2,3.4-1.8,3.6-3.1C569.9,121.2,568.4,119.8,567.5,118.6z"/>
	<path class="st10" d="M567.7,89.6c-1.2-1.4-2.3-2.7-3.5-4.1c-0.1-0.1-0.2-0.3-0.3-0.4c0.4-0.3,0.8-0.8,1.2-1.2
		c1.2-1.8,1-3.8-0.6-5.3c-1.1-1.1-2.7-1.6-4.3-1.3c-2.7-0.4-5.3,3.2-4.5,6c0.4,1.3,1.6,2.3,2.9,2.7c-1.3,1.6-2,3.9-2.3,5.5
		c-0.2,1.2,9.1,1,9.2,1.1C567.3,93.9,569,91.1,567.7,89.6z"/>
	<g>
		<g>
			<path class="st10" d="M568.9,103.3c-7.1-2.3-15.8,0-19.5,6.8c-3.3,6-1,13.6,5.5,16.2c6.2,2.5,14.7,2.4,18.3-4
				c3-5.4,2.9-14.4-3-17.7c-1.7-1-3.1,1.5-1.5,2.6c4.2,3.1,4.5,9.9,1.6,14.1c-3.1,4.6-10.9,4.1-15.3,1.7c-5.4-3-4.8-10.1-0.7-13.9
				c4-3.8,9.3-3.7,14.4-3.5C569.9,105.6,570.1,103.7,568.9,103.3L568.9,103.3z"/>
		</g>
	</g>
	<g>
		<g>
			<path class="st10" d="M562.6,136c-7.4-2.5-12,4.3-13.4,10.7c-1.5,7.2,2.8,12.8,10,14.1c6.4,1.2,12.2-2.6,14.5-8.6
				c2.8-7.3-0.7-13.1-7.5-16c-1.9-0.8-3.7,1.8-1.7,2.9c4.3,2.4,7.8,4.8,6.6,10.4c-1,4.6-4.7,8.2-9.4,8.3c-6,0.1-10.6-4.2-9.3-10.3
				c1.1-5.4,4-9.5,9.9-9C563.8,138.7,563.9,136.5,562.6,136L562.6,136z"/>
		</g>
	</g>
	<g>
		<g>
			<path class="st10" d="M749.3,80.3c-8.1-0.7-16.4-0.1-24.5-0.1c-11.5,0-23.1,0-34.6-0.1c-24.8-0.1-49.7-0.2-74.5-0.1
				c-9.5,0-19.1,0.1-28.6,0.5c-2.2,0.1-2.2,3.4,0,3.4c44.9-1.6,89.8-0.2,134.7-0.7c9.1-0.1,18.8,0.5,27.8-1
				C750.7,82,750.3,80.4,749.3,80.3L749.3,80.3z"/>
		</g>
	</g>
	<g>
		<g>
			<path class="st10" d="M749.3,146.8c-8.1-0.7-16.4-0.1-24.5-0.1c-11.5,0-23.1,0-34.6-0.1c-24.8-0.1-49.7-0.2-74.5-0.1
				c-9.5,0-19.1,0.1-28.6,0.5c-2.2,0.1-2.2,3.4,0,3.4c44.9-1.6,89.8-0.2,134.7-0.7c9.1-0.1,18.8,0.5,27.8-1
				C750.7,148.5,750.3,146.9,749.3,146.8L749.3,146.8z"/>
		</g>
	</g>
	<g>
		<g>
			<path class="st10" d="M749.3,113.6c-8.1-0.7-16.4-0.1-24.5-0.1c-11.5,0-23.1,0-34.6-0.1c-24.8-0.1-49.7-0.2-74.5-0.1
				c-9.5,0-19.1,0.1-28.6,0.5c-2.2,0.1-2.2,3.4,0,3.4c44.9-1.6,89.8-0.2,134.7-0.7c9.1-0.1,18.8,0.5,27.8-1
				C750.7,115.3,750.3,113.7,749.3,113.6L749.3,113.6z"/>
		</g>
	</g>
	<g>
		<g>
			<path class="st10" d="M749.3,180.1c-8.1-0.7-16.4-0.1-24.5-0.1c-11.5,0-23.1,0-34.6-0.1c-24.8-0.1-49.7-0.2-74.5-0.1
				c-9.5,0-19.1,0.1-28.6,0.5c-2.2,0.1-2.2,3.4,0,3.4c44.9-1.6,89.8-0.2,134.7-0.7c9.1-0.1,18.8,0.5,27.8-1
				C750.7,181.8,750.3,180.2,749.3,180.1L749.3,180.1z"/>
		</g>
	</g>
	<g>
		<g>
			<path class="st10" d="M569.5,72.8c-6.1-4-15.1-3.8-19.8,2.4c-3.8,5.1-2.3,13.5,2.7,17.4c5.5,4.3,14.6,3.5,19.2-1.6
				c4-4.5,5.7-12.6,0.2-16.6c-1.4-1-3,1.2-1.8,2.3c3.9,3.8,2.1,9.9-1.5,13.1c-4.1,3.6-12.6,2.9-15.7-1.8c-2.8-4.3-2.6-10.1,2-13.1
				c4.3-2.8,9.3-1.2,13.7,0.2C570,75.7,570.7,73.6,569.5,72.8L569.5,72.8z"/>
		</g>
	</g>
	<g>
		<g>
			<path class="st10" d="M553.4,191.5c6.1,4,15.1,3.8,19.8-2.4c3.8-5.1,2.3-13.5-2.7-17.4c-5.5-4.3-14.6-3.5-19.2,1.6
				c-4,4.5-5.7,12.6-0.2,16.6c1.4,1,3-1.2,1.8-2.3c-3.9-3.8-2.1-9.9,1.5-13.1c4.1-3.6,12.6-2.9,15.7,1.8c2.8,4.3,2.6,10.1-2,13.1
				c-4.3,2.8-9.3,1.2-13.7-0.2C552.9,188.6,552.2,190.7,553.4,191.5L553.4,191.5z"/>
		</g>
	</g>
</g>
<g id="Layer_3">
</g>
</svg>
