<?xml version="1.0" encoding="utf-8"?>
<!-- Generator: Adobe Illustrator 19.1.0, SVG Export Plug-In . SVG Version: 6.00 Build 0)  -->
<svg version="1.1" xmlns="http://www.w3.org/2000/svg" xmlns:xlink="http://www.w3.org/1999/xlink" x="0px" y="0px" width="800px"
	 height="460px" viewBox="0 0 800 460" style="enable-background:new 0 0 800 460;" xml:space="preserve">
<style type="text/css">
	.st0{fill:#FFFFFF;}
	.st1{opacity:0.5;fill:#C6C6C6;}
	.st2{opacity:0.6;fill:#C6C6C6;}
	.st3{opacity:0.7;fill:#C6C6C6;}
	.st4{opacity:0.5;fill:#DFB945;}
	.st5{opacity:0.5;fill:#515251;}
	.st6{opacity:0.3;fill:#515251;}
	.st7{opacity:0.5;fill:#559DD5;}
	.st8{opacity:0.5;fill:#63C8CE;}
	.st9{opacity:0.5;fill:#ADD255;}
	.st10{fill:#1E1E1E;}
	.st11{fill:none;stroke:#A5CCCE;stroke-width:2;stroke-miterlimit:10;stroke-dasharray:5,10;}
	.st12{opacity:0.5;fill:#8BC174;}
	.st13{opacity:0.5;fill:#864C9E;}
</style>
<g id="Layer_2">
	<rect y="0" class="st0" width="800" height="460"/>
</g>
<g id="Layer_5">
	<path class="st1" d="M391.7,54.2c-3.3-0.7-2.7-1.3-6-1.9c1.4-1.2,2.6-2.8,3.6-4.6c0.9-1.6,3.3-9.5-1.3-9.1
		c-0.6,0.1-1.3,0.1-1.9,0.2c-0.3-0.9-0.8-1.6-1.9-2.1c-13.6-6.2-28.5-3.4-42.8-2.5c-0.1,0-0.3,0-0.4,0
		c-112.8-5.3-78.1-6.9-190.9-4.8c-35.9,0.7-71.8,1.7-107.6,3.1c-3.5,0.1-6.2,3.3-7.3,6.4c-0.6,1.5-1.1,5.4,0.5,6.8
		c-1,1.1-1.8,2.4-2.3,3.8c-0.7,1.9-1.4,7.4,2.2,7.3c0.6,0,1.2,0,1.8-0.1c-3.2,4-5.4,11.1-0.5,11c48.4-1.2,96.7-2.4,145.1-3.6
		c0.4,0.3,0.9,0.5,1.5,0.6c7.9,1.5,15.8,1.7,23.7,1.5c8.2,0.5,16.4,1,24.7,1.5c1.7,0.1,3.5-1,4.9-2.7c5.4-0.2,10.7-0.4,16.1-0.7
		c19-0.8,37.9-1.6,56.9-2.3c0.4,1.1,1.2,1.9,2.7,2.1c1.6,0.2,3.2,0.3,4.7,0.2c0.2,0,0.4,0,0.6,0c0.2,0.9,0.7,1.6,1.7,1.9
		c16.6,5.8-113.9,6.2-96.5,6c18.4-0.2,36.8-0.6,55.2-1c37.5-0.8,71.1-1.8,108.6-3.1C391.8,67.7,398.9,55.7,391.7,54.2z"/>
	<path class="st2" d="M245.1,56.7c-1.7-1.8-4-2.1-6.3-2.1c2-3.8,2.5-8.4-1.4-8.6c-26.6-1.6-53.3-3.2-79.9-4.8
		c-4.3-0.3-8.7,7.2-8,11.3c-0.6,0-1.2,0-1.8,0c-5.3,0.2-12.2,13-5.2,13.7c12.8,1.4,25.8,1,38.7-0.1c3.1,0.1,6.3,0.1,9.4,0.2
		c7.9,0.3,15.7,0.6,23.6,1c3.9,0.2,7.8,0.4,11.8,0.6c2,0.1,3.9,0.2,5.9,0.3c1,0.1,2,0.1,2.9,0.2c0.3,0.1,0.5,0.1,0.7,0.1
		c0.5,0.5,1.1,0.9,1.8,0.9c3.4,0,5.3-2.3,7.1-4.9C245.5,62.8,246.8,58.6,245.1,56.7z"/>
	<path class="st2" d="M55.1,39.9c-0.9,0.6-1.8,1.3-2.6,2.2c-0.1-0.2-0.2-0.4-0.4-0.6c-1.8-3-6,0-7.4,1.8c-2,2.5-3.7,6.5-1.9,9.6
		c2,3.4,5.9,5.7,9.9,5.4c6.1-0.5,11-7,10.8-12.9C63.5,40.7,59.7,37.1,55.1,39.9z M56.6,44.7C56.6,44.7,56.6,44.7,56.6,44.7
		C56.7,44.7,56.7,44.7,56.6,44.7z"/>
	<path class="st2" d="M91.9,39.9c-1.8-0.7-3.5-0.7-5.1-0.3c-0.4-0.3-0.9-0.5-1.6-0.6c-4.7-0.3-8.4,4.6-9.2,9.5
		c-0.6,1.1-1.1,2.3-1.2,3.4c-0.2,1.3-0.4,3.4,0.6,4.3c2.7,2.5,5.8,3.4,9,2.8c2.4,0.1,4.9-0.7,6.9-2.3c2.9-2.5,4.8-6.6,4.6-10.4
		C95.7,43.6,94.4,40.9,91.9,39.9z"/>
	<path class="st2" d="M115.7,41.9c-1.8-1.5-4.2-1.8-6.4-1.2c-3.4,0.8-6.2,3.4-8,6.3c-1.5,2.5-3.1,9.1,0.8,10.2
		c0.5,1.3,1.3,2.4,2.6,3.1c2.2,1.2,4.8,0.7,6.9-0.4c3.5-1.8,6-5.8,6.7-9.6C118.8,47,118.1,43.9,115.7,41.9z"/>
	<path class="st3" d="M168.8,50.4c-0.3-0.6-0.6-1.2-1-1.8c-0.3-0.3-0.6-0.6-0.9-0.8c-0.6-0.3-1.2-0.4-1.8-0.3
		c-0.6,0.1-1.2,0.2-1.8,0.5c-1.4-0.2-3.1,0.8-4,1.6c-1.4,1.2-2.7,3.1-3.3,4.8c-0.9,2.5-1.3,6.7,2.2,7.3c0.5,0.1,0.9,0.1,1.3,0.1
		c0.6,1.1,2.3,1.3,3.3,1c1.5-0.4,3.1-1.7,4-2.8C169,57.4,170.6,53.6,168.8,50.4z"/>
	<path class="st3" d="M117.7,42.8c-0.7-3.4-4.8-2.5-6.7-0.7c0,0-0.1,0.1-0.1,0.1c-0.1-0.2-0.2-0.3-0.3-0.4c-0.8-0.8-1.2-1.2-2.4-1.4
		c-1-0.1-2.2,0.3-3.1,0.7c-2.4,1.3-4,3.7-5,6.1c-0.9,2.2-1.2,5.2,0.4,7.1c0.8,1,2,1.7,3.2,2.2c3.3,1.4,6.4,0.9,9.2-1.4
		C116.4,52.1,118.6,47.4,117.7,42.8z"/>
	<path class="st3" d="M94.3,48.6c-0.9-1.2-2.1-1.2-3.4-1.1c1-0.1,0-0.1-0.2-0.1c-0.3,0-0.6-0.1-0.9-0.1c-0.1,0-0.3-0.1-0.5-0.2
		c-0.3-0.2-0.7-0.3-1-0.5c-0.2-0.1-0.3-0.2-0.4-0.3c0.4-2.3,0-5-2.6-5.4c-4-0.5-7.1,3.9-8.3,7.2c-1.1,2.8-1,6,0.8,8.6
		c2.5,3.6,6.6,4.8,10.8,4.3c1.4-0.1,3.2-1.8,4-2.8c1.2-1.4,2.2-3.4,2.5-5.2C95.1,51.5,95.2,49.9,94.3,48.6z"/>
	<path class="st3" d="M64.1,45.9c-3.3-0.6-6.4-1.6-9.3-3c-0.3-0.3-0.6-0.6-1.1-0.8c-0.6-0.2-1.2-0.5-1.8-0.7
		c-3.2-1.3-6.2,1.7-7.6,4.2c-1.3,2.2-2.8,7,0.1,8.7C49,57,53.9,58.7,59,59.6C64.7,60.6,70.8,47,64.1,45.9z"/>
	<path class="st4" d="M390,112.1c-1.8-0.2-3.6-0.4-5.4-0.5c-0.1-1.7-0.4-3.5-0.7-5.2c3.5-3.6,6.8-11.3,1.2-11.8
		c-0.6-0.1-1.2-0.1-1.7-0.1c1.1-1,2-2.4,2.7-3.7c0.9-1.8,2.3-6.8-0.6-7.8c-2.9-1.1-5.8-1.8-8.7-2.2c3.5-0.3,6.2-3.2,7.3-6.4
		c0.7-1.9,1.4-7.5-2.2-7.3c-34.3,1.5-68.5,2.9-102.8,3.4c-92.2,0-36.7-6.8-128.9-7c-36-0.1-72,0.9-107.9,3.6
		c-3.5,0.3-6.2,3.2-7.3,6.4c-0.4,1.1-0.9,3.8-0.3,5.6c-4.1,3.3-7.1,11.1-1.6,12.3c4.7,1.1,9.5,1.9,14.2,2.6c-2,0-4,0-6.1,0
		c-4.3,0-11.1,8.6-7.2,12.5c2,2,3.1,2.8,4.9,3.1c-1.1,0.8-2.1,1.6-3.1,2.5c-2.8,2.4-7.1,13,0.2,12c2.4-0.3,4.8-0.7,7.2-1
		c0.2,1.5,1,2.5,2.9,2.6c92,3.7,184.2,4,276.2,0.9c16.8-0.6-114-1.3-97.1-2.1c0.4,1.1,1.2,1.9,2.7,2c27.8,2.7,55.8,3.7,83.7,2.9
		c24.1,0.8,48.2,1.6,72.3,2.5c5.1,0.2,8.9-7,7.6-11.6C393.5,116.6,393.6,112.5,390,112.1z M349.7,82.4c-2,0.4-4,0.8-6,1.2
		c-42.1,1-84.2,1.8-126.3,1.4c-3.2-0.4-6.3-0.7-9.5-1.1c19.7,0.5,39.4,0.7,59.2,0.5c5.1-0.1,10.2-0.2,15.3-0.3
		C304.7,84.1,327.2,83.6,349.7,82.4z M373.3,113.8C373.3,113.8,373.3,113.8,373.3,113.8c0.1,0.4,0.2,0.9,0.3,1.4c0,0-0.1,0-0.1,0
		C373.5,114.7,373.4,114.2,373.3,113.8z"/>
	<path class="st5" d="M108.6,351.5c-0.6-20.3-2.4-27.7-3.8-47.9c2.2-43.8,3.3-87.6,3.5-131.5c0-0.6-1.3-1-3.1-1.3
		c0.6-7.8,1.3-15.6,2-23.4c0.5-4.5,2-10.4,1.2-14.9c-0.6-3.4-2.9-3.9-5.5-4.2c-1.7-0.2-8.3-1.2-9.3,1.1c-0.2,0.4-0.3,0.8-0.5,1.2
		c-3.3-0.5-8.1-0.2-9.1,0.9c-0.2-1.2-0.3-2.4-0.6-3.5c-0.4-2-9.4-2-11.8-0.5c-3.4-0.7-9.8-1-10.1,1c0,0.2-0.1,0.4-0.1,0.7
		c-0.7-0.8-1.6-1.4-2.7-1.7c-3.8-1.1-9.5-1.6-13.1,1.3c-3.1-0.9-10.6-0.8-11,0.9c-0.4,1.8-0.9,3.6-1.3,5.3c0,0.1,0.6,0.4,1.6,0.6
		c1.9,37.7,1.3,75.4,0,113.1c-1.3,39.9-2.8,67.2-0.7,107.1c0.6,10.7,1.4,10.4,2.2,21.1c0.6,7.6,1.4,15.8,6.7,20.8
		c1.7,1.5,10.5,2.1,11.9,0c2.2-3.2,2.8-7.7,2.8-12.3c0.4,5,0.7,9.9,1.1,14.9c0.1,2,12.2,2,12.3,0c0-0.2,0-0.3,0-0.5
		c1.1,1.1,7.6,1.5,10.6,0.7c1.9,0.9,4.2,1,6.2,1c2.3,0.1,5.1,0.1,7.6-0.8c0.5,0.3,0.9,0.6,1.4,0.8c1.2,0.6,11.4,1.6,11.5-0.7
		C109,380.8,109.2,371.6,108.6,351.5z M83.9,292.2c0-2.8,0-5.6,0-8.3c0.1,0,0.1,0,0.2,0C84.1,286.7,84,289.4,83.9,292.2z
		 M84.4,392.3c0.3,0.2,0.7,0.5,1,0.7c-0.4,0.7-0.8,1.3-1.3,1.9C84.2,394,84.3,393.2,84.4,392.3z"/>
	<path class="st6" d="M108.1,351.3c-0.9-19.1-1.5-25.5-1.9-44.6c-0.8-38.3-0.7-76.7,0.4-115c0.3-10.6,0.6-21.1,1.1-31.7
		c0.2-5.6,0.5-11.2,0.7-16.8c0.2-4,1.8-9.3-1.5-12.3c-3.1-2.8-9.7-1.9-13,0c-1.1,0.6-1.5,1.3-1.6,2.6c-0.1,0.8,0.7,1.5,1.4,1.9
		c0.1,3.5-0.4,7.4-0.6,10.8c-0.2,4.6-0.4,9.2-0.6,13.9c-0.4,9.6-0.7,19.2-1,28.7c-0.5,18.8-0.9,37.7-0.9,56.5
		c-0.2,37.3,0.5,62,2,99.3c0.7,17.8,1.6,34.9-1.7,52.5c-0.8,4.2,13.2,4.4,14.7,0.9c0.4-1,0.9-2,1.3-3c0.4-0.8,0.2-1.5-0.3-2.1
		C108.9,378.9,108.7,365.4,108.1,351.3z"/>
	<path class="st4" d="M385.8,115.5c-127.5,2.2-107.2-6.3-234.6-4.4c-36.3,0.5-72.5,1.9-108.7,4.6c-3.5,0.3-6.2,3.2-7.3,6.4
		c-0.7,1.8-1.4,7.6,2.2,7.3c127.2-9.4,107.1-2.5,234.4-0.4c36.3,0.6,72.6,0.8,109,0.2C386.4,129.2,392.1,115.4,385.8,115.5z"/>
</g>
<g id="Layer_1">
</g>
<g id="Layer_6">
	<g>
		<g>
			<g>
				<path class="st10" d="M139.5,424.5c-1,6-1.2,12.2-1.6,18.3c-0.2,2.4,3.7,2.5,3.8,0c0.4-5.9,1-12,0.7-17.9
					C142.3,423.3,139.8,422.8,139.5,424.5L139.5,424.5z"/>
			</g>
		</g>
		<g>
			<g>
				<path class="st10" d="M140.8,425c0.7,5.1,2.6,11.4,5.1,15.9c1,1.8,3.8,0.6,3.3-1.4c-0.7-2.8-2.1-5.4-3.1-8.1
					c-0.9-2.5-1.7-5.1-2.8-7.5C142.6,422.4,140.6,423.6,140.8,425L140.8,425z"/>
			</g>
		</g>
		<g>
			<g>
				<path class="st10" d="M148.7,441.9c2.8-4.9,3.7-10.5,6.3-15.5c-1,0-2.1,0-3.1,0c1,1.8,0.1,6.2,0,8.1c-0.1,2.9-0.1,5.8-0.2,8.8
					c-0.1,2.4,3.8,2.5,3.8,0c0-3.6,0-7.2,0.1-10.8c0-2.6,0.6-5.5-0.6-7.9c-0.6-1.2-2.4-1.1-3.1,0c-2.8,5.1-3.6,10.9-5.7,16.3
					C145.6,442.3,147.9,443.3,148.7,441.9L148.7,441.9z"/>
			</g>
		</g>
		<g>
			<g>
				<path class="st10" d="M160.4,442.7c2.1-5.5,4.4-10.9,6.3-16.5c-1.2,0-2.3,0-3.5,0c1.1,5.6,2.6,11.1,4.5,16.4
					c0.8,2.3,4.1,1.4,3.7-1c-0.4-2.5-1.7-5.1-2.5-7.5c-0.9-2.9-1.6-5.9-2.2-8.8c-0.4-1.8-3-1.7-3.5,0c-1.6,5.6-3,11.3-4.9,16.9
					C157.9,443.4,160,443.9,160.4,442.7L160.4,442.7z"/>
			</g>
		</g>
		<g>
			<g>
				<path class="st10" d="M160.8,439.1c1.9,0.6,4,0.5,5.9,0.4c2.8-0.1,2.3-4.3-0.5-3.8c-1.8,0.3-3.6,0.3-5.4,0.6
					C159.3,436.6,159.5,438.7,160.8,439.1L160.8,439.1z"/>
			</g>
		</g>
		<g>
			<g>
				<path class="st10" d="M174.6,425.2c-1.1,2.4-0.8,5.1-0.8,7.7c0,2.9-0.3,5.9,0.3,8.8c0.3,1.8,3.5,1.9,3.8,0
					c0.4-2.9,0.1-5.9,0-8.8c-0.1-2.6,0.2-5.4-1.1-7.7C176.3,424.4,175,424.4,174.6,425.2L174.6,425.2z"/>
			</g>
		</g>
		<g>
			<g>
				<path class="st10" d="M184.8,441.9c0.1-5.7,0.3-11.5,0.8-17.2c-1.3,0.2-2.5,0.3-3.8,0.5c2.1,5.6,4.6,11,7.1,16.5
					c0.9,1.9,3.9,0.9,3.8-1c-0.2-5-0.2-9.9,0.2-14.9c0.2-2.6-3.8-2.6-4,0c-0.4,4.9-0.5,9.9-0.2,14.9c1.3-0.3,2.5-0.7,3.8-1
					c-2.6-5-4.8-10.2-6.9-15.4c-0.8-2-3.7-1.8-3.8,0.5c-0.3,5.7-0.3,11.4,0,17.2C181.8,443.8,184.8,443.9,184.8,441.9L184.8,441.9z"
					/>
			</g>
		</g>
		<g>
			<g>
				<path class="st10" d="M204,425.1c0,5.3,0.2,10.6,0.3,16c0,1.1,0.9,1.9,1.9,1.9c1.8,0.1,3.6,0.2,5.4,0.4c2.6,0.2,2.6-3.9,0-4
					c-1.8-0.1-3.6-0.2-5.4-0.2c0.6,0.6,1.3,1.3,1.9,1.9c-0.5-5.4-0.9-10.9-1.7-16.3C206.3,423.3,204,423.7,204,425.1L204,425.1z"/>
			</g>
		</g>
		<g>
			<g>
				<path class="st10" d="M217.2,442.1c2.3-5.4,4.4-11,6.1-16.6c-1.1,0-2.3,0-3.4,0c1.6,5.3,3,10.7,3.6,16.2
					c0.3,2.8,4.4,2.3,3.8-0.5c-1.1-5.6-2.3-11.2-4.1-16.6c-0.6-1.7-2.8-1.6-3.4,0c-1.9,5.4-3.7,11-5,16.6
					C214.7,442.4,216.6,443.4,217.2,442.1L217.2,442.1z"/>
			</g>
		</g>
		<g>
			<g>
				<path class="st10" d="M217.7,438.3c2,0.2,4,0.1,6-0.2c2.3-0.3,1.4-4.1-1-3.5c-1.6,0.4-3.3,0.7-5,0.8
					C215.8,435.4,215.8,438.2,217.7,438.3L217.7,438.3z"/>
			</g>
		</g>
		<g>
			<g>
				<path class="st10" d="M227.7,425.8c1.3,2.8,3.4,5.4,5.2,7.9c1.6,2.3,5-0.2,3.1-2.4c-2.1-2.4-3.7-5.1-5.9-7.4
					C228.8,422.6,227,424.4,227.7,425.8L227.7,425.8z"/>
			</g>
		</g>
		<g>
			<g>
				<path class="st10" d="M238.5,423.9c-2.1,2.4-4.8,5.2-6.2,8.1c-1.5,3.1-0.8,7.2-0.1,10.5c0.5,2.4,4.1,1.8,4.1-0.6
					c0-3.3-1.2-6.6,0.5-9.7c1.3-2.4,3.1-4.3,3.8-7C241,424,239.4,422.9,238.5,423.9L238.5,423.9z"/>
			</g>
		</g>
		<g>
			<g>
				<path class="st10" d="M254.3,428.6c0-4.1-4.6-6.4-8.1-4.5c-4.5,2.4-5,8.4-4.3,13c0.6,4,4.3,8,8.5,5.7c4.8-2.6,4.5-10.3,4.7-14.9
					c0.1-2.5-3.9-2.5-3.9,0c0,2.1,0,4.2-0.4,6.3c-0.2,1.1-0.6,2.6-1.2,3.5c-1.1,1.6-2.9,1-3.5-0.9c-0.5-1.6-0.4-3.9,0-5.6
					c0.4-1.9,4.1-7,5.6-2.3C252.1,430.3,254.3,430.2,254.3,428.6L254.3,428.6z"/>
			</g>
		</g>
		<g>
			<g>
				<path class="st10" d="M257.8,424.7c-0.5,4.1-1.1,8.9-0.6,13c0.3,2.8,2.5,4.8,5.4,5c8,0.8,7.1-11.9,7-16.9c0-2.7-4.2-2.7-4.1,0
					c0.1,1.8,0.7,14-3.1,12.5c-1.7-0.7-1.2-5.1-1.2-6.5c-0.1-2.4-0.2-4.8-0.5-7.1C260.5,422.8,258.1,422.8,257.8,424.7L257.8,424.7z
					"/>
			</g>
		</g>
		<g>
			<g>
				<path class="st10" d="M273.1,427.2c3,0.7,6.3,1.4,9.4,1.6c2.2,0.1,2.7-3.4,0.5-3.9c-3-0.6-6.4-0.8-9.5-0.9
					C271.7,423.9,271.2,426.7,273.1,427.2L273.1,427.2z"/>
			</g>
		</g>
		<g>
			<g>
				<path class="st10" d="M276.5,426.3c-0.8,5.1-1.4,10.2-1.3,15.4c0,2.9,4.7,2.9,4.5,0c-0.3-5-0.4-9.9,0.1-14.9
					C280,424.8,276.8,424.4,276.5,426.3L276.5,426.3z"/>
			</g>
		</g>
	</g>
	<g>
		<g>
			<g>
				<path class="st10" d="M379.7,428.2c1.2-5.3-7.6-5.8-9.7-2c-1.3,2.3,0.2,4.8,2,6.2c1.4,1.1,3.3,1.6,4.6,2.9c1.1,1,2,3.2-0.4,3.8
					c-1.5,0.4-2.6-1.4-3-2.5c-0.6-1.7-3.5-1.6-3.4,0.5c0.2,5.7,8,8,10.9,2.8c1.2-2.2,0.7-4.8-1-6.6c-1.1-1.2-2.6-1.9-3.9-2.7
					c-1-0.6-3.6-1.5-1.6-3.2c0.8-0.6,2.4,0,2.7,0.9C377.3,429.5,379.4,429.6,379.7,428.2L379.7,428.2z"/>
			</g>
		</g>
		<g>
			<g>
				<path class="st10" d="M392,424c-2.3-0.3-6.6-1.5-8.3,0.7c-1.7,2.2-0.5,6.6-0.4,9.2c0.1,2.2,0.2,4.3,0.4,6.5c0.1,1,0,2.1,0.6,2.9
					c1.6,2.1,6.2,0.6,8.2,0.1c2.6-0.6,1.5-4.6-1.1-4c-1.4,0.4-3.5,1-4.9,0.6c0.5,0.5,1,1,1.4,1.4c-0.9-3.1-0.5-7-0.8-10.2
					c-0.1-0.9-0.1-1.7-0.2-2.6c-0.5-1-0.3-1.5,0.6-1.5c0.8-0.5,3.5-0.2,4.4-0.3C393.9,426.7,393.9,424.2,392,424L392,424z"/>
			</g>
		</g>
		<g>
			<g>
				<path class="st10" d="M385.8,435.1c1.5,0,3.1,0,4.6,0.1c2.4,0.2,2.4-3.9,0-3.7c-1.5,0.1-3.1,0.1-4.6,0.1
					C383.6,431.7,383.6,435,385.8,435.1L385.8,435.1z"/>
			</g>
		</g>
		<g>
			<g>
				<path class="st10" d="M399.5,441c1.1-4.7,2.3-9.3,3.7-14c-1.2,0.2-2.4,0.3-3.5,0.5c1.1,2.4,2,4.9,2.7,7.5
					c0.6,2.4,0.8,4.9,1.6,7.2c0.8,2.5,4.8,1.4,3.9-1.1c-1-2.6-1.2-5.5-2-8.2c-0.7-2.6-1.8-5-2.9-7.4c-0.8-1.5-3.1-1.1-3.5,0.5
					c-1.3,4.6-2.5,9.3-3.3,14.1C395.8,442.2,399,443.1,399.5,441L399.5,441z"/>
			</g>
		</g>
		<g>
			<g>
				<path class="st10" d="M399.2,438.1c1.1,0,2.3,0,3.4,0c1,0,1.8-0.8,1.8-1.8c0-0.9-0.8-1.9-1.8-1.8c-1.3,0.2-2.6,0.3-3.9,0.5
					c-0.7,0.1-1.2,1-1.1,1.7C397.8,437.6,398.4,438.1,399.2,438.1L399.2,438.1z"/>
			</g>
		</g>
		<g>
			<g>
				<path class="st10" d="M410.4,425.8c-0.1,5.1,0.1,10.2-0.3,15.3c0.2-0.5,0.4-1,0.6-1.5c0,0-0.1,0.1-0.1,0.1c-2,2,1.2,5.1,3.1,3.1
					c1.5-1.6,0.9-5.5,0.9-7.5c0-3.3-0.2-6.7-0.9-9.9C413.4,423.4,410.5,423.9,410.4,425.8L410.4,425.8z"/>
			</g>
		</g>
		<g>
			<g>
				<path class="st10" d="M413,426.4c1.3,0.6,4.6,1.2,5.2,2.7c0.9,2.1-2.9,2.5-4.1,2.5c-2.8,0.1-2.8,4.5,0,4.4
					c3.7-0.2,8.3-1.8,8.3-6.4c0-4.2-4.9-5.4-8.2-6.1C412.6,423,411.3,425.6,413,426.4L413,426.4z"/>
			</g>
		</g>
		<g>
			<g>
				<path class="st10" d="M415.5,434.5c0.7,1.4,1.5,2.7,2.1,4.1c0.5,1.4,0.7,2.9,1.3,4.3c0.8,1.8,4,1,3.8-1
					c-0.2-1.7-1.1-3.4-1.9-4.9c-0.8-1.5-1.8-3-2.9-4.3C416.6,431.5,414.8,433,415.5,434.5L415.5,434.5z"/>
			</g>
		</g>
		<g>
			<g>
				<path class="st10" d="M435.6,429c0.2-3.1-2.5-5.8-5.7-5.1c-3.9,0.8-4.7,5.6-4.6,8.9c0.1,3.5,1,8.1,4.6,9.7
					c3.5,1.6,6.2-0.6,7.9-3.5c1.3-2.2-2-4.1-3.4-2c-1,1.6-2.3,3.1-3.9,0.9c-0.8-1.1-1-2.7-1.2-3.9c-0.2-1.3-0.3-2.7,0-4
					c0.5-2.2,2.7-3.5,3.2-0.6C432.9,431.2,435.5,430.7,435.6,429L435.6,429z"/>
			</g>
		</g>
		<g>
			<g>
				<path class="st10" d="M440.6,425.8c-0.5,4.8-0.4,9.6-0.5,14.5c-0.1,2.7,4.2,2.7,4.2,0c-0.1-4.8-0.1-9.7-0.6-14.5
					C443.5,423.8,440.8,423.8,440.6,425.8L440.6,425.8z"/>
			</g>
		</g>
		<g>
			<g>
				<path class="st10" d="M443,435.4c2-0.1,3.9-0.3,5.9,0c1.2,0.2,2.4-0.4,2.6-1.7c0.2-1.1-0.8-2.5-2.1-2.4
					c-2.3,0.3-4.7,0.5-6.8,1.2C441.1,433,441.3,435.5,443,435.4L443,435.4z"/>
			</g>
		</g>
		<g>
			<g>
				<path class="st10" d="M449.6,426c-1.1,2.1-0.9,4.6-1.1,6.9c-0.2,2.8-0.4,5.7-0.4,8.5c0,2.8,4.2,2.8,4.4,0
					c0.2-2.8,0.1-5.7,0.2-8.5c0-2.4,0.3-4.7-0.6-6.9C451.6,425.1,450,425.2,449.6,426L449.6,426z"/>
			</g>
		</g>
		<g>
			<g>
				<path class="st10" d="M465.3,424.6C465.3,424.6,465.3,424.6,465.3,424.6c-0.3,0.6-0.6,1.3-0.9,1.9c0,0,0.1,0,0.1,0
					c-0.6-0.5-1.2-0.9-1.8-1.4c-0.7,5.3-0.7,10.6-0.2,16c0.1,1.1,0.8,2,2,2c1.9,0.1,3.8,0,5.7-0.2c3-0.4,2.5-4.8-0.6-4.2
					c-1.7,0.4-3.4,0.4-5.1,0.3c0.7,0.7,1.3,1.3,2,2c-0.3-3.4-0.5-6.8-0.6-10.2c0-1.8,0.8-5.5-0.8-6.8c-1-0.8-2.4-0.3-2.5,1
					c0,0,0,0.1,0,0.1c0,0.8,0.6,1.3,1.4,1.4c0,0,0.1,0,0.1,0C465.3,426.6,465.7,425.5,465.3,424.6L465.3,424.6z"/>
			</g>
		</g>
		<g>
			<g>
				<path class="st10" d="M476.3,442.7c1.6-5.6,3-11.1,4.8-16.6c-1.2,0.2-2.3,0.3-3.5,0.5c2.2,4.8,4,9.9,5.4,15
					c0.7,2.7,5,1.4,4.1-1.1c-2-5.3-3.7-10.7-6.1-15.8c-0.7-1.6-3.1-1-3.5,0.5c-1.8,5.6-3.3,11.4-4.1,17.2
					C473.1,444.1,475.8,444.3,476.3,442.7L476.3,442.7z"/>
			</g>
		</g>
		<g>
			<g>
				<path class="st10" d="M476.8,438.1c0.7,0.7,1.5,0.6,2.4,0.6c0.8,0,1.6-0.1,2.4-0.1c1.1,0,2-1,1.9-2.2c-0.1-1.1-1.3-1.9-2.4-1.6
					c-0.8,0.2-1.5,0.4-2.3,0.6c-0.9,0.2-1.6,0.3-2.2,1.1C476.3,437,476.4,437.7,476.8,438.1L476.8,438.1z"/>
			</g>
		</g>
		<g>
			<g>
				<path class="st10" d="M486,426.1c0.8,1.7,1.7,3.4,2.5,5.1c0.6,1.4,1.4,3.6,2.6,4.5c1,0.8,2.5,0.9,3.2-0.4c0,0,0-0.1,0-0.1
					c0.6-1,0.2-2.2-0.7-2.8c0,0,0,0-0.1,0c-2.3-1.6-4.5,2.7-1.6,3.8c0,0,0,0,0.1,0c-0.5-0.8-1-1.7-1.4-2.5c0,0,0,0.1,0,0.1
					c1-0.4,2-0.8,3-1.2c-0.5-0.2-1-1.4-1.2-1.8c-0.5-0.8-0.9-1.6-1.3-2.4c-0.8-1.4-1.5-2.9-2.6-4.1
					C487.1,422.8,485.3,424.6,486,426.1L486,426.1z"/>
			</g>
		</g>
		<g>
			<g>
				<path class="st10" d="M497.6,424.1c-2.5,2.4-4.5,5.8-6.3,8.8c-1.6,2.6-0.9,5.4-0.6,8.3c0.2,2.6,4.4,2.6,4.1,0
					c-0.1-1.4-0.3-2.8-0.4-4.1c-0.1-1.7,0.3-2.3,1.2-3.8c1.5-2.5,3.3-5.1,4.1-7.9C500.1,424.1,498.5,423.3,497.6,424.1L497.6,424.1z
					"/>
			</g>
		</g>
		<g>
			<g>
				<path class="st10" d="M512.6,433c0.6-3.7-0.2-9.1-5.1-8.7c-5.1,0.4-6.5,6.6-6.3,10.7c0.2,4,2.2,8.7,6.9,8.6
					c5.9-0.1,5.6-7.6,5.1-11.6c-0.3-2.5-4.3-2.6-4,0c0.2,1.7,1,5.7-0.3,7.1c-1.8,2.2-3.4-1.8-3.6-3.1c-0.3-2-0.3-4.5,0.7-6.3
					c0.7-1.3,1.6-2.3,3.1-0.8c0.8,0.8,0.7,2.6,0.7,3.7C509.8,434.1,512.3,434.6,512.6,433L512.6,433z"/>
			</g>
		</g>
		<g>
			<g>
				<path class="st10" d="M517,424.9c-0.7,4.3-0.6,9.1,0,13.4c0.4,2.7,1.9,5.4,5,5.5c8.2,0.2,7.3-12.9,7.4-18.1c0-2.7-4.2-2.7-4.2,0
					c0,1.6-0.2,16.2-3.9,13.4c-1.3-0.9-1.1-6.1-1.3-7.5c-0.2-2.2-0.2-4.4-0.6-6.6C519.3,423.6,517.2,423.6,517,424.9L517,424.9z"/>
			</g>
		</g>
		<g>
			<g>
				<path class="st10" d="M531.5,427.4c3.4,0.2,6.8,1.4,10.2,1.2c3-0.2,2.5-4.6-0.6-4.1c-1.6,0.3-3.2-0.1-4.9-0.1
					c-1.6,0-3.2,0.1-4.8,0.3C529.8,424.9,529.8,427.2,531.5,427.4L531.5,427.4z"/>
			</g>
		</g>
		<g>
			<g>
				<path class="st10" d="M536.3,426.4c-1.6,4.3-1.5,9.7-1.7,14.2c-0.2,2.9,4.6,3,4.6,0c-0.1-4.6,0.6-9.7-0.4-14.2
					C538.4,425.1,536.7,425.3,536.3,426.4L536.3,426.4z"/>
			</g>
		</g>
	</g>
	<g>
		<g>
			<path class="st10" d="M37.1,69.3c10.7,0.8,21.6,0.2,32.3,0.2c25.1-0.1,50.2-0.3,75.3-0.4c60.3-0.3,120.5-0.6,180.8-0.2
				c19.2,0.1,38.5,0,57.7,1.2c2.7,0.2,2.7-4.1,0-4.2c-16.2-1.1-32.6-0.6-48.8-0.7c-27.9-0.1-55.8-0.1-83.7,0
				c-58,0.2-115.9,0.4-173.9,0.9c-13.2,0.1-26.6,1-39.8,0.6C35.5,66.7,35.5,69.2,37.1,69.3L37.1,69.3z"/>
		</g>
	</g>
	<g>
		<g>
			<path class="st10" d="M60.7,43c-5-3.5-12.5-3.1-16.3,2c-3.2,4.2-1.9,11.2,2.3,14.5c4.5,3.5,12,2.9,15.8-1.3
				c3.3-3.7,4.7-10.6,0.1-13.8c-1.4-1-2.9,1.2-1.8,2.3c2.9,2.9,1.6,7.6-1.3,10.1c-3.1,2.7-9.8,2.2-12.1-1.4c-2.2-3.3-2.1-7.7,1.5-10
				c3.4-2.2,7.3-0.9,10.8,0.1C61.2,45.9,61.9,43.8,60.7,43L60.7,43z"/>
		</g>
	</g>
	<g>
		<g>
			<path class="st10" d="M88.4,41.3c-5.9-2.1-13.3,0-16.4,5.7c-2.8,5.1-0.8,11.6,4.6,13.7c5.2,2.1,12.4,2,15.5-3.4
				c2.5-4.5,2.5-12.2-2.6-15c-1.8-1-3,1.5-1.5,2.6c3.3,2.5,3.5,7.9,1.2,11.3c-2.5,3.7-8.8,3.2-12.3,1.3c-4.3-2.4-3.8-8.1-0.6-11.1
				c3.2-3.1,7.6-2.9,11.7-2.9C89.5,43.6,89.6,41.7,88.4,41.3L88.4,41.3z"/>
		</g>
	</g>
	<g>
		<g>
			<path class="st10" d="M110.4,40.8c-6.4-2.3-10.6,3.8-11.7,9.3c-1.3,6.3,2.5,11.3,8.8,12.4c5.6,1,10.7-2.3,12.8-7.5
				c2.4-6.3-0.6-11.5-6.6-14c-1.9-0.8-3.7,1.8-1.7,2.9c3.6,2,6.5,4,5.6,8.7c-0.8,3.8-3.9,6.9-7.9,6.9c-5,0.1-8.8-3.4-7.8-8.5
				c0.9-4.6,3.3-7.9,8.3-7.6C111.6,43.4,111.7,41.2,110.4,40.8L110.4,40.8z"/>
		</g>
	</g>
	<g>
		<g>
			<path class="st10" d="M140.6,68.4c2.5-3.6,4.6-7.4,6.9-11.1c1.9-3,4-7.8,6.8-10.1c3.7-3,12.7-1.1,17.3-1.3
				c7.8-0.3,15.5-0.2,23.3,0.1c13.2,0.5,26.7-0.6,39.8,1c0.7,0.1,1.5,0.1,2.1,0.3c-1.6-0.5-0.7-0.9-0.5,0.2c0.3,1.7,1.7,3.7,2.5,5.3
				c2.2,4.7,4.8,9.2,6.8,14c1,2.2,4.4,0.3,3.3-1.9c-2.5-5-5.1-9.8-7.5-14.9c-1.3-2.7-1.7-5.5-4.6-6.3c-5.3-1.4-11.5-1.1-16.9-0.9
				c-9,0.3-18-0.1-26.9-0.3c-8.8-0.2-17.5,0.5-26.3,0.6c-4.1,0.1-10.4-1.2-13.9,1.7c-2.8,2.2-4.8,6.7-6.7,9.6
				c-2.6,4.2-5.5,8.4-7.5,12.9C138,68.6,139.7,69.6,140.6,68.4L140.6,68.4z"/>
		</g>
	</g>
	<g>
		<g>
			<path class="st10" d="M166.2,52.2c-2.4-1.9-6.2-1.9-8.3,0.6c-1.9,2.2-1.4,6,0.9,7.8c2.3,1.9,6.3,1.6,8.3-0.6
				c1.7-1.9,2.5-5.6,0-7.3c-1-0.6-1.9,0.8-1.2,1.5c3.2,3.5-3.8,7.8-6.2,4c-1-1.5-1-3.5,0.6-4.6c1.6-1.1,3.5-0.3,5.2,0
				C166.1,53.9,166.9,52.8,166.2,52.2L166.2,52.2z"/>
		</g>
	</g>
	<g>
		<g>
			<path class="st10" d="M37,54.6c0.1-3.3-0.4-6.7,0-10c0.8-6.6,4.8-8.4,10.9-8.8c5.1-0.4,10.3-0.1,15.4-0.1c1,0,2,0,3,0
				c6.2,0,12.4,0,18.6,0c24.2,0,48.4,0.1,72.6,0.1c56.9,0,113.7,0.1,170.6,0.1c11.7,0,23.4-0.4,35,0.1c3.7,0.2,7.3,0.3,11,0.5
				c4.6,0.2,8.4,0.9,9.9,5.8c1.7,5.4,0.6,11.7,0.6,17.3c0,1,0,2,0,2.9c0,5.9,0,11.9,0.1,17.8c0.2,53.8,0.4,107.6,0.6,161.4
				c0.2,42.9,0.5,85.7,0.5,128.6c0,1.9-0.1,3.8-0.1,5.7c-0.2,6,1.5,17.7-5.6,19.9c-6.3,2-14.3,1.1-20.9,1.3c-3.2,0.1-6.4,0-9.6,0.1
				c-21,0.1-42,0.2-63,0.4c-57.6,0.3-115.1,0.7-172.7,1c-12.6,0.1-25.4,0.9-38,0.2c-4-0.2-7.6-0.7-11.7-0.4
				c-7,0.5-16.4,1.5-22.7-2.4c-5.9-3.7-4.2-15.4-4.4-21.4c0-0.8,0-1.5-0.1-2.3c0-4.1,0-8.3,0-12.4c0.1-50.7,0-101.5,0-152.2
				c0-48.3-0.1-96.7-0.1-145C36.9,60,36.9,57.3,37,54.6c0-1.4-2.2-1.4-2.2,0c-0.1,37.9-0.3,75.8-0.5,113.7
				c-0.2,57.7-0.5,115.4-0.6,173c0,12.2-0.3,24.5,0.1,36.7c0.2,5-0.4,11.1,1.7,15.8c2.2,5,7,6.5,12,7.4c6.2,1.2,12.1,0.7,18.4,0.4
				c3.4-0.2,6.7,0.4,10.1,0.5c4.2,0.2,8.5,0,12.7-0.1c54.1-0.3,108.2-0.6,162.4-0.9c26.7-0.2,53.3-0.3,80-0.5
				c7.6,0,15.1-0.1,22.7-0.1c8.6-0.1,17.7,0.7,26-1.1c3.5-0.8,6.6-2.6,8-6.1c1-2.4,0.9-5.2,1-7.8c0.2-4.5,0.5-9,0.5-13.5
				c0-0.8,0-1.6,0-2.4c0-5.8-0.1-11.6-0.1-17.4c-0.1-23.8-0.2-47.7-0.3-71.5c-0.3-59.3-0.5-118.7-0.8-178
				c-0.1-14.2-0.2-28.4-0.2-42.6c0-5.7,0.8-11.7-0.3-17.3c-0.9-4.4-3.2-8.2-7.8-9.2c-5.7-1.2-12.5-0.9-18.3-1c-3.3-0.1-6.6,0-9.9,0
				c-52,0-104.1,0-156.1,0c-43.7,0-87.4,0.2-131.2,0.1c-5.4,0-10.9-0.2-16.3,0.1c-4.6,0.3-9.1,1.1-11.6,5.4
				c-2.8,4.9-1.4,10.9-1.5,16.2C34.7,56.1,36.9,56,37,54.6z"/>
		</g>
	</g>
	<g>
		<g>
			<path class="st10" d="M105.6,130.1c-0.7,13-0.2,26.2-0.3,39.3c-0.1,19.5-0.3,39.1-0.6,58.6c-0.5,42.1-1,84.3-1.2,126.4
				c-0.1,15.4-0.2,30.7,0.2,46.1c0.1,2.2,3.4,2.2,3.4,0c-0.8-32.6-0.1-65.2,0.2-97.8c0.4-42.1,0.8-84.3,0.9-126.4
				c0-15.2,0.9-30.9-0.7-46.1C107.4,128.9,105.6,128.8,105.6,130.1L105.6,130.1z"/>
		</g>
	</g>
	<g>
		<g>
			<path class="st10" d="M386.5,128.9c-19.9-0.9-40.1-0.2-60-0.3c-24-0.1-48-0.3-72-0.6c-49.5-0.5-99.1-1-148.6-1.2
				c-22.9-0.1-45.8-0.1-68.7,0.2c-2.2,0-2.2,3.4,0,3.4c44-0.5,88-0.1,132.1,0.2c49.5,0.4,99.1,0.9,148.6,0.9
				c22.8,0,45.9,0.9,68.7-0.7C387.8,130.7,387.8,128.9,386.5,128.9L386.5,128.9z"/>
		</g>
	</g>
	<path class="st11" d="M362.2,378.5H132.3c-3.3,0-6-2.7-6-6V153.6c0-3.3,2.7-6,6-6h229.9c3.3,0,6,2.7,6,6v218.8
		C368.2,375.8,365.5,378.5,362.2,378.5z"/>
	<g>
		<path class="st0" d="M349.8,107.4c0.2-2.3-0.2-4.5,0-6.8c0.2-2.3,1.1-4.7,3.1-5.8c0.5-0.3,1-0.5,1.6-0.6c1.2-0.3,2.5-0.4,3.7-0.5
			c3.6-0.2,7.1-0.1,10.7-0.1l174.1,0c3.4,0.2,6.9,0.3,10.3,0.5c1.5,0.1,3,0.2,4.3,1c0.9,0.6,1.6,1.6,2,2.6c1,2.5,1,5.2,0.9,7.9
			c0,1.7-0.1,3.4-0.1,5.2l0.9,211.5c-0.1,3.5-0.3,6.9-0.4,10.4c-0.1,1.6-0.2,3.2-1,4.5c-1.6,2.4-5,2.7-7.9,2.8
			c-3.5,0.1-7,0.2-10.5,0.3l-163.8,1.1c-1.9-0.3-3.8-0.5-5.7-0.4c-2,0-4.1,0.3-6.1,0.4c-3.4,0.1-6.9-0.2-10.2-1.1
			c-1.2-0.3-2.4-0.7-3.4-1.5c-2.3-1.8-2.6-5-2.6-7.8c-0.1-2.8-0.2-5.6-0.3-8.3L349.8,107.4z"/>
		<g>
			<path class="st10" d="M350.9,107.4c0.1-2.1-0.2-4.3,0.1-6.5c0.8-5.4,4.7-5.8,9-5.9c3-0.1,6,0,9,0c0.7,0,1.4,0,2.2,0
				c4.2,0,8.4,0,12.6,0c16,0,32.1,0.1,48.1,0.1c33.8,0,67.7,0.1,101.5,0.1c3.1,0,6.1,0,9.2,0c4,0.1,12.3-0.7,15.2,2.2
				c2.6,2.6,1.1,10.2,1.1,13.6c-0.1,7.9,0.1,15.9,0.1,23.8c0.1,35.9,0.3,71.8,0.4,107.7c0.1,26.1,0.4,52.2,0.3,78.3
				c0,0.7,0,1.4,0,2.1c-0.1,4,0.6,12.5-3.3,14.5c-3.5,1.7-9.3,0.8-13.1,1c-2.7,0.1-5.4,0.1-8,0.1c-13.9,0.1-27.7,0.2-41.6,0.3
				c-34.8,0.2-69.5,0.5-104.3,0.7c-3.6,0-7.2,0.2-10.8,0.1c-2.9-0.1-5.8-0.5-8.8-0.3c-4.3,0.3-8.4,0.4-12.7-0.6
				c-6.5-1.5-5.6-8.4-5.8-13.7c-0.2-6.8-0.1-13.7-0.1-20.5c0-34.7,0-69.3-0.1-104c-0.1-29.4-0.1-58.8-0.2-88.3
				C350.9,110.7,350.9,109,350.9,107.4c0-1.4-2.2-1.4-2.2,0c0,23.3-0.3,46.6-0.4,69.9c-0.2,38.2-0.5,76.3-0.6,114.5
				c0,9.8-0.1,19.6-0.1,29.4c0,5.9-1.5,15.7,4.3,19.4c6.4,4.1,14.9,1.8,21.9,2.1c1.7,0.1,3.4,0.4,5.1,0.4
				c31.1,0.5,62.4-0.4,93.5-0.6c17.5-0.1,34.9-0.2,52.4-0.4c4.7,0,9.4-0.1,14.1-0.1c0.8,0,1.6,0,2.4,0c5.2-0.1,12.9,1,17.6-1.8
				c5.4-3.2,4-12.7,4-17.9c0-0.5,0-1,0-1.5c0-3.6,0-7.1-0.1-10.7c-0.1-14.8-0.2-29.6-0.2-44.4c-0.2-38.7-0.4-77.4-0.5-116.1
				c-0.1-11.7-0.1-23.3-0.2-35c0-4.1,0.3-8.2,0.1-12.2c-0.4-6.5-3.3-9.5-9.6-9.8c-3.4-0.2-6.8-0.4-10.2-0.4c-29.4-0.4-58.9,0-88.3,0
				c-28.3,0-56.5,0.2-84.8,0.1c-4.8,0-10.4-0.7-15.1,0.7c-6.6,2-5.4,9.1-5.4,14.5C348.7,108.8,350.9,108.8,350.9,107.4z"/>
		</g>
	</g>
	<g>
		<g>
			<path class="st10" d="M548.3,134.4c-7.6-0.7-15.5-0.2-23.1-0.1c-7.8,0-15.7,0.1-23.5,0c-15.6,0-31.2-0.1-46.7-0.1
				c-31.1-0.1-62.3-0.3-93.4,0.4c-2.2,0.1-2.2,3.4,0,3.4c31.1-0.5,62.2-0.5,93.4-0.5c15.6,0,31.2,0,46.7-0.1
				c7.5-0.1,15.1-0.1,22.6-0.2c7.9-0.1,16.2,0.2,24.1-0.8C549.6,136.1,549.6,134.5,548.3,134.4L548.3,134.4z"/>
		</g>
	</g>
	<g>
		<g>
			<path class="st10" d="M548.3,295.4c-7.6-0.7-15.5-0.2-23.1-0.1c-7.8,0-15.7,0.1-23.5,0c-15.6,0-31.2-0.1-46.7-0.1
				c-31.1-0.1-62.3-0.3-93.4,0.4c-2.2,0.1-2.2,3.4,0,3.4c31.1-0.5,62.2-0.5,93.4-0.5c15.6,0,31.2,0,46.7-0.1
				c7.5-0.1,15.1-0.1,22.6-0.2c7.9-0.1,16.2,0.2,24.1-0.8C549.6,297.2,549.6,295.5,548.3,295.4L548.3,295.4z"/>
		</g>
	</g>
	<g>
		<g>
			<g>
				<path class="st10" d="M377.3,115.6c-1-3.3-6.6-3.8-8.2-0.6c-0.7,1.4,0,2.9,1.2,3.9c0.9,0.8,2,1.1,2.9,2c0.4,0.4,0.9,0.8,1.1,1.3
					c0.5,1.5,0.1,2.2-1.2,2.1c-0.8,0.5-1.4,0.3-1.7-0.6c-1.1-1.6-3.6-0.1-2.6,1.5c1,1.5,2.5,3.1,4.5,2.9c2-0.2,3.3-2.1,3.8-3.9
					c0.5-2-0.4-3.7-1.7-5c-0.8-0.8-1.7-1.2-2.5-1.9c-0.5-0.4-1.1-0.5-0.7-1.3c0.4-0.8,2.6,0.4,2.9,0.9
					C376,117.7,377.6,116.7,377.3,115.6L377.3,115.6z"/>
			</g>
		</g>
		<g>
			<g>
				<path class="st10" d="M387.1,113c-1.9-0.5-6.4-1.3-7,1.3c-0.5,1.9-0.2,4.4-0.3,6.4c-0.1,1.9-0.6,4.2-0.1,6.1
					c0.1,0.5,0.5,0.9,1,1c2,0.4,4.4-0.2,6.5-0.5c2-0.3,1.2-3.6-0.9-3.1c-1.4,0.3-3.4,1-4.8,0.7c0.3,0.3,0.7,0.7,1,1
					c-0.5-1.7,0-4,0.1-5.7c0.1-1.6-0.3-4,0.2-5.5c-0.3,0.3-0.7,0.7-1,1c1.6-0.4,3.5-0.1,5.1-0.3C388.3,115.2,388.2,113.3,387.1,113
					L387.1,113z"/>
			</g>
		</g>
		<g>
			<g>
				<path class="st10" d="M381.3,122.2c1.3,0.2,2.9,0.4,4.1,0c1.4-0.5,1.2-2.6-0.4-2.7c-0.7,0-1.3,0.2-2,0.3
					c-0.6,0.1-1.2,0.2-1.8,0.3C380.2,120.2,380.2,122,381.3,122.2L381.3,122.2z"/>
			</g>
		</g>
		<g>
			<g>
				<path class="st10" d="M391.5,127.5c2-4.1,2.8-9.1,3.7-13.6c-0.8,0.1-1.5,0.2-2.3,0.3c2,3.9,3.4,8.4,3.6,12.8
					c0.1,2.1,3.2,1.7,2.8-0.4c-0.8-4.8-2-9.3-4.2-13.7c-0.5-1-2.1-0.8-2.3,0.3c-0.9,4.5-2.4,9.2-2.9,13.8
					C389.8,127.9,391.2,128.2,391.5,127.5L391.5,127.5z"/>
			</g>
		</g>
		<g>
			<g>
				<path class="st10" d="M392.2,124.2c1.2,0,2.5-0.3,3.7-0.5c0.8-0.1,1.5-0.7,1.4-1.6c-0.1-0.9-0.9-1.4-1.8-1.2
					c-1.3,0.3-2.7,0.6-3.9,1.1C390.5,122.5,391.1,124.2,392.2,124.2L392.2,124.2z"/>
			</g>
		</g>
		<g>
			<g>
				<path class="st10" d="M403,115c0.1-0.2,0.1-0.4,0.2-0.6c-0.6-0.1-1.3-0.2-1.9-0.3c-0.2,2,0.2,4.2,0.3,6.2
					c0.1,2.1,0.1,4.2,0.3,6.3c0.2,1.8,2.7,1.8,2.8,0c0.1-3.9-0.1-9-1.4-12.7c-0.5-1.3-2.4-0.6-1.8,0.8c0.1,0.2,0.2,0.4,0.2,0.5
					C401.9,115.8,402.8,115.5,403,115L403,115z"/>
			</g>
		</g>
		<g>
			<g>
				<path class="st10" d="M403,116.1c0.7-0.6,1.5-0.7,2.4-0.5c0.5,0.2,1.7,0.6,1.8,1.3c0.2,1.6-3,1.5-3.8,1.6
					c-1.8,0.4-1.2,2.8,0.4,2.9c3,0.3,7.4-2.1,6-5.7c-1.2-3-5.9-3.6-8.1-1.5C400.8,115.3,402,116.9,403,116.1L403,116.1z"/>
			</g>
		</g>
		<g>
			<g>
				<path class="st10" d="M405.2,120.9c0,0,0.1,0,0.1,0c-0.2-0.1-0.4-0.3-0.6-0.4c0.9,1.9,1.8,4.1,2.4,6.1c0.6,2.1,4,0.7,2.8-1.2
					c-0.8-1.4-1.5-2.8-2.4-4.2c-0.5-0.8-1.1-2.3-2.3-2C404.4,119.4,404.4,120.6,405.2,120.9L405.2,120.9z"/>
			</g>
		</g>
		<g>
			<g>
				<path class="st10" d="M420.5,116.8c-0.1-2.4-1.6-4.6-4.3-4c-3.1,0.7-3.7,4.3-3.7,6.9c0,2.4,0.2,6.5,3,7.4c2.9,1,5-1.7,6.1-4
					c0.8-1.7-1.8-3.3-2.6-1.5c-0.2,0.5-0.4,1-0.8,1.5c-0.5,0.8-0.7,1.1-1.7,0.8c-1.3-0.5-1.3-2.6-1.3-3.9c0-1.2-0.1-2.9,0.6-3.9
					c1.3-1.8,2.1-0.1,2.7,1.1C419,118.3,420.5,117.8,420.5,116.8L420.5,116.8z"/>
			</g>
		</g>
		<g>
			<g>
				<path class="st10" d="M424,113.5c-0.3,4.3-0.2,8.6-0.2,12.9c0,1.9,3.1,1.9,3,0c-0.1-4.4-0.2-8.8-0.9-13.1
					C425.7,112.1,424,112.5,424,113.5L424,113.5z"/>
			</g>
		</g>
		<g>
			<g>
				<path class="st10" d="M425,120.6c1.6,0.5,3.3,0.5,5,0.7c2,0.3,2-3.4-0.4-3c-1.4,0.3-2.9,0.1-4.3,0.2
					C424.1,118.6,423.9,120.2,425,120.6L425,120.6z"/>
			</g>
		</g>
		<g>
			<g>
				<path class="st10" d="M430.3,113.5c-0.4,4.1-0.6,8.5-0.2,12.6c0.2,2,3,2,3.2,0c0.3-4.2-0.1-8.8-0.9-12.9
					C432.1,112,430.4,112.5,430.3,113.5L430.3,113.5z"/>
			</g>
		</g>
		<g>
			<g>
				<path class="st10" d="M439.8,113.3c0.6,4.6,1.3,9.4,2.6,13.9c0.4,1.2,2,1.4,2.6,0.3c2.3-4,2.8-9.2,3.6-13.7c-0.9,0-1.8,0-2.7,0
					c1.5,4.1,2,8.4,3.7,12.4c0.6,1.3,2.5,0.8,2.9-0.4c1.1-3.9,2.2-7.8,3.2-11.8c0.5-1.9-2.5-2.8-3-0.8c-1.1,3.9-2.2,7.8-3.3,11.8
					c1-0.1,1.9-0.3,2.9-0.4c-1.9-3.6-2.5-7.7-3.7-11.6c-0.4-1.2-2.4-1.4-2.7,0c-0.8,4.3-1.3,9.1-3.3,13c0.9,0.1,1.8,0.2,2.6,0.3
					c-1.5-4.4-1.9-9-3.1-13.4C441.9,111.7,439.7,111.9,439.8,113.3L439.8,113.3z"/>
			</g>
		</g>
		<g>
			<g>
				<path class="st10" d="M457.4,113.9c-0.2,2-0.2,4-0.3,6c-0.1,2-0.5,4-0.4,6c0,1.6,2.5,2.1,2.9,0.4c0.7-3.8,0.5-8.8-0.4-12.6
					C458.8,112.6,457.5,112.9,457.4,113.9L457.4,113.9z"/>
			</g>
		</g>
		<g>
			<g>
				<path class="st10" d="M462.5,113.7c-0.4,3.9,0.1,8-0.2,12c-0.1,1.9,3,1.9,3,0c0-3.9,0.3-8.5-0.8-12.3
					C464.1,112.3,462.6,112.6,462.5,113.7L462.5,113.7z"/>
			</g>
		</g>
		<g>
			<g>
				<path class="st10" d="M463.8,115.2c5.6-0.4,5.3,9.7,1.1,8.9c-2.1-0.4-3,2.9-0.9,3.3c10.7,1.7,8.1-17.4-0.4-14.2
					C462.6,113.5,462.6,115.3,463.8,115.2L463.8,115.2z"/>
			</g>
		</g>
		<g>
			<g>
				<path class="st10" d="M481.5,115.9c-0.3-2-2.3-4-4.5-3.5c-2.5,0.5-3.4,4.3-3.6,6.4c-0.3,2.6,0.2,6.2,2.8,7.5
					c2.7,1.4,4.9-0.9,6.2-3c1-1.7-1.6-3.2-2.6-1.5c-1,1.6-2.1,2.4-3.1,0.3c-0.4-0.9-0.3-2.2-0.2-3.1c0.1-1,0.4-2.1,0.9-3
					c0.7-1.2,1.7-0.7,2,0.6C479.7,117.9,481.7,117.3,481.5,115.9L481.5,115.9z"/>
			</g>
		</g>
		<g>
			<g>
				<path class="st10" d="M478.6,121.9c0.4,0.1,0.9,0.1,1.3,0.1c0.1,0,1.2,0.1,0.8,0c-0.2-0.2-0.4-0.4-0.5-0.5
					c-0.1-0.3-0.1-0.4-0.1-0.1c0,0.2,0,0.4,0,0.5c0,0.4,0,0.7,0,1.1c0,0.7,0,1.5,0,2.2c0.1,2,3.1,2.1,3.2,0c0-1,0-1.9-0.1-2.9
					c0-0.8,0.1-1.7-0.4-2.4c-0.9-1.3-3.2-0.8-4.5-0.5c-0.6,0.1-1,0.9-0.9,1.4C477.4,121.4,477.9,121.8,478.6,121.9L478.6,121.9z"/>
			</g>
		</g>
		<g>
			<g>
				<path class="st10" d="M491.8,112.5c-2-0.6-4.8-1-6.8-0.4c-0.5,0.1-1,0.5-1.1,1.1c-0.3,1.9,0.3,3.9,0.5,5.8
					c0.2,2.3,0.2,4.5,0.1,6.8c0,0.8,0.7,1.6,1.5,1.5c2-0.1,4-0.4,5.9-0.7c2-0.3,1.2-3.5-0.8-3.1c-1.7,0.4-3.4,0.6-5.1,0.7
					c0.5,0.5,1,1,1.5,1.5c0.1-2.1,0.1-4.2-0.1-6.3c-0.1-1.9-0.8-4-0.6-5.9c-0.4,0.5-0.7,1-1.1,1.5c1.7-0.6,3.9-0.2,5.6-0.2
					C492.8,114.9,493.1,112.9,491.8,112.5L491.8,112.5z"/>
			</g>
		</g>
		<g>
			<g>
				<path class="st10" d="M487,120.9c1.2,0.2,2.4,0,3.6-0.1c0.7-0.1,1.1-1,1-1.7c-0.2-0.6-1-1.2-1.7-1c-1,0.4-1.9,0.5-2.9,0.7
					C486,119,485.9,120.7,487,120.9L487,120.9z"/>
			</g>
		</g>
		<g>
			<g>
				<path class="st10" d="M494.1,114.4c1.4,0.3,2.9,0.4,4.4,0.6c1.2,0.2,2.4,0.7,3.6,0.6c2.3-0.3,1.9-3.7-0.4-3.2
					c-2.3,0.6-4.9-0.1-7.3-0.2C493.2,112.2,492.9,114.1,494.1,114.4L494.1,114.4z"/>
			</g>
		</g>
		<g>
			<g>
				<path class="st10" d="M497.3,113.9c-0.5,3.9-0.4,7.8-0.6,11.7c-0.1,2.1,3.3,2,3.2,0c-0.2-3.9-0.1-7.8-0.7-11.7
					C499.1,112.9,497.4,112.9,497.3,113.9L497.3,113.9z"/>
			</g>
		</g>
		<g>
			<g>
				<path class="st10" d="M512.8,114.6c-2.1-2.5-7.2-3.5-8,0.8c-0.3,1.8,0.9,3,2,4.2c0.6,0.7,2.9,2.6,2.9,3.6c0,1.7-2.5,0.2-3.1-0.4
					c-1.5-1.5-3.8,0.8-2.3,2.3c2.1,2.2,7.2,3.6,8.6-0.2c0.6-1.6,0-3.3-1.1-4.6c-0.8-1.1-1.8-2-2.7-3c-0.2-0.2-1.1-0.9-1.1-1.2
					c-0.2-2.4,2.9-0.3,3.2,0C512.4,117.1,513.8,115.7,512.8,114.6L512.8,114.6z"/>
			</g>
		</g>
	</g>
	<g>
		<g>
			<g>
				<path class="st10" d="M437.1,309.5c0.9,0.8,2.5,0.5,3.6,0.6c1.6,0.1,3.2,0.3,4.7,0c1.9-0.4,1.1-3.5-0.8-2.9
					c-1.1,0.3-2.3,0.3-3.4,0.4c-0.8,0.1-2.4,0.5-3.2,0.3C437.1,307.7,436.3,308.9,437.1,309.5L437.1,309.5z"/>
			</g>
		</g>
		<g>
			<g>
				<g>
					<path class="st10" d="M397.7,309.4c1.8,0.8,3.9,0.4,5.8,0.8c2.1,0.5,2.1-3,0-2.5c-1.8,0.4-3.8-0.2-5.6,0.1
						C397.2,307.9,397,309.1,397.7,309.4L397.7,309.4z"/>
				</g>
			</g>
			<g>
				<g>
					<g>
						<path class="st10" d="M386,308.1c-1.1,3.9-0.2,8.6-0.4,12.6c-0.1,1.8,2.8,1.8,2.9,0c0-3.9,0.5-8.9-0.8-12.6
							C387.3,307.4,386.2,307.3,386,308.1L386,308.1z"/>
					</g>
				</g>
				<g>
					<g>
						<path class="st10" d="M387.7,309.8c0,0,0.1-0.1,0.1-0.1c-0.2,0.1-0.4,0.2-0.7,0.3c1.5,0.1,3.5-0.2,4.3,1.5
							c0.7,1.6-2.6,2-3.6,1.9c-1.9-0.1-1.9,2.8,0,3c3,0.2,8-2,6.2-5.8c-0.7-1.5-2-2.5-3.6-2.8c-1.3-0.2-3.5-0.2-4.3,1
							C385.7,309.6,387,310.5,387.7,309.8L387.7,309.8z"/>
					</g>
				</g>
				<g>
					<g>
						<path class="st10" d="M389.6,315.4c0.9,2.1,1.7,4.2,2.4,6.4c0.6,2,3.6,0.8,2.7-1.1c-1-2-2-4.1-3.3-6
							C390.7,313.9,389.1,314.4,389.6,315.4L389.6,315.4z"/>
					</g>
				</g>
				<g>
					<g>
						<path class="st10" d="M397.5,308.1c-0.8,1.7-0.6,3.7-0.6,5.6c-0.1,2.3-0.1,4.6-0.2,7c0,0.8,0.7,1.4,1.4,1.4c2,0,4,0.1,6-0.3
							c1.6-0.3,1.2-2.8-0.4-2.8c-1.9,0-3.7,0.3-5.6,0.3c0.5,0.5,0.9,0.9,1.4,1.4c0-2.3,0-4.6,0-7c0-1.9,0.2-3.8-0.5-5.6
							C398.8,307.5,397.8,307.6,397.5,308.1L397.5,308.1z"/>
					</g>
				</g>
				<g>
					<g>
						<path class="st10" d="M397.8,314.9c0.3,0.9,1.1,1,1.9,1.1c1,0.1,1.9,0.3,2.8-0.1c1.1-0.5,0.7-2.1-0.3-2.4
							c-0.6-0.2-1.3,0-2,0.1c-0.3,0-0.5,0.1-0.8,0.1c-0.1,0-0.2,0-0.3,0c-0.4,0-0.4,0-0.1,0C398.3,313.5,397.6,314.2,397.8,314.9
							L397.8,314.9z"/>
					</g>
				</g>
				<g>
					<g>
						<path class="st10" d="M414.7,310.7c-0.3-4-5.7-4.9-7.6-1.5c-0.8,1.5-0.7,3.2,0.5,4.3c1,1,2.5,1.3,3.6,2.2
							c0.8,0.7,2.3,2,1.2,3.4c-0.6,0.2-1.1,0.3-1.7,0.5c-0.8-0.2-1.3-0.7-1.6-1.4c-0.9-1.6-3.4-0.1-2.5,1.5c2,3.3,7.2,4.1,8.7-0.1
							c0.6-1.8-0.1-3.8-1.4-5.1c-0.8-0.9-1.9-1.6-3-2.2c-0.5-0.3-1.7-0.8-1.4-1.7c0.5-0.3,1-0.5,1.4-0.8c0.8,0.2,1.5,0.7,1.8,1.4
							C413.3,312,414.7,311.8,414.7,310.7L414.7,310.7z"/>
					</g>
				</g>
				<g>
					<g>
						<path class="st10" d="M418.3,308.2c0,3.1-0.3,6.7,0.4,9.8c0.5,2.1,2.3,3.5,4.4,3.7c5.9,0.5,5-9.6,4.6-13.2
							c-0.2-1.8-3.1-1.9-2.9,0c0.2,1.9,1.1,10.3-1.8,10.3c-2.7,0-2.5-8.7-2.7-10.6C420.1,307,418.2,306.9,418.3,308.2L418.3,308.2z"
							/>
					</g>
				</g>
				<g>
					<g>
						<path class="st10" d="M430.5,308.6c-0.2,2-0.1,4-0.1,6c0,1.7-0.3,3.7,0,5.3c0.5,2.8,4.8,1.7,6.7,1.4c1.9-0.3,1.1-3.3-0.8-2.9
							c-1.1,0.2-2.9,0.6-4,0.1c0.3,0.3,0.7,0.7,1,1c-0.4-1.8-0.2-4-0.3-5.9c-0.1-1.8-0.2-3.6-0.5-5.4
							C432.3,307.1,430.6,307.5,430.5,308.6L430.5,308.6z"/>
					</g>
				</g>
				<g>
					<g>
						<path class="st10" d="M440.4,309.4c-0.2,3.6-0.5,7.9,0.1,11.4c0.2,1.3,2.5,1.3,2.7,0c0.6-3.6-0.1-8.1-1-11.7
							C442,308.1,440.5,308.4,440.4,309.4L440.4,309.4z"/>
					</g>
				</g>
				<g>
					<g>
						<path class="st10" d="M455.7,310.4c-1.1-3-5.6-4.3-7.2-0.9c-0.8,1.6,0,3.5,1.1,4.6c0.8,0.8,1.9,1.3,2.7,2.1
							c0.6,0.6,1.6,2.1,0.6,2.9c-1,0.8-2.4-0.7-2.9-1.3c-1.2-1.5-3.2,0.6-2.1,2.1c2.3,2.8,7,3.9,8.3-0.5c0.5-1.7-0.1-3.6-1.4-4.9
							c-0.8-0.8-1.8-1.2-2.6-1.9c-0.3-0.3-0.7-0.7-1-1c0.2-0.4,0.4-0.9,0.7-1.3c0.8-0.4,2,0.4,2.5,1
							C454.9,311.8,455.9,311.2,455.7,310.4L455.7,310.4z"/>
					</g>
				</g>
			</g>
		</g>
		<g>
			<g>
				<path class="st10" d="M370.6,310.9c0.8-1,3.1-1.2,3.2,0.5c0.1,0.9-0.5,1-1.3,1.2c-1.5,0.4-1.5,2.6,0,3c4,1,0.1,4.7-1.4,2.5
					c-1.4-2.1-4.4,0.5-2.7,2.1c2.5,2.2,6.4,2.5,8.3-0.7c1.8-3.1-0.4-6.1-3.5-6.9c0,1,0,2,0,3c3.3-0.8,4.7-3.7,2.5-6.6
					c-1.9-2.6-5.9-2.4-7.3,0.7C368,311.1,369.7,312,370.6,310.9L370.6,310.9z"/>
			</g>
		</g>
	</g>
	<path class="st11" d="M533.1,272.7H376.3c-3.3,0-6-2.7-6-6V162.5c0-3.3,2.7-6,6-6h156.9c3.3,0,6,2.7,6,6v104.2
		C539.1,270,536.4,272.7,533.1,272.7z"/>
	<g>
		<path class="st0" d="M531.6,65.9c0.2-1.4-0.2-2.9,0-4.3c0.2-1.4,1.2-3,3.5-3.7c0.6-0.2,1.2-0.3,1.8-0.4c1.3-0.2,2.8-0.3,4.1-0.3
			c4-0.1,7.9-0.1,11.9-0.1l193.8,0c3.8,0.1,7.6,0.2,11.4,0.3c1.6,0,3.4,0.1,4.7,0.6c1.1,0.4,1.8,1,2.3,1.7c1.2,1.6,1.1,3.3,1.1,5
			c0,1.1-0.1,2.2-0.1,3.3l1,135.3c-0.2,2.2-0.3,4.4-0.5,6.7c-0.1,1-0.2,2-1.1,2.9c-1.8,1.5-5.6,1.7-8.8,1.8
			c-3.9,0.1-7.8,0.1-11.7,0.2l-182.2,0.7c-2.1-0.2-4.2-0.3-6.3-0.3c-2.3,0-4.5,0.2-6.8,0.2c-3.8,0.1-7.7-0.1-11.3-0.7
			c-1.3-0.2-2.7-0.4-3.8-0.9c-2.5-1.1-2.8-3.2-2.9-5c-0.1-1.8-0.2-3.6-0.3-5.3L531.6,65.9z"/>
		<g>
			<path class="st10" d="M532.7,65.9c0.1-2.5,0.2-5.2,2.6-6.8c1.2-0.8,4.1-0.5,5.6-0.6c4-0.1,7.9,0,11.9,0c0.4,0,0.7,0,1.1,0
				c2.7,0,5.4,0,8.2,0c11.2,0,22.4,0.1,33.6,0.1c32.2,0,64.4,0.1,96.6,0.1c18.1,0,36.2-0.2,54.3,0c3.2,0,6.4,0.2,9.5,0.2
				c1,0,2.7-0.2,3.6,0.1c1.2,0.4,4.6,4,4.8,5c0.3,1.2-0.1,2.8-0.1,4c0,0.6,0,1.1,0,1.7c0,3.7,0,7.4,0.1,11
				c0.1,14.2,0.2,28.3,0.3,42.5c0.2,26.1,0.6,52.2,0.5,78.4c0,0.6,0,1.1,0,1.7c-0.1,3.2,0.2,7.5-3,9.1c-2.9,1.5-8.5,0.6-11.6,0.7
				c-3.1,0.1-6.1,0.1-9.2,0.1c-9.4,0-18.8,0.1-28.2,0.1c-31.6,0.1-63.1,0.2-94.7,0.4c-18.6,0.1-37.4,0.8-56,0.2
				c-7.2-0.2-14.5,0.4-21.6-0.4c-3.1-0.3-4.5-0.2-6.4-2.7c-1.7-2.2-1.6-3.7-1.7-6.3c0-0.4,0-0.8-0.1-1.2c-0.1-2.7,0-5.3,0-8
				c0-13,0-25.9,0-38.9c0-28.4-0.1-56.7-0.1-85.1C532.7,69.4,532.6,67.6,532.7,65.9c0-1.4-2.2-1.4-2.2,0
				c-0.1,23.6-0.4,47.2-0.5,70.8c-0.1,15.8-0.2,31.6-0.4,47.3c-0.1,8.3-0.8,17.1,0.2,25.4c0.6,4.8,3.8,6.4,8.3,7.1
				c7.6,1.2,15.2,0.2,22.9,0.6c2,0.1,4,0.1,6,0.1c10.5,0,21-0.1,31.5-0.1c33.3-0.1,66.6-0.2,99.8-0.4c12.3-0.1,24.6-0.1,37-0.2
				c2.9,0,5.7,0,8.6,0c1.3,0,2.6,0,3.9-0.1c5.2-0.1,13.4,1.2,18-1.9c5-3.5,2.8-20.2,2.8-25.9c-0.1-15.2-0.3-30.3-0.4-45.5
				c-0.2-25-0.9-50-0.6-75c0-3.4,0.8-7.3-1.8-10c-4-4-13-2.4-18.1-2.5c-1.8,0-3.5,0-5.3,0c-10.1,0-20.2,0-30.3,0
				c-33.2,0-66.5,0-99.7,0c-19.8,0-39.5,0.1-59.3,0.1c-5.6,0-12.8-1.1-18.2,0.9c-4.6,1.7-4.2,5.1-4.2,9.3
				C530.5,67.3,532.7,67.3,532.7,65.9z"/>
		</g>
	</g>
	<g>
		<g>
			<path class="st10" d="M630.2,77.2c-2.4-0.6-5.3-0.1-7.7-0.1c-4,0-8-0.1-12-0.2c-6.6-0.1-13.4-0.6-19.9,0.5
				c-1.8,0.3-1.4,3.5,0.4,3.3c6.8-0.9,13.9-0.5,20.7-0.5c3.8,0,7.5,0,11.3-0.2c2.3-0.1,5.4,0.1,7.4-1.1
				C631.1,78.6,631,77.5,630.2,77.2L630.2,77.2z"/>
		</g>
	</g>
	<g>
		<g>
			<path class="st10" d="M747.1,88.1c-7.6-0.7-15.6-0.1-23.3-0.1c-11.1,0-22.3,0-33.4-0.1c-24-0.1-48.1-0.2-72.1-0.1
				c-9.1,0-18.2,0.1-27.3,0.5c-2.2,0.1-2.2,3.4,0,3.4c43-1.5,86.2-0.2,129.3-0.7c8.8-0.1,18.3,0.6,27.1-1
				C748.5,89.8,748.1,88.2,747.1,88.1L747.1,88.1z"/>
		</g>
	</g>
	<g>
		<g>
			<path class="st10" d="M747.1,98.2c-7.6-0.7-15.6-0.1-23.3-0.1c-11.1,0-22.3,0-33.4-0.1c-24-0.1-48.1-0.2-72.1-0.1
				c-9.1,0-18.2,0.1-27.3,0.5c-2.2,0.1-2.2,3.4,0,3.4c43-1.5,86.2-0.2,129.3-0.7c8.8-0.1,18.3,0.6,27.1-1
				C748.5,99.9,748.1,98.3,747.1,98.2L747.1,98.2z"/>
		</g>
	</g>
	<g>
		<g>
			<path class="st10" d="M630.2,124.5c-2.4-0.6-5.3-0.1-7.7-0.1c-4,0-8-0.1-12-0.2c-6.6-0.1-13.4-0.6-19.9,0.5
				c-1.8,0.3-1.4,3.5,0.4,3.3c6.8-0.9,13.9-0.5,20.7-0.5c3.8,0,7.5,0,11.3-0.2c2.3-0.1,5.4,0.1,7.4-1.1
				C631.1,125.8,631,124.7,630.2,124.5L630.2,124.5z"/>
		</g>
	</g>
	<g>
		<g>
			<path class="st10" d="M747.1,135.3c-7.6-0.7-15.6-0.1-23.3-0.1c-11.1,0-22.3,0-33.4-0.1c-24-0.1-48.1-0.2-72.1-0.1
				c-9.1,0-18.2,0.1-27.3,0.5c-2.2,0.1-2.2,3.4,0,3.4c43-1.5,86.2-0.2,129.3-0.7c8.8-0.1,18.3,0.6,27.1-1
				C748.5,137,748.1,135.4,747.1,135.3L747.1,135.3z"/>
		</g>
	</g>
	<g>
		<g>
			<path class="st10" d="M747.1,145.4c-7.6-0.7-15.6-0.1-23.3-0.1c-11.1,0-22.3,0-33.4-0.1c-24-0.1-48.1-0.2-72.1-0.1
				c-9.1,0-18.2,0.1-27.3,0.5c-2.2,0.1-2.2,3.4,0,3.4c43-1.5,86.2-0.2,129.3-0.7c8.8-0.1,18.3,0.6,27.1-1
				C748.5,147.1,748.1,145.5,747.1,145.4L747.1,145.4z"/>
		</g>
	</g>
	<g>
		<g>
			<path class="st10" d="M630.2,170.8c-2.4-0.6-5.3-0.1-7.7-0.1c-4,0-8-0.1-12-0.2c-6.6-0.1-13.4-0.6-19.9,0.5
				c-1.8,0.3-1.4,3.5,0.4,3.3c6.8-0.9,13.9-0.5,20.7-0.5c3.8,0,7.5,0,11.3-0.2c2.3-0.1,5.4,0.1,7.4-1.1
				C631.1,172.1,631,171,630.2,170.8L630.2,170.8z"/>
		</g>
	</g>
	<g>
		<g>
			<path class="st10" d="M747.1,181.6c-7.6-0.7-15.6-0.1-23.3-0.1c-11.1,0-22.3,0-33.4-0.1c-24-0.1-48.1-0.2-72.1-0.1
				c-9.1,0-18.2,0.1-27.3,0.5c-2.2,0.1-2.2,3.4,0,3.4c43-1.5,86.2-0.2,129.3-0.7c8.8-0.1,18.3,0.6,27.1-1
				C748.5,183.3,748.1,181.7,747.1,181.6L747.1,181.6z"/>
		</g>
	</g>
	<g>
		<g>
			<path class="st10" d="M747.1,191.7c-7.6-0.7-15.6-0.1-23.3-0.1c-11.1,0-22.3,0-33.4-0.1c-24-0.1-48.1-0.2-72.1-0.1
				c-9.1,0-18.2,0.1-27.3,0.5c-2.2,0.1-2.2,3.4,0,3.4c43-1.5,86.2-0.2,129.3-0.7c8.8-0.1,18.3,0.6,27.1-1
				C748.5,193.4,748.1,191.8,747.1,191.7L747.1,191.7z"/>
		</g>
	</g>
	<g>
		<g>
			<path class="st10" d="M603.2,220.3c-3.1,8.9-11.6,14.1-19.8,17.8c-9.2,4.1-19,7-29,8.5c-19.8,3-40,0.8-58.6-6.4
				c-1.8-0.7-3.3,1.6-2.4,3.1c2,3.2,3.9,6.3,5.9,9.5c1.1-0.9,2.2-1.7,3.4-2.6c-2.8-3.4-5.1-6.9-7.2-10.8c-0.4,1.1-0.9,2.1-1.3,3.2
				c4.7-1,9.4-2.1,14.1-3.1c2.7-0.6,1.6-4.8-1.2-4.2c-4.7,1-9.4,2.1-14.1,3.1c-1.4,0.3-1.9,2-1.3,3.2c2.2,4.2,4.8,8.1,7.9,11.7
				c1.6,1.9,4.7-0.6,3.4-2.6c-2-3.2-4-6.3-5.9-9.5c-0.8,1-1.6,2.1-2.4,3.1c20.4,7.7,42.8,9.7,64.2,5.6c16.8-3.2,41.8-10.3,47.6-28.8
				C607,219.2,603.9,218.3,603.2,220.3L603.2,220.3z"/>
		</g>
	</g>
	<g>
		<g>
			<path class="st10" d="M349,175.5c-8.5,0-17.8,3.5-25.6,6.5c-8.5,3.3-16.7,7.4-24.4,12.4c-15.3,9.8-28.1,22.7-38.4,37.6
				c-1.4,2.1,2,4.1,3.4,2c9.6-14.8,22.6-27.4,37.4-36.9c7.2-4.7,14.8-8.7,22.8-11.8c8.2-3.3,16.8-4.6,25-7.5
				C350.4,177.2,350.3,175.5,349,175.5L349,175.5z"/>
		</g>
	</g>
	<path class="st4" d="M575.6,81.3c0.3-4.1,0.5-10.4-4-12.5c-1.9-0.9-3.8,0-5.2,1.3c-0.4,0.3-0.7,0.6-1,1c-1-5.3-6.7-1.3-9.2,2.2
		c0-0.5,0-1.1,0-1.6c0-0.5,0-1,0-1.5c-1-7.7-8.2-1.9-10.3,3.4c-0.8,1.8-1.2,4.2-0.5,5.9c0.1,5.7,0.2,11.3,0.4,17
		c0.1,4.7,0.3,9.6,4.6,12.5c2.7,1.8,6-1.8,7.4-3.9c1,1.4,2.4,2.4,4.7,2.8c0.8,0.1,1.6,0,2.4-0.4c0.1,0.4,0.2,0.7,0.3,1.1
		c0.9,3.5,4.7,2.4,6.7,0.7c2.6-2.1,4.6-6.3,3.7-9.7C573.9,93.6,575.1,87.4,575.6,81.3z"/>
	<g>
		<g>
			<path class="st10" d="M260.6,224.7c0.1,0,0.2-0.1,0.3-0.1c-0.4-0.2-0.9-0.4-1.3-0.5c0.7,1.2-0.4,4.6-0.5,5.9
				c-0.3,2.3-0.6,4.6-0.9,6.8c-0.2,1.6,1.2,3.1,2.8,2.2c3.8-2.2,7.4-4.6,11.2-6.8c2.3-1.3,0.2-4.8-2.1-3.5c-3.8,2.2-7.6,4.4-11.1,7
				c1,0.6,1.9,1.1,2.9,1.7c0.2-4,0.7-8.1,0.6-12.1c0-1.4-0.8-3.5-2.6-2.8C258.7,223.1,259.1,225.1,260.6,224.7L260.6,224.7z"/>
		</g>
	</g>
	<g>
		<g>
			<g>
				<path class="st10" d="M591.2,425.6c1.1,5,3.1,9.9,3.5,15.1c0.2,3,4.8,2,3.9-0.5c-2-5.1-3-10.5-5.2-15.4
					C592.8,423.4,591,424.3,591.2,425.6L591.2,425.6z"/>
			</g>
		</g>
		<g>
			<g>
				<path class="st10" d="M599.1,425c-1.3,4.9-2.8,9.7-4.4,14.6c-0.9,2.7,3.6,4,4.3,1.2c1.2-4.9,2.2-9.9,3-14.9
					C602.3,423.9,599.6,423.1,599.1,425L599.1,425z"/>
			</g>
		</g>
		<g>
			<g>
				<path class="st10" d="M600.2,425.6c0,2.4,0.9,4.8,1.6,7.2c0.7,2.6,1.4,5.2,2.1,7.8c0.7,2.6,4.8,1.4,4-1.1
					c-0.8-2.6-1.7-5.1-2.6-7.6c-0.8-2.3-1.3-4.8-2.7-6.8C601.9,423.9,600.2,424.3,600.2,425.6L600.2,425.6z"/>
			</g>
		</g>
		<g>
			<g>
				<path class="st10" d="M608.3,424c-1.8,5.3-3.1,10.9-4.4,16.4c-0.7,2.7,3.6,3.9,4.2,1.2c1.2-5.5,2.6-11.1,3.4-16.7
					C611.7,422.9,609,422,608.3,424L608.3,424z"/>
			</g>
		</g>
		<g>
			<g>
				<path class="st10" d="M614.5,425c-1.1,2.3-0.7,4.8-0.6,7.4c0.1,3.1,0.3,6.1,0.3,9.2c0.1,3,4.6,2.5,4.1-0.6
					c-0.4-3.1-0.6-6.2-0.8-9.3c-0.2-2.3,0.1-4.6-1-6.8C616.2,424.2,614.8,424.2,614.5,425L614.5,425z"/>
			</g>
		</g>
		<g>
			<g>
				<path class="st10" d="M620.7,426c-0.1,5.1,0,10.1-0.1,15.2c-0.1,2.8,4.5,2.7,4.3,0c-0.3-5.2-0.7-10.4-1.4-15.6
					C623.2,424,620.8,424.5,620.7,426L620.7,426z"/>
			</g>
		</g>
		<g>
			<g>
				<path class="st10" d="M622.4,427.8c6.8-0.5,6.4,11.7,2.2,11.5c-3-0.2-3,4.6,0,4.6c5.6,0.1,7.6-7.1,7-11.7
					c-0.7-4.4-5-10.1-9.8-6.9C620.6,426,620.9,427.9,622.4,427.8L622.4,427.8z"/>
			</g>
		</g>
		<g>
			<g>
				<path class="st10" d="M646.1,428.2c-1-2.5-3.6-4-6.3-3.1c-3.2,1-4.7,4.2-4.9,7.3c-0.2,3.1,0.5,7.8,3,9.9
					c2.8,2.4,5.5,0.3,7.2-2.2c1.4-2.2-2-4.1-3.4-2c-1.9,2.9-2.7-3-2.8-4.4c-0.1-1.9,1.9-8,4.5-4.3
					C644.3,430.7,646.8,429.9,646.1,428.2L646.1,428.2z"/>
			</g>
		</g>
		<g>
			<g>
				<path class="st10" d="M641.4,436.4c0.5,0.1,1.8,0.5,2.1,0.3c0.3,0.1,0.3,0-0.1-0.3c-0.3-0.4-0.4-0.5-0.3-0.2c-0.1,0.1,0,0.9,0,1
					c0,1.3,0.1,2.6,0.1,3.9c-0.1,2.8,4.2,2.7,4.3,0c0-1-0.1-2-0.2-3c-0.1-1-0.1-2-0.4-2.9c-0.7-2.4-3-2.3-5.1-2.1
					C640.1,433.2,639.4,436,641.4,436.4L641.4,436.4z"/>
			</g>
		</g>
		<g>
			<g>
				<path class="st10" d="M658.6,424.3c-2.2-0.4-4.4-0.5-6.6-1c-1.2-0.3-2.5,0.6-2.5,1.9c0.1,5.3,0.2,10.6,0,15.9c0,1,0.9,2,1.9,1.9
					c2.1-0.2,4.2-0.4,6.4-0.6c2.5-0.2,2.5-4.2,0-3.9c-2.1,0.2-4.2,0.4-6.4,0.6c0.6,0.6,1.3,1.3,1.9,1.9c0.2-5.3,0.3-10.6,0-15.9
					c-0.8,0.6-1.6,1.3-2.5,1.9c2.6,0.5,5.1,0.8,7.6,0.1C660,426.9,660.1,424.6,658.6,424.3L658.6,424.3z"/>
			</g>
		</g>
		<g>
			<g>
				<path class="st10" d="M652.5,434.8c1.3,0.3,2.8,0.5,4.1,0.4c1.1-0.1,2-1,1.8-2.1c-0.1-1-1.3-1.9-2.3-1.6c-1,0.3-1.8,0.5-2.8,0.3
					c-0.8-0.1-1.7,0.2-1.9,1.1C651.2,433.7,651.7,434.6,652.5,434.8L652.5,434.8z"/>
			</g>
		</g>
		<g>
			<g>
				<path class="st10" d="M661.7,426.4c1.1,1.4,3,1.1,4.7,1.2c2,0.1,4.1,0.3,6.1,0.2c2.5-0.1,2.5-3.9,0-3.9c-2-0.1-4.1,0-6.1,0
					c-1.7,0-3.4-0.5-4.7,0.8C661.2,425.3,661.3,425.9,661.7,426.4L661.7,426.4z"/>
			</g>
		</g>
		<g>
			<g>
				<path class="st10" d="M665.9,425.2c-0.3,5.3-0.2,10.7-0.4,16.1c-0.1,2.7,4,2.7,4.2,0c0.3-5.4,0.2-11.1-0.9-16.4
					C668.4,423.1,666,423.6,665.9,425.2L665.9,425.2z"/>
			</g>
		</g>
		<g>
			<g>
				<path class="st10" d="M684.9,426C684.9,426,684.9,426,684.9,426c-0.5,0-1.1,0-1.6,0c-0.2-1.1-0.3-1.4-0.4-0.6
					c0,0.8,0,1.6,0.1,2.5c0.1,1.4,0.1,2.9,0.2,4.3c0.1,3.1,0.2,6.2,0.1,9.3c0,1,0.9,1.9,1.9,1.9c1.8,0,3.5-0.1,5.3-0.2
					c2.6-0.2,2.5-4.3,0-4c-1.8,0.2-3.5,0.4-5.3,0.5c0.6,0.6,1.3,1.3,1.9,1.9c-0.1-3.7-0.3-7.4-0.7-11.1c-0.2-1.6,0-5.4-1.6-6.2
					c-0.7-0.4-1.6-0.1-1.8,0.8c0,0,0,0,0,0.1c-0.1,0.4,0,0.9,0.3,1.1c0,0,0,0,0.1,0C683.8,426.4,684.4,426.5,684.9,426L684.9,426z"
					/>
			</g>
		</g>
		<g>
			<g>
				<path class="st10" d="M695.1,424.6c-0.8,5.3-0.7,11.2-0.4,16.6c0.1,2.4,3.7,2.4,3.7,0c0.1-5.4,0.1-11.3-0.8-16.6
					C697.4,423.4,695.3,423.3,695.1,424.6L695.1,424.6z"/>
			</g>
		</g>
		<g>
			<g>
				<path class="st10" d="M711.8,427.2c-2-3.6-8.1-4.6-9.6,0.1c-0.7,2.3,0.3,4.5,2,6.1c1.3,1.2,3.2,2,4,3.6c0.4,0.8,0.7,2.9-0.7,2.9
					c-0.8,0-2-1.5-2.3-2.1c-1.3-2.2-4.7-0.2-3.4,2c2.3,3.7,7.6,5.9,9.9,1c1-2.1,0.8-4.3-0.4-6.2c-0.7-1.1-1.8-1.9-2.8-2.7
					c-0.6-0.5-1.5-0.9-1.9-1.6c-2-3.2,1.4-3.4,2.6-1.6C710.2,430.5,712.8,429,711.8,427.2L711.8,427.2z"/>
			</g>
		</g>
		<g>
			<g>
				<path class="st10" d="M715.5,427.7c3,0.6,6,0.2,9,0.7c3,0.5,3.6-3.8,0.6-4.1c-3-0.3-6.1,0-9.1,0.3
					C714.2,424.7,713.6,427.3,715.5,427.7L715.5,427.7z"/>
			</g>
		</g>
		<g>
			<g>
				<path class="st10" d="M719.1,427.1c-0.3,4.7-0.4,9.4-0.4,14.2c0,2.7,4.2,2.7,4.2,0c0-4.7-0.2-9.5-0.6-14.2
					C722,425.1,719.2,425.1,719.1,427.1L719.1,427.1z"/>
			</g>
		</g>
	</g>
	<path class="st12" d="M573.8,134.5c0.3-0.7,0.5-1.5,0.7-2.1c1-5.2,2-17.4-6.9-14.7c-2.1,0.6-3.6,1.7-4.8,3
		c-0.7-0.3-1.3-0.7-1.7-1.3c-1.5-1.8-3.1-1.8-4.6-0.9c-0.5-2.1-2.4-3.1-4.7-2.3c-3,1.1-5.3,4.7-5.8,7.8c-0.1,0.4-0.1,0.9-0.2,1.3
		c-0.2,1-0.1,2.1,0.1,3c0.1,4.3,0.2,8.6,0.3,12.9c0.1,3.5-0.7,8.4,1,11.6c2,3.7,8,2.7,11.6,2.9c3.6,0.2,7.8,1,11.1-0.4
		c3.7-1.6,6.4-6.3,6.5-10.3C576.3,141.5,574.5,138,573.8,134.5z"/>
	<path class="st13" d="M575.7,192.3c-0.5-7.2-0.4-15.6-2.4-22.6c-1.9-6.7-10.5-4.8-15.6-3.6c-0.6,0.1-1.3,0.5-2,1
		c-0.2-0.7-0.3-1.5-0.6-2.2c-2.1-7.3-12,3.5-10.4,8.9c2.6,8.9-0.4,18.5,2.4,27.3c1.2,3.6,4.2,5.1,7.8,5.1c3.4,0,8.4-0.2,11.5-1.5
		c1.8-0.7,3.5-2,4.7-3.7C573.8,199.2,576,195.3,575.7,192.3z"/>
	<g>
		<g>
			<path class="st10" d="M574.1,105.9c-0.1,0.7-23.4,0.6-25.9,0.2c-1.9-0.3-0.9,0.6-1.1-0.7c-0.2-1.2,0-2.6,0-3.8
				c0-5.6,0-11.3,0-16.9c0-3.8,0.5-7.9,0-11.7c-0.2-1.6,0.6-1.1-0.4-0.8c0.3-0.1,0.8,0,1.1,0c2.2,0,4.4,0,6.6,0
				c5.5,0,10.9,0,16.4-0.1c0.5,0,2.7-0.3,3,0c0,0-0.3,2.8-0.3,2.9C573.6,85.4,574.2,95.7,574.1,105.9c0,1.4,2.2,1.4,2.2,0
				c0-10.6,0.7-21.2,0.7-31.8c0-3.6-0.4-5.3-4.2-5.4c-5.9-0.2-11.9,0-17.9,0.1c-2.5,0-9.5-1.2-10.9,1.7c-0.5,1.1-0.1,3.4-0.1,4.7
				c0,2.9,0,5.7,0.1,8.6c0,6.5,0.1,12.9,0.1,19.4c0,3-0.6,5.7,3.1,6.1c6.5,0.6,13.3,0,19.9-0.1c3.1,0,9.9,1.5,9.4-3.2
				C576.2,104.5,574.2,104.5,574.1,105.9z"/>
		</g>
	</g>
	<g>
		<g>
			<path class="st10" d="M574.1,154.3c-0.1,0.7-23.4,0.6-25.9,0.2c-1.9-0.3-0.9,0.6-1.1-0.7c-0.2-1.2,0-2.6,0-3.8
				c0-5.6,0-11.3,0-16.9c0-3.8,0.5-7.9,0-11.7c-0.2-1.6,0.6-1.1-0.4-0.8c0.3-0.1,0.8,0,1.1,0c2.2,0,4.4,0,6.6,0
				c5.5,0,10.9,0,16.4-0.1c0.5,0,2.7-0.3,3,0c0,0-0.3,2.8-0.3,2.9C573.6,133.8,574.2,144,574.1,154.3c0,1.4,2.2,1.4,2.2,0
				c0-10.6,0.7-21.2,0.7-31.8c0-3.6-0.4-5.3-4.2-5.4c-5.9-0.2-11.9,0-17.9,0.1c-2.5,0-9.5-1.2-10.9,1.7c-0.5,1.1-0.1,3.4-0.1,4.7
				c0,2.9,0,5.7,0.1,8.6c0,6.5,0.1,12.9,0.1,19.4c0,3-0.6,5.7,3.1,6.1c6.5,0.6,13.3,0,19.9-0.1c3.1,0,9.9,1.5,9.4-3.2
				C576.2,152.9,574.2,152.9,574.1,154.3z"/>
		</g>
	</g>
	<g>
		<g>
			<path class="st10" d="M574.1,201.4c-0.1,0.7-23.4,0.6-25.9,0.2c-1.9-0.3-0.9,0.6-1.1-0.7c-0.2-1.2,0-2.6,0-3.8
				c0-5.6,0-11.3,0-16.9c0-3.8,0.5-7.9,0-11.7c-0.2-1.6,0.6-1.1-0.4-0.8c0.3-0.1,0.8,0,1.1,0c2.2,0,4.4,0,6.6,0
				c5.5,0,10.9,0,16.4-0.1c0.5,0,2.7-0.3,3,0c0,0-0.3,2.8-0.3,2.9C573.6,180.9,574.2,191.2,574.1,201.4c0,1.4,2.2,1.4,2.2,0
				c0-10.6,0.7-21.2,0.7-31.8c0-3.6-0.4-5.3-4.2-5.4c-5.9-0.2-11.9,0-17.9,0.1c-2.5,0-9.5-1.2-10.9,1.7c-0.5,1.1-0.1,3.4-0.1,4.7
				c0,2.9,0,5.7,0.1,8.6c0,6.5,0.1,12.9,0.1,19.4c0,3-0.6,5.7,3.1,6.1c6.5,0.6,13.3,0,19.9-0.1c3.1,0,9.9,1.5,9.4-3.2
				C576.2,200,574.2,200,574.1,201.4z"/>
		</g>
	</g>
</g>
<g id="Layer_3">
</g>
</svg>
