<?xml version="1.0" encoding="utf-8"?>
<!-- Generator: Adobe Illustrator 19.1.0, SVG Export Plug-In . SVG Version: 6.00 Build 0)  -->
<svg version="1.1" xmlns="http://www.w3.org/2000/svg" xmlns:xlink="http://www.w3.org/1999/xlink" x="0px" y="0px" width="800px"
	 height="460px" viewBox="0 0 800 460" style="enable-background:new 0 0 800 460;" xml:space="preserve">
<style type="text/css">
	.st0{fill:#FFFFFF;}
	.st1{opacity:0.5;fill:#C6C6C6;}
	.st2{opacity:0.6;fill:#C6C6C6;}
	.st3{opacity:0.7;fill:#C6C6C6;}
	.st4{opacity:0.5;fill:#DFB945;}
	.st5{opacity:0.5;fill:#515251;}
	.st6{opacity:0.3;fill:#515251;}
	.st7{opacity:0.5;fill:#559DD5;}
	.st8{opacity:0.5;fill:#63C8CE;}
	.st9{opacity:0.5;fill:#ADD255;}
	.st10{fill:#1E1E1E;}
	.st11{fill:none;stroke:#A5CCCE;stroke-width:2;stroke-miterlimit:10;stroke-dasharray:5,10;}
	.st12{opacity:0.5;fill:#8BC174;}
	.st13{opacity:0.5;fill:#864C9E;}
</style>
<g id="Layer_2">
	<rect class="st0" width="800" height="460"/>
</g>
<g id="Layer_5">
	<path class="st1" d="M662.9,44.9c-3.3-0.7-6.7-1.3-10-1.9c1.4-1.2,2.6-2.8,3.6-4.6c0.9-1.6,3.3-9.5-1.3-9.1
		c-0.6,0.1-1.3,0.1-1.9,0.2c-0.3-0.9-0.8-1.6-1.9-2.1c-13.6-6.2-28.5-3.4-42.8-2.5c-0.1,0-0.3,0-0.4,0
		c-112.8-5.3-225.7-6.9-338.6-4.8c-35.9,0.7-71.8,1.7-107.6,3.1c-3.5,0.1-6.2,3.3-7.3,6.4c-0.6,1.5-1.1,5.4,0.5,6.8
		c-1,1.1-1.8,2.4-2.3,3.8c-0.7,1.9-1.4,7.4,2.2,7.3c0.6,0,1.2,0,1.8-0.1c-3.2,4-5.4,11.1-0.5,11c48.4-1.2,96.7-2.4,145.1-3.6
		c0.4,0.3,0.9,0.5,1.5,0.6c7.9,1.5,15.8,1.7,23.7,1.5c8.2,0.5,16.4,1,24.7,1.5c1.7,0.1,3.5-1,4.9-2.7c5.4-0.2,10.7-0.4,16.1-0.7
		c19-0.8,37.9-1.6,56.9-2.3c0.4,1.1,1.2,1.9,2.7,2.1c1.6,0.2,3.2,0.3,4.7,0.2c0.2,0,0.4,0,0.6,0c0.2,0.9,0.7,1.6,1.7,1.9
		c16.6,5.8,33.8,6.2,51.1,6c18.4-0.2,36.8-0.6,55.2-1c37.5-0.8,75.1-1.8,112.6-3.1C663,58.4,670.1,46.4,662.9,44.9z"/>
	<path class="st2" d="M364.6,47.4c-1.7-1.8-4-2.1-6.3-2.1c2-3.8,2.5-8.4-1.4-8.6c-26.6-1.6-53.3-3.2-79.9-4.8
		c-4.3-0.3-8.7,7.2-8,11.3c-0.6,0-1.2,0-1.8,0c-5.3,0.2-12.2,13-5.2,13.7c12.8,1.4,25.8,1,38.7-0.1c3.1,0.1,6.3,0.1,9.4,0.2
		c7.9,0.3,15.7,0.6,23.6,1c3.9,0.2,7.8,0.4,11.8,0.6c2,0.1,3.9,0.2,5.9,0.3c1,0.1,2,0.1,2.9,0.2c0.3,0.1,0.5,0.1,0.7,0.1
		c0.5,0.5,1.1,0.9,1.8,0.9c3.4,0,5.3-2.3,7.1-4.9C365.1,53.5,366.4,49.3,364.6,47.4z"/>
	<path class="st2" d="M174.7,30.6c-0.9,0.6-1.8,1.3-2.6,2.2c-0.1-0.2-0.2-0.4-0.4-0.6c-1.8-3-6,0-7.4,1.8c-2,2.5-3.7,6.5-1.9,9.6
		c2,3.4,5.9,5.7,9.9,5.4c6.1-0.5,11-7,10.8-12.9C183.1,31.4,179.2,27.8,174.7,30.6z M176.2,35.4C176.2,35.4,176.2,35.4,176.2,35.4
		C176.3,35.4,176.3,35.4,176.2,35.4z"/>
	<path class="st2" d="M211.4,30.6c-1.8-0.7-3.5-0.7-5.1-0.3c-0.4-0.3-0.9-0.5-1.6-0.6c-4.7-0.3-8.4,4.6-9.2,9.5
		c-0.6,1.1-1.1,2.3-1.2,3.4c-0.2,1.3-0.4,3.4,0.6,4.3c2.7,2.5,5.8,3.4,9,2.8c2.4,0.1,4.9-0.7,6.9-2.3c2.9-2.5,4.8-6.6,4.6-10.4
		C215.3,34.3,213.9,31.6,211.4,30.6z"/>
	<path class="st2" d="M235.2,32.6c-1.8-1.5-4.2-1.8-6.4-1.2c-3.4,0.8-6.2,3.4-8,6.3c-1.5,2.5-3.1,9.1,0.8,10.2
		c0.5,1.3,1.3,2.4,2.6,3.1c2.2,1.2,4.8,0.7,6.9-0.4c3.5-1.8,6-5.8,6.7-9.6C238.4,37.7,237.7,34.6,235.2,32.6z"/>
	<path class="st3" d="M288.4,41.1c-0.3-0.6-0.6-1.2-1-1.8c-0.3-0.3-0.6-0.6-0.9-0.8c-0.6-0.3-1.2-0.4-1.8-0.3
		c-0.6,0.1-1.2,0.2-1.8,0.5c-1.4-0.2-3.1,0.8-4,1.6c-1.4,1.2-2.7,3.1-3.3,4.8c-0.9,2.5-1.3,6.7,2.2,7.3c0.5,0.1,0.9,0.1,1.3,0.1
		c0.6,1.1,2.3,1.3,3.3,1c1.5-0.4,3.1-1.7,4-2.8C288.6,48.1,290.1,44.3,288.4,41.1z"/>
	<path class="st3" d="M237.2,33.5c-0.7-3.4-4.8-2.5-6.7-0.7c0,0-0.1,0.1-0.1,0.1c-0.1-0.2-0.2-0.3-0.3-0.4c-0.8-0.8-1.2-1.2-2.4-1.4
		c-1-0.1-2.2,0.3-3.1,0.7c-2.4,1.3-4,3.7-5,6.1c-0.9,2.2-1.2,5.2,0.4,7.1c0.8,1,2,1.7,3.2,2.2c3.3,1.4,6.4,0.9,9.2-1.4
		C236,42.8,238.2,38.1,237.2,33.5z"/>
	<path class="st3" d="M213.8,39.3c-0.9-1.2-2.1-1.2-3.4-1.1c1-0.1,0-0.1-0.2-0.1c-0.3,0-0.6-0.1-0.9-0.1c-0.1,0-0.3-0.1-0.5-0.2
		c-0.3-0.2-0.7-0.3-1-0.5c-0.2-0.1-0.3-0.2-0.4-0.3c0.4-2.3,0-5-2.6-5.4c-4-0.5-7.1,3.9-8.3,7.2c-1.1,2.8-1,6,0.8,8.6
		c2.5,3.6,6.6,4.8,10.8,4.3c1.4-0.1,3.2-1.8,4-2.8c1.2-1.4,2.2-3.4,2.5-5.2C214.6,42.2,214.7,40.6,213.8,39.3z"/>
	<path class="st3" d="M183.7,36.6c-3.3-0.6-6.4-1.6-9.3-3c-0.3-0.3-0.6-0.6-1.1-0.8c-0.6-0.2-1.2-0.5-1.8-0.7
		c-3.2-1.3-6.2,1.7-7.6,4.2c-1.3,2.2-2.8,7,0.1,8.7c4.5,2.6,9.4,4.3,14.5,5.2C184.2,51.3,190.4,37.7,183.7,36.6z"/>
	<path class="st4" d="M657.3,102.8c-1.8-0.2-3.6-0.4-5.4-0.5c-0.1-1.7-0.4-3.5-0.7-5.2c3.5-3.6,6.8-11.3,1.2-11.8
		c-0.6-0.1-1.2-0.1-1.7-0.1c1.1-1,2-2.4,2.7-3.7c0.9-1.8,2.3-6.8-0.6-7.8c-2.9-1.1-5.8-1.8-8.7-2.2c3.5-0.3,6.2-3.2,7.3-6.4
		c0.7-1.9,1.4-7.5-2.2-7.3c-34.3,1.5-68.5,2.9-102.8,3.4c-92.2,0-184.3-6.8-276.5-7c-36-0.1-72,0.9-107.9,3.6
		c-3.5,0.3-6.2,3.2-7.3,6.4c-0.4,1.1-0.9,3.8-0.3,5.6c-4.1,3.3-7.1,11.1-1.6,12.3c4.7,1.1,9.5,1.9,14.2,2.6c-2,0-4,0-6.1,0
		c-4.3,0-11.1,8.6-7.2,12.5c2,2,3.1,2.8,4.9,3.1c-1.1,0.8-2.1,1.6-3.1,2.5c-2.8,2.4-7.1,13,0.2,12c2.4-0.3,4.8-0.7,7.2-1
		c0.2,1.5,1,2.5,2.9,2.6c92,3.7,184.2,4,276.2,0.9c16.8-0.6,33.7-1.3,50.5-2.1c0.4,1.1,1.2,1.9,2.7,2c27.8,2.7,55.8,3.7,83.7,2.9
		c24.1,0.8,48.2,1.6,72.3,2.5c5.1,0.2,8.9-7,7.6-11.6C660.7,107.3,660.8,103.2,657.3,102.8z M616.9,73.1c-2,0.4-4,0.8-6,1.2
		c-42.1,1-84.2,1.8-126.3,1.4c-3.2-0.4-6.3-0.7-9.5-1.1c19.7,0.5,39.4,0.7,59.2,0.5c5.1-0.1,10.2-0.2,15.3-0.3
		C572,74.8,594.4,74.2,616.9,73.1z M640.5,104.5C640.5,104.5,640.5,104.5,640.5,104.5c0.1,0.4,0.2,0.9,0.3,1.4c0,0-0.1,0-0.1,0
		C640.7,105.4,640.6,104.9,640.5,104.5z"/>
	<path class="st5" d="M244.6,354.9c-0.7-20.3-2.9-40.4-4.6-60.6c2.6-43.8,4.1-87.6,4.3-131.5c0-0.6-1.6-1-3.8-1.3
		c0.7-7.8,1.5-15.6,2.5-23.4c0.6-4.5,2.5-10.4,1.4-14.9c-0.8-3.4-3.5-3.9-6.7-4.2c-2-0.2-10.1-1.2-11.3,1.1
		c-0.2,0.4-0.4,0.8-0.6,1.2c-4-0.5-9.9-0.2-11.1,0.9c-0.2-1.2-0.4-2.4-0.7-3.5c-0.5-2-11.4-2-14.3-0.5c-4.2-0.7-11.9-1-12.3,1
		c0,0.2-0.1,0.4-0.1,0.7c-0.8-0.8-1.9-1.4-3.3-1.7c-4.7-1.1-11.6-1.6-15.9,1.3c-3.8-0.9-12.9-0.8-13.4,0.9c-0.5,1.8-1.1,3.6-1.6,5.3
		c0,0.1,0.7,0.4,2,0.6c2.3,37.7,1.5,75.4,0,113.1c-1.6,39.9-3.4,79.9-0.8,119.8c0.7,10.7,1.6,10.4,2.6,21.1
		c0.7,7.6,1.7,15.8,8.2,20.8c2,1.5,12.8,2.1,14.5,0c2.7-3.2,3.4-7.7,3.5-12.3c0.4,5,0.9,9.9,1.3,14.9c0.2,2,14.9,2,15,0
		c0-0.2,0-0.3,0-0.5c1.4,1.1,9.3,1.5,12.9,0.7c2.3,0.9,5.1,1,7.5,1c2.8,0.1,6.2,0.1,9.2-0.8c0.5,0.3,1.1,0.6,1.7,0.8
		c1.5,0.6,13.9,1.6,14-0.7C245,384.2,245.2,375,244.6,354.9z M214.5,282.9c0-2.8,0-5.6,0-8.3c0.1,0,0.1,0,0.2,0
		C214.7,277.4,214.6,280.1,214.5,282.9z M215,395.7c0.4,0.2,0.8,0.5,1.2,0.7c-0.4,0.7-1,1.3-1.5,1.9
		C214.8,397.5,214.9,396.6,215,395.7z"/>
	<path class="st6" d="M242.7,354.7c-0.9-19.1-1.5-38.2-1.9-57.3c-0.8-38.3-0.7-76.7,0.4-115c0.3-10.6,0.6-21.1,1.1-31.7
		c0.2-5.6,0.5-11.2,0.7-16.8c0.2-4,1.8-9.3-1.5-12.3c-3.1-2.8-9.7-1.9-13,0c-1.1,0.6-1.5,1.3-1.6,2.6c-0.1,0.8,0.7,1.5,1.4,1.9
		c0.1,3.5-0.4,7.4-0.6,10.8c-0.2,4.6-0.4,9.2-0.6,13.9c-0.4,9.6-0.7,19.2-1,28.7c-0.5,18.8-0.9,37.7-0.9,56.5
		c-0.2,37.3,0.5,74.7,2,112c0.7,17.8,1.6,34.9-1.7,52.5c-0.8,4.2,13.2,4.4,14.7,0.9c0.4-1,0.9-2,1.3-3c0.4-0.8,0.2-1.5-0.3-2.1
		C243.5,382.3,243.4,368.8,242.7,354.7z"/>
	<path class="st4" d="M653,106.2c-127.5,2.2-254.8-6.3-382.3-4.4c-36.3,0.5-72.5,1.9-108.7,4.6c-3.5,0.3-6.2,3.2-7.3,6.4
		c-0.7,1.8-1.4,7.6,2.2,7.3c127.2-9.4,254.7-2.5,382.1-0.4c36.3,0.6,72.6,0.8,109,0.2C653.7,119.8,659.3,106.1,653,106.2z"/>
	<path class="st7" d="M328.7,197.4c-6.7-6-21.1-1.5-20.8,8.3c0.2,8.2,16.8,15.2,21.1,6.8c0.4-0.8,0.6-1.7,0.7-2.6
		c0.3-0.4,0.6-0.8,0.9-1.2C332.9,204.9,331.9,200.3,328.7,197.4z"/>
	<path class="st8" d="M330.7,240.8c1.3-1.6,2.3-3.5,2-5.5c-0.4-3.9-4.7-5.9-8-6.6c-3.4-0.7-8.1-0.8-11,1.5c-1.9,1.5-2.7,3.7-2.6,6
		c-0.2,0.3-0.3,0.6-0.4,1c-2.9,1.6-3.8,5.4-1,8.1c3.4,3.4,10.6,4.5,15,2.6c1.1-0.5,2.3-1.4,3.2-2.5c0.4-0.4,0.8-0.7,1.1-1.2
		c0.8-0.2,1.5-0.6,2-1.2C331.7,242.2,331.4,241.3,330.7,240.8z"/>
	<path class="st9" d="M321.9,260.9c-3.8-1.4-7.1,1.4-9.2,4.6c-0.7,0.7-1.3,1.6-1.5,2.7c0,0.1-0.1,0.1-0.1,0.2
		c-1.4,3.1-0.9,6.3,1.1,8.5c0.8,1.3,2.1,2.2,3.7,2.8c0.3,0.3,0.6,0.5,1.1,0.6c0.7,0.1,1.3,0.1,1.9,0c0.5,0,1.1,0,1.6,0
		c0.5,0,1.2-0.2,2-0.4c1,0.3,2.4,0,3.1-0.8c0.2-0.2,0.4-0.5,0.6-0.7c0.3-0.2,0.6-0.3,0.8-0.5c1.8-0.8,3.1-2.2,3.3-4
		c0.3-0.5,0.4-1,0.5-1.6C331.2,267.9,325.7,262.3,321.9,260.9z"/>
	<path class="st7" d="M330.3,302.7c0-0.6-0.1-1.3-0.2-1.9c-1.7-6.2-11-9-16.2-5.9c-4.5,2.6-5.4,7.6-3.5,11.5c0,0.4,0,0.8,0.1,1.2
		c-0.3,3.3,2.9,5.9,6.4,6.8c2,0.8,4.4,1,6.5,0.7C328.8,314.3,334.4,308,330.3,302.7z"/>
	<path class="st10" d="M324.7,309c-0.3-0.6-0.7-1.2-1.2-1.7c0.7-0.4,1.4-1,1.8-1.8c2-3.8-3.2-7.6-6.4-5c-0.2,0.1-0.3,0.3-0.4,0.5
		c-0.2,0.2-0.3,0.4-0.5,0.6c-0.9,1.3-1.2,3.3-0.4,4.7c0.3,0.6,0.8,1.1,1.4,1.4c-1.9,1.6-3.2,4.5-2.4,6.7c0.3,0.9,9,0.7,9.3-0.2
		C326.4,312.4,325.4,310.4,324.7,309z"/>
	<path class="st10" d="M326.5,277.7c-0.9-1.6-2.4-4.1-4.3-4.9c0.2-0.1,0.4-0.3,0.6-0.4c0.5-0.4,0.8-0.8,1-1.4
		c0.5-0.9,0.7-2.1,0.3-3.2c-0.3-0.9-1.2-1.6-2.1-1.6c-1.5-0.8-3.6-0.6-5,0.6c-1,0.9-1.5,2.4-1.2,3.8c0.4,1.4,1.6,2.4,2.9,2.7
		c0.1,0,0.1,0,0.2,0c-2.3,1.6-3.5,5.1-3.6,7.6c-0.1,1.6,9.6,1.6,10.6-0.4C326.7,279.8,327,278.6,326.5,277.7z"/>
	<path class="st10" d="M326.5,241.9c-0.7-0.9-1.5-2.1-2.5-3c0.3-0.2,0.5-0.4,0.7-0.7c1.2-1.4,1.1-3,0.3-4.2
		c-0.7-1.7-2.9-2.5-4.8-2.5c-2.8,0-5,2.6-5,5.3c0,1.5,0.8,2.7,2.1,3.4c0.1,0.1,0.3,0.1,0.5,0.2c-1.1,2.1-1.6,4.7-2.3,6.8
		c-0.5,1.5,7.7,2.9,9.4,2.1c0.4-0.2,3.4-1.8,3.6-3.1C328.9,244.5,327.4,243,326.5,241.9z"/>
	<path class="st10" d="M326.7,212.9c-1.2-1.4-2.3-2.7-3.5-4.1c-0.1-0.1-0.2-0.3-0.3-0.4c0.4-0.3,0.8-0.8,1.2-1.2
		c1.2-1.8,1-3.8-0.6-5.3c-1.1-1.1-2.7-1.6-4.3-1.3c-2.7-0.4-5.3,3.2-4.5,6c0.4,1.3,1.6,2.3,2.9,2.7c-1.3,1.6-2,3.9-2.3,5.5
		c-0.2,1.2,9.1,1,9.2,1.1C326.3,217.2,328,214.4,326.7,212.9z"/>
</g>
<g id="Layer_1">
	<g>
		<g>
			<path class="st10" d="M157.1,59c15.5,1,31.3,0.2,46.9,0.2c37.1-0.1,74.2-0.3,111.3-0.4c45.7-0.2,91.4-0.3,137-0.3
				c41.3-0.1,82.6,0,124,0.2c24,0.1,48-0.1,72,1c1.2,0.1,2.3,0.1,3.5,0.2c2.7,0.2,2.7-4.1,0-4.2c-21-1.4-42.3-0.6-63.3-0.7
				c-39.9-0.1-79.9-0.1-119.8,0c-45.8,0.1-91.7,0.3-137.5,0.4c-38.8,0.2-77.6,0.3-116.5,0.5c-12.7,0.1-25.3,0.1-38,0.3
				c-6,0.1-12.6-0.5-18.6,0.3c-0.3,0-0.7,0-1,0C155.4,56.3,155.5,58.9,157.1,59L157.1,59z"/>
		</g>
	</g>
	<g>
		<g>
			<path class="st10" d="M180.7,32.7c-5-3.5-12.5-3.1-16.3,2c-3.2,4.2-1.9,11.2,2.3,14.5c4.5,3.5,12,2.9,15.8-1.3
				c3.3-3.7,4.7-10.6,0.1-13.8c-1.4-1-2.9,1.2-1.8,2.3c2.9,2.9,1.6,7.6-1.3,10.1c-3.1,2.7-9.8,2.2-12.1-1.4c-2.2-3.3-2.1-7.7,1.5-10
				c3.4-2.2,7.3-0.9,10.8,0.1C181.2,35.6,181.8,33.5,180.7,32.7L180.7,32.7z"/>
		</g>
	</g>
	<g>
		<g>
			<path class="st10" d="M208.4,31c-5.9-2.1-13.3,0-16.4,5.7c-2.8,5.1-0.8,11.6,4.6,13.7c5.2,2.1,12.4,2,15.5-3.4
				c2.5-4.5,2.5-12.2-2.6-15c-1.8-1-3,1.5-1.5,2.6c3.3,2.5,3.5,7.9,1.2,11.3c-2.5,3.7-8.8,3.2-12.3,1.3c-4.3-2.4-3.8-8.1-0.6-11.1
				c3.2-3.1,7.6-2.9,11.7-2.9C209.4,33.3,209.6,31.4,208.4,31L208.4,31z"/>
		</g>
	</g>
	<g>
		<g>
			<path class="st10" d="M230.3,30.5c-6.4-2.3-10.6,3.8-11.7,9.3c-1.3,6.3,2.5,11.3,8.8,12.4c5.6,1,10.7-2.3,12.8-7.5
				c2.4-6.3-0.6-11.5-6.6-14c-1.9-0.8-3.7,1.8-1.7,2.9c3.6,2,6.5,4,5.6,8.7c-0.8,3.8-3.9,6.9-7.9,6.9c-5,0.1-8.8-3.4-7.8-8.5
				c0.9-4.6,3.3-7.9,8.3-7.6C231.5,33.1,231.6,30.9,230.3,30.5L230.3,30.5z"/>
		</g>
	</g>
	<g>
		<g>
			<path class="st10" d="M260.5,58.1c2.5-3.6,4.6-7.4,6.9-11.1c1.9-3,4-7.8,6.8-10.1c3.7-3,12.7-1.1,17.3-1.3
				c7.8-0.3,15.5-0.2,23.3,0.1c13.2,0.5,26.7-0.6,39.8,1c0.7,0.1,1.5,0.1,2.1,0.3c-1.6-0.5-0.7-0.9-0.5,0.2c0.3,1.7,1.7,3.7,2.5,5.3
				c2.2,4.7,4.8,9.2,6.8,14c1,2.2,4.4,0.3,3.3-1.9c-2.5-5-5.1-9.8-7.5-14.9c-1.3-2.7-1.7-5.5-4.6-6.3c-5.3-1.4-11.5-1.1-16.9-0.9
				c-9,0.3-18-0.1-26.9-0.3c-8.8-0.2-17.5,0.5-26.3,0.6c-4.1,0.1-10.4-1.2-13.9,1.7c-2.8,2.2-4.8,6.7-6.7,9.6
				c-2.6,4.2-5.5,8.4-7.5,12.9C257.9,58.2,259.7,59.3,260.5,58.1L260.5,58.1z"/>
		</g>
	</g>
	<g>
		<g>
			<path class="st10" d="M286.1,41.9c-2.4-1.9-6.2-1.9-8.3,0.6c-1.9,2.2-1.4,6,0.9,7.8c2.3,1.9,6.3,1.6,8.3-0.6
				c1.7-1.9,2.5-5.6,0-7.3c-1-0.6-1.9,0.8-1.2,1.5c3.2,3.5-3.8,7.8-6.2,4c-1-1.5-1-3.5,0.6-4.6c1.6-1.1,3.5-0.3,5.2,0
				C286,43.5,286.9,42.5,286.1,41.9L286.1,41.9z"/>
		</g>
	</g>
	<g>
		<g>
			<path class="st10" d="M156.9,44.3c0.2-4.1-0.7-8.6,0.5-12.6c2.1-7.2,10.1-6.4,16.1-6.5c3.3,0,6.6,0,9.8,0.1c1.4,0,2.7,0,4.1,0
				c7.1,0,14.2,0,21.3,0c27.5,0,54.9,0.1,82.4,0.1c37.4,0,74.9,0,112.3,0c37.5,0,75.1,0,112.6,0c28.3,0,56.7,0,85,0
				c7.6,0,15.3,0,22.9,0c1.7,0,3.4,0,5.1,0c0.2,0,0.5,0,0.7,0c3.7,0.1,7.3,0.3,11,0.5c2.7,0.1,4.9,0.1,7.4,1.1
				c3.6,1.3,4.4,4.3,4.8,7.9c0.9,7.6,0,16.3,0.1,24.1c0,10.7,0.1,21.4,0.1,32.1c0.1,34.4,0.2,68.9,0.4,103.3
				c0.1,37.3,0.3,74.5,0.4,111.8c0.1,21.8,0.1,43.7,0.2,65.5c0,2.3-0.1,4.5-0.1,6.8c-0.2,4.3-0.1,8.7-0.5,12.9
				c-0.6,6.3-5,7.4-10.4,7.7c-5.2,0.3-10.5,0.4-15.7,0.5c-4,0.1-8,0-12.1,0c-23.6,0.1-47.3,0.2-70.9,0.3
				c-36.1,0.1-72.3,0.3-108.4,0.4c-38.1,0.1-76.3,0.3-114.4,0.4c-30.2,0.1-60.4,0.2-90.6,0.4c-13.4,0.1-26.9,0.3-40.2-0.4
				c-9.3-0.5-18.2,1.7-27.3-1.4c-8.3-2.9-6.4-16.9-6.5-24c0-1.2,0-2.3,0-3.5c0-8.1,0-16.2,0-24.3c0-31.8,0-63.5,0-95.3
				c0-38.3,0-76.5,0-114.8c0-27.1,0-54.2,0-81.3C156.9,52.4,156.9,48.3,156.9,44.3c0-1.4-2.2-1.4-2.2,0c0,16.1-0.1,32.1-0.2,48.2
				c-0.1,35.9-0.3,71.9-0.4,107.8c-0.1,37.5-0.3,75.1-0.4,112.6c-0.1,20.4-0.3,40.7-0.2,61.1c0,6.3-0.3,12.9,0.9,19.1
				c2.9,15.9,25.1,10.4,36.3,11.1c4.8,0.3,9.4,0.5,14.3,0.5c23.1-0.1,46.2-0.2,69.2-0.3c36.4-0.1,72.9-0.3,109.3-0.4
				c39.1-0.1,78.3-0.3,117.4-0.4c30.6-0.1,61.3-0.2,91.9-0.4c15.9-0.1,31.8,0,47.6-0.6c5.1-0.2,11.6-0.2,14.7-5.1
				c1.4-2.2,1.6-4.9,1.7-7.5c0.3-5.1,0.6-10.3,0.6-15.4c0-1.2,0-2.4,0-3.5c0-8.4-0.1-16.8-0.1-25.2c-0.2-33-0.3-65.9-0.4-98.9
				c-0.2-38.7-0.3-77.5-0.5-116.2c-0.1-25.1-0.2-50.3-0.3-75.4c0-2,0-3.9,0-5.9c0-7.2,2.5-20.1-4.9-24.9c-2.8-1.8-6.5-1.6-9.6-1.7
				c-4-0.2-8-0.5-11.9-0.5c-0.2,0-0.5,0-0.7,0c-1.8,0-3.5,0-5.3,0c-20.8,0-41.5,0-62.3,0c-35.1,0-70.3,0-105.4,0
				c-39.5,0-79.1,0-118.6,0c-33.4,0-66.9,0-100.3,0.1c-17.4,0-34.7,0.1-52.1,0.1c-2.6,0-5.1,0-7.7-0.1c-5.7,0-14.6-1.1-19.2,3.1
				c-5.1,4.7-3.3,12.6-3.5,18.7C154.7,45.8,156.9,45.7,156.9,44.3z"/>
		</g>
	</g>
	<g>
		<g>
			<path class="st10" d="M240.4,119.8c-0.7,13.6-0.2,27.2-0.3,40.8c-0.1,20.5-0.3,41-0.6,61.5c-0.5,44.5-1,88.9-1.2,133.4
				c-0.1,15.8-0.2,31.7,0.2,47.5c0.1,2.2,3.4,2.2,3.4,0c-0.8-34.1-0.1-68.2,0.2-102.3c0.4-44.5,0.8-88.9,0.9-133.4
				c0-15.7,0.9-31.8-0.7-47.5C242.2,118.6,240.4,118.5,240.4,119.8L240.4,119.8z"/>
		</g>
	</g>
	<g>
		<g>
			<path class="st10" d="M655,118.6c-25-0.7-50.2-0.2-75.2-0.3c-35.7-0.1-71.3-0.3-107-0.6c-76.4-0.5-152.8-1-229.2-1.2
				c-28.8-0.1-57.7-0.2-86.5,0.2c-2.2,0-2.2,3.4,0,3.4c60.7-0.7,121.5-0.1,182.2,0.2c76.4,0.4,152.8,0.8,229.2,0.9
				c28.8,0,57.8,0.9,86.5-0.7C656.2,120.4,656.2,118.6,655,118.6L655,118.6z"/>
		</g>
	</g>
	<g>
		<g>
			<path class="st10" d="M608,178.2c-16.5-0.8-33.2-0.1-49.7-0.1c-23,0-46,0-68.9-0.1c-49.1-0.1-98.1-0.2-147.2-0.1
				c-19.2,0-38.4,0.1-57.6,0.5c-2.2,0-2.2,3.4,0,3.4c39.5-0.7,79.1-0.5,118.6-0.5c49.1,0,98.1,0.1,147.2-0.2
				c19.1-0.1,38.6,0.6,57.6-1C609.2,180,609.3,178.2,608,178.2L608,178.2z"/>
		</g>
	</g>
	<g>
		<g>
			<path class="st10" d="M608,339.2c-16.5-0.8-33.2-0.1-49.7-0.1c-23,0-46,0-68.9-0.1c-49.1-0.1-98.1-0.2-147.2-0.1
				c-19.2,0-38.4,0.1-57.6,0.5c-2.2,0-2.2,3.4,0,3.4c39.5-0.7,79.1-0.5,118.6-0.5c49.1,0,98.1,0.1,147.2-0.2
				c19.1-0.1,38.6,0.6,57.6-1C609.2,341.1,609.3,339.3,608,339.2L608,339.2z"/>
		</g>
	</g>
	<g>
		<g>
			<g>
				<path class="st10" d="M300.3,159.4c-1-3.3-6.6-3.8-8.2-0.6c-0.7,1.4,0,2.9,1.2,3.9c0.9,0.8,2,1.1,2.9,2c0.4,0.4,0.9,0.8,1.1,1.3
					c0.5,1.5,0.1,2.2-1.2,2.1c-0.8,0.5-1.4,0.3-1.7-0.6c-1.1-1.6-3.6-0.1-2.6,1.5c1,1.5,2.5,3.1,4.5,2.9c2-0.2,3.3-2.1,3.8-3.9
					c0.5-2-0.4-3.7-1.7-5c-0.8-0.8-1.7-1.2-2.5-1.9c-0.5-0.4-1.1-0.5-0.7-1.3c0.4-0.8,2.6,0.4,2.9,0.9
					C299.1,161.5,300.6,160.5,300.3,159.4L300.3,159.4z"/>
			</g>
		</g>
		<g>
			<g>
				<path class="st10" d="M310.1,156.9c-1.9-0.5-6.4-1.3-7,1.3c-0.5,1.9-0.2,4.4-0.3,6.4c-0.1,1.9-0.6,4.2-0.1,6.1
					c0.1,0.5,0.5,0.9,1,1c2,0.4,4.4-0.2,6.5-0.5c2-0.3,1.2-3.6-0.9-3.1c-1.4,0.3-3.4,1-4.8,0.7c0.3,0.3,0.7,0.7,1,1
					c-0.5-1.7,0-4,0.1-5.7c0.1-1.6-0.3-4,0.2-5.5c-0.3,0.3-0.7,0.7-1,1c1.6-0.4,3.5-0.1,5.1-0.3C311.3,159,311.2,157.1,310.1,156.9
					L310.1,156.9z"/>
			</g>
		</g>
		<g>
			<g>
				<path class="st10" d="M304.3,166c1.3,0.2,2.9,0.4,4.1,0c1.4-0.5,1.2-2.6-0.4-2.7c-0.7,0-1.3,0.2-2,0.3c-0.6,0.1-1.2,0.2-1.8,0.3
					C303.2,164,303.2,165.8,304.3,166L304.3,166z"/>
			</g>
		</g>
		<g>
			<g>
				<path class="st10" d="M314.5,171.3c2-4.1,2.8-9.1,3.7-13.6c-0.8,0.1-1.5,0.2-2.3,0.3c2,3.9,3.4,8.4,3.6,12.8
					c0.1,2.1,3.2,1.7,2.8-0.4c-0.8-4.8-2-9.3-4.2-13.7c-0.5-1-2.1-0.8-2.3,0.3c-0.9,4.5-2.4,9.2-2.9,13.8
					C312.8,171.7,314.2,172.1,314.5,171.3L314.5,171.3z"/>
			</g>
		</g>
		<g>
			<g>
				<path class="st10" d="M315.2,168c1.2,0,2.5-0.3,3.7-0.5c0.8-0.1,1.5-0.7,1.4-1.6c-0.1-0.9-0.9-1.4-1.8-1.2
					c-1.3,0.3-2.7,0.6-3.9,1.1C313.5,166.3,314.1,168,315.2,168L315.2,168z"/>
			</g>
		</g>
		<g>
			<g>
				<path class="st10" d="M326,158.8c0.1-0.2,0.1-0.4,0.2-0.6c-0.6-0.1-1.3-0.2-1.9-0.3c-0.2,2,0.2,4.2,0.3,6.2
					c0.1,2.1,0.1,4.2,0.3,6.3c0.2,1.8,2.7,1.8,2.8,0c0.1-3.9-0.1-9-1.4-12.7c-0.5-1.3-2.4-0.6-1.8,0.8c0.1,0.2,0.2,0.4,0.2,0.5
					C324.9,159.6,325.8,159.3,326,158.8L326,158.8z"/>
			</g>
		</g>
		<g>
			<g>
				<path class="st10" d="M326,160c0.7-0.6,1.5-0.7,2.4-0.5c0.5,0.2,1.7,0.6,1.8,1.3c0.2,1.6-3,1.5-3.8,1.6
					c-1.8,0.4-1.2,2.8,0.4,2.9c3,0.3,7.4-2.1,6-5.7c-1.2-3-5.9-3.6-8.1-1.5C323.8,159.1,325,160.7,326,160L326,160z"/>
			</g>
		</g>
		<g>
			<g>
				<path class="st10" d="M328.3,164.7c0,0,0.1,0,0.1,0c-0.2-0.1-0.4-0.3-0.6-0.4c0.9,1.9,1.8,4.1,2.4,6.1c0.6,2.1,4,0.7,2.8-1.2
					c-0.8-1.4-1.5-2.8-2.4-4.2c-0.5-0.8-1.1-2.3-2.3-2C327.4,163.2,327.4,164.4,328.3,164.7L328.3,164.7z"/>
			</g>
		</g>
		<g>
			<g>
				<path class="st10" d="M343.5,160.7c-0.1-2.4-1.6-4.6-4.3-4c-3.1,0.7-3.7,4.3-3.7,6.9c0,2.4,0.2,6.5,3,7.4c2.9,1,5-1.7,6.1-4
					c0.8-1.7-1.8-3.3-2.6-1.5c-0.2,0.5-0.4,1-0.8,1.5c-0.5,0.8-0.7,1.1-1.7,0.8c-1.3-0.5-1.3-2.6-1.3-3.9c0-1.2-0.1-2.9,0.6-3.9
					c1.3-1.8,2.1-0.1,2.7,1.1C342,162.1,343.5,161.6,343.5,160.7L343.5,160.7z"/>
			</g>
		</g>
		<g>
			<g>
				<path class="st10" d="M347,157.4c-0.3,4.3-0.2,8.6-0.2,12.9c0,1.9,3.1,1.9,3,0c-0.1-4.4-0.2-8.8-0.9-13.1
					C348.7,156,347,156.3,347,157.4L347,157.4z"/>
			</g>
		</g>
		<g>
			<g>
				<path class="st10" d="M348,164.4c1.6,0.5,3.3,0.5,5,0.7c2,0.3,2-3.4-0.4-3c-1.4,0.3-2.9,0.1-4.3,0.2
					C347.1,162.4,346.9,164,348,164.4L348,164.4z"/>
			</g>
		</g>
		<g>
			<g>
				<path class="st10" d="M353.3,157.4c-0.4,4.1-0.6,8.5-0.2,12.6c0.2,2,3,2,3.2,0c0.3-4.2-0.1-8.8-0.9-12.9
					C355.1,155.8,353.4,156.3,353.3,157.4L353.3,157.4z"/>
			</g>
		</g>
		<g>
			<g>
				<path class="st10" d="M364.5,157.4c-0.4,4.3-1.5,13.6,4.7,14.3c5.9,0.7,4.8-10.3,4.7-13.7c0-1.9-3-1.9-3,0c0,1.8,0,3.6-0.1,5.4
					c-0.1,1-0.2,4.9-1.3,5.3c-1.1,0.4-2-1.9-2.1-2.5c-0.2-1-0.3-2.1-0.3-3.1c-0.2-1.9-0.3-3.8-0.4-5.6
					C366.7,155.9,364.6,156,364.5,157.4L364.5,157.4z"/>
			</g>
		</g>
		<g>
			<g>
				<path class="st10" d="M384.3,159.9c-0.5-3.7-6.5-3.8-7.8-0.5c-0.7,1.8,0.3,3.4,1.7,4.6c0.8,0.7,1.8,1.3,2.7,2
					c0.6,0.5,1.6,1.1,0.7,2.1c-0.7,0.8-2-0.1-2.4-0.7c-1.1-1.7-3.8-0.1-2.7,1.6c2,3,7,3.4,8.5-0.4c0.7-1.8-0.4-3.3-1.7-4.5
					c-0.8-0.7-1.8-1.2-2.7-1.8c-0.7-0.5-2.1-1.2-0.7-2.5c0.7-0.7,2.3,0.4,2.8,1C383.4,161.6,384.4,160.7,384.3,159.9L384.3,159.9z"
					/>
			</g>
		</g>
		<g>
			<g>
				<path class="st10" d="M394.7,157c-2-0.4-4-0.3-6-0.3c-0.7,0-1.6,0.7-1.5,1.5c0.4,3.9,0.7,7.8,0.8,11.6c0,1.1,0.9,1.6,1.9,1.4
					c1.4-0.2,2.9-0.2,4.3-0.2c2,0,2-3.2,0-3.1c-1.7,0-3.4,0.2-5.1,0.5c0.6,0.5,1.3,1,1.9,1.4c-0.1-3.9-0.4-7.8-0.8-11.6
					c-0.5,0.5-1,1-1.5,1.5c2-0.1,4,0,6-0.4C395.8,159.1,395.9,157.2,394.7,157L394.7,157z"/>
			</g>
		</g>
		<g>
			<g>
				<path class="st10" d="M389.7,165.7c0.8,0,1.6-0.1,2.5-0.2c0.8-0.1,1.6-0.1,2.2-0.5c1.7-1.1-0.2-3.6-1.7-2.2
					c0.2-0.1-0.5,0.1-0.6,0.1c-0.3,0.1-0.6,0.1-0.9,0.2c-0.6,0.1-1.2,0.3-1.8,0.5C388.3,164,388.4,165.6,389.7,165.7L389.7,165.7z"
					/>
			</g>
		</g>
		<g>
			<g>
				<path class="st10" d="M399.6,158.6c0-0.1,0.1-0.1,0.1-0.2c1-1.5-2.1-2.5-2.1-0.6c0,4.3,0.1,8.6,0,12.9c-0.1,1.9,2.9,1.9,2.9,0
					c0.1-4.4,0-8.9-0.7-13.2c-0.6,0.4-1.2,0.7-1.9,1.1c0.1,0.1,0.1,0.1,0.2,0.2C398.5,159.2,399.3,159.1,399.6,158.6L399.6,158.6z"
					/>
			</g>
		</g>
		<g>
			<g>
				<path class="st10" d="M398.6,159.1c1,0.2,4.8,0.4,4.5,2c-0.3,1.8-3.2,1.7-4.3,2.5c-1.2,0.8-0.7,2.4,0.7,2.6
					c1.5,0.2,3.4-0.7,4.6-1.6c1.2-0.9,2-2.2,2-3.8c-0.1-3.6-4.8-4.2-7.6-3.6C397.7,157.4,397.7,158.9,398.6,159.1L398.6,159.1z"/>
			</g>
		</g>
		<g>
			<g>
				<path class="st10" d="M401.4,164.9c0.3,1.2,1.1,2.2,1.6,3.3c0.5,1,0.9,2.4,1.6,3.2c1.5,1.7,3.9-1.1,2-2.6c0.4,0.3,0.1,0,0-0.2
					c-0.1-0.3-0.3-0.6-0.5-0.9c-0.3-0.5-0.7-1-1-1.5c-0.6-0.9-1.3-1.9-2.2-2.5C402.2,163.3,401.2,164.1,401.4,164.9L401.4,164.9z"/>
			</g>
		</g>
		<g>
			<g>
				<path class="st10" d="M417,159.3c-1.3-3.6-6.5-3.7-7.8-0.1c-0.7,1.9,0.3,3.7,1.7,4.9c0.9,0.8,1.9,1.4,2.8,2.1
					c2.1,1.8-1.1,3.7-2.4,1.4c-0.9-1.6-3.3-0.2-2.5,1.4c1.8,3.8,6.7,3.5,8.4-0.3c0.8-1.8,0.2-3.2-1.2-4.4c-0.8-0.7-1.7-1.2-2.6-1.8
					c-0.5-0.3-1.4-0.9-1.5-1.5c1.1-1.7,1.9-2.1,2.5-1.2c0.2,0.2,0.3,0.4,0.6,0.5C415.8,161.2,417.5,160.5,417,159.3L417,159.3z"/>
			</g>
		</g>
	</g>
	<g>
		<g>
			<path class="st10" d="M320.3,352.9c1.8,0.8,3.9,0.4,5.8,0.8c2.1,0.5,2.1-3,0-2.5c-1.8,0.4-3.8-0.2-5.6,0.1
				C319.9,351.5,319.7,352.6,320.3,352.9L320.3,352.9z"/>
		</g>
	</g>
	<g>
		<g>
			<path class="st10" d="M360.1,353.4c0.9,0.8,2.5,0.5,3.6,0.6c1.6,0.1,3.2,0.3,4.7,0c1.9-0.4,1.1-3.5-0.8-2.9
				c-1.1,0.3-2.3,0.3-3.4,0.4c-0.8,0.1-2.4,0.5-3.2,0.3C360.1,351.5,359.3,352.7,360.1,353.4L360.1,353.4z"/>
		</g>
	</g>
	<g>
		<g>
			<g>
				<path class="st10" d="M296.9,351.1c-2.4,2.1-4.1,4.9-6,7.4c-1.2,1.5,1,3.3,2.2,1.7c1.8-2.6,4.1-5,5.6-7.7
					C299.3,351.4,297.8,350.3,296.9,351.1L296.9,351.1z"/>
			</g>
		</g>
		<g>
			<g>
				<path class="st10" d="M297.4,351.8c0,4.2-0.3,8.5,0,12.7c0.1,1.8,3,1.8,2.8,0c-0.4-4.3,0.2-8.7-0.7-12.9
					C299.2,350.3,297.4,350.6,297.4,351.8L297.4,351.8z"/>
			</g>
		</g>
		<g>
			<g>
				<path class="st10" d="M291.3,361.7c3.1,0.8,6.6-0.2,9.7,0.2c2,0.2,2-3,0-3.1c-3.1-0.1-6.8,0.2-9.7,1.1
					C290.4,360.1,290.4,361.4,291.3,361.7L291.3,361.7z"/>
			</g>
		</g>
		<g>
			<g>
				<path class="st10" d="M309,351.9c-1.1,3.9-0.2,8.6-0.4,12.6c-0.1,1.8,2.8,1.8,2.9,0c0-3.9,0.5-8.9-0.8-12.6
					C310.3,351.2,309.2,351.1,309,351.9L309,351.9z"/>
			</g>
		</g>
		<g>
			<g>
				<path class="st10" d="M310.7,353.6c0,0,0.1-0.1,0.1-0.1c-0.2,0.1-0.4,0.2-0.7,0.3c1.5,0.1,3.5-0.2,4.3,1.5
					c0.7,1.6-2.6,2-3.6,1.9c-1.9-0.1-1.9,2.8,0,3c3,0.2,8-2,6.2-5.8c-0.7-1.5-2-2.5-3.6-2.8c-1.3-0.2-3.5-0.2-4.3,1
					C308.7,353.4,310,354.3,310.7,353.6L310.7,353.6z"/>
			</g>
		</g>
		<g>
			<g>
				<path class="st10" d="M312.6,359.3c0.9,2.1,1.7,4.2,2.4,6.4c0.6,2,3.6,0.8,2.7-1.1c-1-2-2-4.1-3.3-6
					C313.8,357.7,312.1,358.2,312.6,359.3L312.6,359.3z"/>
			</g>
		</g>
		<g>
			<g>
				<path class="st10" d="M320.5,352c-0.8,1.7-0.6,3.7-0.6,5.6c-0.1,2.3-0.1,4.6-0.2,7c0,0.8,0.7,1.4,1.4,1.4c2,0,4,0.1,6-0.3
					c1.6-0.3,1.2-2.8-0.4-2.8c-1.9,0-3.7,0.3-5.6,0.3c0.5,0.5,0.9,0.9,1.4,1.4c0-2.3,0-4.6,0-7c0-1.9,0.2-3.8-0.5-5.6
					C321.8,351.4,320.8,351.4,320.5,352L320.5,352z"/>
			</g>
		</g>
		<g>
			<g>
				<path class="st10" d="M320.8,358.7c0.3,0.9,1.1,1,1.9,1.1c1,0.1,1.9,0.3,2.8-0.1c1.1-0.5,0.7-2.1-0.3-2.4c-0.6-0.2-1.3,0-2,0.1
					c-0.3,0-0.5,0.1-0.8,0.1c-0.1,0-0.2,0-0.3,0c-0.4,0-0.4,0-0.1,0C321.3,357.3,320.6,358,320.8,358.7L320.8,358.7z"/>
			</g>
		</g>
		<g>
			<g>
				<path class="st10" d="M337.7,354.5c-0.3-4-5.7-4.9-7.6-1.5c-0.8,1.5-0.7,3.2,0.5,4.3c1,1,2.5,1.3,3.6,2.2c0.8,0.7,2.3,2,1.2,3.4
					c-0.6,0.2-1.1,0.3-1.7,0.5c-0.8-0.2-1.3-0.7-1.6-1.4c-0.9-1.6-3.4-0.1-2.5,1.5c2,3.3,7.2,4.1,8.7-0.1c0.6-1.8-0.1-3.8-1.4-5.1
					c-0.8-0.9-1.9-1.6-3-2.2c-0.5-0.3-1.7-0.8-1.4-1.7c0.5-0.3,1-0.5,1.4-0.8c0.8,0.2,1.5,0.7,1.8,1.4
					C336.3,355.8,337.8,355.6,337.7,354.5L337.7,354.5z"/>
			</g>
		</g>
		<g>
			<g>
				<path class="st10" d="M341.3,352.1c0,3.1-0.3,6.7,0.4,9.8c0.5,2.1,2.3,3.5,4.4,3.7c5.9,0.5,5-9.6,4.6-13.2
					c-0.2-1.8-3.1-1.9-2.9,0c0.2,1.9,1.1,10.3-1.8,10.3c-2.7,0-2.5-8.7-2.7-10.6C343.1,350.8,341.2,350.7,341.3,352.1L341.3,352.1z"
					/>
			</g>
		</g>
		<g>
			<g>
				<path class="st10" d="M353.5,352.4c-0.2,2-0.1,4-0.1,6c0,1.7-0.3,3.7,0,5.3c0.5,2.8,4.8,1.7,6.7,1.4c1.9-0.3,1.1-3.3-0.8-2.9
					c-1.1,0.2-2.9,0.6-4,0.1c0.3,0.3,0.7,0.7,1,1c-0.4-1.8-0.2-4-0.3-5.9c-0.1-1.8-0.2-3.6-0.5-5.4
					C355.3,350.9,353.6,351.3,353.5,352.4L353.5,352.4z"/>
			</g>
		</g>
		<g>
			<g>
				<path class="st10" d="M363.4,353.2c-0.2,3.6-0.5,7.9,0.1,11.4c0.2,1.3,2.5,1.3,2.7,0c0.6-3.6-0.1-8.1-1-11.7
					C365,351.9,363.5,352.2,363.4,353.2L363.4,353.2z"/>
			</g>
		</g>
		<g>
			<g>
				<path class="st10" d="M378.7,354.2c-1.1-3-5.6-4.3-7.2-0.9c-0.8,1.6,0,3.5,1.1,4.6c0.8,0.8,1.9,1.3,2.7,2.1
					c0.6,0.6,1.6,2.1,0.6,2.9c-1,0.8-2.4-0.7-2.9-1.3c-1.2-1.5-3.2,0.6-2.1,2.1c2.3,2.8,7,3.9,8.3-0.5c0.5-1.7-0.1-3.6-1.4-4.9
					c-0.8-0.8-1.8-1.2-2.6-1.9c-0.3-0.3-0.7-0.7-1-1c0.2-0.4,0.4-0.9,0.7-1.3c0.8-0.4,2,0.4,2.5,1C377.9,355.6,379,355,378.7,354.2
					L378.7,354.2z"/>
			</g>
		</g>
	</g>
	<g>
		<g>
			<path class="st10" d="M327.9,226.6c-7.1-2.3-15.8,0-19.5,6.8c-3.3,6-1,13.6,5.5,16.2c6.2,2.5,14.7,2.4,18.3-4
				c3-5.4,2.9-14.4-3-17.7c-1.7-1-3.1,1.5-1.5,2.6c4.2,3.1,4.5,9.9,1.6,14.1c-3.1,4.6-10.9,4.1-15.3,1.7c-5.4-3-4.8-10.1-0.7-13.9
				c4-3.8,9.3-3.7,14.4-3.5C328.9,228.8,329.1,226.9,327.9,226.6L327.9,226.6z"/>
		</g>
	</g>
	<g>
		<g>
			<path class="st10" d="M321.6,259.3c-7.4-2.5-12,4.3-13.4,10.7c-1.5,7.2,2.8,12.8,10,14.1c6.4,1.2,12.2-2.6,14.5-8.6
				c2.8-7.3-0.7-13.1-7.5-16c-1.9-0.8-3.7,1.8-1.7,2.9c4.3,2.4,7.8,4.8,6.6,10.4c-1,4.6-4.7,8.2-9.4,8.3c-6,0.1-10.6-4.2-9.3-10.3
				c1.1-5.4,4-9.5,9.9-9C322.8,262,322.9,259.8,321.6,259.3L321.6,259.3z"/>
		</g>
	</g>
	<g>
		<g>
			<path class="st10" d="M508.3,203.6c-8.1-0.7-16.4-0.1-24.5-0.1c-11.5,0-23.1,0-34.6-0.1c-24.8-0.1-49.7-0.2-74.5-0.1
				c-9.5,0-19.1,0.1-28.6,0.5c-2.2,0.1-2.2,3.4,0,3.4c44.9-1.6,89.8-0.2,134.7-0.7c9.1-0.1,18.8,0.5,27.8-1
				C509.7,205.3,509.3,203.7,508.3,203.6L508.3,203.6z"/>
		</g>
	</g>
	<g>
		<g>
			<path class="st10" d="M508.3,270.1c-8.1-0.7-16.4-0.1-24.5-0.1c-11.5,0-23.1,0-34.6-0.1c-24.8-0.1-49.7-0.2-74.5-0.1
				c-9.5,0-19.1,0.1-28.6,0.5c-2.2,0.1-2.2,3.4,0,3.4c44.9-1.6,89.8-0.2,134.7-0.7c9.1-0.1,18.8,0.5,27.8-1
				C509.7,271.8,509.3,270.2,508.3,270.1L508.3,270.1z"/>
		</g>
	</g>
	<g>
		<g>
			<path class="st10" d="M508.3,236.9c-8.1-0.7-16.4-0.1-24.5-0.1c-11.5,0-23.1,0-34.6-0.1c-24.8-0.1-49.7-0.2-74.5-0.1
				c-9.5,0-19.1,0.1-28.6,0.5c-2.2,0.1-2.2,3.4,0,3.4c44.9-1.6,89.8-0.2,134.7-0.7c9.1-0.1,18.8,0.5,27.8-1
				C509.7,238.6,509.3,237,508.3,236.9L508.3,236.9z"/>
		</g>
	</g>
	<g>
		<g>
			<path class="st10" d="M508.3,303.4c-8.1-0.7-16.4-0.1-24.5-0.1c-11.5,0-23.1,0-34.6-0.1c-24.8-0.1-49.7-0.2-74.5-0.1
				c-9.5,0-19.1,0.1-28.6,0.5c-2.2,0.1-2.2,3.4,0,3.4c44.9-1.6,89.8-0.2,134.7-0.7c9.1-0.1,18.8,0.5,27.8-1
				C509.7,305.1,509.3,303.4,508.3,303.4L508.3,303.4z"/>
		</g>
	</g>
	<g>
		<g>
			<g>
				<path class="st10" d="M342.4,424.8c-0.2,5.8,0.1,11.5-0.2,17.3c-0.1,2.5,3.8,2.5,3.9,0c0.2-5.9,0.2-11.9-0.6-17.7
					C345.3,422.6,342.5,423.1,342.4,424.8L342.4,424.8z"/>
			</g>
		</g>
		<g>
			<g>
				<path class="st10" d="M344.3,424.9c1,5.5,4.3,10.4,4.8,16c0.2,2.2,3.2,2.8,3.9,0.5c1.7-5.3,3.7-10.5,6-15.6
					c-1.2-0.3-2.5-0.7-3.7-1c0,5.7-0.3,11.4,0.6,17c0.4,2.7,4.7,1.6,4.1-1.1c-1-5.2-0.7-10.6-0.7-15.9c0-1.8-2.9-2.9-3.7-1
					c-2.4,5.4-4.6,10.9-6.4,16.6c1.3,0.2,2.6,0.4,3.9,0.5c-0.8-5.6-3.6-12.1-6.7-16.9C345.7,422.9,344.1,423.6,344.3,424.9
					L344.3,424.9z"/>
			</g>
		</g>
		<g>
			<g>
				<path class="st10" d="M373.7,430.7c0.4-3.7-3-7.7-6.9-6c-4.2,1.8-4.3,8.2-3.7,11.9c0.6,3.5,3.1,8.9,7.6,6.8
					c4.2-1.9,4.3-9.2,3.9-13c-0.2-2.3-3.4-2.3-3.6,0c-0.2,2.1-0.2,4.3-0.7,6.4c-0.2,0.8-0.5,3.3-2.2,2.2c-0.6-0.4-0.8-2.3-0.9-3
					c-0.3-1.9-0.4-4.1,0.2-5.9c1.2-3.5,3.1-0.5,4.2,1.1C372.3,432.1,373.5,431.8,373.7,430.7L373.7,430.7z"/>
			</g>
		</g>
		<g>
			<g>
				<path class="st10" d="M388.2,428.8c-0.1-3.5-3.5-6-6.9-4.9c-4.2,1.4-4.6,6.9-4.3,10.6c0.3,3.5,1.7,8.7,5.8,9.4
					c3.9,0.7,5.9-4.4,6.1-7.5c0.2-2.2-3-2.4-3.7-0.5c-0.3,0.7-0.9,3.9-1.8,4c-1.3,0.2-2.1-2.8-2.2-3.7c-0.4-1.9-0.5-4.1-0.1-6
					c0.4-2.2,2.7-4.2,4-1.1C385.7,430.8,388.3,430.8,388.2,428.8L388.2,428.8z"/>
			</g>
		</g>
		<g>
			<g>
				<path class="st10" d="M392,424.3c-0.9,5.7-0.5,11.8-0.6,17.5c0,2.6,4,2.6,4,0c0-5.7,0.2-11.9-1.1-17.5
					C394.1,423.2,392.2,423.1,392,424.3L392,424.3z"/>
			</g>
		</g>
		<g>
			<g>
				<path class="st10" d="M400.7,423.7c-3.3,3.1-6,6.8-8.7,10.3c-1.6,2.1,2,4.2,3.6,2.1c2.5-3.5,5.3-6.9,7.6-10.5
					C404.1,424,401.9,422.5,400.7,423.7L400.7,423.7z"/>
			</g>
		</g>
		<g>
			<g>
				<path class="st10" d="M395.9,432.1c0,1.7,0.8,3.3,1.4,5c0.6,1.8,1.2,3.5,1.8,5.3c1.2-0.7,2.4-1.4,3.7-2.1
					c-0.1-0.1-0.2-0.2-0.3-0.3c-1.6-1.9-4.5,0.5-3.4,2.6c0.1,0.1,0.1,0.3,0.2,0.4c1.3,2.5,5.1,0.3,3.8-2.2c-0.9-1.6-1.7-3.3-2.6-4.9
					c-0.8-1.5-1.3-3.2-2.6-4.4C397.2,430.5,395.9,431,395.9,432.1L395.9,432.1z"/>
			</g>
		</g>
		<g>
			<g>
				<path class="st10" d="M407,424.7c-1.6,4.5-1.9,17.2,4.9,18.1c7.3,0.9,6.3-12.3,6.3-16.4c0-2.6-4.1-2.6-4.1,0
					c0,2.2,0.1,4.4-0.1,6.6c-0.1,1.4-0.3,6.3-2.6,4.6c-1.4-1-1.5-5.5-1.7-7c-0.2-2,0-4-0.5-6C409.1,423.5,407.4,423.7,407,424.7
					L407,424.7z"/>
			</g>
		</g>
		<g>
			<g>
				<path class="st10" d="M422.6,425.1c-1.1,5.4-0.8,11.4-1.2,16.8c-0.2,2.7,4.3,2.8,4.3,0c0.1-5.4,0.6-11.6-0.6-16.8
					C424.9,423.9,422.9,423.8,422.6,425.1L422.6,425.1z"/>
			</g>
		</g>
		<g>
			<g>
				<path class="st10" d="M424.2,427.5c1.7-0.1,5.1,0.3,5.5,2.5c0.3,1.7-3.2,2.1-4.3,2.2c-3.1,0.3-3,5.2,0,4.8
					c3.9-0.5,9.9-2.3,8.9-7.4c-1-5.1-6.2-5.8-10.4-4.8C422.3,425.1,422.6,427.6,424.2,427.5L424.2,427.5z"/>
			</g>
		</g>
	</g>
</g>
<g id="Layer_6">
	<g>
		<g>
			<path class="st10" d="M328.5,196.1c-6.1-4-15.1-3.8-19.8,2.4c-3.8,5.1-2.3,13.5,2.7,17.4c5.5,4.3,14.6,3.5,19.2-1.6
				c4-4.5,5.7-12.6,0.2-16.6c-1.4-1-3,1.2-1.8,2.3c3.9,3.8,2.1,9.9-1.5,13.1c-4.1,3.6-12.6,2.9-15.7-1.8c-2.8-4.3-2.6-10.1,2-13.1
				c4.3-2.8,9.3-1.2,13.7,0.2C329,199,329.7,196.9,328.5,196.1L328.5,196.1z"/>
		</g>
	</g>
	<g>
		<g>
			<path class="st10" d="M312.4,314.7c6.1,4,15.1,3.8,19.8-2.4c3.8-5.1,2.3-13.5-2.7-17.4c-5.5-4.3-14.6-3.5-19.2,1.6
				c-4,4.5-5.7,12.6-0.2,16.6c1.4,1,3-1.2,1.8-2.3c-3.9-3.8-2.1-9.9,1.5-13.1c4.1-3.6,12.6-2.9,15.7,1.8c2.8,4.3,2.6,10.1-2,13.1
				c-4.3,2.8-9.3,1.2-13.7-0.2C311.9,311.8,311.2,313.9,312.4,314.7L312.4,314.7z"/>
		</g>
	</g>
</g>
<g id="Layer_3">
</g>
</svg>
