<?xml version="1.0" encoding="utf-8"?>
<!-- Generator: Adobe Illustrator 19.1.0, SVG Export Plug-In . SVG Version: 6.00 Build 0)  -->
<svg version="1.1" xmlns="http://www.w3.org/2000/svg" xmlns:xlink="http://www.w3.org/1999/xlink" x="0px" y="0px" width="800px"
	 height="460px" viewBox="0 0 800 460" style="enable-background:new 0 0 800 460;" xml:space="preserve">
<style type="text/css">
	.st0{fill:#FFFFFF;}
	.st1{opacity:0.5;fill:#C6C6C6;}
	.st2{opacity:0.6;fill:#C6C6C6;}
	.st3{opacity:0.7;fill:#C6C6C6;}
	.st4{opacity:0.5;fill:#DFB945;}
	.st5{opacity:0.5;fill:#515251;}
	.st6{opacity:0.3;fill:#515251;}
	.st7{opacity:0.5;fill:#559DD5;}
	.st8{opacity:0.5;fill:#63C8CE;}
	.st9{opacity:0.5;fill:#ADD255;}
	.st10{fill:#1E1E1E;}
	.st11{fill:none;stroke:#A5CCCE;stroke-width:2;stroke-miterlimit:10;stroke-dasharray:5,10;}
	.st12{opacity:0.5;fill:#8BC174;}
	.st13{opacity:0.5;fill:#864C9E;}
</style>
<g id="Layer_2">
	<rect class="st0" width="800" height="460"/>
</g>
<g id="Layer_5">
	<path class="st1" d="M540.3,45.8c-3.3-0.7-6.7-1.3-10-1.9c1.4-1.2,2.6-2.8,3.6-4.6c0.9-1.6,3.3-9.5-1.3-9.1
		c-0.6,0.1-1.3,0.1-1.9,0.2c-0.3-0.9-0.8-1.6-1.9-2.1c-13.6-6.2-28.5-3.4-42.8-2.5c-0.1,0-0.3,0-0.4,0
		c-112.8-5.3-225.7-6.9-338.6-4.8c-35.9,0.7-71.8,1.7-107.6,3.1c-3.5,0.1-6.2,3.3-7.3,6.4c-0.6,1.5-1.1,5.4,0.5,6.8
		c-1,1.1-1.8,2.4-2.3,3.8c-0.7,1.9-1.4,7.4,2.2,7.3c0.6,0,1.2,0,1.8-0.1c-3.2,4-5.4,11.1-0.5,11c48.4-1.2,96.7-2.4,145.1-3.6
		c0.4,0.3,0.9,0.5,1.5,0.6c7.9,1.5,15.8,1.7,23.7,1.5c8.2,0.5,16.4,1,24.7,1.5c1.7,0.1,3.5-1,4.9-2.7c5.4-0.2,10.7-0.4,16.1-0.7
		c19-0.8,37.9-1.6,56.9-2.3c0.4,1.1,1.2,1.9,2.7,2.1c1.6,0.2,3.2,0.3,4.7,0.2c0.2,0,0.4,0,0.6,0c0.2,0.9,0.7,1.6,1.7,1.9
		c16.6,5.8,33.8,6.2,51.1,6c18.4-0.2,36.8-0.6,55.2-1c37.5-0.8,75.1-1.8,112.6-3.1C540.4,59.4,547.4,47.3,540.3,45.8z"/>
	<path class="st2" d="M242,48.3c-1.7-1.8-4-2.1-6.3-2.1c2-3.8,2.5-8.4-1.4-8.6c-26.6-1.6-53.3-3.2-79.9-4.8c-4.3-0.3-8.7,7.2-8,11.3
		c-0.6,0-1.2,0-1.8,0c-5.3,0.2-12.2,13-5.2,13.7c12.8,1.4,25.8,1,38.7-0.1c3.1,0.1,6.3,0.1,9.4,0.2c7.9,0.3,15.7,0.6,23.6,1
		c3.9,0.2,7.8,0.4,11.8,0.6c2,0.1,3.9,0.2,5.9,0.3c1,0.1,2,0.1,2.9,0.2c0.3,0.1,0.5,0.1,0.7,0.1c0.5,0.5,1.1,0.9,1.8,0.9
		c3.4,0,5.3-2.3,7.1-4.9C242.4,54.5,243.7,50.3,242,48.3z"/>
	<path class="st2" d="M52.1,31.6c-0.9,0.6-1.8,1.3-2.6,2.2c-0.1-0.2-0.2-0.4-0.4-0.6c-1.8-3-6,0-7.4,1.8c-2,2.5-3.7,6.5-1.9,9.6
		c2,3.4,5.9,5.7,9.9,5.4c6.1-0.5,11-7,10.8-12.9C60.5,32.4,56.6,28.8,52.1,31.6z M53.5,36.4C53.5,36.4,53.5,36.4,53.5,36.4
		C53.6,36.4,53.6,36.4,53.5,36.4z"/>
	<path class="st2" d="M88.8,31.6c-1.8-0.7-3.5-0.7-5.1-0.3c-0.4-0.3-0.9-0.5-1.6-0.6c-4.7-0.3-8.4,4.6-9.2,9.5
		c-0.6,1.1-1.1,2.3-1.2,3.4c-0.2,1.3-0.4,3.4,0.6,4.3c2.7,2.5,5.8,3.4,9,2.8c2.4,0.1,4.9-0.7,6.9-2.3c2.9-2.5,4.8-6.6,4.6-10.4
		C92.6,35.3,91.3,32.6,88.8,31.6z"/>
	<path class="st2" d="M112.6,33.5c-1.8-1.5-4.2-1.8-6.4-1.2c-3.4,0.8-6.2,3.4-8,6.3c-1.5,2.5-3.1,9.1,0.8,10.2
		c0.5,1.3,1.3,2.4,2.6,3.1c2.2,1.2,4.8,0.7,6.9-0.4c3.5-1.8,6-5.8,6.7-9.6C115.7,38.7,115,35.6,112.6,33.5z"/>
	<path class="st3" d="M165.7,42.1c-0.3-0.6-0.6-1.2-1-1.8c-0.3-0.3-0.6-0.6-0.9-0.8c-0.6-0.3-1.2-0.4-1.8-0.3
		c-0.6,0.1-1.2,0.2-1.8,0.5c-1.4-0.2-3.1,0.8-4,1.6c-1.4,1.2-2.7,3.1-3.3,4.8c-0.9,2.5-1.3,6.7,2.2,7.3c0.5,0.1,0.9,0.1,1.3,0.1
		c0.6,1.1,2.3,1.3,3.3,1c1.5-0.4,3.1-1.7,4-2.8C165.9,49,167.5,45.2,165.7,42.1z"/>
	<path class="st3" d="M114.6,34.4c-0.7-3.4-4.8-2.5-6.7-0.7c0,0-0.1,0.1-0.1,0.1c-0.1-0.2-0.2-0.3-0.3-0.4c-0.8-0.8-1.2-1.2-2.4-1.4
		c-1-0.1-2.2,0.3-3.1,0.7c-2.4,1.3-4,3.7-5,6.1c-0.9,2.2-1.2,5.2,0.4,7.1c0.8,1,2,1.7,3.2,2.2c3.3,1.4,6.4,0.9,9.2-1.4
		C113.3,43.8,115.5,39,114.6,34.4z"/>
	<path class="st3" d="M91.2,40.3c-0.9-1.2-2.1-1.2-3.4-1.1c1-0.1,0-0.1-0.2-0.1c-0.3,0-0.6-0.1-0.9-0.1c-0.1,0-0.3-0.1-0.5-0.2
		c-0.3-0.2-0.7-0.3-1-0.5c-0.2-0.1-0.3-0.2-0.4-0.3c0.4-2.3,0-5-2.6-5.4c-4-0.5-7.1,3.9-8.3,7.2c-1.1,2.8-1,6,0.8,8.6
		c2.5,3.6,6.6,4.8,10.8,4.3c1.4-0.1,3.2-1.8,4-2.8c1.2-1.4,2.2-3.4,2.5-5.2C92,43.2,92.1,41.5,91.2,40.3z"/>
	<path class="st3" d="M61.1,37.5c-3.3-0.6-6.4-1.6-9.3-3c-0.3-0.3-0.6-0.6-1.1-0.8c-0.6-0.2-1.2-0.5-1.8-0.7
		c-3.2-1.3-6.2,1.7-7.6,4.2c-1.3,2.2-2.8,7,0.1,8.7c4.5,2.6,9.4,4.3,14.5,5.2C61.6,52.2,67.7,38.7,61.1,37.5z"/>
	<path class="st4" d="M534.6,103.8c-1.8-0.2-3.6-0.4-5.4-0.5c-0.1-1.7-0.4-3.5-0.7-5.2c3.5-3.6,6.8-11.3,1.2-11.8
		c-0.6-0.1-1.2-0.1-1.7-0.1c1.1-1,2-2.4,2.7-3.7c0.9-1.8,2.3-6.8-0.6-7.8c-2.9-1.1-5.8-1.8-8.7-2.2c3.5-0.3,6.2-3.2,7.3-6.4
		c0.7-1.9,1.4-7.5-2.2-7.3c-34.3,1.5-68.5,2.9-102.8,3.4c-92.2,0-184.3-6.8-276.5-7c-36-0.1-72,0.9-107.9,3.6
		c-3.5,0.3-6.2,3.2-7.3,6.4c-0.4,1.1-0.9,3.8-0.3,5.6c-4.1,3.3-7.1,11.1-1.6,12.3c4.7,1.1,9.5,1.9,14.2,2.6c-2,0-4,0-6.1,0
		c-4.3,0-11.1,8.6-7.2,12.5c2,2,3.1,2.8,4.9,3.1c-1.1,0.8-2.1,1.6-3.1,2.5c-2.8,2.4-7.1,13,0.2,12c2.4-0.3,4.8-0.7,7.2-1
		c0.2,1.5,1,2.5,2.9,2.6c92,3.7,184.2,4,276.2,0.9c16.8-0.6,33.7-1.3,50.5-2.1c0.4,1.1,1.2,1.9,2.7,2c27.8,2.7,55.8,3.7,83.7,2.9
		c24.1,0.8,48.2,1.6,72.3,2.5c5.1,0.2,8.9-7,7.6-11.6C538.1,108.3,538.2,104.2,534.6,103.8z M494.2,74.1c-2,0.4-4,0.8-6,1.2
		c-42.1,1-84.2,1.8-126.3,1.4c-3.2-0.4-6.3-0.7-9.5-1.1c19.7,0.5,39.4,0.7,59.2,0.5c5.1-0.1,10.2-0.2,15.3-0.3
		C449.3,75.7,471.8,75.2,494.2,74.1z M517.8,105.5C517.9,105.5,517.9,105.5,517.8,105.5c0.1,0.4,0.2,0.9,0.3,1.4c0,0-0.1,0-0.1,0
		C518,106.3,518,105.9,517.8,105.5z"/>
	<path class="st5" d="M121.9,355.8c-0.7-20.3-2.9-40.4-4.6-60.6c2.6-43.8,4.1-87.6,4.3-131.5c0-0.6-1.6-1-3.8-1.3
		c0.7-7.8,1.5-15.6,2.5-23.4c0.6-4.5,2.5-10.4,1.4-14.9c-0.8-3.4-3.5-3.9-6.7-4.2c-2-0.2-10.1-1.2-11.3,1.1
		c-0.2,0.4-0.4,0.8-0.6,1.2c-4-0.5-9.9-0.2-11.1,0.9c-0.2-1.2-0.4-2.4-0.7-3.5c-0.5-2-11.4-2-14.3-0.5c-4.2-0.7-11.9-1-12.3,1
		c0,0.2-0.1,0.4-0.1,0.7c-0.8-0.8-1.9-1.4-3.3-1.7c-4.7-1.1-11.6-1.6-15.9,1.3c-3.8-0.9-12.9-0.8-13.4,0.9c-0.5,1.8-1.1,3.6-1.6,5.3
		c0,0.1,0.7,0.4,2,0.6c2.3,37.7,1.5,75.4,0,113.1c-1.6,39.9-3.4,79.9-0.8,119.8c0.7,10.7,1.6,10.4,2.6,21.1
		c0.7,7.6,1.7,15.8,8.2,20.8c2,1.5,12.8,2.1,14.5,0c2.7-3.2,3.4-7.7,3.5-12.3c0.4,5,0.9,9.9,1.3,14.9c0.2,2,14.9,2,15,0
		c0-0.2,0-0.3,0-0.5c1.4,1.1,9.3,1.5,12.9,0.7c2.3,0.9,5.1,1,7.5,1c2.8,0.1,6.2,0.1,9.2-0.8c0.5,0.3,1.1,0.6,1.7,0.8
		c1.5,0.6,13.9,1.6,14-0.7C122.4,385.1,122.6,376,121.9,355.8z M91.8,283.9c0-2.8,0-5.6,0-8.3c0.1,0,0.1,0,0.2,0
		C92,278.3,91.9,281.1,91.8,283.9z M92.4,396.7c0.4,0.2,0.8,0.5,1.2,0.7c-0.4,0.7-1,1.3-1.5,1.9C92.2,398.4,92.3,397.6,92.4,396.7z"
		/>
	<path class="st6" d="M120.1,355.7c-0.9-19.1-1.5-38.2-1.9-57.3c-0.8-38.3-0.7-76.7,0.4-115c0.3-10.6,0.6-21.1,1.1-31.7
		c0.2-5.6,0.5-11.2,0.7-16.8c0.2-4,1.8-9.3-1.5-12.3c-3.1-2.8-9.7-1.9-13,0c-1.1,0.6-1.5,1.3-1.6,2.6c-0.1,0.8,0.7,1.5,1.4,1.9
		c0.1,3.5-0.4,7.4-0.6,10.8c-0.2,4.6-0.4,9.2-0.6,13.9c-0.4,9.6-0.7,19.2-1,28.7c-0.5,18.8-0.9,37.7-0.9,56.5
		c-0.2,37.3,0.5,74.7,2,112c0.7,17.8,1.6,34.9-1.7,52.5c-0.8,4.2,13.2,4.4,14.7,0.9c0.4-1,0.9-2,1.3-3c0.4-0.8,0.2-1.5-0.3-2.1
		C120.9,383.3,120.7,369.8,120.1,355.7z"/>
	<path class="st4" d="M530.3,107.2c-127.5,2.2-254.8-6.3-382.3-4.4c-36.3,0.5-72.5,1.9-108.7,4.6c-3.5,0.3-6.2,3.2-7.3,6.4
		c-0.7,1.8-1.4,7.6,2.2,7.3c127.2-9.4,254.7-2.5,382.1-0.4c36.3,0.6,72.6,0.8,109,0.2C531,120.8,536.7,107.1,530.3,107.2z"/>
</g>
<g id="Layer_1">
</g>
<g id="Layer_6">
	<g>
		<g>
			<g>
				<path class="st10" d="M210.8,421.2c-1,6-1.2,12.2-1.6,18.3c-0.2,2.4,3.7,2.5,3.8,0c0.4-5.9,1-12,0.7-17.9
					C213.7,420,211.1,419.4,210.8,421.2L210.8,421.2z"/>
			</g>
		</g>
		<g>
			<g>
				<path class="st10" d="M212.2,421.7c0.7,5.1,2.6,11.4,5.1,15.9c1,1.8,3.8,0.6,3.3-1.4c-0.7-2.8-2.1-5.4-3.1-8.1
					c-0.9-2.5-1.7-5.1-2.8-7.5C213.9,419.1,212,420.3,212.2,421.7L212.2,421.7z"/>
			</g>
		</g>
		<g>
			<g>
				<path class="st10" d="M220,438.6c2.8-4.9,3.7-10.5,6.3-15.5c-1,0-2.1,0-3.1,0c1,1.8,0.1,6.2,0,8.1c-0.1,2.9-0.1,5.8-0.2,8.8
					c-0.1,2.4,3.8,2.5,3.8,0c0-3.6,0-7.2,0.1-10.8c0-2.6,0.6-5.5-0.6-7.9c-0.6-1.2-2.4-1.1-3.1,0c-2.8,5.1-3.6,10.9-5.7,16.3
					C216.9,439,219.3,439.9,220,438.6L220,438.6z"/>
			</g>
		</g>
		<g>
			<g>
				<path class="st10" d="M231.8,439.3c2.1-5.5,4.4-10.9,6.3-16.5c-1.2,0-2.3,0-3.5,0c1.1,5.6,2.6,11.1,4.5,16.4
					c0.8,2.3,4.1,1.4,3.7-1c-0.4-2.5-1.7-5.1-2.5-7.5c-0.9-2.9-1.6-5.9-2.2-8.8c-0.4-1.8-3-1.7-3.5,0c-1.6,5.6-3,11.3-4.9,16.9
					C229.3,440.1,231.3,440.6,231.8,439.3L231.8,439.3z"/>
			</g>
		</g>
		<g>
			<g>
				<path class="st10" d="M232.1,435.8c1.9,0.6,4,0.5,5.9,0.4c2.8-0.1,2.3-4.3-0.5-3.8c-1.8,0.3-3.6,0.3-5.4,0.6
					C230.7,433.3,230.9,435.4,232.1,435.8L232.1,435.8z"/>
			</g>
		</g>
		<g>
			<g>
				<path class="st10" d="M245.9,421.9c-1.1,2.4-0.8,5.1-0.8,7.7c0,2.9-0.3,5.9,0.3,8.8c0.3,1.8,3.5,1.9,3.8,0
					c0.4-2.9,0.1-5.9,0-8.8c-0.1-2.6,0.2-5.4-1.1-7.7C247.6,421.1,246.3,421,245.9,421.9L245.9,421.9z"/>
			</g>
		</g>
		<g>
			<g>
				<path class="st10" d="M256.1,438.6c0.1-5.7,0.3-11.5,0.8-17.2c-1.3,0.2-2.5,0.3-3.8,0.5c2.1,5.6,4.6,11,7.1,16.5
					c0.9,1.9,3.9,0.9,3.8-1c-0.2-5-0.2-9.9,0.2-14.9c0.2-2.6-3.8-2.6-4,0c-0.4,4.9-0.5,9.9-0.2,14.9c1.3-0.3,2.5-0.7,3.8-1
					c-2.6-5-4.8-10.2-6.9-15.4c-0.8-2-3.7-1.8-3.8,0.5c-0.3,5.7-0.3,11.4,0,17.2C253.2,440.5,256.1,440.5,256.1,438.6L256.1,438.6z"
					/>
			</g>
		</g>
		<g>
			<g>
				<path class="st10" d="M275.4,421.8c0,5.3,0.2,10.6,0.3,16c0,1.1,0.9,1.9,1.9,1.9c1.8,0.1,3.6,0.2,5.4,0.4c2.6,0.2,2.6-3.9,0-4
					c-1.8-0.1-3.6-0.2-5.4-0.2c0.6,0.6,1.3,1.3,1.9,1.9c-0.5-5.4-0.9-10.9-1.7-16.3C277.7,420,275.4,420.4,275.4,421.8L275.4,421.8z
					"/>
			</g>
		</g>
		<g>
			<g>
				<path class="st10" d="M288.6,438.7c2.3-5.4,4.4-11,6.1-16.6c-1.1,0-2.3,0-3.4,0c1.6,5.3,3,10.7,3.6,16.2
					c0.3,2.8,4.4,2.3,3.8-0.5c-1.1-5.6-2.3-11.2-4.1-16.6c-0.6-1.7-2.8-1.6-3.4,0c-1.9,5.4-3.7,11-5,16.6
					C286,439.1,288,440.1,288.6,438.7L288.6,438.7z"/>
			</g>
		</g>
		<g>
			<g>
				<path class="st10" d="M289,435c2,0.2,4,0.1,6-0.2c2.3-0.3,1.4-4.1-1-3.5c-1.6,0.4-3.3,0.7-5,0.8
					C287.1,432.1,287.1,434.9,289,435L289,435z"/>
			</g>
		</g>
		<g>
			<g>
				<path class="st10" d="M299,422.5c1.3,2.8,3.4,5.4,5.2,7.9c1.6,2.3,5-0.2,3.1-2.4c-2.1-2.4-3.7-5.1-5.9-7.4
					C300.2,419.3,298.4,421,299,422.5L299,422.5z"/>
			</g>
		</g>
		<g>
			<g>
				<path class="st10" d="M309.8,420.6c-2.1,2.4-4.8,5.2-6.2,8.1c-1.5,3.1-0.8,7.2-0.1,10.5c0.5,2.4,4.1,1.8,4.1-0.6
					c0-3.3-1.2-6.6,0.5-9.7c1.3-2.4,3.1-4.3,3.8-7C312.4,420.6,310.7,419.6,309.8,420.6L309.8,420.6z"/>
			</g>
		</g>
		<g>
			<g>
				<path class="st10" d="M325.6,425.2c0-4.1-4.6-6.4-8.1-4.5c-4.5,2.4-5,8.4-4.3,13c0.6,4,4.3,8,8.5,5.7c4.8-2.6,4.5-10.3,4.7-14.9
					c0.1-2.5-3.9-2.5-3.9,0c0,2.1,0,4.2-0.4,6.3c-0.2,1.1-0.6,2.6-1.2,3.5c-1.1,1.6-2.9,1-3.5-0.9c-0.5-1.6-0.4-3.9,0-5.6
					c0.4-1.9,4.1-7,5.6-2.3C323.4,427,325.7,426.8,325.6,425.2L325.6,425.2z"/>
			</g>
		</g>
		<g>
			<g>
				<path class="st10" d="M329.2,421.3c-0.5,4.1-1.1,8.9-0.6,13c0.3,2.8,2.5,4.8,5.4,5c8,0.8,7.1-11.9,7-16.9c0-2.7-4.2-2.7-4.1,0
					c0.1,1.8,0.7,14-3.1,12.5c-1.7-0.7-1.2-5.1-1.2-6.5c-0.1-2.4-0.2-4.8-0.5-7.1C331.8,419.5,329.4,419.5,329.2,421.3L329.2,421.3z
					"/>
			</g>
		</g>
		<g>
			<g>
				<path class="st10" d="M344.4,423.9c3,0.7,6.3,1.4,9.4,1.6c2.2,0.1,2.7-3.4,0.5-3.9c-3-0.6-6.4-0.8-9.5-0.9
					C343,420.6,342.6,423.4,344.4,423.9L344.4,423.9z"/>
			</g>
		</g>
		<g>
			<g>
				<path class="st10" d="M347.8,423c-0.8,5.1-1.4,10.2-1.3,15.4c0,2.9,4.7,2.9,4.5,0c-0.3-5-0.4-9.9,0.1-14.9
					C351.4,421.5,348.2,421.1,347.8,423L347.8,423z"/>
			</g>
		</g>
	</g>
	<g>
		<g>
			<path class="st10" d="M32.9,60c15.5,1,31.3,0.2,46.9,0.2c37.1-0.1,74.2-0.3,111.3-0.4c45.7-0.2,91.4-0.3,137-0.3
				c41.3-0.1,82.6,0,124,0.2c24,0.1,48-0.1,72,1c1.2,0.1,2.3,0.1,3.5,0.2c2.7,0.2,2.7-4.1,0-4.2c-21-1.4-42.3-0.6-63.3-0.7
				c-39.9-0.1-79.9-0.1-119.8,0c-45.8,0.1-91.7,0.3-137.5,0.4c-38.8,0.2-77.6,0.3-116.5,0.5c-12.7,0.1-25.3,0.1-38,0.3
				c-6,0.1-12.6-0.5-18.6,0.3c-0.3,0-0.7,0-1,0C31.3,57.4,31.3,59.9,32.9,60L32.9,60z"/>
		</g>
	</g>
	<g>
		<g>
			<path class="st10" d="M56.5,33.7c-5-3.5-12.5-3.1-16.3,2C37.1,40,38.3,47,42.5,50.2c4.5,3.5,12,2.9,15.8-1.3
				c3.3-3.7,4.7-10.6,0.1-13.8c-1.4-1-2.9,1.2-1.8,2.3c2.9,2.9,1.6,7.6-1.3,10.1c-3.1,2.7-9.8,2.2-12.1-1.4c-2.2-3.3-2.1-7.7,1.5-10
				c3.4-2.2,7.3-0.9,10.8,0.1C57,36.6,57.7,34.6,56.5,33.7L56.5,33.7z"/>
		</g>
	</g>
	<g>
		<g>
			<path class="st10" d="M84.2,32.1C78.3,30,71,32,67.8,37.7C65,42.8,67,49.3,72.5,51.5c5.2,2.1,12.4,2,15.5-3.4
				c2.5-4.5,2.5-12.2-2.6-15c-1.8-1-3,1.5-1.5,2.6c3.3,2.5,3.5,7.9,1.2,11.3c-2.5,3.7-8.8,3.2-12.3,1.3c-4.3-2.4-3.8-8.1-0.6-11.1
				c3.2-3.1,7.6-2.9,11.7-2.9C85.3,34.3,85.4,32.5,84.2,32.1L84.2,32.1z"/>
		</g>
	</g>
	<g>
		<g>
			<path class="st10" d="M106.2,31.5c-6.4-2.3-10.6,3.8-11.7,9.3c-1.3,6.3,2.5,11.3,8.8,12.4c5.6,1,10.7-2.3,12.8-7.5
				c2.4-6.3-0.6-11.5-6.6-14c-1.9-0.8-3.7,1.8-1.7,2.9c3.6,2,6.5,4,5.6,8.7c-0.8,3.8-3.9,6.9-7.9,6.9c-5,0.1-8.8-3.4-7.8-8.5
				c0.9-4.6,3.3-7.9,8.3-7.6C107.4,34.2,107.5,32,106.2,31.5L106.2,31.5z"/>
		</g>
	</g>
	<g>
		<g>
			<path class="st10" d="M136.4,59.1c2.5-3.6,4.6-7.4,6.9-11.1c1.9-3,4-7.8,6.8-10.1c3.7-3,12.7-1.1,17.3-1.3
				c7.8-0.3,15.5-0.2,23.3,0.1c13.2,0.5,26.7-0.6,39.8,1c0.7,0.1,1.5,0.1,2.1,0.3c-1.6-0.5-0.7-0.9-0.5,0.2c0.3,1.7,1.7,3.7,2.5,5.3
				c2.2,4.7,4.8,9.2,6.8,14c1,2.2,4.4,0.3,3.3-1.9c-2.5-5-5.1-9.8-7.5-14.9c-1.3-2.7-1.7-5.5-4.6-6.3c-5.3-1.4-11.5-1.1-16.9-0.9
				c-9,0.3-18-0.1-26.9-0.3c-8.8-0.2-17.5,0.5-26.3,0.6c-4.1,0.1-10.4-1.2-13.9,1.7c-2.8,2.2-4.8,6.7-6.7,9.6
				c-2.6,4.2-5.5,8.4-7.5,12.9C133.8,59.3,135.5,60.3,136.4,59.1L136.4,59.1z"/>
		</g>
	</g>
	<g>
		<g>
			<path class="st10" d="M162,42.9c-2.4-1.9-6.2-1.9-8.3,0.6c-1.9,2.2-1.4,6,0.9,7.8c2.3,1.9,6.3,1.6,8.3-0.6c1.7-1.9,2.5-5.6,0-7.3
				c-1-0.6-1.9,0.8-1.2,1.5c3.2,3.5-3.8,7.8-6.2,4c-1-1.5-1-3.5,0.6-4.6c1.6-1.1,3.5-0.3,5.2,0C161.9,44.6,162.7,43.5,162,42.9
				L162,42.9z"/>
		</g>
	</g>
	<g>
		<g>
			<path class="st10" d="M32.8,45.4c0.2-4.1-0.7-8.6,0.5-12.6c2.1-7.2,10.1-6.4,16.1-6.5c3.3,0,6.6,0,9.8,0.1c1.4,0,2.7,0,4.1,0
				c7.1,0,14.2,0,21.3,0c27.5,0,54.9,0.1,82.4,0.1c37.4,0,74.9,0,112.3,0c37.5,0,75.1,0,112.6,0c28.3,0,56.7,0,85,0
				c7.6,0,15.3,0,22.9,0c1.7,0,3.4,0,5.1,0c0.2,0,0.5,0,0.7,0c3.7,0.1,7.3,0.3,11,0.5c2.7,0.1,4.9,0.1,7.4,1.1
				c3.6,1.3,4.4,4.3,4.8,7.9c0.9,7.6,0,16.3,0.1,24.1c0,10.7,0.1,21.4,0.1,32.1c0.1,34.4,0.2,68.9,0.4,103.3
				c0.1,37.3,0.3,74.5,0.4,111.8c0.1,21.8,0.1,43.7,0.2,65.5c0,2.3-0.1,4.5-0.1,6.8c-0.2,4.3-0.1,8.7-0.5,12.9
				c-0.6,6.3-5,7.4-10.4,7.7c-5.2,0.3-10.5,0.4-15.7,0.5c-4,0.1-8,0-12.1,0c-23.6,0.1-47.3,0.2-70.9,0.3
				c-36.1,0.1-72.3,0.3-108.4,0.4c-38.1,0.1-76.3,0.3-114.4,0.4c-30.2,0.1-60.4,0.2-90.6,0.4c-13.4,0.1-26.9,0.3-40.2-0.4
				c-9.3-0.5-18.2,1.7-27.3-1.4c-8.3-2.9-6.4-16.9-6.5-24c0-1.2,0-2.3,0-3.5c0-8.1,0-16.2,0-24.3c0-31.8,0-63.5,0-95.3
				c0-38.3,0-76.5,0-114.8c0-27.1,0-54.2,0-81.3C32.7,53.4,32.7,49.4,32.8,45.4c0-1.4-2.2-1.4-2.2,0c0,16.1-0.1,32.1-0.2,48.2
				c-0.1,35.9-0.3,71.9-0.4,107.8c-0.1,37.5-0.3,75.1-0.4,112.6c-0.1,20.4-0.3,40.7-0.2,61.1c0,6.3-0.3,12.9,0.9,19.1
				c2.9,15.9,25.1,10.4,36.3,11.1c4.8,0.3,9.4,0.5,14.3,0.5c23.1-0.1,46.2-0.2,69.2-0.3c36.4-0.1,72.9-0.3,109.3-0.4
				c39.1-0.1,78.3-0.3,117.4-0.4c30.6-0.1,61.3-0.2,91.9-0.4c15.9-0.1,31.8,0,47.6-0.6c5.1-0.2,11.6-0.2,14.7-5.1
				c1.4-2.2,1.6-4.9,1.7-7.5c0.3-5.1,0.6-10.3,0.6-15.4c0-1.2,0-2.4,0-3.5c0-8.4-0.1-16.8-0.1-25.2c-0.2-33-0.3-65.9-0.4-98.9
				c-0.2-38.7-0.3-77.5-0.5-116.2c-0.1-25.1-0.2-50.3-0.3-75.4c0-2,0-3.9,0-5.9c0-7.2,2.5-20.1-4.9-24.9c-2.8-1.8-6.5-1.6-9.6-1.7
				c-4-0.2-8-0.5-11.9-0.5c-0.2,0-0.5,0-0.7,0c-1.8,0-3.5,0-5.3,0c-20.8,0-41.5,0-62.3,0c-35.1,0-70.3,0-105.4,0
				c-39.5,0-79.1,0-118.6,0c-33.4,0-66.9,0-100.3,0.1c-17.4,0-34.7,0.1-52.1,0.1c-2.6,0-5.1,0-7.7-0.1c-5.7,0-14.6-1.1-19.2,3.1
				c-5.1,4.7-3.3,12.6-3.5,18.7C30.5,46.8,32.7,46.8,32.8,45.4z"/>
		</g>
	</g>
	<g>
		<g>
			<path class="st10" d="M116.2,120.8c-0.7,13.6-0.2,27.2-0.3,40.8c-0.1,20.5-0.3,41-0.6,61.5c-0.5,44.5-1,88.9-1.2,133.4
				c-0.1,15.8-0.2,31.7,0.2,47.5c0.1,2.2,3.4,2.2,3.4,0c-0.8-34.1-0.1-68.2,0.2-102.3c0.4-44.5,0.8-88.9,0.9-133.4
				c0-15.7,0.9-31.8-0.7-47.5C118,119.6,116.3,119.6,116.2,120.8L116.2,120.8z"/>
		</g>
	</g>
	<g>
		<g>
			<path class="st10" d="M530.8,119.6c-25-0.7-50.2-0.2-75.2-0.3c-35.7-0.1-71.3-0.3-107-0.6c-76.4-0.5-152.8-1-229.2-1.2
				c-28.8-0.1-57.7-0.2-86.5,0.2c-2.2,0-2.2,3.4,0,3.4c60.7-0.7,121.5-0.1,182.2,0.2c76.4,0.4,152.8,0.8,229.2,0.9
				c28.8,0,57.8,0.9,86.5-0.7C532,121.5,532.1,119.7,530.8,119.6L530.8,119.6z"/>
		</g>
	</g>
	<path class="st11" d="M498.2,376.5h-350c-3.3,0-6-2.7-6-6V151.6c0-3.3,2.7-6,6-6h350c3.3,0,6,2.7,6,6v218.8
		C504.2,373.8,501.5,376.5,498.2,376.5z"/>
	<g>
		<path class="st0" d="M464.7,100.4c0.2-2.2-0.3-4.3-0.1-6.5c0.3-2.2,1.5-4.4,4.4-5.5c0.7-0.3,1.5-0.5,2.3-0.6
			c1.7-0.3,3.5-0.4,5.3-0.5c5.1-0.2,10.2-0.1,15.2-0.1l247.7,0c4.9,0.1,9.7,0.3,14.6,0.4c2.1,0.1,4.3,0.1,6.1,0.9
			c1.3,0.6,2.3,1.5,2.9,2.5c1.5,2.3,1.4,5,1.3,7.5c-0.1,1.6-0.1,3.3-0.2,4.9l1.3,202.1c-0.2,3.3-0.4,6.6-0.6,9.9
			c-0.1,1.5-0.2,3-1.5,4.3c-2.3,2.3-7.1,2.6-11.3,2.7c-5,0.1-10,0.2-14.9,0.3l-233,1c-2.7-0.3-5.4-0.4-8.1-0.4
			c-2.9,0-5.8,0.3-8.6,0.4c-4.9,0.1-9.8-0.2-14.5-1c-1.7-0.3-3.4-0.7-4.8-1.4c-3.2-1.7-3.6-4.8-3.8-7.5c-0.1-2.7-0.3-5.3-0.4-8
			L464.7,100.4z"/>
		<g>
			<path class="st10" d="M465.8,100.4c0.1-2.3-0.5-5.1,0.2-7.3c1.5-4.2,6.1-4.3,9.8-4.4c5.4-0.2,10.8-0.1,16.1-0.1
				c0.6,0,1.1,0,1.7,0c3.8,0,7.7,0,11.5,0c16.1,0,32.3,0.1,48.4,0.1c43.8,0,87.6,0.1,131.5,0.1c15,0,30.1,0,45.1,0c3,0,6.1,0,9.1,0
				c5,0.1,10,0.2,15,0.4c4.3,0.2,8.1,1.3,8.7,6.3c0.3,2.1,0,4.3-0.1,6.4c0,0.7,0,1.4-0.1,2.1c-0.3,31.5,0.4,63.1,0.6,94.7
				c0.2,34.8,0.4,69.7,0.6,104.5c0,0.8,0,1.6,0,2.5c-0.1,4.2,0.6,11.9-3.8,14.3c-3.9,2.1-11.1,1-15.3,1.1c-4.1,0.1-8.2,0.2-12.3,0.2
				c-13.5,0.1-27,0.1-40.5,0.2c-43.5,0.2-87,0.4-130.4,0.6c-15.7,0.1-31.4,0.1-47.1,0.2c-3.2,0-6.5,0.2-9.7,0
				c-4.6-0.2-9.1-0.4-13.7-0.2c-5.3,0.3-10.6,0.2-16-0.6c-3.6-0.5-7.5-1-8.7-5.3c-0.7-2.5-0.4-5.5-0.6-8.1
				c-0.5-9.2-0.1-18.6-0.1-27.8c0-20,0-40.1,0-60.1c0-37.7,0-75.3-0.1-113C465.7,104.9,465.7,102.7,465.8,100.4c0-1.4-2.2-1.4-2.2,0
				c-0.1,30.5-0.4,60.9-0.5,91.4c-0.2,37-0.5,73.9-0.6,110.9c0,5.8-1.3,13.7,2.5,18.2c2.7,3.2,7.4,3.6,11.3,4.1
				c4.9,0.6,9.9,0.7,14.8,0.4c4.7-0.2,9.2,0,13.8,0.2c10.3,0.4,20.8-0.1,31.1-0.1c44.2-0.2,88.3-0.4,132.5-0.6
				c17.9-0.1,35.8-0.2,53.7-0.3c4.4,0,8.8,0,13.2-0.1c0.7,0,1.3,0,2,0c4.7-0.1,9.3-0.2,14-0.3c3.6-0.1,7.9,0,11.2-1.7
				c5.8-2.9,4.6-11.6,4.8-17c0-0.9,0-1.9,0-2.8c0-5.3-0.1-10.5-0.1-15.8c-0.2-19.7-0.3-39.4-0.4-59.2c-0.3-39.2-0.5-78.5-0.8-117.7
				c0-3.9,0.1-7.7,0.1-11.6c0.1-8.5-3.6-12.1-11.9-12.5c-5-0.2-10.1-0.4-15.1-0.4c-9.9-0.1-19.8,0-29.6,0c-43.6,0-87.1,0-130.7,0
				c-28.9,0-57.8,0.2-86.7,0.1c-6.7,0-13.6-0.5-20.2,0.5c-2.7,0.4-5.4,1.4-7.1,3.7c-2.1,3-1.1,6.8-1.2,10.3
				C463.5,101.9,465.7,101.9,465.8,100.4z"/>
		</g>
	</g>
	<g>
		<g>
			<g>
				<path class="st10" d="M592.3,431.5c1.7-3.6,0.9-9.4-3.5-10.4c-5.3-1.2-8.4,2.1-8.5,7.2c0,4,0.8,10.8,5.7,11.7
					c5.3,1,6.7-4.5,6.5-8.5c-0.1-2.2-3.6-2.2-3.4,0c0.1,1,0.2,2.3-0.1,3.2c-0.4,0.6-0.7,1.2-1.1,1.7c-0.9-0.2-1.8-0.5-2.7-0.7
					c-1.2-1-1.4-4.9-1.5-6.2c-0.2-2.8,0.9-5.8,4.2-4.6c2.3,0.8,2,3.9,2.1,6.1C590.1,432.1,591.8,432.7,592.3,431.5L592.3,431.5z"/>
			</g>
		</g>
		<g>
			<g>
				<path class="st10" d="M595.3,423.6c3.6,0.5,7.3,0.7,10.9,1c1.8,0.1,2.5-2.2,1.4-3.4c-0.1-0.1-0.2-0.2-0.3-0.3
					c-1.5-1.7-4.3,0.5-3.1,2.4c0.1,0.1,0.1,0.2,0.2,0.3c0.6-1,1.2-2,1.7-3c-3.6,0.1-7.3,0.1-10.9,0.4
					C593.6,421.1,593.7,423.4,595.3,423.6L595.3,423.6z"/>
			</g>
		</g>
		<g>
			<g>
				<path class="st10" d="M598.8,423.6c0,4.9,0.2,9.8,0.2,14.8c0,2.2,3.5,2.8,4,0.5c0-0.2,0.1-0.3,0.1-0.5c0.5-2.6-3.4-3.6-3.9-1.1
					c0,0.2-0.1,0.3-0.1,0.5c1.3,0.2,2.6,0.4,4,0.5c-0.1-5.1-0.4-10.2-1.2-15.2C601.5,421.4,598.8,421.9,598.8,423.6L598.8,423.6z"/>
			</g>
		</g>
		<g>
			<g>
				<path class="st10" d="M609.8,422.5c-1.1,5.2-0.8,10.9-1.2,16.2c-0.2,2.5,3.9,2.5,3.9,0c0-5.3,0.6-10.9-0.2-16.2
					C612.1,421.2,610,421.3,609.8,422.5L609.8,422.5z"/>
			</g>
		</g>
		<g>
			<g>
				<path class="st10" d="M611.1,432.9c2.5-0.3,5.1-0.6,7.7-0.3c2.6,0.3,2.6-4.5-0.5-3.9c-2.5,0.5-5.1,0.7-7.6,1.1
					C608.9,430.1,609.3,433.1,611.1,432.9L611.1,432.9z"/>
			</g>
		</g>
		<g>
			<g>
				<path class="st10" d="M621,423.6C621.1,423.6,621.1,423.6,621,423.6c0.4-0.4,0.6-1,0.4-1.4c0,0,0-0.1,0-0.1
					c-0.4-1-1.6-1.5-2.4-0.6c-1.4,1.5-0.7,4.9-0.7,6.8c0,3.5-0.1,6.9-0.1,10.4c1.5-0.2,3-0.4,4.5-0.6c-0.1-0.3-0.1-0.6-0.2-0.8
					c-0.5-2.4-4.4-1.9-4.3,0.6c0,0.3,0,0.6,0,0.9c0.1,2.9,4.7,2.9,4.5,0c-0.3-5.4-1.2-10.8-1.3-16.2c-0.4,0.5-0.7,0.9-1.1,1.4
					c0,0,0.1,0,0.1,0c-0.6-0.4-1.1-0.9-1.7-1.3c0,0,0,0.1,0,0.1C618.7,423.9,620.3,424.4,621,423.6L621,423.6z"/>
			</g>
		</g>
		<g>
			<g>
				<path class="st10" d="M634,421.5c-2.4-0.4-6.5-1.5-8.5,0.1c-2.1,1.7-0.9,5.7-0.8,7.9c0,1.8,0,3.7-0.2,5.5
					c-0.1,1.2-0.4,2.5,0.2,3.7c1.4,2.9,5.2,1.4,7.6,1.1c3.4-0.4,2.8-5.3-0.6-4.6c-1.4,0.3-3,0.7-4.5,0.7c0.5,0.2,1.1,0.4,1.6,0.7
					c0.2,0.1,0.4-3,0.4-3.7c0-1.8,0-3.7-0.1-5.5c-0.1-0.7-0.2-1.5-0.2-2.2c-0.2-1.9-0.1-0.3,0-0.3c1.7,0,3.5-0.3,5.2-0.6
					C635.4,424,635.4,421.8,634,421.5L634,421.5z"/>
			</g>
		</g>
		<g>
			<g>
				<path class="st10" d="M627.8,431.7c0.8,0,1.5,0,2.3-0.1c0.8,0,1.7,0,2.5-0.3c0.9-0.4,1.5-1.1,1.4-2.1c-0.1-0.9-0.9-1.7-1.9-1.7
					c-0.8,0-1.5,0.3-2.3,0.5c-0.7,0.2-1.3,0.2-2,0.3C625.7,428.5,625.7,431.6,627.8,431.7L627.8,431.7z"/>
			</g>
		</g>
		<g>
			<g>
				<path class="st10" d="M640.3,423.7C640.3,423.7,640.3,423.7,640.3,423.7c-0.7-0.4-1.4-0.6-2.1-0.9c-0.5,5-1.2,10.5-0.7,15.5
					c0.3,2.5,3.6,2.5,3.9,0c0.4-3.5,0-7.1-0.2-10.6c-0.1-1.6,0.4-4.9-1.2-6c-1.1-0.8-2.2,0.7-1.7,1.7c0,0,0,0,0,0.1
					C638.7,424.1,639.8,424.3,640.3,423.7L640.3,423.7z"/>
			</g>
		</g>
		<g>
			<g>
				<path class="st10" d="M640.4,424.3c1.1,0,5,0,4.9,1.7c-0.1,1.9-2.8,2.1-4.2,2c-2.9-0.2-2.8,4.2,0,4.5c3.8,0.4,8.3-2.2,8.3-6.4
					c0-4.4-5.6-5.3-9-4.9C638.4,421.4,638.3,424.4,640.4,424.3L640.4,424.3z"/>
			</g>
		</g>
		<g>
			<g>
				<path class="st10" d="M643,431.6c0.4,1.1,0.9,2.2,1.3,3.3c0.2,0.5,0.4,1,0.6,1.4c0.1,0.3,0.2,0.6,0.3,1c0.1,0.6,0.2,0.6,0.3,0.1
					c0.7-0.6,1.4-1.1,2.2-1.7c0,0-0.1,0-0.1,0c0.7,0.7,1.5,1.5,2.2,2.2c0,0,0-0.1,0-0.1c-0.2-2.8-4.6-2.9-4.5,0c0,0,0,0.1,0,0.1
					c0,1.3,1,2.1,2.2,2.2c0,0,0.1,0,0.1,0c0.9,0.1,2-0.8,2.2-1.7c0.3-1.6-0.7-2.6-1.5-4c-0.8-1.4-1.5-2.9-2.2-4.3
					C645.2,428.6,642.3,429.7,643,431.6L643,431.6z"/>
			</g>
		</g>
	</g>
	<g>
		<g>
			<path class="st10" d="M464,193.1c-16.9,0.2-34,3.1-50.5,6.4c-15.2,3-30.4,6.6-45,11.8c-25.5,9-53.3,24.1-66.5,48.9
				c-1.4,2.7,2.3,4.7,4,2.4c8.7-11.9,17.7-22.1,30.1-30.3c11.6-7.6,24.4-13.2,37.5-17.6c13.8-4.6,27.9-8,42.1-10.8
				c16.2-3.2,32.5-4.8,48.8-7.2C466.5,196.3,466,193,464,193.1L464,193.1z"/>
		</g>
	</g>
	<g>
		<g>
			<path class="st10" d="M306.8,240.1c-1.4,0.7-2.1,1.7-2.2,3.1c-0.2,0.9-0.3,1.8-0.5,2.7c-0.3,1.8-0.7,3.6-1,5.5
				c-0.7,3.6-1.6,7.3-2.5,10.9c-0.4,1.8,1.2,3.5,3,3c6.7-1.9,13.3-3.9,20-5.8c3.2-0.9,1.8-6.1-1.4-5c-6.6,2.1-13.2,4.1-19.9,6.2
				c1,1,2,2,3,3c0.9-4.3,1.7-8.5,2.3-12.8c0.5-3.2,1.9-7.8,1.1-11c-0.7-2.5-4.3-3.6-4.9-0.5C303.5,241.2,306.1,242,306.8,240.1
				L306.8,240.1z"/>
		</g>
	</g>
	<path class="st13" d="M745.9,159.6c0-0.5,0-0.9,0-1.4c-0.1-0.3-0.2-0.6-0.4-0.9c0.2-0.2,0.3-0.4,0.4-0.6c0.2-6.7,1-13.3,1.4-20
		c-0.2-4-1.1-8.8-0.3-12.5c0.6-3.1,2.5-5.7,1.4-9c-0.9-2.8-3.4-4-6.1-4.3c-8-1-16.6-0.1-24.7-0.2c-9.2-0.1-18.3-0.1-27.5-0.2
		c-4.1,0-7.2,4.6-7.8,8.2c-1.6,8.7-1.9,17.4-1,26.1c0.1,1,0.4,1.8,0.7,2.4c0,0.1,0,0.2-0.1,0.3c-1.1,7.2-1,14.1,0,21.2
		c0.2,1.2,1.5,2.3,2.6,2.4c13,1.5,26.1,2.3,39.2,2.4c4.8,0,11,1,15.4-1.2c4.3-2.2,6.7-6.5,6.9-11.1
		C746,160.8,745.9,160.3,745.9,159.6z M708.3,126.3c-0.1-0.3-0.2-0.6-0.2-0.9c-0.1-0.4-0.3-0.7-0.4-1c0.5,0,1,0,1.5,0
		C708.8,125.1,708.5,125.7,708.3,126.3z"/>
	<path class="st13" d="M701.9,124.4C701.8,124.5,701.8,124.5,701.9,124.4C701.8,124.5,701.8,124.5,701.9,124.4
		C701.8,124.4,701.8,124.4,701.9,124.4z"/>
	<path class="st13" d="M744.5,112.3c-0.2-1.7-0.7-3.7-2.8-3.9c-3.1-0.2-4.8,1.4-6.8,3.5c-2,2.1-3.9,7-1.9,9.6
		c0.3,0.4,0.7,0.7,1.1,0.9c0.6,12.4-1.9,24.7-2.2,37c-6.4-0.5-12.9-0.8-19.3-0.9c-4.5-0.1-8.9-0.1-13.4,0c-3,0-15.2-1.5-15.8-1.2
		c-3.1,1.4-8.4,10.3-3.6,12.7c7.8,3.8,17.4,2.1,25.8,2.3c9.9,0.1,19.8,0.7,29.6,1.6c4.3,0.4,8.4-6,8-9.9
		C741,146.7,746.5,129.6,744.5,112.3z"/>
	<path class="st12" d="M744.3,237.5c-1.5-0.6-2.9-1.1-4.4-1.7c0.9-1.2,1.5-2.6,1.7-4c0.3-2.7,0.6-5.4,0.9-8.1
		c0.6-1.7,0.8-3.4,0.5-4.9c0.5-4.2,0.9-8.4,1.4-12.6c0.5-4.5,3.5-14.3-3.2-15.5c-3.7-0.6-8.1-0.2-11.9-0.3
		c-3.8-0.1-7.7-0.2-11.5-0.2c-8.3-0.2-16.7-0.4-25-0.5c-0.7,0-1.4,0.2-2.1,0.5c-0.2-0.4-0.5-0.8-0.8-1.1c-1.6-1.5-2.8-1.3-4.8-0.5
		c-2.5,1-4.4,3.9-5.2,6.3c-0.7,2.4-1.2,5.2,1,6.9c0,0,0.1,0.1,0.1,0.1c0.2,1.6,0.1,4,0.2,4.8c0.2,2.3,0.4,4.5,0.5,6.8
		c0.3,4.9,0.5,9.8,0.6,14.6c0.1,4.6,0,9.1-0.1,13.7c-0.1,2.9-0.3,6.4,2.1,8.4c2.7,2.2,8,1.4,11.2,1.4c4.5,0,9,0.1,13.5,0
		c9.7-0.1,19.3-0.4,29-0.9c3.2-0.2,5.6-2.7,6.9-5.5C745.7,243.5,747.1,238.7,744.3,237.5z M693.1,228c0.1,0,0.1,0,0.2,0
		c-0.1,0.1-0.1,0.2-0.2,0.2c0,0,0-0.1,0-0.1C693.1,228.1,693.1,228,693.1,228z"/>
	<path class="st12" d="M742.4,239.7c-1.9-4.2-4.7-6.8-8-9.8c-4.7-4.2-9.3-8.5-14-12.7c-8.6-7.8-17.2-15.6-25.8-23.4
		c0-0.8,0-1.5,0-2.3c0-2.9-2.2-4.4-4.8-3.5c-2.9,1.1-5.6,4.8-5.8,7.8c-0.1,1.1-0.2,2.1-0.3,3.2c-0.1,1-0.1,1.9,0.1,2.6
		c-0.1,7.9-0.2,15.7-0.3,23.6c-0.1,4.6-0.2,9.2-0.2,13.9c0,3.2-0.2,7.1,2.9,9.1c2.9,1.9,7.2,1.3,10.3,1.3c4.3-0.1,8.6-0.3,12.8-0.4
		c8.5-0.3,17-0.1,25.3,2C739.1,252.1,744.1,243.3,742.4,239.7z"/>
	<path class="st4" d="M620,269c0.1-0.3,0.2-0.7,0.3-1c2.5-11.5-13.1-8.9-19.8-8.8c-11.4,0.2-22.9,0.5-34.3,1
		c-12.6,0.5-25.2,1.2-37.8,2.1c-10.3-0.8-20.6-1.8-30.9-3.1c-4.9-0.6-10,9-7.4,12.5c-0.3,0.9-0.4,1.9-0.4,2.8
		c0,4.2-0.1,8.4-0.1,12.5c0,2.5-0.2,5.1,1.8,6.9c1.8,1.7,4,1.6,6.4,1.3c4.4-0.5,8.8-1.1,13.3-1.4c16.6-1,33.3,0.1,49.8,1.5
		c8.2,0.7,16.3,1.5,24.5,2.1c6.8,0.5,14.2,1.6,20.8-0.3C616.4,294.3,627.8,279.1,620,269z"/>
	<path class="st4" d="M614.3,273.6c-1.6,1-3.2,2.6-4.4,4.4c-2.5,0.1-5,0.1-7.5,0.2c-4.6,0.1-9.3,0.3-13.9,0.4
		c-10.3,0.3-20.5,0.6-30.8,1c-18.9,0.7-37.8,1.4-56.7,2.3c1.1-7.6,0.4-15.3-2.2-22.6c-2.6-7.2-12.3,3.6-10.4,8.9
		c2.6,7.4,2.9,14.5,0.9,22c-0.5,1.7,0.1,5.6,2.7,5.5c32.4-1.5,64.9-2.7,97.4-3.6c7.8-0.2,16.1,0.3,23.8-0.6
		c5.8-0.7,10-6.6,10.1-12.3C623.3,274,619,270.8,614.3,273.6z"/>
</g>
<g id="Layer_3">
	<g>
		<g>
			<path class="st10" d="M488.1,120.8c4.7,0.5,10.2,0.2,15.1,0.2c12.1,0,24.2,0.1,36.3,0.1c27,0.1,53.9,0.1,80.9,0.1
				c4.6,0,9.1,0,13.7,0c1.2,0,2.4,0.1,3.7,0c0.5,0,2.1-0.1,1.4-0.1c2.5,0,2.5-3.9,0-3.9c0.7,0-0.6-0.1-1-0.1c-1,0-2.1,0-3.1,0
				c-3.7,0-7.3,0-11,0c-12.1,0-24.2,0-36.3,0c-27,0-53.9,0.1-80.9,0.2c-6.2,0-12.9-0.3-18.8,0.2
				C486.1,117.8,486.1,120.6,488.1,120.8L488.1,120.8z"/>
		</g>
	</g>
	<g>
		<g>
			<path class="st10" d="M488.1,143.9c5.3,0.5,10.7,0.2,15.9,0.2c12.8,0,25.5,0.1,38.3,0.1c28.8,0.1,57.7,0.1,86.5,0.1
				c4.8,0,9.5,0,14.3,0c1.3,0,2.7,0.1,4,0c0.5,0,2.2-0.1,1.6-0.1c2.5,0,2.5-3.9,0-3.9c-45.1,0-94.2,0-140.7,0.1
				c-6.6,0-13.3-0.4-19.9,0.2C486.1,140.9,486.1,143.7,488.1,143.9L488.1,143.9z"/>
		</g>
	</g>
	<g>
		<g>
			<path class="st10" d="M488.1,167.8c5.7,0.5,11.4,0.2,17.1,0.2c13.7,0,27.4,0.1,41.1,0.1c31,0.1,61.9,0.1,92.9,0.1
				c5.1,0,10.3,0,15.4,0c1.5,0,3,0.1,4.4,0c0.6,0,2.2-0.1,1.6-0.1c2.5,0,2.5-3.9,0-3.9c0.6,0-0.7-0.1-1.2-0.1c-1.1,0-2.2,0-3.3,0
				c-4.2,0-8.4,0-12.6,0c-13.7,0-27.4,0-41.1,0c-31,0-61.9,0.1-92.9,0.2c-7.1,0-14.3-0.4-21.4,0.2
				C486.1,164.7,486.1,167.6,488.1,167.8L488.1,167.8z"/>
		</g>
	</g>
	<g>
		<g>
			<path class="st10" d="M488.1,190.8c5.3,0.5,10.7,0.2,15.9,0.2c12.8,0,25.5,0.1,38.3,0.1c28.8,0.1,57.7,0.1,86.5,0.1
				c4.8,0,9.5,0,14.3,0c1.3,0,2.7,0.1,4,0c0.5,0,2.2-0.1,1.6-0.1c2.5,0,2.5-3.9,0-3.9c-45.1,0-94.2,0-140.7,0.1
				c-6.6,0-13.3-0.4-19.9,0.2C486.1,187.8,486.1,190.6,488.1,190.8L488.1,190.8z"/>
		</g>
	</g>
	<g>
		<g>
			<path class="st10" d="M488.1,214.7c4.7,0.5,10.2,0.2,15.1,0.2c12.1,0,24.2,0.1,36.3,0.1c27,0.1,53.9,0.1,80.9,0.1
				c4.6,0,9.1,0,13.7,0c1.2,0,2.4,0.1,3.7,0c0.5,0,2.1-0.1,1.4-0.1c2.5,0,2.5-3.9,0-3.9c0.7,0-0.6-0.1-1-0.1c-1,0-2.1,0-3.1,0
				c-3.7,0-7.3,0-11,0c-12.1,0-24.2,0-36.3,0c-27,0-53.9,0.1-80.9,0.2c-6.2,0-12.9-0.3-18.8,0.2
				C486.1,211.7,486.1,214.5,488.1,214.7L488.1,214.7z"/>
		</g>
	</g>
	<g>
		<g>
			<path class="st10" d="M488.1,237.8c5.2,0.5,11.2,0.2,16.7,0.2c13.3,0,26.7,0.1,40,0.1c29.7,0.1,59.5,0.1,89.2,0.1
				c4.9,0,9.9,0,14.8,0c1.4,0,2.9,0.1,4.3,0c0.5,0,2.2-0.1,1.5-0.1c2.5,0,2.5-3.9,0-3.9c0.8,0-0.7-0.1-1.1-0.1c-1.2-0.1-2.4,0-3.5,0
				c-4,0-8,0-12,0c-13.3,0-26.7,0-40,0c-29.7,0-59.5,0.1-89.2,0.2c-6.8,0-14.1-0.3-20.6,0.2C486.1,234.8,486.1,237.6,488.1,237.8
				L488.1,237.8z"/>
		</g>
	</g>
	<g>
		<g>
			<path class="st10" d="M742.8,169.8c-0.1,3.1-17.5,1.4-19.3,1.4c-10.2,0-20.5-0.1-30.7-0.1c-2,0-6.4,0.9-8.2,0
				c-1.5-0.7-1.1-2.7-1.1-4.3c0-9.1,0-18.2,0-27.3c0-7.5-1-15.8,0-23.3c0.4-2.7,1.3-2.4,3.6-2.4c3.8,0,7.6,0,11.4,0
				c10.4,0,20.7-0.1,31.1-0.1c3.2,0,6.4-0.2,9.6,0c0.5,0,1.3-0.1,1.9,0.1c1.6,0.7,1.3,1.6,1.3,3.1
				C742.4,134.5,742.9,152.1,742.8,169.8c0,1.4,2.2,1.4,2.2,0c0-17.6,0.7-35.2,0.7-52.8c0-3.5,0.2-6.4-3.9-6.7c-2.4-0.2-5,0-7.5,0
				c-11,0-22.1,0.1-33.1,0.1c-4.5,0-9.1,0-13.6,0.1c-2.1,0-5.6-0.6-6.9,1.3c-1.2,1.7-0.5,5.8-0.5,7.9c0,4.7,0.1,9.3,0.1,14
				c0,10.7,0.1,21.4,0.1,32.2c0,2.2-0.7,6.2,1,7.7c1.3,1.2,5.3,0.6,6.9,0.6c12.1,0,24.1,0,36.2-0.1c4.9,0,9.9-0.1,14.8-0.1
				c3.5,0,6,0.2,5.8-4.3C745,168.3,742.9,168.3,742.8,169.8z"/>
		</g>
	</g>
	<g>
		<g>
			<path class="st10" d="M742.8,169.8c-0.1,3.1-17.5,1.4-19.3,1.4c-10.2,0-20.5-0.1-30.7-0.1c-2,0-6.4,0.9-8.2,0
				c-1.5-0.7-1.1-2.7-1.1-4.3c0-9.1,0-18.2,0-27.3c0-7.5-1-15.8,0-23.3c0.4-2.7,1.3-2.4,3.6-2.4c3.8,0,7.6,0,11.4,0
				c10.4,0,20.7-0.1,31.1-0.1c3.2,0,6.4-0.2,9.6,0c0.5,0,1.3-0.1,1.9,0.1c1.6,0.7,1.3,1.6,1.3,3.1
				C742.4,134.5,742.9,152.1,742.8,169.8c0,1.4,2.2,1.4,2.2,0c0-17.6,0.7-35.2,0.7-52.8c0-3.5,0.2-6.4-3.9-6.7c-2.4-0.2-5,0-7.5,0
				c-11,0-22.1,0.1-33.1,0.1c-4.5,0-9.1,0-13.6,0.1c-2.1,0-5.6-0.6-6.9,1.3c-1.2,1.7-0.5,5.8-0.5,7.9c0,4.7,0.1,9.3,0.1,14
				c0,10.7,0.1,21.4,0.1,32.2c0,2.2-0.7,6.2,1,7.7c1.3,1.2,5.3,0.6,6.9,0.6c12.1,0,24.1,0,36.2-0.1c4.9,0,9.9-0.1,14.8-0.1
				c3.5,0,6,0.2,5.8-4.3C745,168.3,742.9,168.3,742.8,169.8z"/>
		</g>
	</g>
	<g>
		<g>
			<path class="st10" d="M742.8,247.1c-0.1,3.1-17.5,1.4-19.3,1.4c-10.2,0-20.5-0.1-30.7-0.1c-2,0-6.4,0.9-8.2,0
				c-1.5-0.7-1.1-2.7-1.1-4.3c0-9.1,0-18.2,0-27.3c0-7.5-1-15.8,0-23.3c0.4-2.7,1.3-2.4,3.6-2.4c3.8,0,7.6,0,11.4,0
				c10.4,0,20.7-0.1,31.1-0.1c3.2,0,6.4-0.2,9.6,0c0.5,0,1.3-0.1,1.9,0.1c1.6,0.7,1.3,1.6,1.3,3.1
				C742.4,211.8,742.9,229.4,742.8,247.1c0,1.4,2.2,1.4,2.2,0c0-17.6,0.7-35.2,0.7-52.8c0-3.5,0.2-6.4-3.9-6.7c-2.4-0.2-5,0-7.5,0
				c-11,0-22.1,0.1-33.1,0.1c-4.5,0-9.1,0-13.6,0.1c-2.1,0-5.6-0.6-6.9,1.3c-1.2,1.7-0.5,5.8-0.5,7.9c0,4.7,0.1,9.3,0.1,14
				c0,10.7,0.1,21.4,0.1,32.2c0,2.2-0.7,6.2,1,7.7c1.3,1.2,5.3,0.6,6.9,0.6c12.1,0,24.1,0,36.2-0.1c4.9,0,9.9-0.1,14.8-0.1
				c3.5,0,6,0.2,5.8-4.3C745,245.6,742.9,245.6,742.8,247.1z"/>
		</g>
	</g>
	<g>
		<g>
			<path class="st10" d="M618.2,291.7c0,0.6-113.2,0.1-124.6,0c-1.3,0-2.9,0.4-3.6-0.7c-0.9-1.5,0-5.8-0.1-7.5
				c0-6.3-0.8-13-0.1-19.3c0.3-2.8,0.3-2.3,3.9-2.3c0.6,0,1.1,0,1.7,0c3.4,0,6.9,0,10.3,0c27.1,0,54.1,0,81.2-0.1
				c8.2,0,16.3-0.2,24.5-0.2c1.4,0,5.8-0.7,6.6,0.7c0.2,0.4-0.1,1.5,0,1.9c0.5,3,0,6.4,0.1,9.4C618.2,279.6,618.3,285.7,618.2,291.7
				c0,1.4,2.2,1.4,2.2,0c0-5.7,0.2-11.5,0.2-17.2c0-3.1,0.1-6.2,0.1-9.2c0-1.4,0.5-4-0.4-5.2c-1.8-2.8-7.8-1.5-11-1.5
				c-4.2,0-8.4-0.1-12.5-0.1c-29-0.3-58-0.1-87.1,0c-4.3,0-8.6,0-13,0c-2.7,0-7.5-0.9-9.4,0.9c-1.3,1.1-0.9,3.4-0.9,4.9
				c0,3.2,0.1,6.4,0.1,9.6c0.1,5.7-0.4,11.8,0.2,17.5c0.5,4.5,4.4,3.6,8,3.6c3.6,0,7.3,0,10.9,0c14.1,0,28.3,0,42.4,0
				c16.4,0,32.9,0,49.3-0.1c4.7,0,9.4-0.1,14.1-0.1c2.9,0,9,1.1,8.8-3C620.3,290.3,618.2,290.3,618.2,291.7z"/>
		</g>
	</g>
</g>
</svg>
