<?xml version="1.0" encoding="UTF-8" standalone="no"?>
<svg width="484px" height="433px" viewBox="0 0 484 433" version="1.1" xmlns="http://www.w3.org/2000/svg" xmlns:xlink="http://www.w3.org/1999/xlink" xmlns:sketch="http://www.bohemiancoding.com/sketch/ns">
    <title>onchange_reload</title>
    <description>Created with Sketch (http://www.bohemiancoding.com/sketch)</description>
    <defs></defs>
    <g id="Reload" stroke="none" stroke-width="1" fill="none" fill-rule="evenodd" sketch:type="MSPage">
        <path d="M62.5,171.5 L43.5,160.5" id="Line" stroke="#417505" stroke-linecap="square" sketch:type="MSShapeGroup"></path>
        <path d="M45.5,205.5 L66,181" id="Line" stroke="#417505" stroke-linecap="square" sketch:type="MSShapeGroup"></path>
        <path d="M54.5,217.5 L82.5,243.5" id="Line" stroke="#417505" stroke-linecap="square" sketch:type="MSShapeGroup"></path>
        <path d="M111.5,190.5 L85.5,235.5" id="Line" stroke="#417505" stroke-linecap="square" sketch:type="MSShapeGroup"></path>
        <path d="M108.5,183.5 L72.5,176.5" id="Line" stroke="#417505" stroke-linecap="square" sketch:type="MSShapeGroup"></path>
        <circle id="Oval-1" stroke="#417505" fill="#B8E986" sketch:type="MSShapeGroup" cx="35.5" cy="156.5" r="11.5"></circle>
        <circle id="Oval-1" stroke="#417505" fill="#B8E986" sketch:type="MSShapeGroup" cx="46.5" cy="210.5" r="11.5"></circle>
        <circle id="Oval-1" stroke="#417505" fill="#D0011B" sketch:type="MSShapeGroup" cx="81.5" cy="241.5" r="11.5"></circle>
        <circle id="Oval-1" stroke="#979797" fill="#D8D8D8" sketch:type="MSShapeGroup" cx="69.5" cy="174.5" r="11.5"></circle>
        <circle id="Oval-1" stroke="#417505" fill="#B8E986" sketch:type="MSShapeGroup" cx="69.5" cy="174.5" r="11.5"></circle>
        <circle id="Oval-1" stroke="#417505" fill="#B8E986" sketch:type="MSShapeGroup" cx="111.5" cy="186.5" r="11.5"></circle>
        <path d="M378.5,432 C436.213759,432 483,386.556905 483,330.5 C483,274.443095 436.213759,229 378.5,229 C320.786241,229 274,274.443095 274,330.5 C274,386.556905 320.786241,432 378.5,432 Z" id="Oval-7" stroke="#D4D4D4" fill="#FFFEF0" sketch:type="MSShapeGroup"></path>
        <path d="M386.5,269.5 L356.5,298.5" id="Line" stroke="#417505" stroke-linecap="square" sketch:type="MSShapeGroup"></path>
        <path d="M385.5,268.5 L419.5,299.5" id="Line" stroke="#417505" stroke-linecap="square" sketch:type="MSShapeGroup"></path>
        <path d="M355.5,318.5 L326.5,345.5" id="Line" stroke="#417505" stroke-linecap="square" sketch:type="MSShapeGroup"></path>
        <path d="M356.5,316.5 L387.5,345.5" id="Line" stroke="#417505" stroke-linecap="square" sketch:type="MSShapeGroup"></path>
        <path d="M387.5,364.5 L387.5,396.5" id="Line" stroke="#417505" stroke-linecap="square" sketch:type="MSShapeGroup"></path>
        <rect id="Rectangle-1" stroke="#417505" fill="#B8E986" sketch:type="MSShapeGroup" x="364" y="248" width="43" height="24"></rect>
        <rect id="Rectangle-1" stroke="#417505" fill="#B8E986" sketch:type="MSShapeGroup" x="335" y="297" width="43" height="24"></rect>
        <rect id="Rectangle-1" stroke="#417505" fill="#B8E986" sketch:type="MSShapeGroup" x="395" y="297" width="43" height="24"></rect>
        <rect id="Rectangle-1" stroke="#417505" fill="#D0011B" sketch:type="MSShapeGroup" x="305" y="344" width="43" height="24"></rect>
        <rect id="Rectangle-1" stroke="#417505" fill="#B8E986" sketch:type="MSShapeGroup" x="364" y="344" width="43" height="24"></rect>
        <rect id="Rectangle-1" stroke="#417505" fill="#B8E986" sketch:type="MSShapeGroup" x="364" y="388" width="43" height="24"></rect>
        <path d="M340.5,6.5 L0.5,157.5" id="Line" stroke="#D4D4D4" stroke-linecap="square" sketch:type="MSShapeGroup"></path>
        <path d="M399.5,201.5 L6.5,268.5" id="Line" stroke="#D4D4D4" stroke-linecap="square" sketch:type="MSShapeGroup"></path>
        <path d="M408.5,232.5 L6.5,134.5" id="Line" stroke="#D4D4D4" stroke-linecap="square" sketch:type="MSShapeGroup"></path>
        <text id="Model" sketch:type="MSTextLayer" font-family="Helvetica" font-size="12" font-weight="normal" fill="#000000">
            <tspan x="106" y="221">Model</tspan>
        </text>
        <text id="DOM-2" sketch:type="MSTextLayer" font-family="Helvetica" font-size="12" font-weight="normal" fill="#000000">
            <tspan x="433" y="361">DOM 2</tspan>
        </text>
        <path d="M376.5,204 C434.213759,204 481,158.556905 481,102.5 C481,46.4430951 434.213759,1 376.5,1 C318.786241,1 272,46.4430951 272,102.5 C272,158.556905 318.786241,204 376.5,204 Z" id="Oval-7" stroke="#D4D4D4" fill="#FFFEF0" sketch:type="MSShapeGroup"></path>
        <path d="M384.5,41.5 L354.5,70.5" id="Line" stroke="#417505" stroke-linecap="square" sketch:type="MSShapeGroup"></path>
        <path d="M383.5,40.5 L417.5,71.5" id="Line" stroke="#417505" stroke-linecap="square" sketch:type="MSShapeGroup"></path>
        <path d="M353.5,90.5 L324.5,117.5" id="Line" stroke="#417505" stroke-linecap="square" sketch:type="MSShapeGroup"></path>
        <path d="M354.5,88.5 L385.5,117.5" id="Line" stroke="#417505" stroke-linecap="square" sketch:type="MSShapeGroup"></path>
        <path d="M385.5,136.5 L385.5,168.5" id="Line" stroke="#417505" stroke-linecap="square" sketch:type="MSShapeGroup"></path>
        <rect id="Rectangle-1" stroke="#417505" fill="#B8E986" sketch:type="MSShapeGroup" x="362" y="20" width="43" height="24"></rect>
        <rect id="Rectangle-1" stroke="#417505" fill="#B8E986" sketch:type="MSShapeGroup" x="333" y="69" width="43" height="24"></rect>
        <rect id="Rectangle-1" stroke="#417505" fill="#B8E986" sketch:type="MSShapeGroup" x="393" y="69" width="43" height="24"></rect>
        <rect id="Rectangle-1" stroke="#417505" fill="#B8E986" sketch:type="MSShapeGroup" x="303" y="116" width="43" height="24"></rect>
        <rect id="Rectangle-1" stroke="#417505" fill="#B8E986" sketch:type="MSShapeGroup" x="362" y="116" width="43" height="24"></rect>
        <rect id="Rectangle-1" stroke="#417505" fill="#B8E986" sketch:type="MSShapeGroup" x="362" y="162" width="43" height="24"></rect>
        <text id="DOM-1" sketch:type="MSTextLayer" font-family="Helvetica" font-size="12" font-weight="normal" fill="#000000">
            <tspan x="431" y="133">DOM 1</tspan>
        </text>
        <path d="M325.5,418.5 L3.5,213.5" id="Line" stroke="#D4D4D4" stroke-linecap="square" sketch:type="MSShapeGroup"></path>
    </g>
</svg>