<?xml version="1.0" encoding="UTF-8" standalone="no"?>
<svg width="509px" height="205px" viewBox="0 0 509 205" version="1.1" xmlns="http://www.w3.org/2000/svg" xmlns:xlink="http://www.w3.org/1999/xlink" xmlns:sketch="http://www.bohemiancoding.com/sketch/ns">
    <title>onchange_watch</title>
    <description>Created with Sketch (http://www.bohemiancoding.com/sketch)</description>
    <defs></defs>
    <g id="watch" stroke="none" stroke-width="1" fill="none" fill-rule="evenodd" sketch:type="MSPage">
        <path d="M103.5,70.5 L84.5,59.5" id="Line" stroke="#417505" stroke-linecap="square" sketch:type="MSShapeGroup"></path>
        <path d="M86.5,104.5 L107,80" id="Line" stroke="#417505" stroke-linecap="square" sketch:type="MSShapeGroup"></path>
        <path d="M95.5,116.5 L123.5,142.5" id="Line" stroke="#417505" stroke-linecap="square" sketch:type="MSShapeGroup"></path>
        <path d="M152.5,89.5 L126.5,134.5" id="Line" stroke="#417505" stroke-linecap="square" sketch:type="MSShapeGroup"></path>
        <path d="M149.5,82.5 L113.5,75.5" id="Line" stroke="#417505" stroke-linecap="square" sketch:type="MSShapeGroup"></path>
        <circle id="Oval-1" stroke="#417505" fill="#B8E986" sketch:type="MSShapeGroup" cx="76.5" cy="55.5" r="11.5"></circle>
        <circle id="Oval-1" stroke="#417505" fill="#B8E986" sketch:type="MSShapeGroup" cx="87.5" cy="109.5" r="11.5"></circle>
        <circle id="Oval-1" stroke="#417505" fill="#D0011B" sketch:type="MSShapeGroup" cx="122.5" cy="140.5" r="11.5"></circle>
        <circle id="Oval-1" stroke="#979797" fill="#D8D8D8" sketch:type="MSShapeGroup" cx="110.5" cy="73.5" r="11.5"></circle>
        <circle id="Oval-1" stroke="#417505" fill="#B8E986" sketch:type="MSShapeGroup" cx="110.5" cy="73.5" r="11.5"></circle>
        <circle id="Oval-1" stroke="#417505" fill="#B8E986" sketch:type="MSShapeGroup" cx="152.5" cy="85.5" r="11.5"></circle>
        <path d="M403.5,204 C461.213759,204 508,158.556905 508,102.5 C508,46.4430951 461.213759,1 403.5,1 C345.786241,1 299,46.4430951 299,102.5 C299,158.556905 345.786241,204 403.5,204 Z" id="Oval-7" stroke="#D4D4D4" fill="#FFFEF0" sketch:type="MSShapeGroup"></path>
        <path d="M411.5,41.5 L381.5,70.5" id="Line" stroke="#417505" stroke-linecap="square" sketch:type="MSShapeGroup"></path>
        <path d="M410.5,40.5 L444.5,71.5" id="Line" stroke="#417505" stroke-linecap="square" sketch:type="MSShapeGroup"></path>
        <path d="M380.5,90.5 L351.5,117.5" id="Line" stroke="#417505" stroke-linecap="square" sketch:type="MSShapeGroup"></path>
        <path d="M381.5,88.5 L412.5,117.5" id="Line" stroke="#417505" stroke-linecap="square" sketch:type="MSShapeGroup"></path>
        <path d="M412.5,136.5 L412.5,168.5" id="Line" stroke="#417505" stroke-linecap="square" sketch:type="MSShapeGroup"></path>
        <rect id="Rectangle-1" stroke="#417505" fill="#B8E986" sketch:type="MSShapeGroup" x="389" y="20" width="43" height="24"></rect>
        <rect id="Rectangle-1" stroke="#417505" fill="#B8E986" sketch:type="MSShapeGroup" x="360" y="69" width="43" height="24"></rect>
        <rect id="Rectangle-1" stroke="#417505" fill="#B8E986" sketch:type="MSShapeGroup" x="420" y="69" width="43" height="24"></rect>
        <rect id="Rectangle-1" stroke="#417505" fill="#D0011B" sketch:type="MSShapeGroup" x="330" y="116" width="43" height="24"></rect>
        <rect id="Rectangle-1" stroke="#417505" fill="#B8E986" sketch:type="MSShapeGroup" x="389" y="116" width="43" height="24"></rect>
        <rect id="Rectangle-1" stroke="#417505" fill="#B8E986" sketch:type="MSShapeGroup" x="389" y="162" width="43" height="24"></rect>
        <path d="M386.5,1.5 L0.5,48.5" id="Line" stroke="#D4D4D4" stroke-linecap="square" sketch:type="MSShapeGroup"></path>
        <path d="M380.5,202.5 L4.5,134.5" id="Line" stroke="#D4D4D4" stroke-linecap="square" sketch:type="MSShapeGroup"></path>
        <text id="Model" sketch:type="MSTextLayer" font-family="Helvetica" font-size="12" font-weight="normal" fill="#000000">
            <tspan x="124" y="54">Model</tspan>
        </text>
        <text id="Watchers" sketch:type="MSTextLayer" font-family="Helvetica" font-size="12" font-weight="normal" fill="#000000">
            <tspan x="212" y="107">Watchers</tspan>
        </text>
        <text id="DOM" sketch:type="MSTextLayer" font-family="Helvetica" font-size="12" font-weight="normal" fill="#000000">
            <tspan x="457" y="133">DOM</tspan>
        </text>
        <path d="M389,29 C389,29 347.415727,29 254.549436,29 C161.683145,29 89,52 89,52" id="Line" stroke="#7ED321" stroke-linecap="square" sketch:type="MSShapeGroup"></path>
        <path id="Line-decoration-1" d="M89.1191022,51.9626894 C93.0274531,51.8957176 96.3823848,51.8832807 100.26696,51.9153443 C99.7256284,49.8863149 99.2616299,48.1471469 98.7202984,46.1181175 C95.3405877,48.1250019 92.4459291,49.87784 89.1191022,51.9626894 C89.1191022,51.9626894 89.1191022,51.9626894 89.1191022,51.9626894 Z" stroke="#7ED321" stroke-linecap="square"></path>
        <path d="M361.5,74.5 C361.5,74.5 354.984375,73.6716041 272.472656,74.5 C189.960938,75.3283959 163.5,80.5 163.5,80.5" id="Line" stroke="#7ED321" stroke-linecap="square" sketch:type="MSShapeGroup"></path>
        <path id="Line-decoration-1" d="M163.742252,80.4551557 C167.621717,80.9154866 170.932635,81.3878142 174.781768,81.9937568 C174.55018,79.9065656 174.351677,78.1175445 174.120089,76.0303533 C170.452181,77.5175218 167.330788,78.8357365 163.742252,80.4551557 C163.742252,80.4551557 163.742252,80.4551557 163.742252,80.4551557 Z" stroke="#7ED321" stroke-linecap="square"></path>
        <path d="M421.5,80.5 C421.5,80.5 413.816406,47.6874998 284.0625,53.1210937 C154.308589,58.5546869 121.5,69.5 121.5,69.5" id="Line" stroke="#7ED321" stroke-linecap="square" sketch:type="MSShapeGroup"></path>
        <path id="Line-decoration-1" d="M121.926054,69.3679992 C125.844753,69.422845 129.157593,69.5909045 133.034629,69.8599584 C132.626399,67.8000194 132.276489,66.0343573 131.86826,63.9744183 C128.32994,65.7797381 125.354295,67.3809217 121.926054,69.3679992 C121.926054,69.3679992 121.926054,69.3679992 121.926054,69.3679992 Z" stroke="#7ED321" stroke-linecap="square"></path>
        <path d="M330.5,127.5 C330.5,127.5 294.621094,134.05619 256.449219,139.5 C218.277334,144.943809 132.5,139.5 132.5,139.5" id="Line" stroke="#D0011B" stroke-linecap="square" sketch:type="MSShapeGroup"></path>
        <path id="Line-decoration-1" d="M132.617456,139.507376 C136.329173,140.778918 139.526244,141.857914 143.240768,143.105409 C143.348555,141.008177 143.440943,139.210549 143.54873,137.113317 C139.737327,137.963631 136.448662,138.68232 132.617456,139.507376 C132.617456,139.507376 132.617456,139.507376 132.617456,139.507376 Z" stroke="#D0011B" stroke-linecap="square"></path>
        <path d="M390.5,174.5 C390.5,174.5 372.699217,167.203125 277.640625,142.5 C182.582031,117.796875 98.5,110.5 98.5,110.5" id="Line" stroke="#7ED321" stroke-linecap="square" sketch:type="MSShapeGroup"></path>
        <path id="Line-decoration-1" d="M98.980931,110.543133 C102.642354,111.951456 105.772659,113.178999 109.403058,114.627159 C109.63339,112.539829 109.830818,110.750689 110.06115,108.663358 C106.181904,109.300531 102.852388,109.861986 98.980931,110.543133 C98.980931,110.543133 98.980931,110.543133 98.980931,110.543133 Z" stroke="#7ED321" stroke-linecap="square"></path>
        <path d="M390.5,124.5 C390.5,124.5 391.499998,111.410156 334,99.9023438 C276.5,88.3945312 162.5,92.5 162.5,92.5" id="Line" stroke="#7ED321" stroke-linecap="square" sketch:type="MSShapeGroup"></path>
        <path id="Line-decoration-1" d="M162.938465,92.4848502 C166.757875,93.4176973 170.009012,94.230029 173.806652,95.1884463 C173.758829,93.0889909 173.717838,91.2894577 173.670015,89.1900023 C169.908926,90.3313135 166.697933,91.3185529 162.938465,92.4848502 C162.938465,92.4848502 162.938465,92.4848502 162.938465,92.4848502 Z" stroke="#7ED321" stroke-linecap="square"></path>
    </g>
</svg>