<?xml version="1.0" encoding="utf-8"?>
<!-- Generator: Adobe Illustrator 19.2.1, SVG Export Plug-In . SVG Version: 6.00 Build 0)  -->
<!DOCTYPE svg PUBLIC "-//W3C//DTD SVG 1.1//EN" "http://www.w3.org/Graphics/SVG/1.1/DTD/svg11.dtd">
<svg version="1.1" id="Layer_1" xmlns="http://www.w3.org/2000/svg" xmlns:xlink="http://www.w3.org/1999/xlink" x="0px" y="0px"
	 viewBox="0 0 400 111.5" style="enable-background:new 0 0 400 111.5;" xml:space="preserve">
<style type="text/css">
	.st0{fill:#FFFFFF;}
	.st1{fill:#E77F24;}
	.st2{font-family:'GothamRounded-Bold';}
	.st3{font-size:16px;}
</style>
<rect x="13.5" y="14.8" class="st0" width="372" height="31.8"/>
<rect x="19.9" y="18" class="st1" width="115.7" height="25"/>
<rect x="141.6" y="18.1" class="st1" width="115.7" height="25"/>
<rect x="263.2" y="18.3" class="st1" width="115.7" height="25"/>
<text transform="matrix(1.0909 0 0 1 72.3252 36.5)" class="st0 st2 st3">1</text>
<text transform="matrix(1.0909 0 0 1 196.7793 36.5)" class="st0 st2 st3">1</text>
<text transform="matrix(1.0909 0 0 1 319.0957 36.5)" class="st0 st2 st3">1</text>
<rect x="14" y="62.8" class="st0" width="372" height="31.8"/>
<rect x="20.4" y="66" class="st1" width="89.1" height="25"/>
<rect x="114.5" y="66.1" class="st1" width="175" height="25"/>
<rect x="294.5" y="66.3" class="st1" width="85" height="25"/>
<text transform="matrix(1.0909 0 0 1 61.8252 84.5)" class="st0 st2 st3">1</text>
<text transform="matrix(1.0909 0 0 1 195.2793 84.5)" class="st0 st2 st3">2</text>
<text transform="matrix(1.0909 0 0 1 334.9766 84.5)" class="st0 st2 st3">1</text>
</svg>
