<?xml version="1.0" encoding="utf-8"?>
<!-- Generator: Adobe Illustrator 19.2.1, SVG Export Plug-In . SVG Version: 6.00 Build 0)  -->
<!DOCTYPE svg PUBLIC "-//W3C//DTD SVG 1.1//EN" "http://www.w3.org/Graphics/SVG/1.1/DTD/svg11.dtd">
<svg version="1.1" id="Layer_1" xmlns="http://www.w3.org/2000/svg" xmlns:xlink="http://www.w3.org/1999/xlink" x="0px" y="0px"
	 viewBox="0 0 372 248.7" style="enable-background:new 0 0 372 248.7;" xml:space="preserve">
<style type="text/css">
	.st0{fill:#FFFFFF;}
	.st1{fill:#E77F24;}
	.st2{font-family:'Gotham-Bold';}
	.st3{font-size:12px;}
</style>
<rect x="14.5" y="14.6" class="st0" width="341" height="31.8"/>
<rect x="20.3" y="17.9" class="st1" width="44.4" height="25"/>
<rect x="70.8" y="17.9" class="st1" width="71.3" height="25"/>
<rect x="247.1" y="17.9" class="st1" width="102.2" height="25"/>
<rect x="148.4" y="17.9" class="st1" width="44.4" height="25"/>
<rect x="198.1" y="18" class="st1" width="44.4" height="25"/>
<rect x="14.5" y="60.6" class="st0" width="341" height="31.8"/>
<rect x="20.3" y="63.9" class="st1" width="44.4" height="25"/>
<rect x="120.5" y="63.9" class="st1" width="71.3" height="25"/>
<rect x="70.8" y="63.9" class="st1" width="44.4" height="25"/>
<rect x="196.8" y="63.9" class="st1" width="35.5" height="25"/>
<rect x="14.5" y="106" class="st0" width="111.5" height="125.3"/>
<text transform="matrix(1 0 0 1 38 33.95)" class="st0 st2 st3">1</text>
<text transform="matrix(1 0 0 1 36 80.2833)" class="st0 st2 st3">-1</text>
<text transform="matrix(1 0 0 1 89.3333 80.2833)" class="st0 st2 st3">1</text>
<text transform="matrix(1 0 0 1 153.3333 80.2837)" class="st0 st2 st3">2</text>
<text transform="matrix(1 0 0 1 211.6667 80.2837)" class="st0 st2 st3">5</text>
<text transform="matrix(1 0 0 1 102.6667 33.95)" class="st0 st2 st3">1</text>
<text transform="matrix(1 0 0 1 165.6667 33.95)" class="st0 st2 st3">1</text>
<text transform="matrix(1 0 0 1 215.6664 33.95)" class="st0 st2 st3">2</text>
<text transform="matrix(1 0 0 1 298.24 33.95)" class="st0 st2 st3">3</text>
<rect x="22.3" y="114.8" class="st1" width="94.9" height="25"/>
<rect x="22.3" y="147.9" class="st1" width="94.9" height="25"/>
<rect x="22.3" y="181.5" class="st1" width="94.9" height="41.5"/>
<text transform="matrix(1 0 0 1 64.6667 131.2837)" class="st0 st2 st3">2</text>
<text transform="matrix(1 0 0 1 64.6668 164.2837)" class="st0 st2 st3">2</text>
<text transform="matrix(1 0 0 1 62.6667 205.2837)" class="st0 st2 st3">99</text>
</svg>
