<?xml version="1.0" encoding="utf-8"?>
<!-- Generator: Adobe Illustrator 20.0.0, SVG Export Plug-In . SVG Version: 6.00 Build 0)  -->
<!DOCTYPE svg PUBLIC "-//W3C//DTD SVG 1.1//EN" "http://www.w3.org/Graphics/SVG/1.1/DTD/svg11.dtd">
<svg version="1.1" id="Layer_1" xmlns="http://www.w3.org/2000/svg" xmlns:xlink="http://www.w3.org/1999/xlink" x="0px" y="0px"
	 viewBox="0 0 459 422" style="enable-background:new 0 0 459 422;" xml:space="preserve">
<style type="text/css">
	.st0{fill:none;stroke:#4CA3CC;stroke-width:17;stroke-opacity:0.32;}
	.st1{font-family:'ArialMT';}
	.st2{font-size:21px;}
	.st3{fill:none;stroke:#006900;stroke-width:3.8;stroke-linecap:round;}
	.st4{fill:none;stroke:#AA0000;stroke-width:3.8;stroke-linecap:round;}
</style>
<g transform="translate(-58.5 -54.929)">
	<path class="st0" d="M223.3,63.4l-158,5l164,15l-157,2l152,13l-160,2.6l164,11"/>
	<text transform="matrix(1 0 0 1 88.0269 95.5669)" class="st1 st2">asyncThing1</text>
</g>
<g transform="translate(-57.529 24.683)">
	<path class="st0" d="M231.1,63.5l-158,5l164,15l-157,2l152,13l-160,2.6l164,11"/>
	<text transform="matrix(1 0 0 1 87.056 95.6341)" class="st1 st2">asyncThing2</text>
</g>
<g transform="translate(-55.587 110.119)">
	<path class="st0" d="M226,63.4l-158,5l164,15l-157,2l152,13L67,101l164,11"/>
	<text transform="matrix(1 0 0 1 89.5253 93.0678)" class="st1 st2">asyncThing3</text>
</g>
<g transform="translate(145.383 27.595)">
	<path class="st0" d="M261,65.4l-193,3l199,17H75L262,100l-195,1l199,13"/>
	<text transform="matrix(1 0 0 1 87.6169 92.7223)" class="st1 st2">asyncRecovery1</text>
</g>
<g transform="translate(-56.558 191.673)">
	<path class="st0" d="M226.3,60l-158,5l164,15l-157,2l152,13l-160,2.6l164,11"/>
	<text transform="matrix(1 0 0 1 86.0848 90.5708)" class="st1 st2">asyncThing4</text>
</g>
<g transform="translate(183.702 117.575)">
	<path class="st0" d="M256.3,61.3l-193,3l199,17h-192l187,14.6l-195,1l199,13"/>
	<text transform="matrix(1 0 0 1 85.7977 85.6119)" class="st1 st2">asyncRecovery2</text>
</g>
<g transform="translate(159.617 189.869)">
	<path class="st0" d="M228,64.4L34,66.5l200,17.9L41,83.5L239,100L30.1,99.5L232,113l-197.1,6l200.1,7L35.8,136l202.2,8"/>
	<text transform="matrix(1 0 0 1 70.5235 94.431)" class="st1 st2">log &quot;Don&apos;t worry</text>
	<text transform="matrix(1 0 0 1 124.2422 126.431)" class="st1 st2">about it&quot;</text>
</g>
<g transform="translate(-6.073 269.343)">
	<path class="st0" d="M154.3,60.5l-128,3l134,17h-127l132,15.6H22.4l138.9,13l-139.9,5l143.9,8l-149.8,11l152.8,7"/>
	<text transform="matrix(1 0 0 1 92.2846 90.7339)" class="st1 st2">log</text>
	<text transform="matrix(1 0 0 1 40.0112 122.7339)" class="st1 st2">&quot;All done!&quot;</text>
</g>
<path class="st3" d="M93.8,60L94,82.5"/>
<path class="st3" d="M88.5,74l5.4,10.9L99.7,74"/>
<path class="st3" d="M94.8,140l-1.2,27.4"/>
<path class="st3" d="M88.1,160l5.7,11l6.2-11"/>
<path class="st3" d="M94.6,225v25.7"/>
<path class="st3" d="M89.3,241l5.3,10.9l5.1-9.9"/>
<path class="st3" d="M94.8,306l-0.7,25.3"/>
<path class="st3" d="M88.3,323l5.6,10.4l5.6-9.9"/>
<path class="st4" d="M168,35.9c0,0,67.5-12.4,72.1,48.5"/>
<path class="st4" d="M233,76.7l7.7,9.2l4.1-9.4"/>
<path class="st4" d="M169,116l52.9,1.7"/>
<path class="st4" d="M211,111l11.6,6l-12.3,5.8"/>
<path class="st4" d="M170,202c0,0,69.3,14.1,68.4-54.9"/>
<path class="st4" d="M232,153l6-10.2l5.3,11.6"/>
<path class="st3" d="M257,142c-1,120-108,55.4-111,110"/>
<path class="st3" d="M143,244l2.2,9.7l7.7-7.2"/>
<path class="st4" d="M169,282l22.9,0.2"/>
<path class="st4" d="M187,276l9.9,5.8l-10.4,5.6"/>
<path class="st4" d="M310,141l-1.1,33.5"/>
<path class="st4" d="M304,167l5.6,10.2l5.1-10.2"/>
<path class="st4" d="M308,231v19"/>
<path class="st4" d="M303,244l5.8,10.2l5.6-10.4"/>
<path class="st3" d="M309,336c0,26.1-17,24.5-144,23"/>
<path class="st3" d="M173,352l-10.7,6l10.2,5.8"/>
<path class="st3" d="M419,233c1,161-20,160-256,159"/>
<path class="st3" d="M173,386l-11.5,6l11.9,5.2"/>
</svg>
