<?xml version="1.0" encoding="utf-8"?>
<!-- Generator: Adobe Illustrator 19.1.0, SVG Export Plug-In . SVG Version: 6.00 Build 0)  -->
<svg version="1.1" xmlns="http://www.w3.org/2000/svg" xmlns:xlink="http://www.w3.org/1999/xlink" x="0px" y="0px" width="800px"
	 height="500px" viewBox="0 0 800 500" style="enable-background:new 0 0 800 500;" xml:space="preserve">
<style type="text/css">
	.st0{fill:#FFFFFF;}
	.st1{opacity:0.5;fill:#C6C6C6;}
	.st2{opacity:0.5;fill:#864C9E;}
	.st3{opacity:0.2;}
	.st4{fill:#8E8E8E;}
	.st5{opacity:0.2;fill:#8E8E8E;}
	.st6{fill:#5A326D;}
	.st7{opacity:0.2;fill:#5A326D;}
	.st8{opacity:0.5;fill:#C9BEA9;}
	.st9{opacity:0.3;fill:#998565;}
	.st10{opacity:0.5;fill:#DFB945;}
	.st11{fill:#1E1E1E;}
	.st12{fill:#C91F4C;}
	.st13{fill:none;stroke:#1E1E1E;stroke-width:3;stroke-miterlimit:10;}
	.st14{fill:none;stroke:#1E1E1E;stroke-width:3;stroke-miterlimit:10;stroke-dasharray:9.9863,9.9863;}
	.st15{fill:#79A845;}
	.st16{fill:#40A6DD;}
	.st17{fill:#80D3F2;}
	.st18{fill:none;stroke:#1E1E1E;stroke-width:3;stroke-miterlimit:10;stroke-dasharray:10.0229,10.0229;}
</style>
<g id="Layer_2">
	<rect y="0" class="st0" width="800" height="500"/>
</g>
<g id="Layer_7">
	<path class="st1" d="M445.7,76.8c-1-2.3-2.7-2.6-4.3-2c0.9-2.6,1.6-5.3,2.1-8c1.2-6.4-4.7-6.3-8-2.6c-0.8,0.9-1.5,1.8-2.2,2.7
		c1.1-3,2.1-6,3.2-9c1.8-5.2-1.2-9.2-6.2-5.7c-2.8,2-4.8,4.6-6.3,7.5c0.4-1.1,0.7-2.2,1-3.3c1.3-5.3-1.1-11.1-7.4-8.5
		c-1.5,0.6-2.7,1.6-3.8,2.8c-0.4-0.5-1.1-0.9-1.9-1.1c-18.1-5.6-34.9,9.4-39.5,26c-5,18,3.3,35.3,17.6,46.3c1.4,1.1,2.8,0.8,4.1-0.1
		c0,0.2-0.1,0.5-0.1,0.7c-0.5,2.7,0.5,6.2,4,5.4c3-0.7,5.6-2,7.8-3.8c0.1,1.2,0.3,2.4,0.6,3.6c1.2,4.5,6.2,1.6,8-0.6
		c0.2-0.2,0.4-0.5,0.6-0.7c0.1,0.3,0.3,0.5,0.5,0.8c5.2,6.4,12.6-3,16.8-9.6c0.3,0,0.6,0,0.9-0.1c7.3-2.1,10.4-11.9,12.5-18.4
		C447.7,91.8,448.8,84,445.7,76.8z M414.2,86c-2.2,6.5-4.4,13-6.7,19.4c-0.2,0.5-0.4,1-0.6,1.6c1.2-6,2.6-12,4-17.9
		c2.4-4.9,4.8-9.8,7-14.8c0.6-1.3,1.2-2.6,1.8-4C417.9,75.5,416.1,80.8,414.2,86z M393.3,77.4c-1.4,2.6-2.7,5.2-3.9,8
		C390.2,82.6,391.5,79.9,393.3,77.4z M384,70.9c0.5-0.9,1.1-1.8,1.8-2.6C385.2,69.2,384.6,70.1,384,70.9z"/>
	<path class="st1" d="M508.7,165.7c-1.9-3.9-5.6-9.4-10.5-9.3c-4.7-9.2-12.1-15.7-23.3-13.1c-1.5,0.4-3.2,1.8-4.5,3.6
		c-2.2,0.2-4.2,0.8-6.1,1.5c-14.2-2.7-26.2,14-29.2,26.3c-4.3,17.8,4.6,34.1,14.2,48.4c1.1,1.7,2.7,1.7,4.3,0.9
		c0.6,0.6,1.4,1.2,2.3,1.6c1.8,0.9,3.9,0,5.2-1.3c1.9-1.8,3.6-3.8,4.9-5.9c2.1,3.3,5.1,4.1,8,3.4c2.5,1.2,5.3,1.4,7.9,0.8
		c0.7,0.9,1.7,1.3,3.1,0.9c12.5-3.8,23.8-9.8,28-23C516.5,189.3,513.7,176,508.7,165.7z M460.9,203c0,1.7,0,3.8-0.4,5.7
		c-0.5-2.5-0.2-5.4-0.2-7.6c0-1.9,0.2-3.7,0.3-5.6C460.7,198,460.9,200.5,460.9,203z M474.9,206.6c-0.4-1-0.5-2.1-0.5-3.2
		c-0.1-1.7,0-3.5,0.2-5.2c0,2.1,0.1,4.2,0.1,6.2c0,1.4,0.4,2.4,0.9,2.9c0,0,0,0.1,0,0.1c-0.1,0.1-0.1,0.1-0.2,0.2
		C475.2,207.3,475.1,207,474.9,206.6z M447.4,168.5c-1.1,3.1-1.9,6.3-2.4,9.3c-0.1,0.6-0.2,1.3-0.3,1.9c0-0.3,0-0.7,0-1
		C444.7,175.4,445.6,171.6,447.4,168.5z"/>
	<path class="st1" d="M377.1,183c-0.1-1.3-0.2-2.6-0.3-3.9c-0.1-2.2-0.2-4.3-0.3-6.5c-0.1-3.1,0.2-7.2-1.6-9.9
		c-1.6-2.4-4.3-3.2-7-3.4c-1.7-2-3.7-3.9-6-5.5c-0.8-0.6-1.6-0.7-2.5-0.6c-4.2-3.6-9.4-5.7-15.5-5.9c-0.7-0.2-1.4-0.2-2.1,0
		c-0.7,0-1.4,0.1-2.1,0.1c-4.3,0.4-8.5,1.3-12.5,2.7c-0.3-0.2-0.7-0.3-1.1-0.4c-6.2-1.6-11.6,4-14.5,8.8c-0.5,0.8-0.9,1.6-1.3,2.4
		c-1.1,1.2-2.1,2.4-3,3.7c-6.7,9.5-9.1,21.5-6.6,32.8c4.9,22.9,30.4,33.7,51.7,27.3c14-4.2,24.9-15.2,26-30.2
		C378.5,190.5,378.1,186.7,377.1,183z M347.2,207.3c-0.8-3.4,0-7.9,0.1-10.6c0.1-3.8,0.3-7.7,0.6-11.5c0.2,1.9,0.4,3.8,0.6,5.7
		C348.9,195.9,349.2,202.2,347.2,207.3z M329.6,188.7c0,0,0.1,0,0.1,0.1c0,3.4-0.1,6.8-0.3,10.2C329,195.5,329.2,191.9,329.6,188.7z
		 M324.2,169.6c-0.5-0.2-1-0.4-1.4-0.5c0.8-0.7,1.6-1.4,2.5-2.1C324.9,167.9,324.5,168.8,324.2,169.6z M318.3,188.3
		c0.4,0.1,0.8,0.2,1.2,0.2c-0.1,0.7-0.2,1.5-0.3,2.2C318.8,189.9,318.5,189.1,318.3,188.3z M361.3,196.2c0-0.3,0-0.6,0-0.8
		c0-2.7,0-5.4-0.1-8.1c0.1,1.2,0.2,2.5,0.2,3.7C361.5,192.6,361.4,194.4,361.3,196.2z"/>
	<path class="st1" d="M581.5,258.7c-1.6-2-3.5-1.8-5.3-0.3c-5.9-8.4-14.3-15-23.7-11.6c-1.8,0.7-3.4,1.5-4.6,2.6
		c-0.2-1.2-0.4-2.4-0.7-3.6c-0.9-3.4-4.7-2.5-6.7-0.7c-2.7,2.4-5.2,5.1-7.3,7.9c-0.2-1.1-0.6-2.1-1.6-2.6c-3-1.7-6.3,2.1-7.6,4.2
		c-12.8,19.8-18.8,49.4,0.4,67.5c2.8,2.7,6,0.1,7.9-2.5c3.6,6.8,11.3,7.9,18.5,7.9c8.5,0,17-0.9,23.3-7.1c4.8-4.7,8-10.8,9.9-17.5
		c3.8-4.2,6-10,6.4-15.2C591,278.4,587.3,266.2,581.5,258.7z M555.9,313.9c0,0.1,0.1,0.2,0.1,0.3c-0.2,0-0.3,0-0.5,0
		C555.7,314.1,555.8,314,555.9,313.9z"/>
	<path class="st1" d="M650,362.2c-7.4-10.4-19.7-15-31.6-13.1c-0.3-1.3-1.1-2.3-2.8-2.3c-17.5-0.4-32.4,12.9-35.8,29.7
		c-2.6,12.8,2,23.6,10.5,31.4c4.8,9.2,12.7,16.9,21.5,11.6c12.2,4.1,26.1,5.8,35-5.1c5.9-7.3,8-17.7,8.8-26.8
		C656.4,378.7,655.2,369.6,650,362.2z M645,389.2c-1,2-2.1,3.9-3.1,5.9c-0.6,0.9-1.2,1.8-1.9,2.7c0.9-3.5,2.2-7,3.2-10.5
		c0.5-1.6,0.9-3.2,1.3-4.7C645,384.7,645.1,386.9,645,389.2z M635.5,369c-2.7,6.9-5.3,13.9-8,20.8c0,0,0,0,0,0
		c1.9-7.7,4.3-15.4,5.5-23.3c1,0.6,1.9,1.2,2.8,1.9C635.7,368.6,635.6,368.8,635.5,369z"/>
	<path class="st1" d="M542,373.7c0.1-1.3,0-2.7-0.4-4c-0.9-2.9-3.6-2.7-5.8-1.4c-2.2-7.4-5.1-14.8-13.6-16.2
		c-0.3-2.9-0.7-5.9-1.4-8.8c-1.1-4.5-6.2-1.6-8,0.6c-2.6,3.3-4.4,6.8-5.6,10.4c-1.2-2.1-2.6-4.1-4.7-5.8c-2-1.6-4.3,0.1-6,2.2
		c-9.6-0.3-19.4,6.6-24.4,15.6c-4.5,8.1-5.8,17.4-4.7,26.5c0.1,0.9,0.2,1.8,0.4,2.9c0,4.8,0.6,9.8,2.2,14.1c0.1,0.7,0.1,1.5,0.2,2.2
		c0.2,2.3,1.4,3.6,2.9,3.7c1.7,2.3,3.9,4.2,6.7,5.4c3.1,1.4,6.1,1.8,8.9,1.5c10.5,5.6,23.5,5,33.6-1.7c2.6-1.7,5-3.8,7.2-6.1
		c3-2.5,5.6-5.4,7.6-8.8C544.9,399.9,542.8,383.4,542,373.7z M487.3,406.9c0.1,0.4,0.1,0.6,0.1,0.9c-0.1,0.1-0.2,0.2-0.4,0.3
		C486.9,407.8,487,407.4,487.3,406.9z M506.3,409.5c1.6-0.4,3.2-0.9,4.7-1.6c-0.1,0.6-0.1,1.2-0.1,1.8
		C509.3,409.7,507.8,409.7,506.3,409.5C506.2,409.5,506.2,409.5,506.3,409.5z M488.2,365.6c-0.1-0.2-0.2-0.5-0.3-0.7
		c0.2-0.1,0.4-0.1,0.6-0.2C488.4,365.1,488.3,365.3,488.2,365.6z"/>
	<path class="st1" d="M473.3,282.5c-1.2-8.2-6.3-14.8-11.8-20.7c-0.3-0.3-0.6-0.6-0.9-0.8c-1.5-4.2-3.3-8.3-5.4-12.3
		c-1.3-2.4-4.5-0.7-6,0.3c-1.3-2.8-3.2-5-5.9-6.4c-3.1-1.5-6.1,1.2-7.8,4.5c-0.8-1.5-1.7-2.8-3.1-3.8c-4.4-3-8.7,5.4-9.1,9
		c-4.6-3.6-12.3,3.1-15.6,6.8c-6.1,6.7-10.2,15.6-11.4,24.5c-2.1,17.1,7.3,34.1,23.7,40.2c1.8,0.7,3.8-0.1,5.6-1.6
		c2.1,2.2,4.8,3.6,8.1,2.8c0.6-0.1,1.2-0.4,1.7-0.7c2.4,5.1,8,6.8,12.9,3.6c2.3-1.5,4-3.4,5.3-5.6c1,0.6,2.3,0.6,3.8-0.1
		c7.9-4,10.8-12.6,11.7-21.1C472.7,295.6,474.2,289,473.3,282.5z M413.4,289.1c-0.2-1-0.4-2-0.4-3.1c-0.1-2.4,0.1-4.7,0.7-6.8
		C413.4,282.6,413.3,285.9,413.4,289.1z M457.2,310.1c0-0.1,0-0.2,0-0.2c0.1,0.1,0.1,0.1,0.2,0.2
		C457.4,310.3,457.3,310.3,457.2,310.1z"/>
	<path class="st1" d="M291,279.9c-1-8-4.2-14.8-10.1-20.4c-4.5-4.3-12.1-12-18.8-9.2c-1.3,0.5-2.4,1.2-3.4,2.1
		c-8.4-4.4-21.2-2-24.9,6.8c-6.2,3.9-10.8,10.5-13.1,17.4c-3.3,10-1.4,20.7,4.7,29.2c6.1,8.4,16.9,16.4,27.6,16.8
		c6,0.2,11.4-2,15.9-5.6c0.4,0.9,1.2,1.6,2.5,1.9c8.8,1.7,15.1-7.3,17.3-14.7C291.1,296.4,292,287.8,291,279.9z M278.2,305.3
		c0.4-0.7,0.7-1.5,1-2.3c0,0.2-0.1,0.3-0.1,0.5C278.8,304.9,278.8,305.3,278.2,305.3z"/>
	<path class="st1" d="M351.8,355.2c-1.7-1.9-3.6-1.7-5.2-0.4c-0.2-1.1-0.5-2.1-0.7-3.2c-0.7-3.1-4-2.6-6-1.2c-1,0.7-1.9,1.6-2.7,2.8
		c0-0.2,0-0.3,0-0.5c0.7-7.6-5.6-5.7-8.7-1.4c-0.3-0.4-0.7-0.7-1.2-0.9c-4.1-1.6-8,0.5-11.1,3.5c-5.8-2-11.5,3.4-14.7,8.2
		c-2.6,2.6-4.7,5.8-6.2,8c-4.1,6.1-6.8,12.8-8.3,19.9c-1.1,5.1,2.6,6,5.8,4.3c0.3,12,4.5,25.3,18,26.6c0,0,0.1,0,0.1,0
		c2.4,2.1,6.5,3,10.4,3.1c0.5,0,1.1,0,1.6,0c1.5,1.3,3.8,1.6,6.4,0.8c2.8,0.5,5.6,0.4,8.4-0.4c3.2-0.9,6.4-2.7,9.5-5
		c0.7,0,1.4-0.2,2.2-0.4c5-1.7,7.9-5.8,9.4-10.7c0.2-0.2,0.3-0.4,0.5-0.6C372.3,391.1,364.8,369.4,351.8,355.2z M319.8,405.2
		c0.3-2.2,0.4-4.4,0.5-6.6c0.2,0.5,0.3,0.9,0.5,1.4c-0.1,0.7-0.2,1.4-0.3,2.1C320.4,403.1,320.1,404.2,319.8,405.2
		C319.8,405.2,319.8,405.2,319.8,405.2z M334.9,402.2c-0.3,2.8-0.7,5.2-1.3,6.9c-0.6,0.2-1.2,0.4-1.9,0.6c0.3-2.2,0.6-5.7,1-9.6
		C333.6,400.7,334.3,401.4,334.9,402.2z M323,372c-0.4-0.6-0.9-1.1-1.4-1.5c0.6-2.5,1.5-4.9,2.8-7.1
		C323.8,366.2,323.3,369.1,323,372z M303.7,390.8c0.2,1.7,0.4,3.4,0.7,5.1c-0.4-1.6-0.7-3.3-0.8-5
		C303.6,390.8,303.6,390.8,303.7,390.8z"/>
	<path class="st1" d="M210.8,362.2c-2.7-3.3-6.5-5.6-10.7-5.4c-0.9-1.2-1.8-2.4-2.7-3.5c-2-2.4-4.3-1.5-6.3,0.6
		c-0.6-2.6-1.8-4.9-4.4-6.2c-2.8-1.4-5.3,0.4-6.9,3.1c-1.3-4.7-7.1-1.3-9.1,2.1c0,0.1-0.1,0.1-0.1,0.2c-0.6-0.8-1.7-1.2-3.3-1
		c-15.9,2.5-24.6,21.1-25.5,35.6c-0.8,14.2,5.3,28.3,16.9,36.6c1.1,0.8,2.5,0.5,3.7-0.2c0.3,2.6,1,5.1,3.2,6.5
		c2.7,1.8,6.6,1.8,10,1.6c1.2,0.5,2.5,0.6,4,0.1c0.3-0.1,0.6-0.2,1-0.4c4.2-0.4,8.3-1.2,12.4-2.4c2.7-0.8,4.8-3.2,5.9-5.8
		c0,0,0.1-0.1,0.1-0.1c0.1,0,0.1,0,0.2,0.1c11.9,2.1,18-18.9,19.2-27.5C219.9,384.8,218.2,371.2,210.8,362.2z M180.9,414.8
		c0,0.2-0.1,0.5-0.1,0.7c0,0.1,0,0.1,0,0.2c-0.1-0.3-0.2-0.6-0.3-0.9C180.6,414.7,180.7,414.7,180.9,414.8z M157.1,369.9
		c-2.3,4.4-3.8,9.1-4.4,14C152.7,378.9,154,373.6,157.1,369.9z"/>
</g>
<g id="Layer_5">
	<g class="st3">
		<path class="st4" d="M378.8,60.9c-8.9,17.1-9,39.2,5.2,53.6c13.7,13.9,34.5,16,51,5.8c3-1.9,5.5-5.6,5.3-9.2c-0.2-3-2.6-5-5.5-3.2
			c-12.9,8-29.1,6.5-40.4-3.7c-10.6-9.6-14.6-25.9-7.8-38.9c1.2-2.3,2.9-7-0.1-8.7C383.6,55,380,58.7,378.8,60.9L378.8,60.9z"/>
	</g>
	<g class="st3">
		<path class="st4" d="M449.8,151.1c-7.6,8.9-14.4,18.8-15.8,30.7c-1.2,10.4,1.1,21.2,7.1,29.9c13.1,18.9,39.4,20,57,7
			c5.3-3.9,5-16.3-2.9-10.4c-13.4,9.8-34.1,6.2-43.9-6.8c-4.6-6.1-7.1-13.6-6.7-21.3c0.4-8.5,5.5-15,10.8-21.3
			c1.9-2.2,4-6.9,1.9-9.6C455.1,146.5,451.4,149.2,449.8,151.1L449.8,151.1z"/>
	</g>
	<g class="st3">
		<path class="st4" d="M527.2,249.4c-6.4,9.1-11,19.1-12.8,30.1c-1.6,9.8-1.9,21.8,3.9,30.3c5.4,7.9,15.5,11.8,24.2,14.6
			c9.8,3.2,20.1,4.3,29.4-1.1c3-1.7,5.5-5.6,5.3-9.2c-0.2-3.1-2.6-4.9-5.5-3.2c-6.9,4-15.2,2.6-22.5,0.2
			c-6.7-2.2-14.8-5.2-19.8-10.4c-10.5-11.1-4.4-32.7,3.3-43.6c1.7-2.4,4.1-6.7,1.9-9.6C532.6,244.9,528.7,247.3,527.2,249.4
			L527.2,249.4z"/>
	</g>
	<g class="st3">
		<path class="st4" d="M599.8,351.8c-19.1,10.7-23.7,36.3-11.7,54.1c12.2,18,35.8,22.5,54.8,12.8c3.1-1.6,5.5-5.8,5.3-9.2
			c-0.2-3.3-2.6-4.7-5.5-3.2c-13.7,7-30.8,4.2-41.4-7c-8.6-9.1-14.9-27.5-1.3-35.2c3-1.7,5.5-5.7,5.3-9.2
			C605.2,351.8,602.7,350.1,599.8,351.8L599.8,351.8z"/>
	</g>
	<g class="st3">
		<path class="st4" d="M491.3,347.4c-23,7.9-36.6,35.4-25.4,57.9c11.8,23.7,41.2,25.5,63,16.5c5.4-2.2,8-15.8-0.2-12.4
			c-16.5,6.9-37.7,5.5-49.6-9.3c-10.8-13.5-7.4-33.3,9.7-39.2c3.4-1.2,5.9-4.6,6.5-8.1C495.7,350.3,494.8,346.2,491.3,347.4
			L491.3,347.4z"/>
	</g>
	<g class="st3">
		<path class="st4" d="M420.4,245.5c-11.6,3.7-19.2,14.2-22.3,25.6c-3,11.2-3.7,26.8,2.9,36.8c6,9.2,17.3,13.8,27.1,17.7
			c12.2,4.9,24,5.6,33.6-4.4c2-2.1,3.9-7,1.9-9.6c-2.2-2.9-5.7,0-7.4,1.8c-6.1,6.3-19.1-0.1-25.3-2.7c-6.4-2.8-13.3-5.8-18.1-10.9
			c-5.8-6.2-6.1-14.5-5.6-22.5c0.5-7.6,2.6-15.7,10.6-18.2c3.4-1.1,5.9-4.6,6.5-8.1C424.8,248.4,423.9,244.4,420.4,245.5
			L420.4,245.5z"/>
	</g>
	<g class="st3">
		<path class="st4" d="M320.9,148.3c-3.8,4.4-8.9,6.8-12.2,11.8c-3.2,4.8-5.3,10.2-6.3,15.9c-1.9,10.6-0.2,21.7,4.8,31.3
			c10.5,20,35.8,25.4,53.9,12.2c5.3-3.8,5-16.2-2.9-10.4c-13.8,10.1-33.2,1.6-40.9-11.8c-4-6.8-5.7-15.3-4.5-23.1
			c0.6-3.7,1.7-7.4,4.5-10c3-2.9,6.5-4.9,9.2-8c1.9-2.2,3.9-6.9,1.9-9.6C326.1,143.7,322.5,146.4,320.9,148.3L320.9,148.3z"/>
	</g>
	<g class="st3">
		<path class="st4" d="M234.5,250.4c-20.5,12.4-20.4,42.9-7.4,60.6c13.6,18.6,39.7,19.8,55.3,3.3c2-2.1,3.9-7,1.9-9.6
			c-2.2-2.9-5.7,0-7.4,1.8c-10.5,11-29.9,5.6-38.7-4.6c-5.1-5.9-8.3-13.4-9.1-21.2c-0.7-6.2-0.3-14.5,5.6-18c3-1.8,5.5-5.6,5.3-9.2
			C239.9,250.5,237.4,248.7,234.5,250.4L234.5,250.4z"/>
	</g>
	<g class="st3">
		<path class="st4" d="M309.4,354.1c-16.2,15.2-24.8,39-10.2,58.5c13.7,18.2,39,17.7,56.3,5.2c5.3-3.8,5-16.2-2.9-10.4
			c-12.5,9.1-31.9,7.8-42.3-4c-4.7-5.3-7.9-12.2-7.9-19.4c-0.1-7.9,4.5-14.3,10-19.5c2.4-2.2,4.9-6.3,3.7-9.7
			C315,351.7,311.5,352.2,309.4,354.1L309.4,354.1z"/>
	</g>
	<g class="st3">
		<path class="st4" d="M161.8,351.6c-20.4,14.1-29.4,43.5-13.3,64.5c13.9,18.1,40.7,21.5,59.5,9.2c2.9-1.9,5.5-5.5,5.3-9.2
			c-0.2-3-2.7-5-5.5-3.2c-13.9,9.1-33.5,7.8-45.8-3.5c-13.1-12-15.6-34.5,0.1-45.4c2.9-2,5.5-5.4,5.3-9.2
			C167.2,351.9,164.6,349.7,161.8,351.6L161.8,351.6z"/>
	</g>
</g>
<g id="Layer_1">
</g>
<g id="Layer_6">
	<path class="st10" d="M315.2,46.6c-1.4-5.5-3.5-11.1-7.6-15.2c-8.5-8.3-22.5-13.1-34.1-14.4c-12.5-1.3-26.4-1.3-38.4,2.9
		c-1.1,0.4-2.2,0.8-3.4,1.3c-6.2,0.6-12.2,1.8-18.2,3.6c-1.8,0.6-4.3,3.4-5.8,6.4c-0.2-0.1-0.3-0.1-0.5-0.2
		c-3.3-1.3-6.8,1.8-8.4,5.5c-0.2,0.1-0.4,0.3-0.6,0.4c-3.2,2.5-6.9,8.4-5.2,12.7c-4.5,1.9-8.9,9.9-4.4,13c2.2,1.5,4.6,2.8,7.1,4
		c-1.6,2.7-2.1,5.9-0.5,7.7c9.5,10.6,22.1,16.8,35.8,20c13.5,3.2,30.8,6.1,43.7-0.2c1.7-0.8,3-2.8,3.9-4.9c2.2,0.1,4.5,0.2,6.7,0.2
		c3.2,0,5.6-2.8,6.9-5.5c0.4-0.8,1-2.5,1.1-4.1c3.1-0.1,6.2-0.3,9.3-0.5c4.1-0.3,9.5-6.6,8-11.1c2.7-2.1,4.9-5.9,4.4-8.9
		C317.1,55.2,316.3,51.1,315.2,46.6z M267.6,38.7c2.2,0.7,4.4,1.5,6.5,2.4C271.9,40.3,269.7,39.5,267.6,38.7z"/>
	<g>
		<g>
			<path class="st11" d="M441.4,61.7c-8.2-12.4-24.9-16.6-39-14.2c-15.8,2.7-28.8,15.3-32,30.9c-3.4,16.6,4.6,34.1,19.3,42.5
				c14.5,8.4,33.7,8.3,46.5-3.1c16.2-14.5,16.7-38.5,5.4-56c-1.3-2.1-4.6-0.2-3.3,1.9c8.8,14.7,10.5,33-0.8,47.1
				c-9.9,12.4-26.5,15-40.8,9.2c-14.3-5.8-23.9-20.1-23.1-35.7c0.7-14.5,11-27.4,24.7-31.8c13.5-4.3,31.3-0.8,40.1,11
				C439.7,65.2,442.7,63.6,441.4,61.7L441.4,61.7z"/>
		</g>
	</g>
	<g>
		<g>
			<path class="st11" d="M502.8,155.4c-10.1-12.2-29.2-14.5-43.6-9.7c-15.6,5.3-26.8,19.8-27.9,36.3c-1.2,17.5,9.7,34.2,25.7,40.9
				c16.5,6.9,36.6,4,48.1-10.3c13.9-17.1,11.2-40.6-2-57.2c-1.3-1.7-4.3,0.6-3,2.3c10.5,14,14.4,31.9,5.3,47.7
				c-8.5,14.8-25.7,20-41.8,15.6c-15.6-4.3-27.5-18-28.4-34.4c-0.8-14.6,7.5-28.8,20.6-35.3c13.9-6.9,33.7-5.3,44.6,6.5
				C501.8,159.5,504.2,157.1,502.8,155.4L502.8,155.4z"/>
		</g>
	</g>
	<g>
		<g>
			<path class="st11" d="M326.4,144.8c-15.7,4-26.1,20.4-27.9,35.9c-2,16.8,7,33.8,22,41.6c16.3,8.4,36.6,4.8,49.4-8.1
				c12.6-12.7,17.4-32,8.7-48.2c-10.1-18.9-32-26.1-52.1-21.3c-2.4,0.6-1.4,4.2,1,3.7c16.1-3.3,32.7,0.2,43.5,13.4
				c11,13.3,10.2,31.2,0.3,44.8c-10,13.7-27.9,20-44.2,14.4c-14.3-5-24.4-18.8-25-33.9c-0.7-15.9,9.3-34,25.1-38.8
				C329.4,147.5,328.5,144.2,326.4,144.8L326.4,144.8z"/>
		</g>
	</g>
	<g>
		<g>
			<path class="st11" d="M221.8,265c-9.4,12.5-7.1,31.4,1.2,43.9c9,13.6,26.1,20.4,41.9,16.7c15.9-3.7,28-17.4,30.3-33.4
				c2.5-17.6-5.5-35.8-22.4-42.8c-18.5-7.7-38.8-0.2-50.7,15.1c-1.5,1.9,1.1,4.6,2.7,2.7c9.9-11.9,23.8-19.2,39.6-16.3
				c16.5,3.1,27,17.3,27.4,33.7c0.4,15.3-8.3,29.8-22.7,35.6c-13.7,5.5-29.7,1.6-39.5-9.3c-10.4-11.4-13.6-31-4.7-44.1
				C226.1,264.9,223.1,263.3,221.8,265L221.8,265z"/>
		</g>
	</g>
	<g>
		<g>
			<path class="st11" d="M462.2,255.2c-11-12-30.7-13.2-45.1-7.3c-15.4,6.3-25.8,21.8-25.8,38.4c0,17.7,11.9,33.7,28.5,39.5
				c17.1,6,37.1,1.7,47.9-13.4c12.8-17.9,8.8-41.4-5.2-57.2c-1.7-1.9-4.3,0.8-2.7,2.7c11.2,13.4,15.9,31.3,7.6,47.5
				c-7.8,15.4-24.9,21.7-41.3,18.1c-15.9-3.5-28.4-16.4-30.5-32.7c-1.9-14.9,5.8-29.8,18.8-37.2c13.6-7.8,33.9-7.3,45.4,4.1
				C461.3,259.2,463.7,256.8,462.2,255.2L462.2,255.2z"/>
		</g>
	</g>
	<g>
		<g>
			<path class="st11" d="M546.7,244.7c-16.9,0.3-31.3,15-35.9,30.5c-4.9,16.3,1.3,34.6,14.9,44.7c14.9,11.1,35.7,10.3,50.3-0.7
				c14-10.6,21.2-28.3,15.1-45.3c-6.7-18.8-24.8-29.3-44.2-29.3c-2.5,0-2.5,3.8,0,3.8c14.9,0.4,28.7,6.2,36.9,19.2
				c9,14.4,6.7,32-5.1,44c-11.7,11.9-29.7,16-45,8.5c-13.7-6.7-21.8-21.6-20.5-36.8c1.5-16.8,16-33.9,33.5-35.1
				C548.9,248,548.9,244.7,546.7,244.7L546.7,244.7z"/>
		</g>
	</g>
	<g>
		<g>
			<path class="st11" d="M342.7,351.3c-14-7.1-31.8-1.7-42.9,8.4c-12.3,11.4-16,30.1-9.1,45.3c7.2,15.9,24.5,25,41.7,22.9
				c17.4-2.1,32.3-14.1,34.9-31.9c2.8-18.9-7.9-36.1-24.4-44.8c-2.2-1.1-4.1,2.1-1.9,3.3c12.6,7.1,22,18.5,22.8,33.4
				c0.9,16.6-9.6,30.3-25.4,34.8c-15.1,4.3-31.6-0.7-40.8-13.6c-8.9-12.6-8.4-29.9,0.9-42.2c9.2-12.1,28-19.1,42.4-12.7
				C343,355.2,344.8,352.4,342.7,351.3L342.7,351.3z"/>
		</g>
	</g>
	<g>
		<g>
			<path class="st11" d="M217.4,374.4c-4.6-15.4-21.2-24.9-36.5-26.2c-16.2-1.3-32.3,7.7-39.7,22.2c-8.3,16.3-4.5,36.7,8.8,49.2
				c12.8,12.1,32.1,16.5,47.9,7.6c18.7-10.5,25.3-32.7,19.7-52.7c-0.7-2.4-4.3-1.4-3.7,1c4,16,1.1,32.8-11.9,44
				c-12.9,11.1-30.7,10.8-44.3,1.3c-13.8-9.6-20.4-27-15.2-43.3c4.6-14.2,18.1-24.5,32.9-25.5c15.5-1,33.3,8.1,38.6,23.2
				C214.8,377.4,218,376.6,217.4,374.4L217.4,374.4z"/>
		</g>
	</g>
	<g>
		<g>
			<path class="st11" d="M533.5,418.6c12.6-10.3,14.9-30,9.7-44.7c-5.5-15.7-20.4-26.8-37-27.8c-17.7-1-34.3,10.1-41,26.4
				c-7,17.1-3.6,37.7,11.6,49.1c17.3,13.1,40.2,10.2,56.6-2.8c1.7-1.3-0.6-4.3-2.3-3c-13.8,10.3-31.2,14.3-47,5.9
				c-15.5-8.3-21.4-25.7-17.1-42.3c4.1-15.9,17.9-28,34.4-29.3c15.1-1.1,29.6,7.5,36.3,21c7,14.1,5.3,34.2-6.7,45.1
				C529.4,417.7,531.8,420,533.5,418.6L533.5,418.6z"/>
		</g>
	</g>
	<g>
		<g>
			<path class="st11" d="M651.1,361c-8.2-12.4-24.9-16.6-39-14.2c-15.8,2.7-28.8,15.3-32,30.9c-3.4,16.6,4.6,34.1,19.3,42.5
				c14.5,8.4,33.7,8.3,46.5-3.1c16.2-14.5,16.7-38.5,5.4-56c-1.3-2.1-4.6-0.2-3.3,1.9c8.8,14.7,10.5,33-0.8,47.1
				c-9.9,12.4-26.5,15-40.8,9.2c-14.3-5.8-23.9-20.1-23.1-35.7c0.7-14.5,11-27.4,24.7-31.8c13.5-4.3,31.3-0.8,40.1,11
				C649.4,364.5,652.3,362.9,651.1,361L651.1,361z"/>
		</g>
	</g>
	<g>
		<g>
			<path class="st11" d="M381.1,114c-11.5,8.8-23.5,22-27.8,36.2c-0.6,2,2.2,3.1,3.3,1.4c3.7-6.2,6.5-12.7,10.8-18.6
				c4.4-6.1,9.7-11.8,15.3-16.9C383.8,115.1,382.3,113.1,381.1,114L381.1,114z"/>
		</g>
	</g>
	<g>
		<g>
			<path class="st11" d="M433.6,115.3c4.4,6,9,11.9,13.1,18.1c4.1,6.2,7.3,13.1,11.6,19.2c1.2,1.7,4.4,0.7,3.5-1.5
				c-2.7-7-7.4-13.6-11.6-19.7c-4.3-6.3-8.9-12.4-14.1-18C434.9,112.1,432.5,113.8,433.6,115.3L433.6,115.3z"/>
		</g>
	</g>
	<g>
		<g>
			<path class="st11" d="M318.3,215.5c0-0.2,0-0.3,0.1-0.5c0.1-0.6-0.5-1.1-0.9-1.2c-2.8-1.1-5.2,2.2-7,3.9
				c-4,3.6-7.8,7.4-11.5,11.3c-7,7.5-13.7,15.5-19.5,24c-1.4,2.1,1.9,3.9,3.3,2c5.2-7.1,10.5-14.1,16.3-20.7
				c2.8-3.1,5.6-6.2,8.5-9.2c1.8-1.8,6.9-8.8,9.5-8.7c-0.4-0.4-0.9-0.9-1.3-1.3c0,0.2,0,0.3,0,0.5
				C315.9,217.1,318.1,217.1,318.3,215.5L318.3,215.5z"/>
		</g>
	</g>
	<g>
		<g>
			<path class="st11" d="M454.8,216.4c-5.9,11-11,21.7-13.7,34c-0.5,2.5,3.2,3.5,3.8,1c2.8-11.6,6.5-23.2,12-33.8
				C457.5,216.3,455.5,215.1,454.8,216.4L454.8,216.4z"/>
		</g>
	</g>
	<g>
		<g>
			<path class="st11" d="M229.3,314.7c-6.3,6.4-11.8,13.8-16.6,21.4c-4.7,7.4-9.7,15.7-12.1,24.2c-0.6,2,2.4,3.3,3.4,1.4
				c4.1-7.6,7.2-15.5,11.7-22.9c4.7-7.7,10.2-14.8,16-21.8C233,315.4,230.8,313.1,229.3,314.7L229.3,314.7z"/>
		</g>
	</g>
	<g>
		<g>
			<path class="st11" d="M278.3,316.8c4.4,2.8,6.7,7.8,9.2,12.2c2.3,4,4.6,8.1,6.7,12.3c2.2,4.1,4.2,8.3,6.2,12.5
				c1.1,2.5,1.8,6.3,4.8,7c1.1,0.3,2.1-0.3,2.5-1.4c0-0.1,0.1-0.2,0.1-0.4c0.3-0.9-0.2-1.7-0.9-2.2c-0.1-0.1-0.2-0.2-0.3-0.3
				c-0.8-0.6-2.1-0.1-2.6,0.7c0,0.1-0.1,0.1-0.1,0.2c-0.8,1.2,0.5,3.2,2,2.6c0.1,0,0.1-0.1,0.2-0.1c-0.7-0.3-1.4-0.6-2.1-0.9
				c0.1,0.1,0.1,0.3,0.2,0.4c0-0.7,0-1.3,0-2c-0.1,0.1-0.1,0.2-0.2,0.3c0.8-0.3,1.5-0.6,2.3-0.9c-0.6-0.2-2.1-4.4-2.4-5.1
				c-1.1-2.2-2.2-4.5-3.3-6.7c-2.1-4.1-4.3-8.2-6.6-12.3c-3.6-6.3-7.4-14.9-14.2-18.3C278.1,313.8,276.8,315.9,278.3,316.8
				L278.3,316.8z"/>
		</g>
	</g>
	<g>
		<g>
			<path class="st11" d="M532.8,320c-3.3,5.2-5.6,11.2-7.9,16.9c-2.4,6.1-4.9,12.6-6,19.1c-0.4,2.3,2.7,3.2,3.5,1
				c2.1-6,3.6-12.2,5.8-18.3c2.2-6,5-11.7,7.3-17.6C536,319.6,533.7,318.7,532.8,320L532.8,320z"/>
		</g>
	</g>
	<g>
		<g>
			<path class="st11" d="M574.3,313.5c7.9,14.7,15.5,29.4,21.4,45c0.9,2.3,4.6,1.3,3.7-1c-6.3-15.7-13.6-31.2-23-45.2
				C575.6,311,573.6,312.1,574.3,313.5L574.3,313.5z"/>
		</g>
	</g>
	<g>
		<g>
			<path class="st11" d="M500.4,208.8c6.7,7.4,13.1,15.3,19,23.3c5.7,7.7,10.3,16.1,15.9,23.9c1.3,1.8,3.9,0.3,3-1.7
				c-4.3-9-10.9-17.4-16.9-25.3c-5.9-7.7-12.3-14.9-19.2-21.8C501,205.9,499.4,207.6,500.4,208.8L500.4,208.8z"/>
		</g>
	</g>
	<g>
		<g>
			<path class="st13" d="M296,24.1c-1.4-0.8-2.8-1.6-4.4-2.3"/>
			<path class="st14" d="M282,18.7c-17.8-4.1-42.1-2.2-59.5,4.9c-22.7,9.2-33.4,25-30.5,38.9c2.3,11.1,12.9,21.4,30.7,26.7
				c17.8,5.4,42.8,5.1,61.6-1.8c16.2-6,25.8-15.9,29.4-25.7c4.2-11.6,0.6-22.3-9.6-31.5"/>
			<path class="st13" d="M300.3,27.1c-1.3-1-2.7-1.9-4.1-2.8"/>
		</g>
	</g>
	<g>
		<g>
			<path class="st15" d="M428.4,470.7c5.4,3.1,13,3.1,19.1,3.3c6.6,0.2,14.5,0.4,20.9-1.8c2.3-0.8,2-4.3-0.6-4.3
				c-6.4-0.1-12.9,1.3-19.4,1.3c-6.3-0.1-13.1-1.9-19.3-1.2C427.8,468.1,427,469.9,428.4,470.7L428.4,470.7z"/>
		</g>
	</g>
	<g>
		<g>
			<path class="st15" d="M433.9,461c-3.7,3.1-6.9,6.9-10.5,10.2c-1.4,1.3-0.5,3.4,1,4c4.3,1.6,8.3,4.4,12.7,5.7
				c2,0.6,3.6-2.1,2.1-3.6c-3.5-3.3-9.1-5.1-13.5-6.7c0.3,1.3,0.7,2.6,1,4c3.6-3.4,7.6-7,10.1-11.3C438,461.3,435.5,459.7,433.9,461
				L433.9,461z"/>
		</g>
	</g>
	<g>
		<g>
			<path class="st16" d="M607.1,470.7c5.4,3.1,13,3.1,19.1,3.3c6.6,0.2,14.5,0.4,20.9-1.8c2.3-0.8,2-4.3-0.6-4.3
				c-6.4-0.1-12.9,1.3-19.4,1.3c-6.3-0.1-13.1-1.9-19.3-1.2C606.5,468.1,605.7,469.9,607.1,470.7L607.1,470.7z"/>
		</g>
	</g>
	<g>
		<g>
			<path class="st16" d="M612.6,461c-3.7,3.1-6.9,6.9-10.5,10.2c-1.4,1.3-0.5,3.4,1,4c4.3,1.6,8.3,4.4,12.7,5.7
				c2,0.6,3.6-2.1,2.1-3.6c-3.5-3.3-9.1-5.1-13.5-6.7c0.3,1.3,0.7,2.6,1,4c3.6-3.4,7.6-7,10.1-11.3
				C616.7,461.3,614.2,459.7,612.6,461L612.6,461z"/>
		</g>
	</g>
	<g>
		<g>
			<g>
				<path class="st11" d="M482.2,462.4c0,4.9,0.1,9.8-0.2,14.7c-0.1,2.4,3.5,2.4,3.7,0c0.4-5,0.4-10.2-0.4-15.2
					C485,460.1,482.2,460.6,482.2,462.4L482.2,462.4z"/>
			</g>
		</g>
		<g>
			<g>
				<path class="st11" d="M485.2,464.4c6.2-1.4,5.6,12.2,0.4,10.8c-2.1-0.6-3.5,2.5-1.5,3.5c6,3,9.4-4.1,9.3-9
					c0-2.6-0.7-5.4-2.8-7.2c-1.9-1.5-4.4-1.9-6.4-0.5C482.9,462.8,483.7,464.7,485.2,464.4L485.2,464.4z"/>
			</g>
		</g>
		<g>
			<g>
				<path class="st11" d="M496.3,461.9c-1.2,2.2-0.7,4.9-0.7,7.4c0,2.8-0.3,5.7,0.2,8.5c0.3,1.7,3,1.6,3.4,0
					c0.6-2.8,0.2-5.7,0.1-8.5c-0.1-2.4,0.2-5.3-1.1-7.4C497.8,461.2,496.7,461.1,496.3,461.9L496.3,461.9z"/>
			</g>
		</g>
		<g>
			<g>
				<path class="st11" d="M512,464c-1.9-3.8-8-4.7-9.6,0c-0.7,2,0,4.1,1.3,5.7c0.9,1.1,2.1,1.9,3.2,2.8c0.4,0.3,2,1.3,2,1.8
					c0,1.5-2.7,1.5-3.1,0.2c-0.5-1.7-2.8-1.6-3.4,0c-2.1,5.7,7.6,6.2,10,2.4c1.4-2.1,0.3-4.5-1.3-6.1c-1.1-1.1-2.6-1.9-3.6-3
					c-0.5-0.4-0.9-1-1.2-1.6c0.3-0.5,0.6-1,0.9-1.5c0.8-0.3,2.2,0.9,2.8,1.3C511.3,467,512.6,465.3,512,464L512,464z"/>
			</g>
		</g>
		<g>
			<g>
				<path class="st11" d="M516,462.5c-0.6,4.9-1,10.6-0.5,15.5c0.2,2.4,3.5,2.4,3.8,0c0.6-4.9,0.4-10.6-0.1-15.5
					C518.9,460.5,516.3,460.5,516,462.5L516,462.5z"/>
			</g>
		</g>
		<g>
			<g>
				<path class="st11" d="M517.6,464.3c1.1-0.1,2.3,0,3.4,0.3c1.2,0.4,1.6,0.8,1.8,2.1c0.4,2-2.4,2.1-3.8,1.9
					c-2.5-0.4-3.6,3.1-1.1,3.9c3.8,1.2,9.6-1.1,8.9-5.7c-0.3-2-1.1-3.9-3-4.8c-2-1-4.5-0.8-6.6-0.4
					C515.7,461.9,516,464.4,517.6,464.3L517.6,464.3z"/>
			</g>
		</g>
		<g>
			<g>
				<path class="st11" d="M530,478.1c2-4.8,3.3-9.9,5.3-14.7c-1.2,0-2.4,0-3.6,0c1.6,4.6,3.2,9.3,4.4,14.1c0.6,2.5,4.7,1.4,3.9-1.1
					c-1.6-4.6-3.1-9.3-4.7-14c-0.7-1.9-2.9-1.7-3.6,0c-2,4.8-4,10.1-4.4,15.4C527.2,479.4,529.4,479.4,530,478.1L530,478.1z"/>
			</g>
		</g>
		<g>
			<g>
				<path class="st11" d="M531,475c0.8,0.1,1.6,0,2.3,0c0.9,0,1.8,0,2.6-0.5c1.2-0.7,1.1-2.8-0.4-3.1c-0.9-0.2-1.7,0.1-2.6,0.3
					c-0.8,0.2-1.5,0.2-2.3,0.4c-0.7,0.2-1.2,0.9-1,1.6C529.7,474.5,530.3,474.9,531,475L531,475z"/>
			</g>
		</g>
		<g>
			<g>
				<path class="st11" d="M539.3,464.3c3,0.3,6.2,0.4,9.2,0.3c2.5-0.1,2.5-3.8,0-3.9c-3.1-0.1-6.5,0.2-9.6,0.8
					C537.3,461.9,537.9,464.1,539.3,464.3L539.3,464.3z"/>
			</g>
		</g>
		<g>
			<g>
				<path class="st11" d="M543.9,463c-1.2,4.6-0.2,9.4-0.6,14.1c0.9-0.7,1.7-1.3,2.6-2c0,0-0.1,0-0.1,0c0.5,0.8,0.9,1.6,1.4,2.5
					c0,0,0,0,0-0.1c0.4-1.3-0.6-2.3-1.9-2.5c0,0,0,0-0.1,0c-1.1-0.1-1.9,1-2,2c0,0,0,0.1,0,0.1c-0.1,1.8,2.4,2.7,3.5,1.5
					c1.5-1.6,0.6-4.5,0.4-6.5c-0.3-2.9-0.4-5.7-0.5-8.6C546.7,461.8,544.3,461.4,543.9,463L543.9,463z"/>
			</g>
		</g>
		<g>
			<g>
				<path class="st11" d="M562.2,465.9c-0.1-3-3-4.9-5.8-4.6c-3.6,0.3-4.5,4.2-4.7,7.3c-0.2,3.2,0.2,8,3.3,9.9
					c3.1,1.8,5.9-0.6,7.1-3.4c1-2.2-2.2-4.1-3.2-1.9c-0.8,1.8-1.9,3.1-3,0.4c-0.5-1.2-0.5-2.8-0.5-4.1c0-1,0-4.4,1.7-4.5
					c1.2-0.1,2,1.3,2.7,2C560.6,467.8,562.3,467.1,562.2,465.9L562.2,465.9z"/>
			</g>
		</g>
		<g>
			<g>
				<path class="st11" d="M566.1,461.9c-0.7,5,0,10.6,0.4,15.6c0.2,2.5,4.2,2.6,4,0c-0.3-5.2-0.5-11-1.9-16
					C568.2,460,566.3,460.5,566.1,461.9L566.1,461.9z"/>
			</g>
		</g>
		<g>
			<g>
				<path class="st11" d="M568.5,471.7c2.2,0,4.5-0.1,6.7,0.2c2.7,0.3,2.5-4.6-0.5-3.9c-2,0.5-4.1,0.6-6.1,0.9
					C566.7,469,566.6,471.7,568.5,471.7L568.5,471.7z"/>
			</g>
		</g>
		<g>
			<g>
				<path class="st11" d="M574.5,461.6c-0.7,2.6-0.4,5.4-0.3,8c0,2.7,0,5.5,0.6,8.2c0.5,2.2,3.7,1.6,3.8-0.5
					c0.2-2.7-0.3-5.5-0.6-8.2c-0.2-2.5-0.1-5.1-0.9-7.4C576.6,460.4,574.8,460.3,574.5,461.6L574.5,461.6z"/>
			</g>
		</g>
	</g>
	<g>
		<g>
			<g>
				<path class="st11" d="M670.5,464.2c-2.1-2.8-7.4-4.7-9.1-0.4c-0.9,2,0.4,3.9,1.8,5.3c1.1,1.1,2.7,2.1,3.6,3.3
					c0.2,0.2,0.4,0.3,0.6,0.5c-0.2,0.7-0.5,1.5-0.7,2.2c-1,0.9-2.6-0.4-3.1-1.2c-1-1.7-3.7-0.6-3.2,1.3c1.2,4.7,8.5,4.7,10.7,0.7
					c1.1-2,0.2-4.1-1.3-5.5c-1.2-1.2-2.8-2.1-3.8-3.5c-0.7-0.9-1.9-2.7,0.4-1.8c0.7,0.3,1.3,0.8,2,1.1
					C669.7,466.8,671.5,465.6,670.5,464.2L670.5,464.2z"/>
			</g>
		</g>
		<g>
			<g>
				<path class="st11" d="M674.7,462.1c-0.6,3.7-0.4,7.9,0.3,11.5c0.5,2.6,2.1,5,5,5.2c7.9,0.3,5.5-10.9,5.4-15.8
					c0-2.2-3.5-2.2-3.4,0c0.1,2.1,0.2,4.3,0.2,6.4c0,1.5,0.4,4.6-0.8,5.6c-2.9,2.3-3.3-4.9-3.4-6.1c-0.2-2.1-0.1-4.3-0.4-6.5
					C677.4,461.1,675,460.4,674.7,462.1L674.7,462.1z"/>
			</g>
		</g>
		<g>
			<g>
				<path class="st11" d="M690.6,464C690.7,464,690.7,464,690.6,464c-0.3-0.4-0.6-0.7-1-1.1c0.1,2.1-0.5,4.5-0.6,6.6
					c-0.1,2.5-0.2,5-0.2,7.5c0,2.4,3.8,2.4,3.8,0c0-3.2,0-6.4-0.1-9.6c-0.1-1.4,0.3-4.5-1.2-5.4c-0.3-0.2-0.8-0.2-1.1,0
					c0,0-0.1,0-0.1,0.1C689.2,462.6,689.6,463.9,690.6,464L690.6,464z"/>
			</g>
		</g>
		<g>
			<g>
				<path class="st11" d="M690.7,464.3c1.1-0.1,3.8-0.3,4.1,1.1c0.3,1.6-2.2,2.2-3.5,2.4c-2,0.4-1.6,3.9,0.5,3.7
					c1.2-0.1,5.8,0.5,3.2,2.8c-1.1,0.9-2.9,0.6-4.3,0.6c-2,0-2.6,3.2-0.5,3.6c3.5,0.6,8.5-0.2,9.2-4.5c0.7-4.4-3.9-6.5-7.6-6.2
					c0.2,1.2,0.3,2.5,0.5,3.7c3.2-0.6,7.2-3,6.4-6.9c-0.7-3.6-5.6-4-8.4-2.8C689.2,462.3,689.1,464.4,690.7,464.3L690.7,464.3z"/>
			</g>
		</g>
		<g>
			<g>
				<path class="st11" d="M712,465.1c-0.4-5-8.5-5.5-9.9-0.9c-0.7,2.3,0.7,4.6,2.5,6c1.2,0.9,2.8,1.6,4,2.6c2.6,2.4-2.4,2.6-3.2,1.1
					c-0.9-1.8-4-0.6-3.3,1.4c1.6,4.4,9.5,4.4,11.2,0.1c1-2.4-0.5-4.1-2.4-5.5c-1.3-0.9-2.8-1.6-4.1-2.6c-1.1-0.9-2-2.4,0.1-2.7
					c1.2-0.2,2.2,0.6,3,1.4C710.6,466.7,712.1,466.2,712,465.1L712,465.1z"/>
			</g>
		</g>
		<g>
			<g>
				<path class="st11" d="M726,465.9c0.4-3.2-3.4-5.6-6.3-4.8c-3.3,1-3.7,5.4-3.7,8.2c-0.1,3,0.3,7.1,3,8.9c3.2,2.1,6.4-0.2,7.8-3.1
					c1-2.2-2.3-4.1-3.3-1.9c-0.6,1.4-2.5,2.7-3.3,0.7c-0.5-1.3-0.6-2.8-0.6-4.1c0-1.1-0.2-3.2,0.5-4c1.3-1.9,2.8,0.1,3.8,1
					C724.8,467.5,725.9,466.9,726,465.9L726,465.9z"/>
			</g>
		</g>
		<g>
			<g>
				<path class="st11" d="M729.3,462.3c-0.8,2.3-0.6,4.9-0.7,7.2c-0.1,2.7-0.1,5.4-0.1,8c0,2.5,3.8,2.5,3.9,0c0-2.7,0-5.4,0-8
					c0-2.4,0.2-5-0.5-7.2C731.5,461,729.8,461,729.3,462.3L729.3,462.3z"/>
			</g>
		</g>
		<g>
			<g>
				<path class="st11" d="M731.6,464c1.4-0.2,4.2,0.7,4.2,2.4c0,1.8-2.9,2-4.1,2.2c-2.1,0.3-1.6,3.7,0.5,3.7c3.5,0,8-2.4,7.2-6.6
					c-0.8-3.8-5.2-4.9-8.5-4.1C729.4,462,730.1,464.2,731.6,464L731.6,464z"/>
			</g>
		</g>
		<g>
			<g>
				<path class="st11" d="M734.5,470c-0.4,1.3,0.2,2.8,0.6,4.1c0.4,1.5,0.9,2.9,1.5,4.3c0.9,2,4.1,0.6,3.5-1.5
					c-0.4-1.4-1.1-2.8-1.7-4.2c-0.6-1.2-1-2.6-2.2-3.4C735.6,468.9,734.8,469.3,734.5,470L734.5,470z"/>
			</g>
		</g>
		<g>
			<g>
				<path class="st11" d="M743.1,462c-0.7,2.3-0.4,4.9-0.3,7.3c0,2.7,0,5.5-0.1,8.2c-0.1,2.4,3.7,2.4,3.7,0c0.1-2.9,0-5.9-0.2-8.8
					c-0.2-2.3-0.2-4.8-1.2-7C744.5,461,743.3,461.2,743.1,462L743.1,462z"/>
			</g>
		</g>
		<g>
			<g>
				<path class="st11" d="M749.9,461.9c-1.1,2.2-0.7,4.8-0.7,7.2c0,2.8-0.2,5.5,0.1,8.3c0.2,1.6,2.9,1.5,3.2,0
					c0.5-2.7,0.3-5.5,0.2-8.3c-0.1-2.3,0.1-5.2-1.3-7.2C751.2,461.4,750.3,461.2,749.9,461.9L749.9,461.9z"/>
			</g>
		</g>
		<g>
			<g>
				<path class="st11" d="M751.9,464.3c0.8-0.2,1.5,0,2.3,0.5c0.5,0.3,1.5,1,1.4,1.7c-0.3,1.2-3.5,1.4-4.4,1.9
					c-1.9,0.8-0.4,3.4,1.3,3.1c3-0.5,7.6-2.1,6.6-6.1c-0.9-3.3-5.2-5.3-8.2-3.8C749.1,462.3,750.3,464.6,751.9,464.3L751.9,464.3z"
					/>
			</g>
		</g>
		<g>
			<g>
				<path class="st11" d="M752.2,471.2c1.2,0,4.6,0.1,4.5,2c-0.2,2.1-3,1.9-4.4,1.7c-2.3-0.4-3.3,3.1-1,3.5c3.5,0.6,8.5-0.6,8.8-4.9
					c0.1-1.6-0.6-3.2-2-4c-1.7-1-4-0.8-5.8-0.7C750.7,468.8,750.6,471.3,752.2,471.2L752.2,471.2z"/>
			</g>
		</g>
		<g>
			<g>
				<path class="st11" d="M762.9,462.3c-1,2.1-0.6,4.3-0.6,6.6c0,2.8,0.1,5.5,0.2,8.3c0,1,0.8,1.8,1.8,1.8c2,0,4,0,6,0.1
					c2.3,0,2.3-3.6,0-3.6c-2,0-4,0-6,0c0.6,0.6,1.2,1.2,1.8,1.8c-0.1-2.8-0.2-5.5-0.3-8.3c-0.1-2.2,0.1-4.6-1-6.6
					C764.3,461.7,763.2,461.6,762.9,462.3L762.9,462.3z"/>
			</g>
		</g>
		<g>
			<g>
				<path class="st11" d="M764.4,471.1c1.3,0.2,2.7,0.4,4,0.8c1,0.3,2.1-0.5,2.2-1.5c0.1-1.1-0.7-2-1.8-2c-1.5-0.1-3,0-4.5,0.4
					C763.3,469.1,763.2,470.9,764.4,471.1L764.4,471.1z"/>
			</g>
		</g>
		<g>
			<g>
				<path class="st11" d="M763.5,463.7c1.1,0.5,2,0.6,3.1,0.7c1.2,0.1,2.4,0.3,3.5,0.3c2.5,0,2.4-3.6,0-3.8c-2.1-0.2-4.8,0-6.7,0.9
					C762.8,462.1,762.7,463.4,763.5,463.7L763.5,463.7z"/>
			</g>
		</g>
	</g>
	<g>
		<g>
			<path class="st15" d="M251.6,105.2c10.7,33.5,23.8,66.3,34.9,99.7c11.2,33.5,21.1,67.5,27.3,102.2c1.8,10,3.2,20.1,4.3,30.2
				c1.1,10.1,1.1,20.2,2.2,30.3c0.3,2.6,3.9,2.7,4.1,0c0.9-17-2-34.9-4.6-51.7c-2.7-17.5-6.5-34.9-10.9-52
				c-9-34.7-20.7-68.5-32.9-102.1c-6.9-19.2-13.7-38.4-21-57.4C254.1,102.3,250.9,103.1,251.6,105.2L251.6,105.2z"/>
		</g>
	</g>
	<g>
		<g>
			<path class="st15" d="M250.1,103.4c-0.6,9.5-0.9,19.5,0.1,29c0.3,2.8,4.5,2.9,4.5,0c-0.1-9.7-0.5-19.3-0.5-29
				C254.1,100.8,250.2,100.8,250.1,103.4L250.1,103.4z"/>
		</g>
	</g>
	<g>
		<g>
			<path class="st15" d="M252.1,105.3c3.6,3.9,7.5,7.6,11.3,11.3c3.5,3.4,6.9,7.3,10.8,10.2c2,1.5,3.8-1.6,2.5-3.2
				c-3.1-3.9-7.2-7.2-10.9-10.6c-3.7-3.5-7.3-7.1-11.1-10.4C252.9,101.1,250.5,103.5,252.1,105.3L252.1,105.3z"/>
		</g>
	</g>
	<g>
		<g>
			<path class="st16" d="M311.1,79.8c13.1,17,21.2,35.6,24.1,56.9c0.9-0.9,1.8-1.8,2.7-2.7c-0.8-0.2-1.6-0.3-2.4-0.5
				c-2.6-0.6-3.4,2.9-1.1,3.8c0.8,0.3,1.5,0.6,2.3,0.9c1.2,0.5,3-0.8,2.8-2.1c-2.6-21.2-11.8-42.2-26.1-58.1
				C312.3,76.8,310,78.5,311.1,79.8L311.1,79.8z"/>
		</g>
	</g>
	<g>
		<g>
			<path class="st16" d="M324.7,118.7c-0.1,0-0.2,0-0.3,0c0.4,0.3,0.9,0.7,1.3,1c-0.1,0.2-0.1,0.4-0.2,0.6c-0.6,0.1-1.2,0.2-1.8,0.2
				c1.3,0.7,2.2,3.3,3,4.5c0.9,1.4,1.7,2.7,2.6,4.1c2,3.2,4.1,6.3,6.1,9.5c0.8,1.3,3,1.5,3.8,0c3.2-6.7,5.1-13.9,5.6-21.3
				c0.2-2.9-4.2-2.8-4.5,0c-0.7,6.9-2.5,13.2-5.2,19.6c1.3-0.2,2.7-0.3,4-0.5c-2.9-4.2-5.8-8.5-8.7-12.7c-1.5-2.2-3-6-6-6.1
				c-0.5,0-1.1,0.3-1.3,0.7c-0.5,0.9-0.4,1.3,0,2.2c0.3,0.6,1,0.7,1.6,0.6c0.1,0,0.2,0,0.3,0C326.7,121.1,326,118.9,324.7,118.7
				L324.7,118.7z"/>
		</g>
	</g>
	<g>
		<g>
			<path class="st16" d="M320.1,43.8c8.6-1.3,17-4.8,25.3-7.3c8.3-2.5,16.6-4.8,25.1-6.5c15.3-3,31.3-3.6,46.7-0.5
				c14.9,3,28.9,9.6,39.8,20.3c10.2,10,17.1,22.8,21.4,36.3c5.1,15.8,6,31.7,6.7,48.2c0.1,2.9,4.3,2.8,4.4,0
				c1.8-28.6-6.3-61.6-25.4-83.5c-21.1-24.1-54.5-30.7-85.1-26.5c-10,1.4-19.7,3.9-29.3,6.9c-10,3.1-21.1,5.8-30.4,10.6
				C318.1,42.4,319,43.9,320.1,43.8L320.1,43.8z"/>
		</g>
	</g>
	<g>
		<g>
			<path class="st16" d="M475.5,117.3c4.2,8.1,8.5,15.9,11.7,24.5c0.6,1.6,3.1,2.4,4,0.5c3.8-8.2,7.3-16.7,10.1-25.3
				c0.9-2.7-3.3-3.8-4.2-1.2c-3.1,8.1-6.2,16.2-9.6,24.3c1.3,0.2,2.7,0.3,4,0.5c-3.5-8.7-7.5-17.4-13.2-25
				C477,114.1,474.5,115.4,475.5,117.3L475.5,117.3z"/>
		</g>
	</g>
</g>
<g id="Layer_3">
	<g>
		<g>
			<g>
				<path class="st11" d="M232.4,50.6c-0.6-4.9-8.1-6.3-10.6-2.1c-1.4,2.3-0.5,4.5,1.4,6c1.2,1,2.6,1.7,3.8,2.8
					c0.6,0.6,1.3,1.4,1.5,2.2c0.5,1.9-2.4,2.6-2.8,0.4c-0.4-2.5-4.8-1.9-4.5,0.6c0.7,5.5,8.5,8.2,11.1,2.4c1.1-2.5,0.5-5.2-1.1-7.2
					c-0.9-1.2-2-2.1-3.1-2.9c-0.4-0.3-3.4-1.9-0.6-2.5c0.4-0.1,2.2,1.3,2.7,1.6C231.1,52.4,232.6,51.8,232.4,50.6L232.4,50.6z"/>
			</g>
		</g>
		<g>
			<g>
				<path class="st11" d="M234.6,49.8c1.6,0.6,3.5,0.4,5.2,0.4c1.9,0,3.7,0,5.6,0c2.7,0,2.7-4.4,0-4.2c-2,0.1-4,0.2-6,0.3
					c-1.8,0.1-3.5,0.1-5.1,0.8C233,47.8,233.6,49.4,234.6,49.8L234.6,49.8z"/>
			</g>
		</g>
		<g>
			<g>
				<path class="st11" d="M238.8,49.3c-0.2,4.6-0.4,9.2-0.7,13.7c-0.2,2.8,4.3,2.9,4.4,0c0.1-4.6,0.1-9.2-0.3-13.7
					C242,47.2,238.9,47.1,238.8,49.3L238.8,49.3z"/>
			</g>
		</g>
		<g>
			<g>
				<path class="st11" d="M259.8,54.3c1.3-3.5-0.1-8.2-4.6-7.9c-5.1,0.4-6.2,6.2-5.9,10.3c0.3,3.8,1.9,8.9,6.7,8.5
					c5.1-0.5,5.3-7.2,5.2-11.1c-0.1-2.5-3.8-2.5-3.9,0c-0.1,1.7,0.1,4-0.7,5.5c-1.5,3-2.9-0.4-3.1-2.2c-0.2-1.7-0.4-3.9,0.3-5.5
					c0.5-1.1,1.8-2.3,3-1.2c0.6,0.6,0.4,2.4,0.5,3.2C257.6,55.4,259.3,55.7,259.8,54.3L259.8,54.3z"/>
			</g>
		</g>
		<g>
			<g>
				<path class="st11" d="M264,48.1c-1,2.3-0.8,5.1-0.9,7.5c-0.1,2.8-0.1,5.6-0.1,8.3c0,2.9,4.7,2.9,4.5,0c-0.2-2.8-0.3-5.6-0.3-8.3
					c0-2.5,0.3-5.1-0.5-7.5C266.4,46.6,264.6,46.8,264,48.1L264,48.1z"/>
			</g>
		</g>
		<g>
			<g>
				<path class="st11" d="M266.2,50.2c0.8,0,3-0.3,3.7,0.3c0.5,0.4,0.5,1.5,0.3,2.1c-0.4,1.6-2.1,2.3-3.6,2
					c-2.7-0.5-3.9,3.6-1.2,4.2c4,0.9,8.3-1.5,8.8-5.8c0.2-1.8-0.4-3.8-1.8-5.1c-1.7-1.5-4.7-1.1-6.7-0.6
					C264.2,47.7,264.6,50.3,266.2,50.2L266.2,50.2z"/>
			</g>
		</g>
		<g>
			<g>
				<path class="st11" d="M268.1,57.9c0.3,1.3,0.9,2.5,1.5,3.7c0.6,1.2,1,2.5,1.7,3.6c1.3,2.5,5,0.3,3.8-2.2
					c-0.6-1.2-1.3-2.3-1.9-3.5c-0.6-1.1-1.2-2.3-2.1-3.3C269.8,54.9,267.8,56.4,268.1,57.9L268.1,57.9z"/>
			</g>
		</g>
		<g>
			<g>
				<path class="st11" d="M287.3,47.2c-2.4-0.4-5.1-1.2-7.5-0.6c-0.7,0.1-1.2,0.8-1.4,1.4c-0.7,2.5-0.2,5.5-0.1,8.1
					c0,2.5-0.4,5.5,0.2,8c0.2,0.7,0.8,1.3,1.5,1.5c1.9,0.5,4.3,0.1,6.3,0.1c2.9,0,2.9-4.7,0-4.5c-1.5,0.1-3.7,0.6-5.1,0.3
					c0.5,0.5,1,1,1.5,1.5c-0.6-2-0.2-4.7-0.2-6.8c0-2.1-0.6-5-0.1-7c-0.5,0.5-0.9,0.9-1.4,1.4c1.8-0.5,4.2-0.2,6.1-0.4
					C288.5,50,289.1,47.5,287.3,47.2L287.3,47.2z"/>
			</g>
		</g>
		<g>
			<g>
				<path class="st11" d="M282.1,58.3c0.7,0,1.3,0,2,0c0.7,0,1.3,0.2,2,0.2c1.1,0,2.1-1,2.1-2.1c0-1.2-1-2-2.1-2.1
					c-1.4-0.1-3.1,0.3-4.5,0.5C279.7,55.2,280.1,58.4,282.1,58.3L282.1,58.3z"/>
			</g>
		</g>
	</g>
</g>
</svg>
