<?xml version="1.0" encoding="utf-8"?>
<!-- Generator: Adobe Illustrator 19.1.0, SVG Export Plug-In . SVG Version: 6.00 Build 0)  -->
<svg version="1.1" xmlns="http://www.w3.org/2000/svg" xmlns:xlink="http://www.w3.org/1999/xlink" x="0px" y="0px" width="800px"
	 height="500px" viewBox="0 0 800 500" style="enable-background:new 0 0 800 500;" xml:space="preserve">
<style type="text/css">
	.st0{fill:#FFFFFF;}
	.st1{opacity:0.5;fill:#C6C6C6;}
	.st2{opacity:0.5;fill:#864C9E;}
	.st3{opacity:0.2;}
	.st4{fill:#8E8E8E;}
	.st5{opacity:0.2;fill:#8E8E8E;}
	.st6{fill:#5A326D;}
	.st7{opacity:0.2;fill:#5A326D;}
	.st8{opacity:0.5;fill:#C9BEA9;}
	.st9{opacity:0.3;fill:#998565;}
	.st10{opacity:0.5;fill:#DFB945;}
	.st11{fill:#1E1E1E;}
	.st12{fill:#C91F4C;}
	.st13{fill:none;stroke:#1E1E1E;stroke-width:3;stroke-miterlimit:10;}
	.st14{fill:none;stroke:#1E1E1E;stroke-width:3;stroke-miterlimit:10;stroke-dasharray:9.9863,9.9863;}
	.st15{fill:#79A845;}
	.st16{fill:#40A6DD;}
	.st17{fill:#80D3F2;}
	.st18{fill:none;stroke:#1E1E1E;stroke-width:3;stroke-miterlimit:10;stroke-dasharray:10.0229,10.0229;}
</style>
<g id="Layer_2">
	<rect class="st0" width="800" height="500"/>
</g>
<g id="Layer_7">
</g>
<g id="Layer_5">
	<path class="st1" d="M437.4,43.9c-1-2.3-2.7-2.6-4.3-2c0.9-2.6,1.6-5.3,2.1-8c1.2-6.4-4.7-6.3-8-2.6c-0.8,0.9-1.5,1.8-2.2,2.7
		c1.1-3,2.1-6,3.2-9c1.8-5.2-1.2-9.2-6.2-5.7c-2.8,2-4.8,4.6-6.3,7.5c0.4-1.1,0.7-2.2,1-3.3c1.3-5.3-1.1-11.1-7.4-8.5
		c-1.5,0.6-2.7,1.6-3.8,2.8c-0.4-0.5-1.1-0.9-1.9-1.1c-18.1-5.6-34.9,9.4-39.5,26c-5,18,3.3,35.3,17.6,46.3c1.4,1.1,2.8,0.8,4.1-0.1
		c0,0.2-0.1,0.5-0.1,0.7c-0.5,2.7,0.5,6.2,4,5.4c3-0.7,5.6-2,7.8-3.8c0.1,1.2,0.3,2.4,0.6,3.6c1.2,4.5,6.2,1.6,8-0.6
		c0.2-0.2,0.4-0.5,0.6-0.7c0.1,0.3,0.3,0.5,0.5,0.8c5.2,6.4,12.6-3,16.8-9.6c0.3,0,0.6,0,0.9-0.1c7.3-2.1,10.4-11.9,12.5-18.4
		C439.5,58.8,440.6,51,437.4,43.9z M406,53c-2.2,6.5-4.4,13-6.7,19.4c-0.2,0.5-0.4,1-0.6,1.6c1.2-6,2.6-12,4-17.9
		c2.4-4.9,4.8-9.8,7-14.8c0.6-1.3,1.2-2.6,1.8-4C409.6,42.5,407.8,47.8,406,53z M385,44.5c-1.4,2.6-2.7,5.2-3.9,8
		C382,49.6,383.3,46.9,385,44.5z M375.8,37.9c0.5-0.9,1.1-1.8,1.8-2.6C377,36.2,376.3,37.1,375.8,37.9z"/>
	<path class="st1" d="M500.4,132.7c-1.9-3.9-5.6-9.4-10.5-9.3c-4.7-9.2-12.1-15.7-23.3-13.1c-1.5,0.4-3.2,1.8-4.5,3.6
		c-2.2,0.2-4.2,0.8-6.1,1.5c-14.2-2.7-26.2,14-29.2,26.3c-4.3,17.8,4.6,34.1,14.2,48.4c1.1,1.7,2.7,1.7,4.3,0.9
		c0.6,0.6,1.4,1.2,2.3,1.6c1.8,0.9,3.9,0,5.2-1.3c1.9-1.8,3.6-3.8,4.9-5.9c2.1,3.3,5.1,4.1,8,3.4c2.5,1.2,5.3,1.4,7.9,0.8
		c0.7,0.9,1.7,1.3,3.1,0.9c12.5-3.8,23.8-9.8,28-23C508.3,156.3,505.4,143,500.4,132.7z M452.6,170c0,1.7,0,3.8-0.4,5.7
		c-0.5-2.5-0.2-5.4-0.2-7.6c0-1.9,0.2-3.7,0.3-5.6C452.5,165,452.6,167.5,452.6,170z M466.7,173.6c-0.4-1-0.5-2.1-0.5-3.2
		c-0.1-1.7,0-3.5,0.2-5.2c0,2.1,0.1,4.2,0.1,6.2c0,1.4,0.4,2.4,0.9,2.9c0,0,0,0.1,0,0.1c-0.1,0.1-0.1,0.1-0.2,0.2
		C467,174.3,466.8,174,466.7,173.6z M439.1,135.5c-1.1,3.1-1.9,6.3-2.4,9.3c-0.1,0.6-0.2,1.3-0.3,1.9c0-0.3,0-0.7,0-1
		C436.4,142.4,437.4,138.6,439.1,135.5z"/>
	<path class="st1" d="M368.9,150c-0.1-1.3-0.2-2.6-0.3-3.9c-0.1-2.2-0.2-4.3-0.3-6.5c-0.1-3.1,0.2-7.2-1.6-9.9
		c-1.6-2.4-4.3-3.2-7-3.4c-1.7-2-3.7-3.9-6-5.5c-0.8-0.6-1.6-0.7-2.5-0.6c-4.2-3.6-9.4-5.7-15.5-5.9c-0.7-0.2-1.4-0.2-2.1,0
		c-0.7,0-1.4,0.1-2.1,0.1c-4.3,0.4-8.5,1.3-12.5,2.7c-0.3-0.2-0.7-0.3-1.1-0.4c-6.2-1.6-11.6,4-14.5,8.8c-0.5,0.8-0.9,1.6-1.3,2.4
		c-1.1,1.2-2.1,2.4-3,3.7c-6.7,9.5-9.1,21.5-6.6,32.8c4.9,22.9,30.4,33.7,51.7,27.3c14-4.2,24.9-15.2,26-30.2
		C370.3,157.6,369.9,153.7,368.9,150z M339,174.3c-0.8-3.4,0-7.9,0.1-10.6c0.1-3.8,0.3-7.7,0.6-11.5c0.2,1.9,0.4,3.8,0.6,5.7
		C340.6,162.9,341,169.2,339,174.3z M321.3,155.7c0,0,0.1,0,0.1,0.1c0,3.4-0.1,6.8-0.3,10.2C320.8,162.5,321,158.9,321.3,155.7z
		 M316,136.7c-0.5-0.2-1-0.4-1.4-0.5c0.8-0.7,1.6-1.4,2.5-2.1C316.6,134.9,316.3,135.8,316,136.7z M310,155.3
		c0.4,0.1,0.8,0.2,1.2,0.2c-0.1,0.7-0.2,1.5-0.3,2.2C310.6,156.9,310.3,156.1,310,155.3z M353,163.2c0-0.3,0-0.6,0-0.8
		c0-2.7,0-5.4-0.1-8.1c0.1,1.2,0.2,2.5,0.2,3.7C353.2,159.7,353.2,161.4,353,163.2z"/>
	<path class="st1" d="M573.3,225.8c-1.6-2-3.5-1.8-5.3-0.3c-5.9-8.4-14.3-15-23.7-11.6c-1.8,0.7-3.4,1.5-4.6,2.6
		c-0.2-1.2-0.4-2.4-0.7-3.6c-0.9-3.4-4.7-2.5-6.7-0.7c-2.7,2.4-5.2,5.1-7.3,7.9c-0.2-1.1-0.6-2.1-1.6-2.6c-3-1.7-6.3,2.1-7.6,4.2
		c-12.8,19.8-18.8,49.4,0.4,67.5c2.8,2.7,6,0.1,7.9-2.5c3.6,6.8,11.3,7.9,18.5,7.9c8.5,0,17-0.9,23.3-7.1c4.8-4.7,8-10.8,9.9-17.5
		c3.8-4.2,6-10,6.4-15.2C582.7,245.4,579,233.2,573.3,225.8z M547.7,280.9c0,0.1,0.1,0.2,0.1,0.3c-0.2,0-0.3,0-0.5,0
		C547.5,281.1,547.6,281.1,547.7,280.9z"/>
	<path class="st1" d="M643,330.5c-7.4-10.4-19.7-15-31.6-13.1c-0.3-1.3-1.1-2.3-2.8-2.3c-17.5-0.4-32.4,12.9-35.8,29.7
		c-2.6,12.8,2,23.6,10.5,31.4c4.8,9.2,12.7,16.9,21.5,11.6c12.2,4.1,26.1,5.8,35-5.1c5.9-7.3,8-17.7,8.8-26.8
		C649.4,347,648.3,337.9,643,330.5z M638.1,357.5c-1,2-2.1,3.9-3.1,5.9c-0.6,0.9-1.2,1.8-1.9,2.7c0.9-3.5,2.2-7,3.2-10.5
		c0.5-1.6,0.9-3.2,1.3-4.7C638,353,638.2,355.2,638.1,357.5z M628.6,337.3c-2.7,6.9-5.3,13.9-8,20.8c0,0,0,0,0,0
		c1.9-7.7,4.3-15.4,5.5-23.3c1,0.6,1.9,1.2,2.8,1.9C628.7,336.9,628.6,337.1,628.6,337.3z"/>
	<path class="st1" d="M535.1,342c0.1-1.3,0-2.7-0.4-4c-0.9-2.9-3.6-2.7-5.8-1.4c-2.2-7.4-5.1-14.8-13.6-16.2
		c-0.3-2.9-0.7-5.9-1.4-8.8c-1.1-4.5-6.2-1.6-8,0.6c-2.6,3.3-4.4,6.8-5.6,10.4c-1.2-2.1-2.6-4.1-4.7-5.8c-2-1.6-4.3,0.1-6,2.2
		c-9.6-0.3-19.4,6.6-24.4,15.6c-4.5,8.1-5.8,17.4-4.7,26.5c0.1,0.9,0.2,1.8,0.4,2.9c0,4.8,0.6,9.8,2.2,14.1c0.1,0.7,0.1,1.5,0.2,2.2
		c0.2,2.3,1.4,3.6,2.9,3.7c1.7,2.3,3.9,4.2,6.7,5.4c3.1,1.4,6.1,1.8,8.9,1.5c10.5,5.6,23.5,5,33.6-1.7c2.6-1.7,5-3.8,7.2-6.1
		c3-2.5,5.6-5.4,7.6-8.8C537.9,368.2,535.8,351.7,535.1,342z M480.3,375.2c0.1,0.4,0.1,0.6,0.1,0.9c-0.1,0.1-0.2,0.2-0.4,0.3
		C480,376.1,480,375.7,480.3,375.2z M499.3,377.8c1.6-0.4,3.2-0.9,4.7-1.6c-0.1,0.6-0.1,1.2-0.1,1.8
		C502.4,378,500.8,378,499.3,377.8C499.3,377.8,499.3,377.8,499.3,377.8z M481.2,333.9c-0.1-0.2-0.2-0.5-0.3-0.7
		c0.2-0.1,0.4-0.1,0.6-0.2C481.5,333.4,481.4,333.7,481.2,333.9z"/>
	<path class="st1" d="M465,249.5c-1.2-8.2-6.3-14.8-11.8-20.7c-0.3-0.3-0.6-0.6-0.9-0.8c-1.5-4.2-3.3-8.3-5.4-12.3
		c-1.3-2.4-4.5-0.7-6,0.3c-1.3-2.8-3.2-5-5.9-6.4c-3.1-1.5-6.1,1.2-7.8,4.5c-0.8-1.5-1.7-2.8-3.1-3.8c-4.4-3-8.7,5.4-9.1,9
		c-4.6-3.6-12.3,3.1-15.6,6.8c-6.1,6.7-10.2,15.6-11.4,24.5c-2.1,17.1,7.3,34.1,23.7,40.2c1.8,0.7,3.8-0.1,5.6-1.6
		c2.1,2.2,4.8,3.6,8.1,2.8c0.6-0.1,1.2-0.4,1.7-0.7c2.4,5.1,8,6.8,12.9,3.6c2.3-1.5,4-3.4,5.3-5.6c1,0.6,2.3,0.6,3.8-0.1
		c7.9-4,10.8-12.6,11.7-21.1C464.5,262.6,466,256,465,249.5z M405.2,256.2c-0.2-1-0.4-2-0.4-3.1c-0.1-2.4,0.1-4.7,0.7-6.8
		C405.1,249.6,405,252.9,405.2,256.2z M449,277.1c0-0.1,0-0.2,0-0.2c0.1,0.1,0.1,0.1,0.2,0.2C449.1,277.3,449,277.3,449,277.1z"/>
	<path class="st1" d="M282.8,246.9c-1-8-4.2-14.8-10.1-20.4c-4.5-4.3-12.1-12-18.8-9.2c-1.3,0.5-2.4,1.2-3.4,2.1
		c-8.4-4.4-21.2-2-24.9,6.8c-6.2,3.9-10.8,10.5-13.1,17.4c-3.3,10-1.4,20.7,4.7,29.2c6.1,8.4,16.9,16.4,27.6,16.8
		c6,0.2,11.4-2,15.9-5.6c0.4,0.9,1.2,1.6,2.5,1.9c8.8,1.7,15.1-7.3,17.3-14.7C282.9,263.5,283.7,254.8,282.8,246.9z M270,272.3
		c0.4-0.7,0.7-1.5,1-2.3c0,0.2-0.1,0.3-0.1,0.5C270.6,271.9,270.6,272.3,270,272.3z"/>
	<path class="st1" d="M344.8,323.5c-1.7-1.9-3.6-1.7-5.2-0.4c-0.2-1.1-0.5-2.1-0.7-3.2c-0.7-3.1-4-2.6-6-1.2c-1,0.7-1.9,1.6-2.7,2.8
		c0-0.2,0-0.3,0-0.5c0.7-7.6-5.6-5.7-8.7-1.4c-0.3-0.4-0.7-0.7-1.2-0.9c-4.1-1.6-8,0.5-11.1,3.5c-5.8-2-11.5,3.4-14.7,8.2
		c-2.6,2.6-4.7,5.8-6.2,8c-4.1,6.1-6.8,12.8-8.3,19.9c-1.1,5.1,2.6,6,5.8,4.3c0.3,12,4.5,25.3,18,26.6c0,0,0.1,0,0.1,0
		c2.4,2.1,6.5,3,10.4,3.1c0.5,0,1.1,0,1.6,0c1.5,1.3,3.8,1.6,6.4,0.8c2.8,0.5,5.6,0.4,8.4-0.4c3.2-0.9,6.4-2.7,9.5-5
		c0.7,0,1.4-0.2,2.2-0.4c5-1.7,7.9-5.8,9.4-10.7c0.2-0.2,0.3-0.4,0.5-0.6C365.4,359.5,357.9,337.7,344.8,323.5z M312.8,373.5
		c0.3-2.2,0.4-4.4,0.5-6.6c0.2,0.5,0.3,0.9,0.5,1.4c-0.1,0.7-0.2,1.4-0.3,2.1C313.4,371.4,313.1,372.5,312.8,373.5
		C312.8,373.5,312.8,373.5,312.8,373.5z M328,370.5c-0.3,2.8-0.7,5.2-1.3,6.9c-0.6,0.2-1.2,0.4-1.9,0.6c0.3-2.2,0.6-5.7,1-9.6
		C326.6,369,327.3,369.7,328,370.5z M316,340.3c-0.4-0.6-0.9-1.1-1.4-1.5c0.6-2.5,1.5-4.9,2.8-7.1
		C316.8,334.6,316.4,337.4,316,340.3z M296.7,359.1c0.2,1.7,0.4,3.4,0.7,5.1c-0.4-1.6-0.7-3.3-0.8-5
		C296.6,359.1,296.7,359.1,296.7,359.1z"/>
	<path class="st1" d="M203.8,330.5c-2.7-3.3-6.5-5.6-10.7-5.4c-0.9-1.2-1.8-2.4-2.7-3.5c-2-2.4-4.3-1.5-6.3,0.6
		c-0.6-2.6-1.8-4.9-4.4-6.2c-2.8-1.4-5.3,0.4-6.9,3.1c-1.3-4.7-7.1-1.3-9.1,2.1c0,0.1-0.1,0.1-0.1,0.2c-0.6-0.8-1.7-1.2-3.3-1
		c-15.9,2.5-24.6,21.1-25.5,35.6c-0.8,14.2,5.3,28.3,16.9,36.6c1.1,0.8,2.5,0.5,3.7-0.2c0.3,2.6,1,5.1,3.2,6.5
		c2.7,1.8,6.6,1.8,10,1.6c1.2,0.5,2.5,0.6,4,0.1c0.3-0.1,0.6-0.2,1-0.4c4.2-0.4,8.3-1.2,12.4-2.4c2.7-0.8,4.8-3.2,5.9-5.8
		c0,0,0.1-0.1,0.1-0.1c0.1,0,0.1,0,0.2,0.1c11.9,2.1,18-18.9,19.2-27.5C213,353.1,211.3,339.5,203.8,330.5z M174,383.1
		c0,0.2-0.1,0.5-0.1,0.7c0,0.1,0,0.1,0,0.2c-0.1-0.3-0.2-0.6-0.3-0.9C173.6,383,173.8,383,174,383.1z M150.1,338.2
		c-2.3,4.4-3.8,9.1-4.5,14C145.8,347.2,147,341.9,150.1,338.2z"/>
	<g class="st3">
		<path class="st4" d="M372.5,30.5c-6.9,15.8-11.4,33.7,0.6,48.3c5.4,6.6,12.9,10.4,20.8,13.3c9.7,3.6,18.1,2.6,27.8-0.3
			c3.4-1,6-4.7,6.5-8.1c0.4-2.6-0.5-6.4-4-5.4c-7.9,2.3-14.9,3.8-22.9,0.8c-6.5-2.4-13.2-5.3-18-10.5c-4.2-4.5-7.1-10.4-7.3-16.6
			c-0.3-7.2,3.1-14.2,5.9-20.6c1.1-2.4,1.1-6.8-2.2-7.3C376.4,23.5,373.6,28,372.5,30.5L372.5,30.5z"/>
	</g>
	<g class="st3">
		<path class="st4" d="M430.5,130.8c-7.3,16.7-4.6,37.8,8.8,50.7c13.3,12.8,33.6,14.8,49.8,6.5c3.1-1.6,5.5-5.8,5.3-9.2
			c-0.2-3.3-2.6-4.7-5.5-3.2c-12.8,6.5-29.4,4.2-40.1-5.4c-10.6-9.5-14.4-25.6-8.7-38.6c1.1-2.4,1.1-6.8-2.2-7.3
			C434.4,123.8,431.6,128.2,430.5,130.8L430.5,130.8z"/>
	</g>
	<g class="st3">
		<path class="st4" d="M512.9,225.3c-8.1,15.6-15.7,41.2-2.6,56.2c5.7,6.5,14.5,12,22.7,14.5c10.4,3.1,20.6-1,30.1-5.1
			c5.3-2.3,8-15.9-0.2-12.4c-7.2,3.1-15.1,6.3-23.1,4.2c-6.7-1.7-14.3-6.5-19.2-11.4c-10.7-10.8-6.3-29.5,0-41.6
			c1.2-2.3,2.9-7-0.1-8.7C517.7,219.4,514.1,223.1,512.9,225.3L512.9,225.3z"/>
	</g>
	<g class="st3">
		<path class="st4" d="M588.7,322.5c-14.1,13.8-19.8,37.3-7.6,54.2c5.5,7.6,13.9,12.8,23,14.7c11.1,2.3,22-1.8,31.7-7
			c3-1.6,5.5-5.7,5.3-9.2c-0.2-3.2-2.6-4.7-5.5-3.2c-7.5,4-15.6,7.2-24.2,6c-6.8-0.9-13.5-4.4-18.3-9.4c-9-9.4-11.4-25.9-1.5-35.7
			c2.3-2.3,4.9-6.2,3.7-9.7C594.4,320,590.8,320.4,588.7,322.5L588.7,322.5z"/>
	</g>
	<g class="st3">
		<path class="st4" d="M476.3,320.1c-16.7,12-23.7,36.5-13.9,54.9c5.1,9.6,14.5,18.8,25,21.9c12.8,3.8,25.9-1.7,37.5-6.7
			c5.3-2.3,8-15.9-0.2-12.4c-8.9,3.8-18.8,8-28.6,6.2c-9.1-1.7-16.7-9-21.8-16.3c-8.4-12.1-7.3-28.4,5.1-37.2
			C484.6,326.8,484.3,314.4,476.3,320.1L476.3,320.1z"/>
	</g>
	<g class="st3">
		<path class="st4" d="M408.6,216.9c-18.6,8.1-26,36.6-18.4,54.5c4.2,9.8,12.5,14.3,22.3,17.1c11.1,3.3,23,6.4,34.3,2.6
			c3.4-1.1,5.9-4.6,6.5-8.1c0.4-2.5-0.5-6.6-4-5.4c-8.7,2.9-17.4,0.9-26-1.3c-7.4-1.9-15.7-3.9-20.5-10.3c-7.6-10-6.6-31.3,5.9-36.8
			C414.1,227,416.8,213.3,408.6,216.9L408.6,216.9z"/>
	</g>
	<g class="st3">
		<path class="st4" d="M315.5,114.5c-17.5,12.9-24.7,37.8-17.9,58.4c7.1,21.4,33.6,26,53.1,21.4c5.4-1.3,10-15.3,2.5-13.5
			c-14.5,3.4-36.5,1.4-44-13.7c-7-14.1-3.5-32.9,9.2-42.2C323.7,121.1,323.5,108.7,315.5,114.5L315.5,114.5z"/>
	</g>
	<g class="st3">
		<path class="st4" d="M233.4,217.5c-10.5,5.4-19.3,13.9-22.2,25.7c-2.5,10.2-0.9,21,3.7,30.3c9.9,19.7,34.3,26.4,53.4,16.2
			c3-1.6,5.5-5.7,5.3-9.2c-0.2-3.2-2.6-4.7-5.5-3.2c-14,7.5-31.8,2.7-40.9-10.1c-4.3-6-6.7-13.4-6.4-20.8
			c0.3-8.5,5.5-12.7,12.8-16.5c3.1-1.6,5.5-5.8,5.3-9.2C238.7,217.4,236.3,216,233.4,217.5L233.4,217.5z"/>
	</g>
	<path class="st5" d="M348.4,379.4c-0.1-2.9-2.7-5.1-5.5-3.2c-11.2,7.7-24.4,6.9-35.6-0.2c-5.3-3.4-11-7.6-13.5-13.6
		c-0.2-0.6-0.4-1.1-0.6-1.7c1.1-1.5,1.9-3.3,2.3-5c1.2-4.8,2.4-9.7,3.6-14.5c1.7-3.6,3.9-7,6.6-10.1c1.9-2.2,3.9-6.9,1.9-9.6
		c-2.2-2.8-5.8-0.1-7.4,1.8c-2.8,3.2-5.2,6.6-7.3,10.3c-7,3.9-10,16.2-10.8,23c-1.3,10.3,1.8,19.3,9.6,26.2
		c14.5,13,34.6,17.3,51.5,5.7C346,386.6,348.6,383.1,348.4,379.4z"/>
	<g class="st3">
		<path class="st4" d="M151.3,321.5c-19,12.3-29.9,39.1-12.6,57.6c7,7.5,16.1,14.9,26.2,17.8c10.5,3,22,0.6,30.8-5.6
			c2.9-2,5.5-5.4,5.3-9.2c-0.1-2.9-2.7-5.1-5.5-3.2c-6.6,4.6-14.4,6.5-22.4,4.9c-7.7-1.5-14.2-6.5-20-11.4
			c-6.1-5.1-11.8-11.3-12.3-19.7c-0.5-8.1,4.2-14.6,10.8-18.9c3-1.9,5.5-5.5,5.3-9.2C156.6,321.7,154.1,319.7,151.3,321.5
			L151.3,321.5z"/>
	</g>
</g>
<g id="Layer_1">
</g>
<g id="Layer_6">
	<g>
		<g>
			<path class="st11" d="M434.5,30c-8.2-12.4-24.9-16.6-39-14.2c-15.8,2.7-28.8,15.3-32,30.9c-3.4,16.6,4.6,34.1,19.3,42.5
				c14.5,8.4,33.7,8.3,46.5-3.1c16.2-14.5,16.7-38.5,5.4-56c-1.3-2.1-4.6-0.2-3.3,1.9c8.8,14.7,10.5,33-0.8,47.1
				c-9.9,12.4-26.5,15-40.8,9.2c-14.3-5.8-23.9-20.1-23.1-35.7c0.7-14.5,11-27.4,24.7-31.8c13.5-4.3,31.3-0.8,40.1,11
				C432.8,33.5,435.7,31.9,434.5,30L434.5,30z"/>
		</g>
	</g>
	<g>
		<g>
			<path class="st11" d="M495.8,123.7c-10.1-12.2-29.2-14.5-43.6-9.7c-15.6,5.3-26.8,19.8-27.9,36.3c-1.2,17.5,9.7,34.2,25.7,40.9
				c16.5,6.9,36.6,4,48.1-10.3c13.9-17.1,11.2-40.6-2-57.2c-1.3-1.7-4.3,0.6-3,2.3c10.5,14,14.4,31.9,5.3,47.7
				c-8.5,14.8-25.7,20-41.8,15.6c-15.6-4.3-27.5-18-28.4-34.4c-0.8-14.6,7.5-28.8,20.6-35.3c13.9-6.9,33.7-5.3,44.6,6.5
				C494.9,127.8,497.2,125.4,495.8,123.7L495.8,123.7z"/>
		</g>
	</g>
	<g>
		<g>
			<path class="st11" d="M319.4,113.1c-15.7,4-26.1,20.4-27.9,35.9c-2,16.8,7,33.8,22,41.6c16.3,8.4,36.6,4.8,49.4-8.1
				c12.6-12.7,17.4-32,8.7-48.2c-10.1-18.9-32-26.1-52.1-21.3c-2.4,0.6-1.4,4.2,1,3.7c16.1-3.3,32.7,0.2,43.5,13.4
				c11,13.3,10.2,31.2,0.3,44.8c-10,13.7-27.9,20-44.2,14.4c-14.3-5-24.4-18.8-25-33.9c-0.7-15.9,9.3-34,25.1-38.8
				C322.5,115.8,321.6,112.6,319.4,113.1L319.4,113.1z"/>
		</g>
	</g>
	<g>
		<g>
			<path class="st11" d="M214.9,233.3c-9.4,12.5-7.1,31.4,1.2,43.9c9,13.6,26.1,20.4,41.9,16.7c15.9-3.7,28-17.4,30.3-33.4
				c2.5-17.6-5.5-35.8-22.4-42.8c-18.5-7.7-38.8-0.2-50.7,15.1c-1.5,1.9,1.1,4.6,2.7,2.7c9.9-11.9,23.8-19.2,39.6-16.3
				c16.5,3.1,27,17.3,27.4,33.7c0.4,15.3-8.3,29.8-22.7,35.6c-13.7,5.5-29.7,1.6-39.5-9.3c-10.4-11.4-13.6-31-4.7-44.1
				C219.2,233.2,216.2,231.6,214.9,233.3L214.9,233.3z"/>
		</g>
	</g>
	<g>
		<g>
			<path class="st11" d="M455.3,223.5c-11-12-30.7-13.2-45.1-7.3c-15.4,6.3-25.8,21.8-25.8,38.4c0,17.7,11.9,33.7,28.5,39.5
				c17.1,6,37.1,1.7,47.9-13.4c12.8-17.9,8.8-41.4-5.2-57.2c-1.7-1.9-4.3,0.8-2.7,2.7c11.2,13.4,15.9,31.3,7.6,47.5
				c-7.8,15.4-24.9,21.7-41.3,18.1c-15.9-3.5-28.4-16.4-30.5-32.7c-1.9-14.9,5.8-29.8,18.8-37.2c13.6-7.8,33.9-7.3,45.4,4.1
				C454.4,227.5,456.8,225.1,455.3,223.5L455.3,223.5z"/>
		</g>
	</g>
	<g>
		<g>
			<path class="st11" d="M539.7,213c-16.9,0.3-31.3,15-35.9,30.5c-4.9,16.3,1.3,34.6,14.9,44.7c14.9,11.1,35.7,10.3,50.3-0.7
				c14-10.6,21.2-28.3,15.1-45.3c-6.7-18.8-24.8-29.3-44.2-29.3c-2.5,0-2.5,3.8,0,3.8c14.9,0.4,28.7,6.2,36.9,19.2
				c9,14.4,6.7,32-5.1,44c-11.7,11.9-29.7,16-45,8.5c-13.7-6.7-21.8-21.6-20.5-36.8c1.5-16.8,16-33.9,33.5-35.1
				C541.9,216.3,542,213,539.7,213L539.7,213z"/>
		</g>
	</g>
	<g>
		<g>
			<path class="st11" d="M335.8,319.6c-14-7.1-31.8-1.7-42.9,8.4c-12.3,11.4-16,30.1-9.1,45.3c7.2,15.9,24.5,25,41.7,22.9
				c17.4-2.1,32.3-14.1,34.9-31.9c2.8-18.9-7.9-36.1-24.4-44.8c-2.2-1.1-4.1,2.1-1.9,3.3c12.6,7.1,22,18.5,22.8,33.4
				c0.9,16.6-9.6,30.3-25.4,34.8c-15.1,4.3-31.6-0.7-40.8-13.6c-8.9-12.6-8.4-29.9,0.9-42.2c9.2-12.1,28-19.1,42.4-12.7
				C336,323.6,337.8,320.7,335.8,319.6L335.8,319.6z"/>
		</g>
	</g>
	<g>
		<g>
			<path class="st11" d="M210.4,342.7c-4.6-15.4-21.2-24.9-36.5-26.2c-16.2-1.3-32.3,7.7-39.7,22.2c-8.3,16.3-4.5,36.7,8.8,49.2
				c12.8,12.1,32.1,16.5,47.9,7.6c18.7-10.5,25.3-32.7,19.7-52.7c-0.7-2.4-4.3-1.4-3.7,1c4,16,1.1,32.8-11.9,44
				c-12.9,11.1-30.7,10.8-44.3,1.3c-13.8-9.6-20.4-27-15.2-43.3c4.6-14.2,18.1-24.5,32.9-25.5c15.5-1,33.3,8.1,38.6,23.2
				C207.8,345.7,211.1,344.9,210.4,342.7L210.4,342.7z"/>
		</g>
	</g>
	<g>
		<g>
			<path class="st11" d="M526.6,386.9c12.6-10.3,14.9-30,9.7-44.7c-5.5-15.7-20.4-26.8-37-27.8c-17.7-1-34.3,10.1-41,26.4
				c-7,17.1-3.6,37.7,11.6,49.1c17.3,13.1,40.2,10.2,56.6-2.8c1.7-1.3-0.6-4.3-2.3-3c-13.8,10.3-31.2,14.3-47,5.9
				c-15.5-8.3-21.4-25.7-17.1-42.3c4.1-15.9,17.9-28,34.4-29.3c15.1-1.1,29.6,7.5,36.3,21c7,14.1,5.3,34.2-6.7,45.1
				C522.4,386,524.9,388.3,526.6,386.9L526.6,386.9z"/>
		</g>
	</g>
	<g>
		<g>
			<path class="st11" d="M644.1,329.3c-8.2-12.4-24.9-16.6-39-14.2c-15.8,2.7-28.8,15.3-32,30.9c-3.4,16.6,4.6,34.1,19.3,42.5
				c14.5,8.4,33.7,8.3,46.5-3.1c16.2-14.5,16.7-38.5,5.4-56c-1.3-2.1-4.6-0.2-3.3,1.9c8.8,14.7,10.5,33-0.8,47.1
				c-9.9,12.4-26.5,15-40.8,9.2c-14.3-5.8-23.9-20.1-23.1-35.7c0.7-14.5,11-27.4,24.7-31.8c13.5-4.3,31.3-0.8,40.1,11
				C642.4,332.8,645.4,331.2,644.1,329.3L644.1,329.3z"/>
		</g>
	</g>
	<g>
		<g>
			<path class="st11" d="M374.1,82.3c-11.5,8.8-23.5,22-27.8,36.2c-0.6,2,2.2,3.1,3.3,1.4c3.7-6.2,6.5-12.7,10.8-18.6
				c4.4-6.1,9.7-11.8,15.3-16.9C376.8,83.4,375.3,81.4,374.1,82.3L374.1,82.3z"/>
		</g>
	</g>
	<g>
		<g>
			<path class="st11" d="M426.7,83.6c4.4,6,9,11.9,13.1,18.1c4.1,6.2,7.3,13.1,11.6,19.2c1.2,1.7,4.4,0.7,3.5-1.5
				c-2.7-7-7.4-13.6-11.6-19.7c-4.3-6.3-8.9-12.4-14.1-18C428,80.4,425.6,82.1,426.7,83.6L426.7,83.6z"/>
		</g>
	</g>
	<g>
		<g>
			<path class="st11" d="M311.3,183.8c0-0.2,0-0.3,0.1-0.5c0.1-0.6-0.5-1.1-0.9-1.2c-2.8-1.1-5.2,2.2-7,3.9
				c-4,3.6-7.8,7.4-11.5,11.3c-7,7.5-13.7,15.5-19.5,24c-1.4,2.1,1.9,3.9,3.3,2c5.2-7.1,10.5-14.1,16.3-20.7
				c2.8-3.1,5.6-6.2,8.5-9.2c1.8-1.8,6.9-8.8,9.5-8.7c-0.4-0.4-0.9-0.9-1.3-1.3c0,0.2,0,0.3,0,0.5
				C309,185.4,311.2,185.4,311.3,183.8L311.3,183.8z"/>
		</g>
	</g>
	<g>
		<g>
			<path class="st11" d="M447.9,184.8c-5.9,11-11,21.7-13.7,34c-0.5,2.5,3.2,3.5,3.8,1c2.8-11.6,6.5-23.2,12-33.8
				C450.6,184.6,448.6,183.4,447.9,184.8L447.9,184.8z"/>
		</g>
	</g>
	<g>
		<g>
			<path class="st11" d="M222.3,283c-6.3,6.4-11.8,13.8-16.6,21.4c-4.7,7.4-9.7,15.7-12.1,24.2c-0.6,2,2.4,3.3,3.4,1.4
				c4.1-7.6,7.2-15.5,11.7-22.9c4.7-7.7,10.2-14.8,16-21.8C226,283.7,223.9,281.4,222.3,283L222.3,283z"/>
		</g>
	</g>
	<g>
		<g>
			<path class="st11" d="M271.3,285.1c4.4,2.8,6.7,7.8,9.2,12.2c2.3,4,4.6,8.1,6.7,12.3c2.2,4.1,4.2,8.3,6.2,12.5
				c1.1,2.5,1.8,6.3,4.8,7c1.1,0.3,2.1-0.3,2.5-1.4c0-0.1,0.1-0.2,0.1-0.4c0.3-0.9-0.2-1.7-0.9-2.2c-0.1-0.1-0.2-0.2-0.3-0.3
				c-0.8-0.6-2.1-0.1-2.6,0.7c0,0.1-0.1,0.1-0.1,0.2c-0.8,1.2,0.5,3.2,2,2.6c0.1,0,0.1-0.1,0.2-0.1c-0.7-0.3-1.4-0.6-2.1-0.9
				c0.1,0.1,0.1,0.3,0.2,0.4c0-0.7,0-1.3,0-2c-0.1,0.1-0.1,0.2-0.2,0.3c0.8-0.3,1.5-0.6,2.3-0.9c-0.6-0.2-2.1-4.4-2.4-5.1
				c-1.1-2.2-2.2-4.5-3.3-6.7c-2.1-4.1-4.3-8.2-6.6-12.3c-3.6-6.3-7.4-14.9-14.2-18.3C271.1,282.1,269.9,284.2,271.3,285.1
				L271.3,285.1z"/>
		</g>
	</g>
	<g>
		<g>
			<path class="st11" d="M525.9,288.3c-3.3,5.2-5.6,11.2-7.9,16.9c-2.4,6.1-4.9,12.6-6,19.1c-0.4,2.3,2.7,3.2,3.5,1
				c2.1-6,3.6-12.2,5.8-18.3c2.2-6,5-11.7,7.3-17.6C529.1,287.9,526.7,287,525.9,288.3L525.9,288.3z"/>
		</g>
	</g>
	<g>
		<g>
			<path class="st11" d="M567.4,281.8c7.9,14.7,15.5,29.4,21.5,45c0.9,2.3,4.6,1.3,3.7-1c-6.3-15.7-13.6-31.2-23-45.2
				C568.6,279.3,566.6,280.4,567.4,281.8L567.4,281.8z"/>
		</g>
	</g>
	<g>
		<g>
			<path class="st11" d="M493.4,177.1c6.7,7.4,13.1,15.3,19,23.3c5.7,7.7,10.3,16.1,15.9,23.9c1.3,1.8,3.9,0.3,3-1.7
				c-4.3-9-10.9-17.4-16.9-25.3c-5.9-7.7-12.3-14.9-19.2-21.8C494.1,174.2,492.4,175.9,493.4,177.1L493.4,177.1z"/>
		</g>
	</g>
	<g>
		<g>
			<path class="st12" d="M418.1,169.1c-24.6,20.7-45.6,46.2-57.8,76.2c-6.3,15.5-11.6,31.4-16.3,47.4c-2.4,8.1-4.6,16.2-6.7,24.3
				c-2.2,8.3-5.1,16.7-6.4,25.2c-0.5,3,3.5,4.2,4.6,1.3c2.8-7.5,4.3-15.6,6.4-23.4c2.2-8.1,4.4-16.2,6.7-24.3
				c4.5-15.4,9.5-30.7,15.4-45.7c12.2-31.1,33.4-55.3,56.7-78.6C422.1,170,419.7,167.7,418.1,169.1L418.1,169.1z"/>
		</g>
	</g>
	<g>
		<g>
			<path class="st12" d="M406.7,171.1c4.6,1.7,10.9,0.8,15.7,0.8c-0.6-1.4-1.1-2.7-1.7-4.1c-5,5-7.6,11.5-7.5,18.6
				c0,3.3,5.2,3.3,5.1,0c-0.2-5.8,1.8-11,5.8-15.2c1.4-1.5,0.4-4.2-1.7-4.1c-2.8,0.1-5.5,0.2-8.3,0.4c-2.4,0.1-5.1,0-7.4,1
				C405.5,169,405.4,170.6,406.7,171.1L406.7,171.1z"/>
		</g>
	</g>
	<g>
		<g>
			<path class="st12" d="M327.6,199.4c-4.6,23.6-5.2,48-4.5,72c0.7,24.1,2.9,48.5,7.6,72.1c0.6,3.3,5.4,1.8,4.9-1.4
				c-3.7-23.8-6.6-47.6-7.5-71.7c-0.9-23.6,0.3-47.2,2.9-70.7C331.1,198,327.9,197.5,327.6,199.4L327.6,199.4z"/>
		</g>
	</g>
	<g>
		<g>
			<path class="st12" d="M320.9,215.3c3.8-4.6,7.2-9.6,10.6-14.5c-1.4,0-2.8,0-4.2,0c2.7,5.1,5.1,10.6,8.2,15.5
				c1.4,2.1,5.5,0.8,4.4-1.9c-2.3-5.5-5.6-10.8-8.4-16.1c-0.9-1.7-3.2-1.4-4.2,0c-3.3,4.8-6.7,9.5-9.6,14.5
				C316.7,214.8,319.4,217.1,320.9,215.3L320.9,215.3z"/>
		</g>
	</g>
	<g>
		<g>
			<path class="st12" d="M271.5,455.1c5.4,3.1,13,3.1,19.1,3.3c6.6,0.2,14.5,0.4,20.9-1.8c2.3-0.8,2-4.3-0.6-4.3
				c-6.4-0.1-12.9,1.3-19.4,1.3c-6.3-0.1-13.1-1.9-19.3-1.2C270.9,452.5,270.1,454.3,271.5,455.1L271.5,455.1z"/>
		</g>
	</g>
	<g>
		<g>
			<path class="st12" d="M277,445.4c-3.7,3.1-6.9,6.9-10.5,10.2c-1.4,1.3-0.5,3.4,1,4c4.3,1.6,8.3,4.4,12.7,5.7
				c2,0.6,3.6-2.1,2.1-3.6c-3.5-3.3-9.1-5.1-13.5-6.7c0.3,1.3,0.7,2.6,1,4c3.6-3.4,7.6-7,10.1-11.3C281,445.7,278.5,444.1,277,445.4
				L277,445.4z"/>
		</g>
	</g>
	<g>
		<g>
			<g>
				<path class="st11" d="M331.8,437.5c-0.4,4.8-0.2,9.7-0.2,14.6c0,2.6,3.8,2.5,3.9,0c0.3-4.9,0.3-10.2-0.6-15
					C334.6,435.2,331.9,435.8,331.8,437.5L331.8,437.5z"/>
			</g>
		</g>
		<g>
			<g>
				<path class="st11" d="M334,439.5c1.8,0.1,4.5,0.1,4.7,2.4c0.1,0.9-0.6,1.3-1.4,1.7c-0.9,0.4-1,0.1-1.9-0.2
					c-1.4-0.5-2.6,1-2.3,2.3c0.5,2.1,3,2.5,4.8,2c2.1-0.6,4.1-2.2,4.5-4.4c0.4-2.1-0.6-4.5-2.3-5.7c-1.9-1.4-4.4-1.2-6.6-0.7
					C332.1,437.1,332.5,439.4,334,439.5L334,439.5z"/>
			</g>
		</g>
		<g>
			<g>
				<path class="st11" d="M355.3,444.3c0.2-4.2-0.5-9-5.9-7.9c-4.7,0.9-5.6,5.6-5.3,9.8c0.3,3.5,1.7,8.3,6.1,8
					C354.9,453.8,355.4,447.8,355.3,444.3c-0.2-2.3-3.5-2.3-3.7,0c-0.1,1.4,0.3,4.7-1,5.7c-2.3,1.9-2.8-3.4-2.9-4.4
					c-0.1-1.8-0.3-4.7,1.7-5.6c2.6-1.2,2.4,3.1,2.8,4.6C352.8,446.4,355.2,446,355.3,444.3L355.3,444.3z"/>
			</g>
		</g>
		<g>
			<g>
				<path class="st11" d="M368.6,444.8c0.8-3.7,0.5-8.9-4.6-8.7c-5.7,0.2-6.3,5.8-6.2,10.4c0.1,3.8,1.8,8.7,6.5,8.3
					c5-0.4,5.3-7.3,4.6-10.9c-0.4-2.3-3.8-1.3-3.5,1c0.2,1.2,0.2,2.2,0,3.3c0,0.6-0.2,1.2-0.4,1.7c-0.7,0.4-1.4,0.7-2,1.1
					c-1.8-0.5-1.7-4.1-1.6-5.5c0.1-1.6,0-4,1.2-5.1c3-2.8,3.5,2.5,3.4,4.1C366,445.9,368.3,446.2,368.6,444.8L368.6,444.8z"/>
			</g>
		</g>
		<g>
			<g>
				<path class="st11" d="M372.2,437.1c-1.2,4.8-0.6,10.8-0.4,15.7c0.1,2.5,3.8,2.5,3.8,0c0.1-4.9,0.5-10.9-0.8-15.7
					C374.5,435.8,372.5,435.7,372.2,437.1L372.2,437.1z"/>
			</g>
		</g>
		<g>
			<g>
				<path class="st11" d="M374.1,439.5c1.9-0.3,5.3-0.2,5,2.6c-0.3,2.2-3.3,2-4.9,2.6c-1.6,0.6-1.8,3,0,3.5c2,0.5,4.4-0.3,6.1-1.4
					c1.9-1.2,2.7-3,2.5-5.2c-0.4-4.9-5.5-5.6-9.4-4.7C371.7,437.3,372.4,439.7,374.1,439.5L374.1,439.5z"/>
			</g>
		</g>
		<g>
			<g>
				<path class="st11" d="M376.8,446.5c0.3,1,0.8,2,1.2,3c0.4,1,0.7,2,1.1,3c1.1,2.7,4.9,1.1,3.7-1.6c-0.5-1.1-1.1-2.1-1.7-3.1
					c-0.6-1-1.1-2-1.9-2.9C378.2,444,376.5,445.1,376.8,446.5L376.8,446.5z"/>
			</g>
		</g>
		<g>
			<g>
				<path class="st11" d="M392,438c0-0.1-0.4,2.5-0.4,2.8c-0.1,1.2-0.1,2.5-0.1,3.7c-0.1,2.3-0.1,4.7-0.2,7c0.5-0.6,0.9-1.2,1.4-1.9
					c0,0-0.1,0-0.1,0c0.7,0.3,1.4,0.6,2.1,0.9c0,0,0,0,0-0.1c-0.6-1-2-1.2-2.9-0.4c0,0,0,0,0,0c-0.6,0.6-0.7,1.6-0.3,2.3
					c0,0,0,0,0,0.1c0.6,0.9,2.2,1.4,3,0.4c1.5-1.9,0.6-5.6,0.6-7.9c0-2.3,0.6-6.2-0.7-8.3c-0.3-0.4-0.7-0.7-1.2-0.7c0,0-0.1,0-0.1,0
					C392.2,436,391.5,437.1,392,438L392,438z"/>
			</g>
		</g>
		<g>
			<g>
				<path class="st11" d="M393.8,439.8c1.1-0.1,4.4,0.1,4.4,1.8c0,1.5-2.9,1.9-3.9,2c-2.2,0.2-2.7,3.2-0.5,3.9
					c3.5,1.1,8.6-2,8.4-5.9c-0.2-4.3-5.4-5.5-8.8-4.7C391.9,437.3,392.2,439.9,393.8,439.8L393.8,439.8z"/>
			</g>
		</g>
		<g>
			<g>
				<path class="st11" d="M405,438c-0.3,4.9,0,9.8-0.5,14.7c-0.2,2.5,3.8,2.5,3.9,0c0.3-4.9,0.5-10.3-0.7-15
					C407.4,436,405.1,436.4,405,438L405,438z"/>
			</g>
		</g>
		<g>
			<g>
				<path class="st11" d="M406.7,439.3c1.3,0.3,6,0.1,5.3,2.5c-0.6,2.1-3.3,2.3-4.9,3.2c-1.3,0.7-1.1,3.1,0.4,3.4
					c3.7,0.7,8.5-3,8.5-6.9c0-1.9-1.2-3.6-2.9-4.4c-2-1-4.3-0.7-6.4-0.3C405.4,436.9,405.4,439,406.7,439.3L406.7,439.3z"/>
			</g>
		</g>
		<g>
			<g>
				<path class="st11" d="M410.3,446.9c0.1,1.9,1.2,3.7,1.4,5.6c0.3,2.2,4.1,1.7,3.9-0.5c0-0.1,0-0.2,0-0.3c-0.3-2.5-3.6-2.5-3.9,0
					c0,0.1,0,0.2,0,0.3c1.2-0.3,2.4-0.7,3.7-1c-1.1-1.5-1.6-3.5-2.9-5C411.7,445.1,410.2,445.8,410.3,446.9L410.3,446.9z"/>
			</g>
		</g>
		<g>
			<g>
				<path class="st11" d="M420.4,453.3c3-4.4,3.4-10,5-15c-1.2,0-2.4,0-3.5,0c1.1,5,1.8,10.6,3.8,15.3c0.9,2.3,4,1.4,3.7-1
					c-0.8-5.1-2.8-10.3-3.9-15.3c-0.4-1.8-3-1.7-3.5,0c-1.5,4.9-2.2,10.1-3.8,15C417.5,453.8,419.6,454.5,420.4,453.3L420.4,453.3z"
					/>
			</g>
		</g>
		<g>
			<g>
				<path class="st11" d="M421.1,451.1c0.9,0.2,1.6,0.1,2.5,0c0.9-0.1,1.9-0.1,2.6-0.6c1.2-0.8,1-2.6-0.4-3c-0.9-0.3-1.8,0-2.7,0.2
					c-0.9,0.2-1.6,0.4-2.4,0.8C419.7,449.1,419.8,450.9,421.1,451.1L421.1,451.1z"/>
			</g>
		</g>
		<g>
			<g>
				<path class="st11" d="M442.5,441.5c0.6-3.6-2.9-5.5-6.1-5.5c-4.7-0.1-5.4,4.4-5.6,8.2c-0.2,3.6,0.1,8.8,4.1,10.4
					c4,1.5,6.6-2.2,7.5-5.6c0.6-2.4-3.1-3.4-3.7-1c-0.1,0.7-0.3,1.3-0.6,1.9c-2,1.2-3,0.9-3.3-0.8c-0.4-1.4-0.4-2.9-0.4-4.3
					c0-1.1-0.1-3.5,0.6-4.4c1.3-1.6,4.2-0.4,4.9,1.2C440.4,442.6,442.3,442.9,442.5,441.5L442.5,441.5z"/>
			</g>
		</g>
		<g>
			<g>
				<path class="st11" d="M445.7,437.2C445.7,437.1,445.7,437.1,445.7,437.2c-0.2-0.5-0.9-0.8-1.4-0.6c0,0,0,0-0.1,0
					c-0.8,0.3-1.3,1.4-0.6,2.1c1,0.9,2.8,0.6,4,0.7c1.9,0.1,3.7,0.1,5.6,0.2c0.6,0,1.5-0.4,1.7-1c0,0,0-0.1,0-0.1
					c0.5-1.2,0.1-2.4-1.1-2.8c0,0,0,0,0,0c-0.7-0.2-1.7,0.1-2.1,0.9c0,0,0,0,0,0c-0.4,0.8-0.3,2.1,0.7,2.5c0,0,0,0,0,0
					c-0.3-0.7-0.6-1.4-0.9-2.1c0,0,0,0,0,0c0.8-0.4,1.6-0.9,2.3-1.3c-1.2-0.4-3.3,0.2-4.6,0.3c-1.5,0.2-3.2,0.6-4.7,0.6
					c0.4,0.4,0.8,0.8,1.3,1.3c0,0,0,0,0-0.1c-0.4,0.4-0.8,0.8-1.2,1.2c0,0,0,0,0,0C445.6,439,446.1,438,445.7,437.2L445.7,437.2z"/>
			</g>
		</g>
		<g>
			<g>
				<path class="st11" d="M448.6,438.6c-0.8,1.9-0.7,3.9-0.8,5.9c-0.1,2.4-0.2,4.8-0.3,7.2c-0.1,2.7,4.3,2.7,4.2,0
					c-0.1-2.2-0.2-4.5-0.3-6.7c-0.1-2,0.2-4.2-0.6-6.1C450.5,438,449.1,437.5,448.6,438.6L448.6,438.6z"/>
			</g>
		</g>
		<g>
			<g>
				<path class="st11" d="M457.4,437.7c-0.5,4.4-0.1,9.2-0.2,13.6c0,2.4,3.6,2.4,3.8,0c0.3-4.5,0.5-9.6-0.5-14.1
					C460.1,435.5,457.6,436.1,457.4,437.7L457.4,437.7z"/>
			</g>
		</g>
		<g>
			<g>
				<path class="st11" d="M474,441.3c0.8-3-2.4-5.5-5.2-5.2c-3.7,0.3-4.9,3.7-5.3,6.9c-0.4,3.1-0.9,7.8,2.3,9.8
					c2.9,1.8,6.4,0.1,7.7-2.8c1.1-2.6-2.6-4.1-3.5-1.5c-0.4,1.3-1.3,1.5-2.5,0.7c-0.3-0.6-0.4-1.3-0.3-2c-0.1-1.3,0.1-2.6,0.2-3.9
					c0.2-1.3,0.4-3.6,2.2-3.5c1.2,0.1,1.7,1.2,2.4,2C472.6,442.5,473.8,442.2,474,441.3L474,441.3z"/>
			</g>
		</g>
		<g>
			<g>
				<path class="st11" d="M485.4,436.6c-2.3-0.5-4.6-0.1-6.9,0.1c-1,0.1-1.9,0.8-1.9,1.9c0,2.5,0,5.1,0,7.6c0,1.9-0.4,4.2,0,6
					c0.9,3.3,6.1,1.8,8.6,1.7c2.5-0.1,2.5-4.1,0-3.9c-1.2,0.1-3.6-0.3-4.6,0.3c-0.6-0.1-0.7,0.1-0.4,0.7c0.1,0.8,0.2,0.9,0.1,0.1
					c0.1-0.8,0-1.9,0-2.7c0-3.2,0-6.5,0-9.7c-0.6,0.6-1.2,1.2-1.9,1.9c2.4-0.3,4.9-0.4,7.2-1.3C486.7,438.5,486.4,436.8,485.4,436.6
					L485.4,436.6z"/>
			</g>
		</g>
		<g>
			<g>
				<path class="st11" d="M479.5,446.9c0.8,0.2,1.6,0.1,2.4,0.2c0.9,0.1,1.7,0.2,2.5-0.2c1.2-0.6,1-2.2,0-2.9
					c-0.7-0.5-1.7-0.4-2.5-0.4c-0.8,0-1.6,0-2.4,0.2C478,444.2,477.8,446.5,479.5,446.9L479.5,446.9z"/>
			</g>
		</g>
		<g>
			<g>
				<path class="st11" d="M495.1,437.7c1.1,4.9,2.5,9.7,3.4,14.6c0.3,1.8,3.2,1.8,3.6,0c0.9-4.7,2.1-9.4,3.6-14
					c-1.1,0.1-2.2,0.3-3.2,0.4c1.9,4.4,3.3,8.9,4.4,13.5c0.4,1.8,3.3,1.8,3.6,0c0.9-4.8,1.9-9.6,2.9-14.4c0.5-2.4-3.3-3.5-3.7-1
					c-0.9,4.8-1.8,9.6-2.8,14.4c1.2,0,2.4,0,3.6,0c-1.2-4.9-2.9-9.7-4.9-14.3c-0.7-1.5-2.8-0.9-3.2,0.4c-1.4,4.6-2.6,9.3-3.7,14
					c1.2,0,2.4,0,3.6,0c-0.9-4.9-1.9-9.9-3.8-14.5C497.5,434.9,494.6,435.6,495.1,437.7L495.1,437.7z"/>
			</g>
		</g>
		<g>
			<g>
				<path class="st11" d="M516.4,437c-0.7,4.8-0.3,10-0.1,14.8c0.1,2.6,4.1,2.6,4,0c-0.1-4.8-0.2-10.2-1.4-14.8
					C518.6,435.8,516.5,435.7,516.4,437L516.4,437z"/>
			</g>
		</g>
		<g>
			<g>
				<path class="st11" d="M518.7,445.9c1.3,0.1,2.6,0.3,3.9,0.4c1.3,0.1,2.4,0.5,3.6-0.1c1.6-0.7,1.1-2.8,0-3.6c0,0,0,0-0.1,0
					c-0.7-0.5-1.9-0.3-2.5,0.3c0,0,0,0,0,0c-1.2,1.4-0.1,4.1,2,3.4c0,0,0,0,0,0c-0.8-0.5-1.7-1-2.5-1.4c0,0,0,0,0,0.1
					c0.3-0.8,0.6-1.6,1-2.3c-0.1,0-0.9,0.1-1.1,0.1c-0.5,0.1-1,0.1-1.5,0.1c-1,0.1-1.9,0.1-2.9,0.1
					C516.8,443,516.9,445.7,518.7,445.9L518.7,445.9z"/>
			</g>
		</g>
		<g>
			<g>
				<path class="st11" d="M524.5,436.9c-1.2,2.2-0.8,4.8-0.8,7.2c0,2.7-0.1,5.5,0.4,8.2c0.3,1.8,3.4,1.8,3.6,0
					c0.4-2.7,0.1-5.5,0-8.2c-0.1-2.4,0.1-5.1-1.1-7.2C526.1,436.2,524.9,436.1,524.5,436.9L524.5,436.9z"/>
			</g>
		</g>
		<g>
			<g>
				<path class="st11" d="M530.3,437.5c-0.6,2.5-0.4,5.1-0.4,7.6c0,2.3-0.5,5,0.2,7.2c0.2,0.7,0.7,1.3,1.4,1.4
					c2.2,0.4,4.6,0.1,6.8,0.3c2.6,0.2,2.6-3.9,0-4.1c-1.8-0.2-4,0.2-5.7-0.2c0.5,0.5,1,1,1.4,1.4c-0.7-2-0.3-5.1-0.4-7.2
					c-0.1-2.2,0-4.4-0.5-6.5C532.8,436.1,530.6,436,530.3,437.5L530.3,437.5z"/>
			</g>
		</g>
		<g>
			<g>
				<path class="st11" d="M534.1,445.1C534.1,445.1,534.1,445.1,534.1,445.1c-0.5,0.4-1,0.9-1.4,1.4c1.3,0.2,2.6,0,3.9,0.1
					c1.2,0.1,2.1-1.2,1.9-2.2c-0.2-1.2-1.3-1.9-2.4-1.6c-0.7,0.2-1.4,0.3-2.1,0.4c-0.6,0.1-1.4,0.2-2,0.5c-0.6,0.4-0.8,1-0.7,1.7
					c0,0.1,0.1,0.3,0.2,0.4c0.4,0.5,0.9,0.8,1.6,0.6C533.6,446.3,534.2,445.7,534.1,445.1L534.1,445.1z"/>
			</g>
		</g>
		<g>
			<g>
				<path class="st11" d="M531.4,438.9c1,0.6,2.1,0.6,3.2,0.7c1.2,0.1,2.3,0.2,3.5,0.2c2.6,0,2.5-4.1,0-4c-1.1,0.1-2.2,0.2-3.3,0.2
					c-1,0.1-2.2-0.1-3.2,0.3C530.7,436.8,530.2,438.3,531.4,438.9L531.4,438.9z"/>
			</g>
		</g>
		<g>
			<g>
				<path class="st11" d="M545.5,452.5c1.3-4.4,0.5-10.1,0.6-14.6c-1.2,0.3-2.4,0.6-3.5,1c2.8,4.6,4.6,10.4,8.3,14.4
					c1.3,1.4,3.4,0.2,3.5-1.4c0.2-2.6-0.2-5.2-0.3-7.8c-0.1-2.1,0.6-4.4,0.2-6.4c-0.3-1.4-1.9-1.7-2.9-1.2c0,0-0.1,0-0.1,0
					c-0.7,0.3-1.2,1.5-0.9,2.3c0,0,0,0.1,0,0.1c0.9,2.4,4.8,1.4,3.9-1.1c0,0,0-0.1,0-0.1c-0.3,0.8-0.6,1.5-0.9,2.3c0,0,0.1,0,0.1,0
					c-1-0.4-2-0.8-2.9-1.2c0.1,0.6-0.4,2.1-0.4,2.8c-0.1,1,0,2.1,0,3.1c0.1,2.4,0.3,4.8,0.2,7.3c1.2-0.5,2.3-1,3.5-1.4
					c-3.6-3.5-5.3-9.1-7.9-13.4c-1-1.6-3.5-0.9-3.5,1c0,4.6-0.9,10.2,0.3,14.6C543,454,545.1,453.9,545.5,452.5L545.5,452.5z"/>
			</g>
		</g>
		<g>
			<g>
				<path class="st11" d="M572.8,441.6c0.1-0.1,0.2-0.1,0.3-0.2c0.7-0.3,1-1.2,0.8-1.9c-0.9-3.3-4.6-4.8-7.5-2.7
					c-2.6,1.9-2.6,5.8-2.5,8.7c0.1,3.1,0.9,7.1,4.4,8.1c3.3,0.9,6-1.7,6.1-4.9c0.1-2.4-3.6-2.4-3.7,0c-1,1.5-1.7,1.6-2.2,0.4
					c-0.4-0.3-0.6-0.7-0.6-1.1c-0.3-0.8-0.2-1.7-0.3-2.5c-0.1-1.3-0.2-3.1,0.3-4.3c0.3-0.7,1.5-1.8,2.4-1.3c0.3,0.2,0.6,1.1,1,1.4
					C571.6,441.6,572.2,441.9,572.8,441.6L572.8,441.6z"/>
			</g>
		</g>
		<g>
			<g>
				<path class="st11" d="M587.1,444.2c0.6-3.4-0.7-8.2-5.1-7.9c-5.1,0.3-4.6,7.2-4.4,10.7c0.2,3.5,1.8,8.3,6.4,7.1
					c5-1.3,4.4-7.2,4-11.1c-0.2-2.2-3.6-2.3-3.5,0c0,1.6,0.4,3.3,0.2,5c-0.1,1.1-1.2,3.8-2.9,2.1c-0.6-0.7-0.5-2.2-0.6-3
					c-0.1-1.4-0.4-3.4,0-4.8c1.5-5.3,3.3,0.8,3.6,2.1C585,445.3,586.9,445.4,587.1,444.2L587.1,444.2z"/>
			</g>
		</g>
		<g>
			<g>
				<path class="st11" d="M590.9,437c-0.6,2.6-0.2,5.4-0.2,8.1c0,1.5,0,3-0.1,4.5c0,0.9-0.3,2,0,2.9c0.4,1,1.2,1.5,2.3,1.3
					c0,0,0.1,0,0.1,0c2.2-0.4,1.4-3.4-0.5-3.6c0,0-0.1,0-0.1,0c0.5,0.3,1.1,0.6,1.6,0.9c-0.2-0.5,0.2-3,0.2-3.7c0-1.1,0-2.2-0.1-3.4
					c-0.1-2.3-0.1-4.8-0.9-7C592.8,436,591.2,435.8,590.9,437L590.9,437z"/>
			</g>
		</g>
		<g>
			<g>
				<path class="st11" d="M592.1,438c1.1,4.9,3,9.6,4.1,14.6c0.4,1.9,3.2,1.8,3.7,0c0.7-2.5,1.4-4.9,2.1-7.4
					c0.7-2.2,1.1-4.9,2.7-6.6c-1-0.4-2-0.8-3-1.3c0.1,4.7,0.3,9.4,0.2,14.1c0,2.7,4.4,2.7,4.2,0c-0.4-4.7-0.6-9.4-0.9-14.1
					c-0.1-1.5-1.9-2.4-3-1.3c-1.6,1.7-2.3,3.8-3.1,6c-1,3.1-2,6.3-2.9,9.4c1.2,0,2.5,0,3.7,0c-1.3-4.9-2.7-10.3-5.4-14.6
					C593.7,435.7,591.7,436.6,592.1,438L592.1,438z"/>
			</g>
		</g>
		<g>
			<g>
				<path class="st11" d="M609.6,437.6c-0.3,4.8-0.7,9.6-0.5,14.4c0.1,2.4,3.5,2.3,3.7,0c0.2-2.9,0.1-5.8,0.1-8.7
					c0-1.8,0.5-4.8-0.5-6.4C611.6,435.6,609.7,436.1,609.6,437.6L609.6,437.6z"/>
			</g>
		</g>
		<g>
			<g>
				<path class="st11" d="M611.9,439.6c1.3-0.1,4.5-0.4,4.7,1.6c0.1,1.7-2.3,2-3.4,1.6c-2.3-0.8-3.4,2.9-1,3.7
					c3.4,1.2,7.9-1.2,7.9-5c0-1.8-1.1-3.3-2.6-4.1c-1.8-0.8-3.7-0.6-5.6-0.4C610.3,437.2,610.3,439.7,611.9,439.6L611.9,439.6z"/>
			</g>
		</g>
		<g>
			<g>
				<path class="st11" d="M632.7,444.7c0.9-3.4-0.7-8.2-4.8-8.4c-4.7-0.2-5.1,5.9-4.9,9.3c0.2,3.4,1.1,8.2,5.3,8.7
					c5.2,0.5,4.9-5.8,4.8-9.3c-0.1-2-3.1-2-3.1,0c0,1.2,0.4,6.8-2.2,5.5c-1.3-0.7-1.3-4.2-1.4-5.3c-0.1-1.2-0.5-5.3,1.3-5.6
					c1.3-0.3,2,2,2.3,2.8c0.2,0.8,0.2,1.6,0.5,2.4C630.8,445.8,632.3,445.9,632.7,444.7L632.7,444.7z"/>
			</g>
		</g>
		<g>
			<g>
				<path class="st11" d="M639.3,453.2c0.8-4.9,0.8-10,0.4-14.9c-1.1,0.3-2.1,0.6-3.2,0.9c2.1,4.8,4.3,9.5,7.3,13.8
					c1,1.4,3.5,1,3.5-0.9c-0.2-4.5-0.2-9-0.4-13.5c-0.1-2.3-3.5-2.3-3.6,0c-0.2,4.5,0,9,0.3,13.5c1.1-0.4,2.1-0.9,3.2-1.3
					c-3.1-4-5.2-8.6-7.3-13.3c-0.7-1.5-3.2-0.8-3.2,0.9c0.3,4.9,0,9.6-0.3,14.5C635.8,454.6,639,455.1,639.3,453.2L639.3,453.2z"/>
			</g>
		</g>
		<g>
			<g>
				<path class="st11" d="M658.1,436.4c-1.8-0.2-5.5-0.7-7,0.8c-1.7,1.7-0.4,6-0.2,8.1c0.2,1.7,0.2,3.3,0.3,5c0,0.8,0,1.5,0.6,2.2
					c1.4,1.7,5,0.7,6.8,0.4c2.5-0.4,1.4-4.1-1-3.7c-1.1,0.2-2.6,0.5-3.8,0.3c0.4,0.3,0.8,0.6,1.2,0.9c0.1,0.8,0.2,0.6,0.2-0.6
					c0-0.3,0-0.7,0-1c0-1.2-0.1-2.3-0.3-3.5c-0.2-1.8-0.8-4.4-0.4-6.2c-0.3,0.4-0.6,0.8-0.9,1.2c1.1-0.5,3.3-0.4,4.6-0.4
					C660.4,439.8,660.3,436.7,658.1,436.4L658.1,436.4z"/>
			</g>
		</g>
		<g>
			<g>
				<path class="st11" d="M653.5,446.4c1.3,0.2,2.5,0.1,3.7,0.2c1.1,0,1.9-1,1.7-2c-0.1-1-1.2-1.8-2.2-1.5c-1.1,0.3-2.2,0.4-3.3,0.4
					c-0.8,0-1.5,0.7-1.5,1.5C652,445.8,652.7,446.3,653.5,446.4L653.5,446.4z"/>
			</g>
		</g>
		<g>
			<g>
				<path class="st11" d="M665.2,453.2c1.3-4.7,0.5-10.3,0.6-15.1c-1,0.3-2.1,0.6-3.1,0.8c3.4,4.6,5.3,10.1,9.1,14.5
					c1.2,1.3,3.2,0.2,3.3-1.4c0.3-4.7-0.4-9.4-0.7-14.1c-0.2-2.4-3.9-2.4-3.8,0c0.3,4.7,0.8,9.4,0.6,14.1c1.1-0.5,2.2-0.9,3.3-1.4
					c-3.7-3.9-5.7-9.1-8.9-13.4c-0.9-1.2-3.1-1-3.1,0.8c0,4.8-0.8,10.4,0.4,15.1C663.2,454.3,664.9,454.3,665.2,453.2L665.2,453.2z"
					/>
			</g>
		</g>
		<g>
			<g>
				<path class="st11" d="M676.7,439.1c2.9,0.1,5.9,0.7,8.9,0.6c2.4-0.1,2.3-3.4,0-3.7c-2.9-0.3-5.9,0.3-8.9,0.6
					C675.1,436.8,675.1,439.1,676.7,439.1L676.7,439.1z"/>
			</g>
		</g>
		<g>
			<g>
				<path class="st11" d="M680.2,438.7c-0.3,4.4-0.7,8.8-0.7,13.2c0,2.6,4.2,2.6,4,0c-0.3-4.4-0.6-8.8-0.7-13.2
					C682.8,437,680.3,437,680.2,438.7L680.2,438.7z"/>
			</g>
		</g>
		<g>
			<g>
				<path class="st11" d="M698.7,439c-2.6-2.8-9.9-4.3-10,1.3c-0.1,2.3,1.6,4.1,3.3,5.4c1,0.8,3.5,1.7,3.7,3
					c0.7,0.9,0.2,1.3-1.4,1.3c-0.4-0.1-0.8-0.2-1.2-0.3c-0.7-0.3-1.1-1.1-1.7-1.6c-1.2-1.3-3.4,0-2.9,1.7c1.4,5,9.4,5.5,11.3,0.6
					c1-2.6-0.9-4.5-2.8-5.9c-1.1-0.8-2.9-1.5-3.7-2.6c-2.2-3,2.5-1.7,3.8-0.8C698.4,442.1,699.8,440.1,698.7,439L698.7,439z"/>
			</g>
		</g>
		<g>
			<g>
				<path class="st11" d="M712,438.2c-0.6,4.4-0.2,9.2-0.5,13.7c-0.1,2.5,3.7,2.5,3.9,0c0.2-3.1,0.2-6.2,0.1-9.3
					c-0.1-1.6,0.3-4.6-1.3-5.6C713.1,436.3,712.1,437.1,712,438.2L712,438.2z"/>
			</g>
		</g>
		<g>
			<g>
				<path class="st11" d="M709.2,439.3c2.6,0.6,5.4,0.4,8,0.7c2.4,0.3,2.4-4,0-3.8c-2.7,0.2-5.4,0-8,0.6
					C707.9,437.1,708,439.1,709.2,439.3L709.2,439.3z"/>
			</g>
		</g>
		<g>
			<g>
				<path class="st11" d="M721.4,437.6c-0.7,2.1-0.4,4.6-0.4,6.9c0,2.6,0,5.1-0.1,7.7c0,2.4,3.7,2.4,3.8,0c0-2.7,0-5.5-0.2-8.2
					c-0.1-2.2-0.1-4.5-1-6.6C723.1,436.3,721.7,436.7,721.4,437.6L721.4,437.6z"/>
			</g>
		</g>
		<g>
			<g>
				<path class="st11" d="M724.2,438.7c-0.6,0.5,0.9,0.4,1.1,0.4c0.5,0.1,1.2,0.2,1.6,0.5c0.9,0.5,1.4,1.3,1.4,2.3
					c0,2.5-2.9,2.4-4.7,2.4c-2-0.1-2.4,2.9-0.5,3.5c4.3,1.2,9.4-2,8.6-6.7c-0.3-2-1.7-3.7-3.6-4.4c-1.6-0.6-4.7-1-5.9,0.5
					c-0.5,0.6,0,1.7,0.7,1.8C723.5,439.1,723.8,439,724.2,438.7L724.2,438.7z"/>
			</g>
		</g>
		<g>
			<g>
				<path class="st11" d="M726.1,446.9c1.3,1.8,1.6,4.3,2.2,6.4c0.8,2.8,5.1,0.7,3.5-1.5c-1.5-2.1-1.8-4.6-3.6-6.6
					C727.3,444,725.2,445.6,726.1,446.9L726.1,446.9z"/>
			</g>
		</g>
		<g>
			<g>
				<path class="st11" d="M733.7,437.8c0.9,2.9,2.5,5.7,3.7,8.5c1,2.2,4.5,0.3,3.4-2c-1.4-2.6-2.7-5.4-4.4-7.7
					C735.3,435.6,733.1,436.1,733.7,437.8L733.7,437.8z"/>
			</g>
		</g>
		<g>
			<g>
				<path class="st11" d="M743.2,436.3c-1.9,2.4-3.6,5.1-5,7.8c-1.2,2.4-0.9,5.1-0.9,7.7c0,2.5,3.9,2.5,3.9,0c0-2.8-0.1-5,1.2-7.5
					c1.1-2.2,2.3-4.4,3.1-6.7C745.8,436.4,744,435.3,743.2,436.3L743.2,436.3z"/>
			</g>
		</g>
		<g>
			<g>
				<path class="st11" d="M753.5,439c3.4,0.6,6.9,0.3,10.3,0.6c2.3,0.2,2.3-3.6,0-3.6c-3.3,0.1-7,0.1-10.3,0.8
					C752.4,437,752.4,438.8,753.5,439L753.5,439z"/>
			</g>
		</g>
		<g>
			<g>
				<path class="st11" d="M757.4,437.7c-0.7,4.7-0.6,9.5-0.9,14.3c-0.1,2.5,4,2.5,3.9,0c-0.2-4.8,0-9.5-0.7-14.3
					C759.6,436.6,757.6,436.6,757.4,437.7L757.4,437.7z"/>
			</g>
		</g>
		<g>
			<g>
				<path class="st11" d="M776.4,444.4c1-3.6-0.4-9.1-5.2-8.4c-4.2,0.6-5.7,6.1-5.5,9.7c0.2,3.3,2.1,7.7,5.9,7.8
					c4.6,0.1,5.1-6,5.2-9.4c0.1-2.2-3.4-2.2-3.4,0c0,1.7,0.2,4.3-1.4,5.2c-1.4,0.7-1.6-0.1-2.2-1.3c-0.3-0.7-0.5-1.6-0.6-2.3
					c-0.1-1.5,0.3-3.5,1-4.8c0.9-1.6,2.9-0.8,3.4,0.7c0.3,0.9,0.3,1.9,0.5,2.8C774.4,445.6,776.1,445.5,776.4,444.4L776.4,444.4z"/>
			</g>
		</g>
		<g>
			<g>
				<path class="st11" d="M342.2,469.8c-0.2-2.9-3.4-5.6-6.4-4.6c-3.7,1.2-3.8,5.8-3.8,9c0,3,0.2,7.9,3.8,9c3.2,0.9,6.1-2.1,6.6-5.1
					c0.3-2.2-3-3.1-3.3-0.9c-0.3,1.8-1.9,4-3.3,1.4c-0.6-1.2-0.5-3.1-0.5-4.4c0-1.1-0.2-3.1,0.3-4.1c1.2-2.2,3-1.4,3.9,0.5
					C340.1,471.9,342.3,471.2,342.2,469.8L342.2,469.8z"/>
			</g>
		</g>
		<g>
			<g>
				<path class="st11" d="M355.3,476c0.5-2.9,0.5-9-3.1-10.1c-3.7-1.2-6.8,1.7-7.2,5.2c-0.4,3.5,0,9.7,3.8,11.4
					c4.2,1.9,6.4-3,6.1-6.4c-0.2-1.9-2.8-1.9-3,0c-0.1,1.3,0.3,3-1.5,3c-1.4,0-1.5-0.7-1.8-2c-0.4-1.6-0.8-4.1-0.4-5.7
					c0.5-1.8,2.4-3.6,3.7-1.3c0.8,1.5,0.4,4,0.5,5.6C352.5,477.2,355,477.8,355.3,476L355.3,476z"/>
			</g>
		</g>
		<g>
			<g>
				<path class="st11" d="M361.2,481.7c1.1-4.8,0.6-10.2,1-15.1c-1,0.1-2,0.3-3,0.4c1.7,4.8,3.6,9.6,5.6,14.3c0.7,1.6,2.6,1.6,3.3,0
					c1.8-4.4,2.3-9.3,4.3-13.6c-1.1-0.1-2.1-0.3-3.2-0.4c0.6,4.6,1.1,9.3,1.4,13.9c0.1,2.4,3.9,2.4,3.8,0c-0.3-5-0.8-10-1.8-14.9
					c-0.3-1.4-2.6-1.8-3.2-0.4c-2,4.7-2.8,9.7-4.5,14.5c1-0.1,2.1-0.3,3.1-0.4c-2.1-4.5-4-9.2-5.7-13.9c-0.5-1.3-2.7-1.7-3,0
					c-0.8,4.8-1.7,10.8-0.1,15.5C359.5,482.7,361,482.8,361.2,481.7L361.2,481.7z"/>
			</g>
		</g>
		<g>
			<g>
				<path class="st11" d="M377.9,480.5c0,0.1,0,0.1-0.1,0.2c-0.3,0.8,0.3,1.4,1,1.7c0,0,0.1,0,0.1,0c0.7,0.3,1.6-0.3,1.7-1
					c0.9-4.7,0.9-9.6,1.1-14.4c-1,0.3-2.1,0.6-3.1,0.9c2.1,4,3.5,8.6,5,12.8c0.6,1.6,2.9,1.8,3.4,0c1.4-4.6,3-9.1,5.1-13.5
					c-1.1-0.3-2.3-0.6-3.4-0.9c0.2,5.1,0.4,10.3,0.5,15.4c0.1,2.4,3.9,2.4,3.8,0c-0.2-5.1-0.4-10.3-0.6-15.4
					c-0.1-1.7-2.6-2.7-3.4-0.9c-2.2,4.7-4.1,9.5-5.4,14.4c1.1,0,2.3,0,3.4,0c-1.8-4.5-3.2-9.3-5.5-13.6c-0.8-1.6-3-0.7-3.1,0.9
					c-0.3,4.6-0.9,9.4-0.4,14c0.3-0.5,0.7-0.9,1-1.4c0,0-0.1,0-0.1,0c0.6,0.3,1.1,0.6,1.7,1c0-0.1,0-0.1-0.1-0.2
					C380,479.3,378.3,479.3,377.9,480.5L377.9,480.5z"/>
			</g>
		</g>
		<g>
			<g>
				<path class="st11" d="M396.1,466.2c-0.7,1.7-0.5,3.7-0.5,5.5c0,1.7-0.1,3.6,0.2,5.3c0.5,2.7,2.3,5,5.2,5.2
					c7.1,0.5,5.6-10.5,5.7-14.8c0.1-2.4-3.6-2.4-3.7,0c-0.1,2.1-0.1,4.1-0.2,6.2c0,0.9,0.1,2-0.1,2.8c-0.4,1.7-2.2,3.2-3.2,0.4
					c-1.2-3.5,0.4-7.5-1.3-10.9C397.8,464.9,396.5,465.3,396.1,466.2L396.1,466.2z"/>
			</g>
		</g>
		<g>
			<g>
				<path class="st11" d="M413.4,481.9c1.8-4.5,1.3-10.2,0.8-14.8c-1.1,0.3-2.2,0.6-3.3,0.9c2.7,4.7,4.9,9.9,8.2,14.2
					c1,1.3,3,0.1,3-1.3c0.1-4.7,0.1-9.4,0.1-14.2c0-2.3-3.6-2.3-3.6,0c0,4.7-0.1,9.4-0.1,14.2c1-0.4,2-0.8,3-1.3
					c-3.2-3.9-5.4-9-7.7-13.4c-0.8-1.5-3.4-0.9-3.3,0.9c0.3,4.9-0.3,10,0.6,14.8C411.5,483.1,413.1,482.7,413.4,481.9L413.4,481.9z"
					/>
			</g>
		</g>
		<g>
			<g>
				<path class="st11" d="M425.3,466.2c-0.9,4.7-0.7,10-0.1,14.8c0.3,2.3,3.8,2.4,3.6,0c-0.3-4.8-0.1-9.6-0.4-14.4
					C428.2,465,425.6,464.4,425.3,466.2L425.3,466.2z"/>
			</g>
		</g>
		<g>
			<g>
				<path class="st11" d="M441.9,470.4c1.3-2.9-0.9-5.9-4.1-5.7c-3.8,0.1-5.8,3.8-5.9,7.2c-0.2,3.3,0.2,8.6,3.4,10.5
					c3,1.7,6.3-0.1,7.2-3.2c0.7-2.2-2.7-3.1-3.4-0.9c-1,3.2-3-0.5-3.3-1.9c-0.2-1-0.4-2-0.4-3c0-1,0-2.1,0.3-3.1c0.8-2,3.5-2.7,4,0
					C439.8,471.1,441.4,471.3,441.9,470.4L441.9,470.4z"/>
			</g>
		</g>
		<g>
			<g>
				<path class="st11" d="M447.4,482c1.5-5.2,2.7-10.4,4.1-15.6c-1,0-2,0-2.9,0c1,2.7,1.9,5.4,2.8,8.1c0.7,2.3,1.9,5,1.9,7.5
					c0.6-0.6,1.1-1.1,1.7-1.7c0,0-0.1,0-0.1,0c0.5,0.4,1.1,0.8,1.6,1.2c0,0,0,0,0-0.1c-0.2-1.2-2-1.6-2.7-0.7c0,0,0,0,0,0.1
					c-0.6,0.7-0.6,1.6,0,2.3c0,0,0,0,0.1,0.1c0.7,0.7,2.2,0.7,2.7-0.3c0.9-2-0.6-5-1.3-7c-1.1-3.5-2.3-6.9-3.6-10.3
					c-0.5-1.4-2.4-1.5-2.9,0c-1.8,5.1-3.5,10.2-4.5,15.5C443.7,483.2,446.8,484.1,447.4,482L447.4,482z"/>
			</g>
		</g>
		<g>
			<g>
				<path class="st11" d="M447.5,478c1.3,0.6,3,0.3,4.4,0.4c1.1,0.1,1.9-1,1.7-2c-0.1-1.1-1.1-1.7-2.2-1.5c-1.3,0.2-2.8,0.2-3.9,0.8
					C446.8,476.3,446.6,477.6,447.5,478L447.5,478z"/>
			</g>
		</g>
		<g>
			<g>
				<path class="st11" d="M456.6,467.9c2.9,0.1,5.7,0.2,8.6,0.3c2.4,0.1,2.4-3.8,0-3.7c-2.9,0.1-5.7,0.3-8.6,0.6
					C454.9,465.4,454.8,467.8,456.6,467.9L456.6,467.9z"/>
			</g>
		</g>
		<g>
			<g>
				<path class="st11" d="M459.9,466.9c-0.3,4.6-0.1,9.2,0,13.7c0.1,2.3,3.6,2.3,3.6,0c-0.1-4.7-0.3-9.4-1.2-14.1
					C461.9,465.2,460,465.6,459.9,466.9L459.9,466.9z"/>
			</g>
		</g>
		<g>
			<g>
				<path class="st11" d="M477.5,465.3c-2.5-0.4-5-0.2-7.4,0.6c-0.9,0.3-1.4,1.2-1.2,2c0.6,2.3,0.7,4.7,0.8,7.1c0,1.8-0.6,4.3-0.2,6
					c0.7,2.7,5.3,1.9,7.3,1.8c2.6-0.2,2.1-4.1-0.5-3.6c-1.7,0.3-3.6,0.9-5.3,0.6c0.4,0.2,0.8,0.4,1.1,0.7c-0.1-0.2,0.2-1.8,0.3-2.2
					c0.1-1.3,0.2-2.5,0.2-3.8c0-2.4-0.3-4.6-0.4-7c-0.6,0.6-1.1,1.1-1.7,1.7c2.3-0.2,4.7-0.5,7-0.9
					C478.9,467.9,479,465.5,477.5,465.3L477.5,465.3z"/>
			</g>
		</g>
		<g>
			<g>
				<path class="st11" d="M471.8,475.2c1.3,0,2.6,0.1,3.9,0.1c1.1,0,2-1,1.8-2.1c-0.2-1.2-1.2-1.8-2.3-1.5c-1.3,0.2-2.5,0.5-3.7,0.7
					C469.7,472.6,470.2,475.2,471.8,475.2L471.8,475.2z"/>
			</g>
		</g>
		<g>
			<g>
				<path class="st11" d="M487.7,466.5c-0.2,4.9,0.3,9.9,0,14.9c-0.1,2.2,3.4,2.2,3.5,0c0.3-5,0.5-10.4-0.7-15.3
					C490,464.5,487.7,464.9,487.7,466.5L487.7,466.5z"/>
			</g>
		</g>
		<g>
			<g>
				<path class="st11" d="M489.8,467.7c1.8,0.2,3.8,0.5,4.7,2.4c0.5,1,0.6,2.7,0.6,3.7c0,2.8-1.4,5.8-4.6,5.3
					c-2.3-0.4-3.2,2.7-1,3.5c5,1.9,9.1-3.1,9.4-7.7c0.1-2.4-0.2-6-1.9-7.9c-1.7-1.9-4.9-1.8-7.2-1.9
					C488,465,488.1,467.5,489.8,467.7L489.8,467.7z"/>
			</g>
		</g>
		<g>
			<g>
				<path class="st11" d="M501.4,466.1c-0.6,2.4-0.2,4.9-0.1,7.4c0.1,2.7,0.2,5.5,0.3,8.2c0.1,2.3,3.7,2.4,3.6,0
					c-0.1-4.9,0.1-11.3-1.9-15.9C503.1,464.9,501.6,465.2,501.4,466.1L501.4,466.1z"/>
			</g>
		</g>
		<g>
			<g>
				<path class="st11" d="M508,466.4c-0.5,4.9-0.1,10-0.4,15c-0.1,2.5,3.8,2.5,3.9,0c0.2-5,0.5-10.4-0.4-15.4
					C510.7,464.1,508.1,464.7,508,466.4L508,466.4z"/>
			</g>
		</g>
		<g>
			<g>
				<path class="st11" d="M511.1,467.8c0-0.1,0.1-0.1,0.1-0.2c-0.3,0.2-0.5,0.4-0.8,0.6c1.3-0.5,3.9,0,4.1,1.6c0.2,1.7-3,1.8-4,2.1
					c-1.8,0.5-1.7,3,0,3.5c3.9,1.3,9.3-3.1,7.4-7.2c-1-2-2.4-2.9-4.5-3.2c-1.7-0.2-3.9-0.1-4.6,1.7
					C508.1,468.2,510.4,469.2,511.1,467.8L511.1,467.8z"/>
			</g>
		</g>
		<g>
			<g>
				<path class="st11" d="M514.7,473.9C514.7,473.9,514.7,473.8,514.7,473.9c-0.2,0.6-0.3,1.1-0.5,1.7c0,0,0,0,0,0
					c-0.6-0.5-1.3-1-1.9-1.5c-0.2,1.4,0.4,2.7,0.8,4c0.5,1.5,0.8,3.1,1.5,4.5c1,2,3.8,0.5,3.4-1.4c-0.3-1.7-1.2-3.4-1.9-5
					c-0.4-1-1.1-3.1-2.5-3c-0.6,0.1-1.1,0.4-1.3,1c0,0,0,0,0,0.1c-0.2,0.7,0.3,1.3,0.9,1.6c0,0,0,0,0,0
					C514.4,476.2,515.3,474.8,514.7,473.9L514.7,473.9z"/>
			</g>
		</g>
		<g>
			<g>
				<path class="st11" d="M529.1,465.6c-2.1-1.1-7.1-1.9-8,1c-0.6,1.7-0.2,4.4-0.2,6.3c0,2.6-0.1,5.2-0.1,7.8c0,1,0.9,1.9,1.9,1.9
					c2.1,0,4.1,0,6.2,0.1c2.4,0,2.4-3.8,0-3.8c-2.1,0-4.1,0-6.2,0c0.6,0.6,1.3,1.3,1.9,1.9c0.1-3,0.1-6,0.2-8.9c0-0.7,0-1.5,0-2.2
					c-0.4-0.9-0.1-1.3,0.7-1.2c0.7-0.4,2.4-0.2,3.3-0.4C529.8,467.5,530.1,466.1,529.1,465.6L529.1,465.6z"/>
			</g>
		</g>
		<g>
			<g>
				<path class="st11" d="M523.1,475.4c0.6,0.1,1.2,0.2,1.9,0.3c0.6,0.1,1.2,0.1,1.8,0.2c1.1,0.2,2.3-0.5,2.3-1.7
					c0-1.1-1.2-2.2-2.3-1.7c-1,0.4-2.3,0.5-3.4,0.5C522,472.8,521.6,475.2,523.1,475.4L523.1,475.4z"/>
			</g>
		</g>
		<g>
			<g>
				<path class="st11" d="M543.1,470.4c0.9-3.3-2.7-6-5.8-5.1c-3.5,1-4.3,5.3-4.4,8.4c0,3.1,0.5,7.9,3.9,9.1
					c3.7,1.4,6.6-1.8,6.7-5.3c0.1-2.3-3.4-2.2-3.5,0c0.1,1.7-0.9,2.1-2.8,1.2c-0.2-0.6-0.4-1.2-0.6-1.8c-0.3-1.2-0.3-2.4-0.3-3.6
					c0.1-1.1,0.1-2.5,0.7-3.5c1.1-1.9,2.6-0.4,3.3,1C541,471.9,542.8,471.5,543.1,470.4L543.1,470.4z"/>
			</g>
		</g>
		<g>
			<g>
				<path class="st11" d="M547.7,465.9c-0.1-0.1-0.2-0.2-0.2-0.3c-1.7-2-4.1,2.1-1.5,2.6c3.2,0.6,6.6,0.3,9.9,0.1
					c2.3-0.1,2.3-3.8,0-3.6c-3.1,0.3-6.3,0.1-9.4,0.4c0.5,0.8,0.9,1.6,1.4,2.4c0.1-0.1,0.1-0.2,0.2-0.3
					C548.1,466.8,548,466.3,547.7,465.9L547.7,465.9z"/>
			</g>
		</g>
		<g>
			<g>
				<path class="st11" d="M549.7,466.9c-0.6,4.5-0.2,9.1-0.2,13.6c0,2.4,3.9,2.4,3.8,0c-0.3-4.6-0.3-9.4-1.2-14
					C551.8,465.1,549.8,465.6,549.7,466.9L549.7,466.9z"/>
			</g>
		</g>
		<g>
			<g>
				<path class="st11" d="M559.3,466.2c-0.9,2.4-0.6,5.2-0.6,7.7c0,2.1-0.6,5.1,0.2,7c0.3,0.8,0.9,1.3,1.8,1.4
					c1.6,0.1,3.7-0.5,5.2-0.8c2-0.4,1.6-3.8-0.5-3.6c-1.5,0.2-3.3,0.8-4.7,0.7c0.6,0.5,1.2,0.9,1.8,1.4c-0.4-1-0.1-2.8-0.1-3.9
					c0-1.2-0.1-2.5-0.1-3.7c-0.1-2.2,0-4.4-0.9-6.4C560.9,464.9,559.6,465.4,559.3,466.2L559.3,466.2z"/>
			</g>
		</g>
		<g>
			<g>
				<path class="st11" d="M566.5,466.6c0.4,1.2,1,2.5,1.5,3.6c0.6,1.3,1.4,2.3,2,3.7c0.8,2.1,4.1,1.3,3.5-1
					c-0.4-1.6-1.5-2.8-2.5-4.1c-0.9-1.3-1.3-2.8-2.8-3.5C567.4,464.9,566.1,465.5,566.5,466.6L566.5,466.6z"/>
			</g>
		</g>
		<g>
			<g>
				<path class="st11" d="M575.7,465.6c-1.5,2.3-3.5,4.5-4.4,7.1c-0.8,2.6-0.6,5.7-0.7,8.4c-0.1,2.4,3.7,2.4,3.8,0
					c0.1-2.5-0.2-5.4,0.6-7.8c0.7-2.2,1.9-4.5,3-6.5C578.9,465.5,576.7,464.2,575.7,465.6L575.7,465.6z"/>
			</g>
		</g>
	</g>
</g>
<g id="Layer_3">
</g>
</svg>
