<?xml version="1.0" encoding="utf-8"?>
<!-- Generator: Adobe Illustrator 19.1.0, SVG Export Plug-In . SVG Version: 6.00 Build 0)  -->
<svg version="1.1" xmlns="http://www.w3.org/2000/svg" xmlns:xlink="http://www.w3.org/1999/xlink" x="0px" y="0px" width="800px"
	 height="265px" viewBox="0 0 800 265" style="enable-background:new 0 0 800 265;" xml:space="preserve">
<style type="text/css">
	.st0{fill:#FFFFFF;}
	.st1{opacity:0.5;fill:#C6C6C6;}
	.st2{opacity:0.5;fill:#864C9E;}
	.st3{opacity:0.2;}
	.st4{fill:#8E8E8E;}
	.st5{opacity:0.2;fill:#8E8E8E;}
	.st6{fill:#5A326D;}
	.st7{opacity:0.2;fill:#5A326D;}
	.st8{opacity:0.5;fill:#C9BEA9;}
	.st9{opacity:0.3;fill:#998565;}
	.st10{opacity:0.5;fill:#DFB945;}
	.st11{fill:#1E1E1E;}
	.st12{fill:#C91F4C;}
	.st13{fill:none;stroke:#1E1E1E;stroke-width:3;stroke-miterlimit:10;}
	.st14{fill:none;stroke:#1E1E1E;stroke-width:3;stroke-miterlimit:10;stroke-dasharray:9.9863,9.9863;}
	.st15{fill:#79A845;}
	.st16{fill:#40A6DD;}
	.st17{fill:#80D3F2;}
	.st18{fill:none;stroke:#1E1E1E;stroke-width:3;stroke-miterlimit:10;stroke-dasharray:10.0229,10.0229;}
</style>
<g id="Layer_2">
	<rect class="st0" width="800" height="265"/>
</g>
<g id="Layer_7">
</g>
<g id="Layer_5">
</g>
<g id="Layer_1">
</g>
<g id="Layer_6">
	<path class="st8" d="M296.4,79.7c-0.8-1.7-1.8-3.3-2.8-4.7c0.2-4.5-2.2-8-7.5-8.1c-0.6,0-1.2,0-1.8,0.1c-3.5-1.8-7.6-2.8-12-3.1
		c-10.5-0.7-21.2-0.5-31.7-0.5c-2.2-0.1-4.4-0.1-6.6,0c-0.6,0-1.1,0.1-1.6,0.2c-0.3-0.3-0.6-0.5-0.9-0.7c-2.1-1.4-5.2,0.2-6.8,1.7
		c-2.2,2.1-3.9,4.5-4.8,7.2c-0.1,0.1-0.2,0.2-0.2,0.3c-10.3,13.7-11,31.2-8.7,47.6c0.6,4.2,1.4,8.2,2.4,12.3
		c-1.3,5.5,0.5,11.6,4.2,16.7c2.4,6.4,5.5,12.5,9.3,18.3c2.5,3.8,7.7,0.1,9.6-2.3c0.6-0.8,1.2-1.6,1.7-2.5c0.5,0.1,0.9,0.3,1.4,0.4
		c0.5,1.1,1.5,1.9,3,1.9c2.2,0.1,4.4,0.2,6.7,0.1c1.4,0.2,2.9,0.5,4.3,0.7c1.4,0.2,2.7-0.2,3.9-1c2.5-0.2,5.1-0.4,7.6-0.7
		c0.6,0.7,1.5,1.3,2.6,1.6c8,2.1,15.8,0.8,23.2-2.7c4.5-2.1,9.2-10.7,5.9-15.3c0.3-1.4,0.8-3,1.2-4.4c0.7-3,1.4-6.1,1.9-9.1
		c1.2-6.2,2-12.4,2.4-18.7C302.9,103.1,301.6,90.5,296.4,79.7z M229.3,81.6c0-0.1,0-0.2,0-0.3c0.1,0,0.3,0,0.4,0
		C229.6,81.4,229.4,81.5,229.3,81.6z M295.6,145.6c0,0.2,0.1,0.3,0.1,0.5c-0.1,0-0.1-0.1-0.2-0.1
		C295.5,145.8,295.5,145.7,295.6,145.6z"/>
	<path class="st8" d="M409.8,110.8c0.9-2.4,1.8-7.7-1.3-9c-1.1-0.5-2.3-0.9-3.4-1.3c2.3-3.6,3.2-8,0.8-10.3
		c-4.7-4.5-6-10.9-9.1-16.4c-4.2-7.3-11-9-19-9.2c-9.4-0.2-18.9-0.4-28.3-0.6c-2.8-0.1-5.6-0.1-8.3,0.2c-0.5-1.4-1.6-2.4-3.4-2.8
		c-6-1.2-9.9,4.6-12.5,10.8c-2.1,2.8-4,6.7-3.2,9.9c-0.1,0.5-0.3,1-0.4,1.4c-2.4,9.1-3.2,18.6-3.2,27.9
		c-0.1,16.7,1.6,35.5,11.9,49.4c5.7,7.7,14.6,6.2,23.2,6.3c9.7,0.1,19.6,0.7,29.2-0.2c9.7-0.9,18.8-5.9,22.4-15.4
		c1.6-4.4,1.3-8.5-0.6-11.7c3.3-3.1,5.4-8.3,4.2-12.1c-1.3-3.9-3.5-6.7-6.3-8.7C405.9,117.4,408.5,114.1,409.8,110.8z M349.3,148.9
		c-2.5-0.1-4-0.5-5.3-1.5c1,0.1,2.1,0.2,3.1,0.3c5.4,0.5,10.9,0.9,16.3,1.3C358.7,149.1,354,149.1,349.3,148.9z"/>
	<path class="st8" d="M502.8,83.4c-4.1-9.8-9.2-18.4-20.5-19.8c-12.4-1.6-25-1.9-37.5-2.4c-1,0-2,0.2-2.9,0.6
		c-3.2-1.8-8.6,4.1-9.7,6c-7.9,12.2-10.6,27.2-9.9,41.7c-2.7,7.6-3.4,15-0.4,23c0.3,0.9,0.7,1.7,1,2.6c0.1,5.9,1,11.8,3.8,17.1
		c3,5.8,10.4,14.7,17.4,14.7c0.6,0,1.2-0.1,1.7-0.3c3.8,1.1,8.5,0.4,12.3,0.3c5.2-0.1,10.3-0.2,15.5-0.3c5.2-0.1,11.1,0.6,16.2-0.5
		c9.8-2.2,12.5-17.4,14.7-25.5C509.5,122.2,510.4,101.4,502.8,83.4z M462.7,84.1c-0.1-1.3-0.3-2.5-0.4-3.8c0.6,0,1.1,0.1,1.7,0.1
		C463.3,81.7,462.9,83,462.7,84.1z"/>
</g>
<g id="Layer_3">
	<path class="st9" d="M440.6,62c-6.9-4-16.7,12.8-9.8,16.9c11.5,6.8,18.1,19.3,19.8,32.4c1.1,8.3,0.3,16.6-1.1,24.8
		c-0.7,3.8-1.5,7.6-2.4,11.3c-2.6-1.7-7.1,1.7-8.6,3.5c-2.8,3.4-4.6,8.4-2.5,12.4c2.5,4.7,8,5.5,12.5,3.2c4.9-2.6,8.2-8.2,9.8-13.3
		c3.8-11.8,6.1-24.8,6.7-37.2C466.1,95.4,459.2,72.9,440.6,62z"/>
	<path class="st9" d="M362,110c-1-9.9-2.2-21.1-6.1-30.3c-1.9-4.5-4.8-7.9-8.9-10.5c-2.8-1.8-6.3-2.9-9.1-4.7
		c-0.9-1.8-2.6-2.9-4.8-2.2c-0.1,0-0.2,0.1-0.4,0.1c-5.6,1.7-9.8,8.9-8.4,14.6c1.4,5.9,11.3,7.1,15.3,10.8c5.2,4.8,5.9,14.1,7,20.7
		c1.4,8.1,2.2,16.3,1.8,24.5c-0.2,3.9-0.6,11.7-2.8,15.9c-1.5,0.8-2.9,2-3.8,3.1c-0.1,0.1-0.2,0.2-0.3,0.4c-2.5,3-5,8.7-2.5,12.4
		c0.1,0.2,0.2,0.3,0.3,0.5c1,1.5,2.8,1.7,4.4,1.4c9.2-1.8,14.3-16.4,16.3-24.2C362.7,131.9,363,120.7,362,110z"/>
	<path class="st9" d="M257.2,103.2c-0.9-9.6-4.5-17.7-10.1-25.5c-3.8-5.4-12.4-16.6-20.1-15c-5,1.1-8.9,7.9-8.7,12.7
		c0,0.1,0,0.1,0,0.2c0.1,2.8,1.6,4.6,3.8,4.8c11,5.8,20.1,19.2,21.1,31.5c1,12.2,1.3,28.2-6.2,38.7c-2.2,3.1-5.3,8.8-2.5,12.4
		c2.7,3.5,7.7,0.4,9.6-2.3C256.2,144.1,259.1,123.3,257.2,103.2z"/>
	<path class="st10" d="M754.7,96.5c-1.9-7.3-4.7-14.9-10.1-20.3c-6.4-6.5-15.3-10.6-23.4-14.3c-8.4-3.7-17.1-6.1-26.2-7
		c-18-1.9-38.1-1.9-55.4,4.2c-1.6,0.6-3.2,1.2-4.7,1.8c-8.9,0.9-17.7,2.5-26.3,5.2c-4.1,1.3-7.2,5.1-8.5,9.1
		c-0.2-0.1-0.4-0.1-0.6-0.2c-4.1-1.5-7.7,1.6-9.9,4.8c-0.5,0.7-1,1.6-1.5,2.7c-0.5,0.4-1,0.7-1.5,1.1c-4.1,3.3-7.5,8.6-7.5,14
		c0,1.6,0.3,2.9,0.8,4c-6.5,2.2-13.1,13.9-6.7,18.3c3.3,2.3,6.8,4.2,10.4,5.8c-2.3,3.9-3.2,8.5-0.9,11.1
		c13.4,15.1,31.5,24,50.9,28.7c10.6,2.6,21.5,3.8,32.3,4.5c10.8,0.7,21.4,0.4,31.3-4.6c2.7-1.3,4.9-4.1,6.2-7.1
		c3.1,0.1,6.1,0.2,9.2,0.2c4.5,0,7.9-4,9.7-7.7c0.6-1.3,1.4-3.8,1.5-6.1c4.6-0.2,9.2-0.5,13.7-0.8c6-0.4,13.4-9.4,11.1-15.8
		c3.8-2.9,7-8.3,6.4-12.5C757.6,109.9,756.4,102.9,754.7,96.5z M678.4,83.3c8.7,1.9,17.1,4.6,24.8,9.1c-6.8-2.5-13.5-5.1-20.3-7.5
		C681.3,84.3,679.9,83.8,678.4,83.3z"/>
	<g>
		<g>
			<path class="st11" d="M225.1,63.9c-14.7,7.6-17,28.9-17.5,43.5c-0.7,16.4,1.4,37,11.3,50.8c4.2,5.8,10.3,10.6,17.8,9.4
				c6.7-1,11.5-5.6,14.1-11.6c7.4-17,7.9-37.3,6.5-55.4c-1.3-17.6-9.7-37.1-30.1-37.4c-2.5,0-2.5,3.8,0,3.9
				c17.3,0.2,24.8,16.9,26.2,31.8c1.4,15.4,1,31.3-3,46.3c-1.6,6.1-3.3,13.4-9.1,16.9c-8.6,5.1-16.3-0.9-20.7-8.2
				c-7.1-11.8-9.2-27.5-9.4-40.9c-0.1-9.4,0.9-18.9,3.2-28c1.9-7.6,5.1-14.9,11.9-19.3C227.3,65,226.3,63.2,225.1,63.9L225.1,63.9z"
				/>
		</g>
	</g>
	<g>
		<g>
			<path class="st11" d="M227.2,66.6c11.5,0.3,23.1,0.7,34.6,1c4.1,0.1,8.2,0.2,12.3,0.4c2,0.1,4.1-0.1,6.1,0.3
				c4.1,0.8,5.8,3.3,7.8,6.6c4.9,7.8,8.1,16.6,9.9,25.6c3.7,18,2.3,38.6-5.4,55.4c-2.6,5.7-7.3,7.5-13.1,7.6
				c-4.6,0-9.1,0.1-13.7,0.1c-9.4,0.1-18.8,0.2-28.2,0.3c-2.5,0-2.5,3.9,0,3.9c9.6-0.1,19.1-0.2,28.7-0.3c8.7-0.1,21.8,2,27.7-6.1
				c5.3-7.3,7.3-18.3,8.6-27c1.4-9.6,1.5-19.3,0.2-28.8c-1.3-9.5-4.1-18.8-8.5-27.4c-1.9-3.7-4.1-8-7.2-10.8
				c-3.1-2.8-6.9-2.9-10.9-3c-16.3-0.4-32.6-0.5-48.9-0.5C225.4,63.8,225.4,66.5,227.2,66.6L227.2,66.6z"/>
		</g>
	</g>
	<g>
		<g>
			<path class="st11" d="M331.6,63.9c-6.9,3.7-9.9,11.2-11.9,18.3c-2.8,10.1-4.1,20.2-3.7,30.7c0.4,10.5,2,21.2,4,31.4
				c1.7,8.5,5.6,17.3,13.5,21.7c6.8,3.8,15.2,1.4,20.3-4.1c4.1-4.4,5.9-10.8,7.2-16.5c3.2-14,4-29.3,2.8-43.6
				c-0.8-9.5-3.3-20-8.6-28c-5-7.5-12.8-10.6-21.5-10.5c-2.5,0-2.5,3.9,0,3.9c30.6-0.1,28.1,45.5,25.6,66.7
				c-1.3,10.6-3.7,29.3-17.6,30.4c-10.2,0.8-15.9-11-17.8-19.3c-1.9-8.3-3.1-17.1-3.9-25.6c-1-10.4-0.8-20.9,1.6-31.2
				c1.8-8,3.8-17.5,11.1-22.3C333.8,65,332.8,63.2,331.6,63.9L331.6,63.9z"/>
		</g>
	</g>
	<g>
		<g>
			<path class="st11" d="M333.7,66.6c11.9-0.1,23.8,0,35.7,0.2c8.4,0.1,19.5-1.5,24.3,6.9c4.9,8.5,7.6,18.4,9.1,28
				c1.4,9.6,1.5,19.3,0.7,28.9c-0.4,4.6-1,9.3-1.8,13.9c-0.8,4.7-1.2,10.6-4.7,14.1c-6.9,6.9-16.2,5-25.1,5.1
				c-9.2,0.1-18.5,0.2-27.7,0.3c-2.5,0-2.5,3.9,0,3.9c9.2-0.1,18.5-0.2,27.7-0.3c5-0.1,10.1,0,15.1-0.2c4.6-0.1,8.2-2.3,11.7-5.2
				c6.7-5.6,6.9-16.3,8-24.4c1.4-10.5,1.8-21.2,0.6-31.8c-1.1-9.8-3.4-19.4-7.4-28.5c-3.6-8.2-7.6-13.2-16.9-14.2
				c-10.5-1.1-21.5-0.3-32-0.1c-5.7,0.1-11.5,0.3-17.2,0.5C331.9,63.8,331.8,66.6,333.7,66.6L333.7,66.6z"/>
		</g>
	</g>
	<g>
		<g>
			<path class="st11" d="M435.9,63.8c-7.4,4.1-11,11.7-13.1,19.6c-2.8,10.5-4,21.6-3.6,32.4c0.3,9.6,1.6,19.4,4.3,28.6
				c2.3,7.6,5.8,16,12.6,20.7c6.7,4.7,15.7,2.6,20.7-3.7c4.8-6.2,6.4-15.6,7.7-23.1c2.8-15.5,3.8-33-0.5-48.4
				c-3.5-12.8-11.4-26.1-26.1-26.7c-2.5-0.1-2.5,3.7,0,3.9c24.1,1,25.4,36.3,24.7,53.4c-0.4,8.9-1.6,17.7-3.9,26.4
				c-2,7.7-5.8,18.6-16,17c-8.4-1.3-12.9-12-15.1-19c-2.3-7.3-3.7-14.9-4.3-22.5c-1-10.7-0.5-21.5,1.5-32.1
				c1.7-9.1,4.3-19,12.3-24.6C438.1,64.9,437.1,63.1,435.9,63.8L435.9,63.8z"/>
		</g>
	</g>
	<g>
		<g>
			<path class="st11" d="M438.8,66.6c11.7,0.4,23.4,0.8,35.1,1.1c8.5,0.3,18.9-0.6,23,8.3c4.1,8.7,7,18,8.5,27.5
				c2.9,17.7,0.8,36.6-7.1,52.9c-2,4-4.5,6.3-9.1,6.9c-1,0.1-1.9,0.1-2.9,0.1c-4,0-8,0.1-12,0.1c-8.4,0.1-16.8,0.2-25.2,0.3
				c-2.5,0-2.5,3.9,0,3.9c8.6-0.1,17.1-0.2,25.7-0.3c7.8-0.1,19.8,1.8,25-5.7c4.7-6.8,7.2-16.3,8.9-24.2c2-9.7,2.4-19.7,1.3-29.5
				c-1.1-9.9-3.6-19.6-7.4-28.8c-1.4-3.4-2.7-7.7-5.5-10.2c-2.3-2-6-3.6-9-4.4c-4.7-1.2-10.1-0.6-15-0.7c-5.4-0.1-10.7-0.2-16.1-0.2
				c-6-0.1-12.1-0.1-18.1-0.1C437,63.8,437,66.5,438.8,66.6L438.8,66.6z"/>
		</g>
	</g>
	<g>
		<g>
			<g>
				<path class="st11" d="M61.8,105.4c0,4.9,0.1,9.8-0.2,14.7c-0.1,2.4,3.5,2.4,3.7,0c0.4-5,0.4-10.2-0.4-15.2
					C64.7,103.1,61.8,103.6,61.8,105.4L61.8,105.4z"/>
			</g>
		</g>
		<g>
			<g>
				<path class="st11" d="M64.9,107.4c6.2-1.4,5.6,12.2,0.4,10.8c-2.1-0.6-3.5,2.5-1.5,3.5c6,3,9.4-4.1,9.3-9c0-2.6-0.7-5.4-2.8-7.2
					c-1.9-1.5-4.4-1.9-6.4-0.5C62.6,105.8,63.3,107.7,64.9,107.4L64.9,107.4z"/>
			</g>
		</g>
		<g>
			<g>
				<path class="st11" d="M76,104.8c-1.2,2.2-0.7,4.9-0.7,7.4c0,2.8-0.3,5.7,0.2,8.5c0.3,1.7,3,1.6,3.4,0c0.6-2.8,0.2-5.7,0.1-8.5
					c-0.1-2.4,0.2-5.3-1.1-7.4C77.4,104.2,76.4,104.1,76,104.8L76,104.8z"/>
			</g>
		</g>
		<g>
			<g>
				<path class="st11" d="M91.7,107c-1.9-3.8-8-4.7-9.6,0c-0.7,2,0,4.1,1.3,5.7c0.9,1.1,2.1,1.9,3.2,2.8c0.4,0.3,2,1.3,2,1.8
					c0,1.5-2.7,1.5-3.1,0.2c-0.5-1.7-2.8-1.6-3.4,0c-2.1,5.7,7.6,6.2,10,2.4c1.4-2.1,0.3-4.5-1.3-6.1c-1.1-1.1-2.6-1.9-3.6-3
					c-0.5-0.4-0.9-1-1.2-1.6c0.3-0.5,0.6-1,0.9-1.5c0.8-0.3,2.2,0.9,2.8,1.3C90.9,110,92.3,108.2,91.7,107L91.7,107z"/>
			</g>
		</g>
		<g>
			<g>
				<path class="st11" d="M95.7,105.5c-0.6,4.9-1,10.6-0.5,15.5c0.2,2.4,3.5,2.4,3.8,0c0.6-4.9,0.4-10.6-0.1-15.5
					C98.6,103.5,96,103.5,95.7,105.5L95.7,105.5z"/>
			</g>
		</g>
		<g>
			<g>
				<path class="st11" d="M97.3,107.3c1.1-0.1,2.3,0,3.4,0.3c1.2,0.4,1.6,0.8,1.8,2.1c0.4,2-2.4,2.1-3.8,1.9
					c-2.5-0.4-3.6,3.1-1.1,3.9c3.8,1.2,9.6-1.1,8.9-5.7c-0.3-2-1.1-3.9-3-4.8c-2-1-4.5-0.8-6.6-0.4
					C95.4,104.9,95.7,107.4,97.3,107.3L97.3,107.3z"/>
			</g>
		</g>
		<g>
			<g>
				<path class="st11" d="M109.6,121c2-4.8,3.3-9.9,5.3-14.7c-1.2,0-2.4,0-3.6,0c1.6,4.6,3.2,9.3,4.4,14.1c0.6,2.5,4.7,1.4,3.9-1.1
					c-1.6-4.6-3.1-9.3-4.7-14c-0.7-1.9-2.9-1.7-3.6,0c-2,4.8-4,10.1-4.4,15.4C106.8,122.4,109.1,122.3,109.6,121L109.6,121z"/>
			</g>
		</g>
		<g>
			<g>
				<path class="st11" d="M110.7,118c0.8,0.1,1.6,0,2.3,0c0.9,0,1.8,0,2.6-0.5c1.2-0.7,1.1-2.8-0.4-3.1c-0.9-0.2-1.7,0.1-2.6,0.3
					c-0.8,0.2-1.5,0.2-2.3,0.4c-0.7,0.2-1.2,0.9-1,1.6C109.4,117.5,109.9,117.9,110.7,118L110.7,118z"/>
			</g>
		</g>
		<g>
			<g>
				<path class="st11" d="M119,107.3c3,0.3,6.2,0.4,9.2,0.3c2.5-0.1,2.5-3.8,0-3.9c-3.1-0.1-6.5,0.2-9.6,0.8
					C116.9,104.9,117.5,107.1,119,107.3L119,107.3z"/>
			</g>
		</g>
		<g>
			<g>
				<path class="st11" d="M123.5,106c-1.2,4.6-0.2,9.4-0.6,14.1c0.9-0.7,1.7-1.3,2.6-2c0,0-0.1,0-0.1,0c0.5,0.8,0.9,1.6,1.4,2.5
					c0,0,0,0,0-0.1c0.4-1.3-0.6-2.3-1.9-2.5c0,0,0,0-0.1,0c-1.1-0.1-1.9,1-2,2c0,0,0,0.1,0,0.1c-0.1,1.8,2.4,2.7,3.5,1.5
					c1.5-1.6,0.6-4.5,0.4-6.5c-0.3-2.9-0.4-5.7-0.5-8.6C126.3,104.7,124,104.3,123.5,106L123.5,106z"/>
			</g>
		</g>
		<g>
			<g>
				<path class="st11" d="M141.9,108.9c-0.1-3-3-4.9-5.8-4.6c-3.6,0.3-4.5,4.2-4.7,7.3c-0.2,3.2,0.2,8,3.3,9.9
					c3.1,1.8,5.9-0.6,7.1-3.4c1-2.2-2.2-4.1-3.2-1.9c-0.8,1.8-1.9,3.1-3,0.4c-0.5-1.2-0.5-2.8-0.5-4.1c0-1,0-4.4,1.7-4.5
					c1.2-0.1,2,1.3,2.7,2C140.3,110.7,141.9,110.1,141.9,108.9L141.9,108.9z"/>
			</g>
		</g>
		<g>
			<g>
				<path class="st11" d="M145.8,104.8c-0.7,5,0,10.6,0.4,15.6c0.2,2.5,4.2,2.6,4,0c-0.3-5.2-0.5-11-1.9-16
					C147.9,103,146,103.5,145.8,104.8L145.8,104.8z"/>
			</g>
		</g>
		<g>
			<g>
				<path class="st11" d="M148.2,114.6c2.2,0,4.5-0.1,6.7,0.2c2.7,0.3,2.5-4.6-0.5-3.9c-2,0.5-4.1,0.6-6.1,0.9
					C146.4,112,146.3,114.6,148.2,114.6L148.2,114.6z"/>
			</g>
		</g>
		<g>
			<g>
				<path class="st11" d="M154.1,104.6c-0.7,2.6-0.4,5.4-0.3,8c0,2.7,0,5.5,0.6,8.2c0.5,2.2,3.7,1.6,3.8-0.5
					c0.2-2.7-0.3-5.5-0.6-8.2c-0.2-2.5-0.1-5.1-0.9-7.4C156.3,103.3,154.5,103.2,154.1,104.6L154.1,104.6z"/>
			</g>
		</g>
	</g>
	<g>
		<g>
			<g>
				<path class="st11" d="M270.9,104.5c-1,6.8-0.5,13.9-0.5,20.8c0,3,4.7,3,4.7,0c0-6.8,0.4-14-0.5-20.8
					C274.3,102.7,271.2,102.7,270.9,104.5L270.9,104.5z"/>
			</g>
		</g>
		<g>
			<g>
				<path class="st11" d="M273.9,107.4c2-0.1,5.6,0.2,6.2,2.6c0.5,1.9-3,3.5-4.5,3.2c-3-0.5-4.3,4.2-1.3,4.6
					c4.4,0.7,10.8-2.4,10.5-7.6c-0.4-5.7-6.7-7.5-11.4-6.3C271.5,104.4,271.9,107.5,273.9,107.4L273.9,107.4z"/>
			</g>
		</g>
		<g>
			<g>
				<path class="st11" d="M276.3,117.2c0.9,3.3,2.2,6.9,3.9,9.8c1.3,2.2,5.4,0.7,4.4-1.8c-1.3-3.3-3.1-6.4-5.1-9.3
					C278.3,114.3,275.8,115.2,276.3,117.2L276.3,117.2z"/>
			</g>
		</g>
	</g>
	<g>
		<g>
			<g>
				<path class="st11" d="M376,104.5c-1,6.8-0.5,13.9-0.5,20.8c0,3,4.7,3,4.7,0c0-6.8,0.4-14-0.5-20.8
					C379.4,102.7,376.3,102.7,376,104.5L376,104.5z"/>
			</g>
		</g>
		<g>
			<g>
				<path class="st11" d="M379,107.4c2-0.1,5.6,0.2,6.2,2.6c0.5,1.9-3,3.5-4.5,3.2c-3-0.5-4.3,4.2-1.3,4.6
					c4.4,0.7,10.8-2.4,10.5-7.6c-0.4-5.7-6.7-7.5-11.4-6.3C376.6,104.4,377,107.5,379,107.4L379,107.4z"/>
			</g>
		</g>
		<g>
			<g>
				<path class="st11" d="M381.4,117.2c0.9,3.3,2.2,6.9,3.9,9.8c1.3,2.2,5.4,0.7,4.4-1.8c-1.3-3.3-3.1-6.4-5.1-9.3
					C383.5,114.3,380.9,115.2,381.4,117.2L381.4,117.2z"/>
			</g>
		</g>
	</g>
	<g>
		<g>
			<g>
				<path class="st11" d="M479.2,104.5c-1,6.8-0.5,13.9-0.5,20.8c0,3,4.7,3,4.7,0c0-6.8,0.4-14-0.5-20.8
					C482.6,102.7,479.5,102.7,479.2,104.5L479.2,104.5z"/>
			</g>
		</g>
		<g>
			<g>
				<path class="st11" d="M482.2,107.4c2-0.1,5.6,0.2,6.2,2.6c0.5,1.9-3,3.5-4.5,3.2c-3-0.5-4.3,4.2-1.3,4.6
					c4.4,0.7,10.8-2.4,10.5-7.6c-0.4-5.7-6.7-7.5-11.4-6.3C479.8,104.4,480.1,107.5,482.2,107.4L482.2,107.4z"/>
			</g>
		</g>
		<g>
			<g>
				<path class="st11" d="M484.6,117.2c0.9,3.3,2.2,6.9,3.9,9.8c1.3,2.2,5.4,0.7,4.4-1.8c-1.3-3.3-3.1-6.4-5.1-9.3
					C486.6,114.3,484,115.2,484.6,117.2L484.6,117.2z"/>
			</g>
		</g>
	</g>
	<g>
		<g>
			<g>
				<path class="st11" d="M613.8,104.7c-0.6,2.2-0.4,4.5-0.3,6.8c0.1,2.5,0.1,5,0.2,7.4c0.1,2.7,4.3,2.7,4.1,0
					c-0.1-2.5-0.3-5-0.4-7.4c-0.1-2.2-0.1-4.6-0.8-6.8C616.1,103.5,614.2,103.3,613.8,104.7L613.8,104.7z"/>
			</g>
		</g>
		<g>
			<g>
				<path class="st11" d="M614.8,105.3c1.3,5.2,4,10.2,6.1,15.1c1.1,2.6,5.3,0.4,3.9-2.3c-2.3-4.6-4.5-9.7-7.5-13.9
					C616.4,103,614.4,103.7,614.8,105.3L614.8,105.3z"/>
			</g>
		</g>
		<g>
			<g>
				<path class="st11" d="M622,105c-0.6,4.4-0.4,8.9-0.3,13.4c0.1,2.8,4.6,2.8,4.4,0c-0.3-4.5-0.4-9-1.4-13.4
					C624.4,103.7,622.2,103.6,622,105L622,105z"/>
			</g>
		</g>
		<g>
			<g>
				<path class="st11" d="M636.6,103.5c-2.1-0.3-6.9-0.4-8.5,1.2c-0.8,0.8-0.6,1.9-0.6,3c0.1,2.1,0.2,4.3,0.4,6.4
					c0.1,2.2-0.6,6.5,1.8,7.7c2.2,1.1,6.2-0.6,8.3-1.5c2.2-1,0.5-4-1.5-3.6c-1.1,0.2-2.9,0.4-3.9,0.9c-1.2,0-1.3,0.2-0.3,0.6
					c0-0.8-0.1-1.6-0.1-2.3c-0.1-1.6-0.2-3.1-0.2-4.7c-0.1-1.3-0.5-3.1-0.3-4.4c-0.3,0.4-0.7,0.9-1,1.3c2-0.8,4.3-0.6,6.3-1.6
					C638.1,105.8,638,103.6,636.6,103.5L636.6,103.5z"/>
			</g>
		</g>
		<g>
			<g>
				<path class="st11" d="M631.2,113.9c1.3,0,2.6-0.1,3.9-0.3c1-0.2,1.6-1.5,1.4-2.4c-0.3-1-1.4-1.7-2.4-1.4
					c-1.1,0.3-2.2,0.5-3.3,0.7c-0.8,0.1-1.4,1.1-1.2,1.9C629.6,113.3,630.3,113.9,631.2,113.9L631.2,113.9z"/>
			</g>
		</g>
		<g>
			<g>
				<path class="st11" d="M639.7,104.8c0.1,4.7,1.4,10.1,2.7,14.6c0.7,2.5,4.3,1.4,3.9-1.1c-0.9-4.6-2.2-10-4.3-14.2
					C641.5,103.1,639.7,103.6,639.7,104.8L639.7,104.8z"/>
			</g>
		</g>
		<g>
			<g>
				<path class="st11" d="M647.2,104c-2.7,4.1-4.6,10-4.9,14.8c-0.1,2.2,3,2.4,3.7,0.5c0.7-2.3,1.1-4.8,1.7-7.2
					c0.6-2.4,1.5-4.7,2-7.1C650.1,103.5,648.1,102.6,647.2,104L647.2,104z"/>
			</g>
		</g>
		<g>
			<g>
				<path class="st11" d="M649.5,106c0.1-0.1,0.1-0.1,0.2-0.2c-0.8-0.3-1.7-0.7-2.5-1c0.3,4.9,3,9.3,3.8,14.1
					c0.2,1.1,1.6,1.8,2.6,1.5c0,0,0,0,0,0c1.4-0.4,1.8-1.9,1.3-3.1c0,0,0-0.1,0-0.1c-0.8-1.8-3.3-1-3.8,0.5c0,0,0,0.1,0,0.1
					c0.7-0.5,1.4-1,2.1-1.6c0,0,0,0,0,0c0.7,0.5,1.4,1,2.1,1.6c-1-4.7-3.1-9.4-5.2-13.7c-0.9-1.8-3.8,0.1-2.3,1.8
					c0.1,0.1,0.1,0.1,0.2,0.2C648.2,106.4,649,106.4,649.5,106L649.5,106z"/>
			</g>
		</g>
		<g>
			<g>
				<path class="st11" d="M655.4,103.9c-2.2,4-2.9,9.2-4,13.6c-0.7,2.6,3.2,3.7,4.1,1.1c0.8-2.2,1.1-4.7,1.6-7c0.4-2.3,1.1-4.7,1-7
					C657.9,103.2,656.1,102.6,655.4,103.9L655.4,103.9z"/>
			</g>
		</g>
		<g>
			<g>
				<path class="st11" d="M676.5,106.8c-2.1-3-8.8-4.3-9.6,0.5c-0.4,2.3,1.5,4,3.2,5.2c1.1,0.8,2.8,1.4,3.2,2.7
					c0.2,0.8-0.6,2.5-1.6,2.2c-0.7-0.2-1.1-1.2-1.5-1.8c-1.3-2.1-4.4-0.3-3.3,1.9c1,2.1,2.8,4,5.3,3.7c2.2-0.3,4.2-1.9,4.9-3.9
					c0.8-2.3,0.1-4.5-1.8-6c-0.9-0.7-2-1.2-2.9-1.9c-0.9-0.6-2.7-1.5-0.5-1.6c1-0.1,1.9,0.4,2.8,0.9
					C675.8,109.2,677.3,107.9,676.5,106.8L676.5,106.8z"/>
			</g>
		</g>
		<g>
			<g>
				<path class="st11" d="M680,106.9c3.1,0.8,6.8,1,10,0.5c2.3-0.4,1.6-3.8-0.5-3.9c-3-0.1-6,0-9,0.1
					C678.5,103.6,678.1,106.4,680,106.9L680,106.9z"/>
			</g>
		</g>
		<g>
			<g>
				<path class="st11" d="M683,106.5c-0.2,2-0.2,4-0.2,6c0,1.8,0.4,4-0.1,5.7c-0.7,2.6,3.3,3.7,4,1.1c0.5-2.1,0.1-4.2-0.1-6.4
					c-0.2-2.3-0.4-4.5-0.9-6.8C685.3,104.5,683.1,105,683,106.5L683,106.5z"/>
			</g>
		</g>
		<g>
			<g>
				<path class="st11" d="M694.8,104.3c-0.8,2.4-1.1,5.1-1.6,7.6c-0.6,2.5-1.5,5.1-1.9,7.6c-0.3,1.8,2.4,3.5,3.3,1.4
					c2.1-4.6,3.4-11.6,2.5-16.6C696.9,103,695.2,103.2,694.8,104.3L694.8,104.3z"/>
			</g>
		</g>
		<g>
			<g>
				<path class="st11" d="M698,105.1c0,0,0-0.1,0-0.1c-0.4,0.4-0.9,0.9-1.3,1.3c0,0,0.1,0,0.1,0c-0.4-0.3-0.9-0.7-1.3-1
					c1.9,4.8,2.6,10.1,4.2,14.9c0.8,2.4,4.4,1.4,3.8-1c-0.8-3.2-2-6.3-3.1-9.3c-0.7-1.8-1.3-4.9-2.9-6.1c-0.5-0.3-1.2-0.2-1.6,0.2
					c-0.4,0.4-0.5,0.9-0.4,1.4C695.8,106.9,698,106.5,698,105.1L698,105.1z"/>
			</g>
		</g>
		<g>
			<g>
				<path class="st11" d="M695.7,117.3c1.3,0,2.7-0.2,4-0.2c1.2,0,2-1,1.9-2.2c-0.2-1.1-1.3-1.9-2.4-1.6c-1.3,0.4-2.6,0.6-3.9,1
					C693.7,114.8,693.9,117.3,695.7,117.3L695.7,117.3z"/>
			</g>
		</g>
		<g>
			<g>
				<path class="st11" d="M704.7,105.5c0-0.1,0-0.2,0-0.2c-0.6,0.3-1.1,0.6-1.7,1c2.9,1.2,6.8,0.8,9.9,0.7c3-0.1,2.5-4.6-0.6-4.1
					c-3,0.4-6.3,0-9.3,0.8c-1.3,0.3-1.3,2.4,0,2.6c0.1,0,0.2,0,0.3,0.1C703.9,106.4,704.5,106.2,704.7,105.5L704.7,105.5z"/>
			</g>
		</g>
		<g>
			<g>
				<path class="st11" d="M706.9,105.5c-1,4.2-0.2,9.4,0.1,13.7c0.2,2.6,4.3,2.6,4.1,0c-0.3-4.3-0.1-9.6-1.6-13.7
					C709.1,104.4,707.2,104.1,706.9,105.5L706.9,105.5z"/>
			</g>
		</g>
		<g>
			<g>
				<path class="st11" d="M715.6,104.9c-0.5,2.5-0.4,5.1-0.4,7.7c0,2.2-0.4,5,0.2,7.1c0.2,0.7,0.7,1.3,1.4,1.4c2.1,0.5,4.7,0,6.9,0
					c2.7-0.1,2.7-4.3,0-4.2c-1.7,0.1-4.2,0.6-5.8,0.3c0.5,0.5,1,1,1.4,1.4c-0.6-2-0.3-4.9-0.4-7c-0.1-2.2-0.2-4.5-0.8-6.6
					C717.8,103.7,715.8,103.6,715.6,104.9L715.6,104.9z"/>
			</g>
		</g>
		<g>
			<g>
				<path class="st11" d="M718.5,114.2c0.2,0,0.6,0,1,0c0.1,0,0.1,0,0.2,0c-0.2,0-0.1,0,0.1,0c0.2,0,0.4,0.1,0.6,0.2
					c1.1,0.4,2.3-0.5,2.5-1.6c0.2-1.2-0.8-2.1-1.9-2.2c-1.1-0.1-2.3,0.1-3.3,0.5c-0.8,0.3-1.4,1.1-1.2,2.1
					C716.7,114,717.7,114.4,718.5,114.2L718.5,114.2z"/>
			</g>
		</g>
		<g>
			<g>
				<path class="st11" d="M717,107c1.4,0.2,2.8,0.5,4.3,0.8c1.2,0.3,2.5-0.5,2.6-1.8c0.2-1.3-0.8-2.3-2.1-2.4
					c-1.7-0.1-3.5,0.1-5.2,0.5c-0.7,0.2-1.2,0.9-1.1,1.6C715.7,106.5,716.3,106.9,717,107L717,107z"/>
			</g>
		</g>
	</g>
	<g>
		<g>
			<g>
				<path class="st11" d="M46.8,135.9c-5.4-0.1-2.5,7.2-6.1,9c-1.4,0.7-0.6,2.6,0.7,2.7c2.4,0.1-0.8,8.5,3.9,9.2
					c2,0.3,2.8-2.7,0.8-3c-1.2-0.2-0.4-6-1.2-7.3c-0.8-1.3-2.1-1.6-3.5-1.7c0.2,0.9,0.5,1.8,0.7,2.7c1.2-0.7,2.2-1.4,2.7-2.6
					c0.9-1.9,0-5.5,2.3-6.3C48.5,137.9,48.3,135.9,46.8,135.9L46.8,135.9z"/>
			</g>
		</g>
		<g>
			<g>
				<path class="st11" d="M59.3,144.3c-0.9-2.3-3.4-3.7-5.8-2.7c-2.5,1.1-3,4-2.8,6.5c0.2,2.4,1.1,5.3,3.7,6c2.5,0.7,4.7-1,5.5-3.3
					c0.6-1.9-2.3-2.7-2.9-0.8c-0.4,1.2-1.8,1.9-2.7,0.6c-0.6-0.8-0.7-2.3-0.7-3.2c0-0.9,0-2,0.6-2.7c1-1.2,2.2-0.1,2.9,0.8
					C57.9,146.6,59.7,145.6,59.3,144.3L59.3,144.3z"/>
			</g>
		</g>
		<g>
			<g>
				<path class="st11" d="M63.1,141.4c-1,1.8-0.8,4.1-0.9,6.1c-0.1,1.6-0.2,3.7,0.9,5c2.4,3.1,6.4-0.1,7.6-2.6
					c0.7-1.4-1.2-3.1-2.3-1.7c-0.6,0.8-1.1,1.7-2,2.2c-1.5,0.8-1.3-1.1-1.3-2.2c0-2,0.5-4.6-0.2-6.6
					C64.6,140.9,63.5,140.7,63.1,141.4L63.1,141.4z"/>
			</g>
		</g>
		<g>
			<g>
				<path class="st11" d="M68.6,141.4c-0.5,3.6-0.1,7.5-0.2,11.1c-0.1,2.2,3.3,2.2,3.3,0c0-3.6,0.1-7.7-1.1-11.1
					C70.3,140.5,68.7,140.3,68.6,141.4L68.6,141.4z"/>
			</g>
		</g>
		<g>
			<g>
				<path class="st11" d="M74.5,141.4c-0.7,3.7-0.4,7.7-0.3,11.4c0,2,3.1,2,3.1,0c0-3.7,0.2-7.8-0.7-11.4
					C76.4,140.4,74.7,140.4,74.5,141.4L74.5,141.4z"/>
			</g>
		</g>
		<g>
			<g>
				<path class="st11" d="M79.2,141.1c-0.1,0-0.1,0-0.2,0c0.2,0,0.4,0,0.6,0c-1.1-0.2-2.2,0.4-3,1c-0.9,0.7-1.6,1.5-2,2.6
					c-0.5,1.8,2.2,3,3,1.3c0.3-0.6,0.6-1.1,1.1-1.6c0.6-0.6,1.3-1,1.7-1.8c-0.1,0.2-0.2,0.4-0.3,0.5c0.1-0.1,0.1-0.1,0.2-0.2
					C81.2,142.1,80.3,140.9,79.2,141.1L79.2,141.1z"/>
			</g>
		</g>
		<g>
			<g>
				<path class="st11" d="M82.7,141.8c-0.4,3.4-1.1,7.2-0.9,10.6c0.1,2,3.3,2,3.1,0c-0.3-3.7,0.6-7.2-0.2-10.9
					C84.4,140.4,82.8,140.8,82.7,141.8L82.7,141.8z"/>
			</g>
		</g>
		<g>
			<g>
				<path class="st11" d="M87.1,141.2c-1.2,0.3-2.6,1.2-3.4,2.2c-0.6,0.7-0.6,1.6,0.2,2.2c0.7,0.6,1.7,0.3,2.2-0.4
					c0.5-0.7,1.5-1.2,2.2-1.9C89.2,142.3,88.3,140.9,87.1,141.2L87.1,141.2z"/>
			</g>
		</g>
		<g>
			<g>
				<path class="st11" d="M91.5,147.9c2.2,0.5,4.5,0,6.6,0.2c1.9,0.2,1.9-3.1,0-2.9c-1.2,0.1-2.3,0.3-3.5,0.4c-1.2,0-2.4,0-3.4,0.6
					C90.7,146.6,90.7,147.7,91.5,147.9L91.5,147.9z"/>
			</g>
		</g>
		<g>
			<g>
				<path class="st11" d="M99.5,146.6c0.7-2.5-0.1-5.1-2.9-5.6c-2.8-0.5-5.3,1.3-5.9,4c-0.5,2.5-0.4,6.9,2.1,8.5
					c2.3,1.5,5.3,0.5,7-1.5c1.6-1.9-1.5-4-2.6-2c-0.5,1-2.2,1.8-3.1,0.7c-0.8-0.9-0.7-3.3-0.7-4.3c0.1-1.4,0.9-2.9,2.6-2.6
					c1.3,0.3,1.3,1.7,1.7,2.7C97.9,147.5,99.2,147.6,99.5,146.6L99.5,146.6z"/>
			</g>
		</g>
		<g>
			<g>
				<path class="st11" d="M102.8,141.4c-0.9,3.5-0.6,7.7-0.7,11.3c-0.1,1.9,2.9,1.9,3,0c0.2-3.6,0.6-7.8-0.3-11.3
					C104.6,140.4,103,140.4,102.8,141.4L102.8,141.4z"/>
			</g>
		</g>
		<g>
			<g>
				<path class="st11" d="M105.1,145.5c0.3-0.3,2.3-2,2.8-1.8c0.5,0.2,0.2,2.5,0.1,2.9c-0.1,2.1-0.5,4.3-0.5,6.4
					c0,2.2,3.4,2.2,3.4,0c0-2.1,0.2-4.3,0.2-6.4c0-1.5,0.2-3.5-0.8-4.8c-2.2-2.7-5.5,0.6-6.9,2.4
					C102.6,145.2,104.2,146.2,105.1,145.5L105.1,145.5z"/>
			</g>
		</g>
		<g>
			<g>
				<path class="st11" d="M114.5,138.5c-0.3,2.8-1.7,17.9,4.3,15.6c1.9-0.7,1.2-3.5-0.8-3c0.2,0-1-11.7-1.3-12.9
					C116.5,136.8,114.6,137.3,114.5,138.5L114.5,138.5z"/>
			</g>
		</g>
		<g>
			<g>
				<path class="st11" d="M112.8,143.7c0.8,0.3,1.8,0.3,2.7,0.4c1,0.1,1.9,0.3,2.8,0.5c2.3,0.7,3-3.2,0.5-3.3
					c-2-0.1-4.4-0.4-6.2,0.5C111.7,142.3,112.1,143.4,112.8,143.7L112.8,143.7z"/>
			</g>
		</g>
		<g>
			<g>
				<path class="st11" d="M135.6,143.4c-1-3-5.8-4.2-7.4-0.9c-0.7,1.4-0.2,3,0.7,4.2c0.6,0.7,1.3,1.2,2,1.7c0.3,0.2,1.3,0.8,1.4,1.2
					c-0.3,0.4-0.6,0.8-1,1.3c-0.4-0.2-0.8-0.5-1.1-0.8c-1.1-0.9-3.3-0.1-2.6,1.5c1.4,3.5,7.3,3.3,8-0.7c0.3-1.8-0.8-3.2-2.1-4.3
					c-0.8-0.6-2.5-1.2-2.1-2.3c0.3-1,0.8-0.4,1.5,0c0.5,0.2,0.8,0.5,1.3,0.7C135,145.1,135.9,144.2,135.6,143.4L135.6,143.4z"/>
			</g>
		</g>
		<g>
			<g>
				<path class="st11" d="M138.7,138.5c-0.6,2.6-2.9,16,2.5,15.6c0.8-0.1,1.4-0.5,1.6-1.3c0-0.1,0-0.2,0.1-0.2
					c0.5-1.5-1.8-3-2.8-1.6c1-0.3,1.3-0.8,1-1.5c-0.1-0.5-0.2-1-0.1-1.5c0-1,0-1.9,0-2.9c0.1-2.1,0.2-4.2,0-6.2
					C140.9,137.6,139,137.1,138.7,138.5L138.7,138.5z"/>
			</g>
		</g>
		<g>
			<g>
				<path class="st11" d="M136.1,143.4c0.2,1,1.6,1.1,2.4,1.2c1.1,0.1,2.4,0.4,3.4,0c1.4-0.4,1.4-2.4,0-2.8c-0.9-0.2-1.8-0.1-2.7,0
					c-0.8,0-1.6,0-2.4,0.3C136.3,142.3,136,142.8,136.1,143.4L136.1,143.4z"/>
			</g>
		</g>
		<g>
			<g>
				<path class="st11" d="M146.6,145.3c0.8-0.3,1.3-0.8,2.1-1.1c1.4-0.5,1.5,0,1.6,1.3c0.2,2.1,0,4.2,0,6.3c0,2.9,4.7,2,3.5-0.9
					c0,0,0-0.1,0-0.1c-0.2-0.5-0.9-0.9-1.5-0.8c0,0-0.1,0-0.1,0c0.6,0.6,1.2,1.2,1.9,1.9c-0.2-2-0.2-4-0.4-5.9
					c-0.2-1.4-0.3-3.1-1.4-4.2c-2-1.8-6.4-0.4-6.9,2.3C145.1,144.7,145.7,145.6,146.6,145.3L146.6,145.3z"/>
			</g>
		</g>
		<g>
			<g>
				<path class="st11" d="M151.9,146.2c-3.3-0.5-6.6,1-6.9,4.6c-0.1,1.7,1,2.9,2.6,3.1c1.8,0.2,3.3-0.8,4.6-1.8
					c1.3-1.1-0.5-3.4-1.8-2.4c-0.6,0.4-1.3,1.1-2,1.2c-0.1,0-0.3,0-0.4,0c0,0.2,0.1,0.2,0.1,0.1c-0.1-0.2,0.1-0.7,0.2-0.9
					c0.6-1.3,2.6-1.3,3.7-1.7C152.9,148.2,153.1,146.4,151.9,146.2L151.9,146.2z"/>
			</g>
		</g>
		<g>
			<g>
				<path class="st11" d="M157.1,138.5c-0.1,2.8-1.9,16.8,4,15.4c1.7-0.4,1.4-3.2-0.4-3.1c-0.6,0-1.3-11.3-1.6-12.6
					C158.8,137.1,157.1,137.4,157.1,138.5L157.1,138.5z"/>
			</g>
		</g>
		<g>
			<g>
				<path class="st11" d="M155.8,143.7c0.8,0.3,1.6,0.3,2.4,0.4c0.9,0.1,1.7,0.2,2.6,0.2c2.3-0.1,1.9-3.5-0.4-3.1
					c-1.6,0.2-3.2,0-4.8,0.8C154.7,142.4,155.1,143.5,155.8,143.7L155.8,143.7z"/>
			</g>
		</g>
		<g>
			<g>
				<path class="st11" d="M164.4,148.1c1.9,0.4,4.3,0.3,6.2,0.1c1.9-0.2,2.1-3.2,0-3.1c-1.1,0-2.1,0.2-3.2,0.4c-1,0.1-2.1,0.2-3,0.6
					C163.5,146.3,163.3,147.8,164.4,148.1L164.4,148.1z"/>
			</g>
		</g>
		<g>
			<g>
				<path class="st11" d="M172.6,147.2c0.7-2.6-0.1-5.5-3-6c-2.5-0.4-4.8,0.8-5.4,3.4c-0.6,2.5,0.1,6.4,2,8.2
					c2.2,2.2,4.7,0.9,6.2-1.2c1.1-1.5-1.4-3.4-2.6-2c-0.7,0.8-1.1,1.7-1.9,0.4c-0.6-0.9-0.8-2.6-0.9-3.7c0-1.1,0.5-2.5,1.9-2.2
					c1.3,0.3,1.2,2,1.4,3.1C170.7,148.3,172.4,148.2,172.6,147.2L172.6,147.2z"/>
			</g>
		</g>
		<g>
			<g>
				<path class="st11" d="M176.4,138.4c2.9,0.2,0.6,4.7,1.6,6.5c0.8,1.4,2.4,1.9,3.8,2.3c-0.1-0.9-0.2-1.8-0.4-2.7
					c-1.4,0.8-2.5,1.3-3,2.9c-0.8,2.3,0.4,5.4-2.6,6.1c-2.1,0.5-1.1,3.9,0.9,3.2c1.7-0.6,3.4-1.2,4.1-3c0.9-2.5-0.5-4.9,2.3-6.6
					c1-0.6,1-2.5-0.4-2.7c-3.7-0.6-1.2-4.7-2.5-6.9c-0.9-1.5-2.6-1.4-4.1-1.2C174.9,136.6,175.3,138.4,176.4,138.4L176.4,138.4z"/>
			</g>
		</g>
	</g>
	<g>
		<g>
			<g>
				<path class="st11" d="M79,165c-1.3-0.4-2.4,0-3.2,1.1c-1.8,2.3,0.8,6.1-2.9,7.4c-1.1,0.4-1.4,2.3,0,2.6c4,0.6-0.6,9.6,4.7,9
					c1.9-0.2,1.9-3.2,0-3c0.4,0-0.2-5.6-0.6-6.4c-0.8-1.5-2.1-2-3.7-2.2c0.1,0.9,0.2,1.7,0.4,2.6c1.4-0.5,2.8-1.1,3.6-2.4
					c1-1.8-0.4-5.6,1.8-6.5C80,166.7,80.1,165.3,79,165L79,165z"/>
			</g>
		</g>
		<g>
			<g>
				<path class="st11" d="M84,174c0.8-0.5,1.8-1.2,2.8-1.1c1.4,0.1,1.5,1.3,1.6,2.5c0.2,2,0.2,4,0.2,5.9c0,2.1,3.3,2.1,3.3,0
					c0-3,0.3-7.9-2.1-10.2c-2-1.8-6.1-1-7.2,1.4C82.1,173.4,83,174.6,84,174L84,174z"/>
			</g>
		</g>
		<g>
			<g>
				<path class="st11" d="M89.1,174.5c-2.9,0.1-7.4,2.5-7.1,5.9c0.3,3.9,5.9,3.1,7.7,0.9c1.2-1.4-0.6-3.2-2-2c-0.5,0.4-1,0.9-1.8,1
					c-0.8,0.1-1.5-0.2-0.8-1c1-1.1,2.8-1.8,4.2-2.4C90.6,176.4,90.5,174.5,89.1,174.5L89.1,174.5z"/>
			</g>
		</g>
		<g>
			<g>
				<path class="st11" d="M102.9,173.8c0.1-2.9-2.6-4.3-5.2-3.4c-2.6,0.8-3.4,3.8-3.4,6.2c0.1,2.5,1.2,5.7,3.8,6.7
					c2.9,1.1,4.9-1,5.8-3.6c0.6-1.8-2.1-2.5-2.8-0.8c-0.2,0.5-0.4,1-0.8,1.5c-1.2,0.3-2,0-2.4-1c-0.4-0.8-0.7-1.7-0.8-2.7
					c-0.1-0.8-0.1-2,0.3-2.8c0.4-1.2,1.3-1.4,2.8-0.7c0.2,0.3,0.4,0.7,0.6,1C101.5,175.2,102.9,174.8,102.9,173.8L102.9,173.8z"/>
			</g>
		</g>
		<g>
			<g>
				<path class="st11" d="M106.6,167.6c-0.2,3.8,0,7.8,0.2,11.6c0.1,2.1,0.6,4,3,4.1c1.8,0.1,1.9-2.9,0-2.9
					c-0.1,0-0.7-12.1-0.9-13.2C108.6,166,106.7,166.4,106.6,167.6L106.6,167.6z"/>
			</g>
		</g>
		<g>
			<g>
				<path class="st11" d="M105.8,170.9c0,0-0.1,0-0.1,0c-0.9-0.2-1.4,0.8-0.8,1.4c0.6,0.7,1.8,0.7,2.6,0.8c1,0.1,2.2,0.1,3.2-0.1
					c1.7-0.3,1.3-3.2-0.4-3c-1,0.1-2,0.3-2.9,0.5c-0.9,0.1-1.8,0.1-2.5,0.7c0.3,0.5,0.6,1,0.8,1.4c0,0,0.1,0,0.1,0
					C106.5,172.2,106.6,171.1,105.8,170.9L105.8,170.9z"/>
			</g>
		</g>
		<g>
			<g>
				<path class="st11" d="M113.7,166.8C113.7,166.8,113.7,166.8,113.7,166.8c0.2,1.1,1.6,1.3,2.3,0.6c0.7-0.7,0.4-2.1-0.6-2.3
					c0,0,0,0,0,0C114.3,165,113.5,165.8,113.7,166.8L113.7,166.8z"/>
			</g>
		</g>
		<g>
			<g>
				<path class="st11" d="M113.9,170.6c-0.4,1.7-0.1,3.6,0,5.4c0.1,2,0.1,4,0.1,6c0,1.8,2.8,1.8,2.9,0c0-3.6,0.4-8.3-1.1-11.6
					C115.4,169.5,114.1,169.7,113.9,170.6L113.9,170.6z"/>
			</g>
		</g>
		<g>
			<g>
				<path class="st11" d="M128.5,175.7c0.1-2.7-1.6-5.9-4.8-5.3c-3.5,0.7-4.1,4.8-3.8,7.7c0.3,2.9,2.2,5.5,5.4,5.2
					c3.5-0.4,3.9-4.4,3.1-7.1c-0.5-1.7-2.9-1-2.6,0.7c0.2,1.3,0.6,3.5-1.1,3.7c-1.8,0.2-2.1-2.3-2.1-3.5c0-1.1-0.1-3,0.9-3.7
					c0.7-0.5,1.7-0.3,2.2,0.4c0.5,0.6,0.6,1.5,0.8,2.2C126.8,177.1,128.4,176.8,128.5,175.7L128.5,175.7z"/>
			</g>
		</g>
		<g>
			<g>
				<path class="st11" d="M132.2,170.4c-1.1,3.3,0.3,7.4,0,10.8c-0.2,1.9,2.9,1.9,3,0c0.2-3.4,0.3-7.9-1.1-11.1
					C133.7,169.3,132.5,169.7,132.2,170.4L132.2,170.4z"/>
			</g>
		</g>
		<g>
			<g>
				<path class="st11" d="M135.2,173.6c0.9-0.3,1.9-1.1,2.8-1.2c0.6,0,0-0.1,0,0.5c0,0.5,0,1.1,0,1.6c-0.1,2.2-0.2,4.4-0.3,6.6
					c-0.1,2,3.3,2,3.1,0c-0.1-2-0.1-4,0-6c0.1-1.5,0.4-3.3-0.4-4.6c-1.6-2.6-5.3-0.3-6.3,1.6C133.8,172.9,134.4,173.8,135.2,173.6
					L135.2,173.6z"/>
			</g>
		</g>
		<g>
			<g>
				<path class="st11" d="M144.2,167.2c2.5,0.1,1.6,5.1,2.4,6.7c0.6,1.3,1.6,1.8,2.9,2.2c0-1,0-1.9,0-2.9c-1.5,0.6-2.6,1.2-3.1,2.7
					c-0.7,2,0.7,5.7-2,6.3c-2.1,0.5-1.2,3.8,0.9,3.2c1.3-0.4,2.5-0.8,3.3-2c1.3-2-0.3-6.2,2.1-7.5c1.2-0.6,0.9-2.5-0.4-2.8
					c-2.8-0.7-0.7-5.2-2.5-7.1c-1.1-1.1-2.4-1.1-3.8-0.6C143,165.8,143.2,167.1,144.2,167.2L144.2,167.2z"/>
			</g>
		</g>
	</g>
	<path class="st11" d="M255.2,118.3c-0.1-0.2-0.3-0.4-0.4-0.5c1.5-1.2,1-4.2-1.4-4.1c-14.4,0.4-28.8,0.5-43.1,0.3
		c-7.5-0.2-15.1-0.6-22.6-1.2c-0.8-0.1-1.4,0.3-1.8,0.9c-0.8,0.6-0.9,1.9-0.2,2.7c0.2,0.5,0.7,0.8,1.3,1c-2.5,0.6-2.3,4.8,0.6,4.9
		c16.6,0.4,33.1,0.6,49.7,0.3c5.8,0.4,11.6,0.2,17.4,0.7C257.7,123.6,257.9,119.1,255.2,118.3z"/>
	<path class="st11" d="M466.4,118.7c-0.1-0.3-0.2-0.5-0.3-0.8c1.4-1.3,0.9-4.1-1.5-4c-12.6,0.3-25.2,0.3-37.8,0.1
		c-6.7-0.3-13.4-0.6-20.1-1.1c-0.8-0.1-1.4,0.3-1.8,0.9c-0.8,0.6-0.9,1.9-0.2,2.7c0.2,0.5,0.7,0.9,1.3,1c-2.5,0.6-2.3,4.8,0.7,4.9
		c15.8,0.4,31.6,0.4,47.5,0.1c0,0,0,0,0,0c3.5,0.3,7,0.1,10.6,0.4C467.1,123.1,467.7,120.2,466.4,118.7z"/>
	<path class="st11" d="M363.5,119.6c0.2-0.9-0.1-1.9-0.8-2.5c1.5-1.2,1-4.2-1.4-4.1c-12.9,0.5-25.8,0.8-38.7,0.7
		c-6.7-0.2-13.5-0.5-20.2-1c-0.9-0.1-1.5,0.4-1.9,1c-0.6,0.6-0.7,1.6-0.2,2.3c0.2,0.6,0.7,1.1,1.4,1.3c-2.6,0.6-2.4,4.8,0.6,4.9
		c14.9,0.3,29.7,0.3,44.6-0.1c4.8,0.3,9.6,0.1,14.3,0.5C363,122.8,363.8,121.1,363.5,119.6z"/>
	<path class="st11" d="M560.6,115.5c-1.3-0.8-2.5-1.6-3.8-2.4c-0.8-0.8-1.9-1.5-3.1-2.1c-6.3-4.4-12.3-9.1-18-14.3
		c-1.6-1.5-3.8-0.4-4.4,1.2c-0.9,0.6-1.4,1.7-0.9,2.8c-0.6,0.9-0.6,2,0.4,3c4.7,4.4,9.5,8.6,14.4,12.7c-8.3-0.1-16.6,0.1-24.9,0.4
		c-0.4,0-0.8,0-1.1,0c-2.8-0.3-5.5-0.5-8.3-0.8c-1.5-0.1-2,1.2-1.6,2.3c-0.2,0.4-0.2,0.9-0.1,1.4c0,0.4,0.1,0.7,0.2,1
		c0,0.1,0,0.3,0.1,0.4c-0.3,1,0.2,2.4,1.7,2.4c11.2,0,22.4,0,33.6,0c-4,5.3-8.1,10.5-12.3,15.7c-1.8,2.2,0.5,5.8,3.2,4.1
		c0.1,0,0.1-0.1,0.2-0.1c0.6,1.2,1.9,1.9,3.4,0.9c9.3-6.4,14.1-16.7,21.9-24.5C562.3,118.3,562,116.4,560.6,115.5z"/>
	<g>
		<g>
			<path class="st13" d="M727.8,65.6c-1.4-0.9-2.8-1.7-4.4-2.4"/>
			<path class="st18" d="M714.1,59.6c-26-8.1-65-5.7-92.2,5.4c-32.7,13.3-48.2,36.1-44,56.1c3.3,15.9,18.7,30.8,44.3,38.6
				c25.6,7.7,61.8,7.4,88.8-2.6c23.3-8.6,37.3-23,42.4-37.1c6.6-17.9,0.1-34.4-17.2-48.3"/>
			<path class="st13" d="M732.2,68.6c-1.3-0.9-2.7-1.9-4.1-2.8"/>
		</g>
	</g>
	<g>
		<g>
			<g>
				<path class="st11" d="M643.9,193c-0.6-4.9-8.1-6.3-10.6-2.1c-1.4,2.3-0.5,4.5,1.4,6c1.2,1,2.6,1.7,3.8,2.8
					c0.6,0.6,1.3,1.4,1.5,2.2c0.5,1.9-2.4,2.6-2.8,0.4c-0.4-2.5-4.8-1.9-4.5,0.6c0.7,5.5,8.5,8.2,11.1,2.4c1.1-2.5,0.5-5.2-1.1-7.2
					c-0.9-1.2-2-2.1-3.1-2.9c-0.4-0.3-3.4-1.9-0.6-2.5c0.4-0.1,2.2,1.3,2.7,1.6C642.6,194.8,644.1,194.2,643.9,193L643.9,193z"/>
			</g>
		</g>
		<g>
			<g>
				<path class="st11" d="M646.1,192.2c1.6,0.6,3.5,0.4,5.2,0.4c1.9,0,3.7,0,5.6,0c2.7,0,2.7-4.4,0-4.2c-2,0.1-4,0.2-6,0.3
					c-1.8,0.1-3.5,0.1-5.1,0.8C644.5,190.2,645,191.8,646.1,192.2L646.1,192.2z"/>
			</g>
		</g>
		<g>
			<g>
				<path class="st11" d="M650.3,191.7c-0.2,4.6-0.4,9.2-0.7,13.7c-0.2,2.8,4.3,2.9,4.4,0c0.1-4.6,0.1-9.2-0.3-13.7
					C653.5,189.6,650.4,189.5,650.3,191.7L650.3,191.7z"/>
			</g>
		</g>
		<g>
			<g>
				<path class="st11" d="M671.3,196.7c1.3-3.5-0.1-8.2-4.6-7.9c-5.1,0.4-6.2,6.2-5.9,10.3c0.3,3.8,1.9,8.9,6.7,8.5
					c5.1-0.5,5.3-7.2,5.2-11.1c-0.1-2.5-3.8-2.5-3.9,0c-0.1,1.7,0.1,4-0.7,5.5c-1.5,3-2.9-0.4-3.1-2.2c-0.2-1.7-0.4-3.9,0.3-5.5
					c0.5-1.1,1.8-2.3,3-1.2c0.6,0.6,0.4,2.4,0.5,3.2C669.1,197.8,670.8,198.1,671.3,196.7L671.3,196.7z"/>
			</g>
		</g>
		<g>
			<g>
				<path class="st11" d="M675.5,190.5c-1,2.3-0.8,5.1-0.9,7.5c-0.1,2.8-0.1,5.6-0.1,8.3c0,2.9,4.7,2.9,4.5,0
					c-0.2-2.8-0.3-5.6-0.3-8.3c0-2.5,0.3-5.1-0.5-7.5C677.9,189,676.1,189.2,675.5,190.5L675.5,190.5z"/>
			</g>
		</g>
		<g>
			<g>
				<path class="st11" d="M677.7,192.6c0.8,0,3-0.3,3.7,0.3c0.5,0.4,0.5,1.5,0.3,2.1c-0.4,1.6-2.1,2.3-3.6,2
					c-2.7-0.5-3.9,3.6-1.2,4.2c4,0.9,8.3-1.5,8.8-5.8c0.2-1.8-0.4-3.8-1.8-5.1c-1.7-1.5-4.7-1.1-6.7-0.6
					C675.7,190.1,676,192.7,677.7,192.6L677.7,192.6z"/>
			</g>
		</g>
		<g>
			<g>
				<path class="st11" d="M679.6,200.3c0.3,1.3,0.9,2.5,1.5,3.7c0.6,1.2,1,2.5,1.7,3.6c1.3,2.5,5,0.3,3.8-2.2
					c-0.6-1.2-1.3-2.3-1.9-3.5c-0.6-1.1-1.2-2.3-2.1-3.3C681.3,197.3,679.3,198.8,679.6,200.3L679.6,200.3z"/>
			</g>
		</g>
		<g>
			<g>
				<path class="st11" d="M698.8,189.7c-2.4-0.4-5.1-1.2-7.5-0.6c-0.7,0.1-1.2,0.8-1.4,1.4c-0.7,2.5-0.2,5.5-0.1,8.1
					c0,2.5-0.4,5.5,0.2,8c0.2,0.7,0.8,1.3,1.5,1.5c1.9,0.5,4.3,0.1,6.3,0.1c2.9,0,2.9-4.7,0-4.5c-1.5,0.1-3.7,0.6-5.1,0.3
					c0.5,0.5,1,1,1.5,1.5c-0.6-2-0.2-4.7-0.2-6.8c0-2.1-0.6-5-0.1-7c-0.5,0.5-0.9,0.9-1.4,1.4c1.8-0.5,4.2-0.2,6.1-0.4
					C699.9,192.4,700.6,189.9,698.8,189.7L698.8,189.7z"/>
			</g>
		</g>
		<g>
			<g>
				<path class="st11" d="M693.6,200.7c0.7,0,1.3,0,2,0c0.7,0,1.3,0.2,2,0.2c1.1,0,2.1-1,2.1-2.1c0-1.2-1-2-2.1-2.1
					c-1.4-0.1-3.1,0.3-4.5,0.5C691.2,197.6,691.6,200.8,693.6,200.7L693.6,200.7z"/>
			</g>
		</g>
	</g>
</g>
</svg>
