<?xml version="1.0" encoding="utf-8"?>
<!-- Generator: Adobe Illustrator 19.1.0, SVG Export Plug-In . SVG Version: 6.00 Build 0)  -->
<svg version="1.1" xmlns="http://www.w3.org/2000/svg" xmlns:xlink="http://www.w3.org/1999/xlink" x="0px" y="0px" width="800px"
	 height="450px" viewBox="0 0 800 450" style="enable-background:new 0 0 800 450;" xml:space="preserve">
<style type="text/css">
	.st0{fill:#FFFFFF;}
	.st1{opacity:0.5;fill:#C6C6C6;}
	.st2{opacity:0.5;fill:#864C9E;}
	.st3{opacity:0.2;}
	.st4{fill:#8E8E8E;}
	.st5{opacity:0.2;fill:#8E8E8E;}
	.st6{fill:#5A326D;}
	.st7{opacity:0.2;fill:#5A326D;}
	.st8{opacity:0.5;fill:#C9BEA9;}
	.st9{opacity:0.3;fill:#998565;}
	.st10{opacity:0.5;fill:#DFB945;}
	.st11{fill:#1E1E1E;}
	.st12{fill:#C91F4C;}
	.st13{fill:none;stroke:#1E1E1E;stroke-width:3;stroke-miterlimit:10;}
	.st14{fill:none;stroke:#1E1E1E;stroke-width:3;stroke-miterlimit:10;stroke-dasharray:9.9863,9.9863;}
	.st15{fill:#79A845;}
	.st16{fill:#40A6DD;}
	.st17{fill:#80D3F2;}
	.st18{fill:none;stroke:#1E1E1E;stroke-width:3;stroke-miterlimit:10;stroke-dasharray:10.0229,10.0229;}
</style>
<g id="Layer_2">
	<rect class="st0" width="800" height="450"/>
</g>
<g id="Layer_7">
</g>
<g id="Layer_5">
	<path class="st1" d="M549.6,195.8c-3.6-10.6-8.1-21.2-13.1-31.6c-1.9-7.3-5.7-14-10.4-20.3c-0.4-0.8-0.8-1.6-1.3-2.4
		c-5.5-10.1-12.1-19.9-20.9-26.8c0.4-2.6,0-5-1.7-6.3c-10.9-8.4-22.5-16.3-34.6-22.9c0-1.8-0.6-3.5-2.1-4.4
		c-9.9-6.4-21-9.2-32.4-9.9c-2.7-0.8-5.5-1.5-8.3-2.1c-28.7-6.2-58.1-0.9-84.8,10.8c-15.5,6.8-29.9,16-43.3,26.3
		c-2.6,2-4.7,6-4.7,9.4c-3.5,3.7-6.7,7.6-9.7,11.8c-4.8,2.6-8.2,7.5-10.7,12.5c-4.1,8.5-7.6,17.3-10.5,26.3
		c-5.9,18.3-9.5,37.4-9.2,56.7c0.4,26.5,8.7,52.9,25.2,73.4c-0.8,2.5-0.9,5,0.3,6.7c10.4,15,25.1,26.6,39.2,37.9
		c6.9,5.5,14.2,10.6,22.4,13.8c9.1,3.5,18.7,4.8,28.4,5.2c8.3,0.4,16.7,0.4,25.2,0.2c0.2,1.2,0.7,2.2,1.8,2.6
		c22.3,7.6,46.6-4.2,66.7-13.3c5.5-1.7,10.8-3.5,16.1-5.6c17.7-7.1,33.8-17.4,46.2-32.1c1.8-2.1,3.6-5.8,3.2-8.8
		c10.4-14.3,17-31.9,20.6-48.5c2.1-9.7,3.5-19.7,4.6-29.6C553,214.9,552.8,205.4,549.6,195.8z M477.7,130.4c1.6,1.8,3.4,2,5.1,1.2
		c1.6,3.9,3.2,7.8,4.8,11.8c-12.1-14.3-27.7-25.3-45.4-31.6c-8.6-3-17.5-5.1-26.5-5.9c-7.3-0.6-14.3-0.8-20.2,2.5
		c-17.1-4.4-35.8,5.8-50,14.4c-16.3,9.9-30.5,22.9-40.5,39.1c0.8-2.1,1.3-4.5,0.4-6.4c6.2-8.1,12.7-15.9,18.6-24.2
		c9.3-5,18-11.4,27.6-16c14.1-6.7,29.5-11.3,45-13.1c17.1-1.9,32.7,2.3,48.8,7.3c3,0.9,5.9,1.8,8.9,2.7
		C463,116.8,471,122.9,477.7,130.4z M505.2,253.3c0.4-3.8,0.4-7.5,0.1-11.2c1.5-1.3,2.7-2.8,3.8-4.5
		C507.9,242.9,506.6,248.1,505.2,253.3z M492.7,254.1c0,1.5-0.2,3-0.4,4.5c-0.5-0.7-1.1-1.4-1.9-1.9c-0.3-0.2-0.6-0.4-0.9-0.6
		c1.2-1,2.3-2.1,3.1-3.5C492.7,253,492.7,253.5,492.7,254.1z M479,214.1c0,0.1,0.1,0.3,0.1,0.4c-0.9-0.2-1.9-0.4-2.8-0.6
		c-4.1-0.9-8-2.1-12-3.4c-7.1-2.4-14.1-5.2-21.1-8.1c-3.1-1.3-6.2-2.6-9.2-4c14.3,5.7,28.9,10.4,44.1,12.2
		C478.5,211.7,478.8,212.9,479,214.1z M378.2,204.8c0.7,0.4,1.3,0.9,2,1.3c-6.5-3.2-13-6.5-19.5-9.8
		C366.7,198.3,372.5,201.1,378.2,204.8z M430,249.1c7.2,2.9,14.7,5.6,22.3,7.5c-0.5,0.3-1.1,0.6-1.7,1c-1.4-0.4-2.7-0.8-4.1-1.3
		c-10.2-3.5-20-8.2-29.8-12.8C421.1,245.4,425.5,247.3,430,249.1z M317.2,193.7c3.8,2.3,7.8,4.4,11.8,6.5
		c11,5.8,22.1,11.5,33.3,17.1c12,6,24,12.1,36.2,17.9c-20.5-9.3-41-18.7-61.5-28c-5.2-2.4-10.5-4.8-15.5-7.6c-2.5-1.4-5-2.9-7.3-4.5
		c-0.2-0.2-0.4-0.3-0.7-0.5C314.7,194.2,316,193.9,317.2,193.7z M484.2,231.3c1.8-0.5,3.5-1.3,5-2.6c0.5,2.2,1,4.5,1.4,6.7
		C488.9,233.8,486.6,232.5,484.2,231.3z M470.7,155.5c-0.2-0.1-0.4-0.3-0.7-0.4c0.1,0.1,0.3,0.1,0.4,0.2
		C470.5,155.3,470.6,155.4,470.7,155.5z M306.6,211.5c1.4,0.9,2.8,1.8,4.3,2.7c-2.3-0.1-4.6-0.3-6.9-0.9c-0.1-1.2-0.1-2.5-0.2-3.7
		C304.7,210.3,305.7,210.9,306.6,211.5z M327.8,152.2c-0.5,0-0.9,0.1-1.4,0.1c0.8-0.8,1.6-1.6,2.5-2.3
		C328.4,150.7,328.1,151.5,327.8,152.2z M381.5,281.1c12.7,5.8,25.5,12.1,38.8,16.7c-16.6-2.8-32.3-12.4-47-20.2
		C376.1,278.7,378.8,279.9,381.5,281.1z M442.5,303.5c0.2,0,0.4,0.1,0.7,0.1c-0.2,0.1-0.5,0.1-0.7,0.2
		C442.4,303.7,442.5,303.6,442.5,303.5z M464.9,290.8c2,0.4,3.8,0.5,5.5,0.3c-1.9,1.3-3.9,2.6-5.9,3.7
		C464.9,293.4,465,292,464.9,290.8z M483.2,277.4c0.6-0.2,1.2-0.5,1.8-0.8c-0.7,0.9-1.3,1.9-2,2.8
		C483.2,278.7,483.2,278,483.2,277.4z M493.9,283.1c3-4.4,5.5-9.2,7.5-14.4c-0.4,1.7-0.8,3.3-1.3,5c-1.5,2.6-3,5.1-4.6,7.6
		C494.9,281.9,494.4,282.5,493.9,283.1z M514.2,217.7c0-4.3-0.5-8.7-1.4-12.7c0.9,2.3,1.9,4.6,2.8,6.9
		C515.2,213.8,514.7,215.8,514.2,217.7z M290.1,191c2.5-4.9,5-9.8,7.5-14.8c-4,10.1-6,20.8-6.5,31.7
		C290.7,202.4,290.4,196.7,290.1,191z M310.7,238.6c-0.5,0.4-1,0.8-1.5,1.3c-0.4-0.9-0.7-1.9-1-2.8
		C309.1,237.6,309.9,238.1,310.7,238.6z M372.3,300.1c-0.3-1-1-1.8-2.1-2.2c-2.8-1.2-5.6-2.6-8.4-4c-6-3.3-11.6-7.3-16.9-11.6
		c6.4,3.9,13.1,7.6,19.7,11.1c8.9,4.6,17.8,9.6,27,13.6c-5.4-1.2-10.7-3-16.1-5.4C374.4,301.1,373.3,300.6,372.3,300.1z
		 M419.6,324.2c0.3-0.1,0.6-0.1,1-0.2c22-3.6,44.3-12,60.7-26.7c-3.2,3.7-6.4,7.3-9.7,11c-16.7,7.8-34.1,14-52,18.5
		C419.7,326,419.7,325.1,419.6,324.2z M491.4,155.4c-1-1.7-2-3.3-3.1-4.8c0.5-1.4,0.8-2.7,0.7-4c2.1,5.2,4.2,10.4,6.4,15.5
		C494,159.8,492.7,157.6,491.4,155.4z M301.9,301.1c0-0.2,0.1-0.5,0.1-0.7c0.6,1,1.2,2,1.8,3c-0.7-0.5-1.4-1.1-2.1-1.6
		C301.8,301.5,301.9,301.3,301.9,301.1z M312.3,282.9c-0.6-0.8-1.4-1.3-2.2-1.5c-3-5.7-5.7-11.6-8-17.7c-0.8-2.2-1.6-4.4-2.3-6.6
		c2.9,5.9,6.5,11.5,11.2,16.8c1.9,2.1,3.8,4.2,5.7,6.3c-0.2,1.7,0.1,3.2,1,4.4c11,14.3,29.3,23.5,45.4,31.1c2.9,1.4,5.9,2.6,8.9,3.8
		c-5.4-1-10.7-2.4-16-4.5C338.9,308.4,323.8,297.4,312.3,282.9z M507.2,149.8c-0.4-0.9-0.8-1.8-1.1-2.8c0.6,0.7,1.3,1.3,1.9,2
		C507.7,149.2,507.4,149.5,507.2,149.8z M314.6,115.1c-0.1-0.2-0.2-0.3-0.3-0.5c0.4-0.2,0.8-0.3,1.2-0.5
		C315.2,114.5,314.9,114.8,314.6,115.1z M436.8,337.2c0.6-0.2,1.1-0.4,1.7-0.6c-0.1,0.9,0,1.7,0.2,2.4c-1.2,0.2-2.4,0.4-3.6,0.6
		c-0.3,0.1-0.6,0.1-0.9,0.1C435.2,339.1,436.1,338.2,436.8,337.2z M529.8,253.4c-0.1,0.3-0.1,0.7-0.2,1c-1.5,0.2-3.1,1.2-4.3,2.4
		c2.1-4.1,4-8.2,5.7-12.4C530.7,247.4,530.3,250.4,529.8,253.4z M266.8,192.1c-0.7,7-1,14.1-1,21.2c-0.3,1-0.4,2-0.5,3
		c-0.1,1.9-0.1,3.8-0.1,5.7C264.7,212,265.3,202,266.8,192.1z M381,343.7c3.4-0.3,6.9-0.7,10.3-1.3c0,0.4,0,0.9,0,1.3
		C387.9,343.8,384.4,343.8,381,343.7z"/>
</g>
<g id="Layer_1">
</g>
<g id="Layer_6">
	<g>
		<g>
			<path class="st11" d="M443.3,182.3c-11.1-16.8-34.4-22.2-53.3-18.4c-20.7,4.2-37.5,21.4-41.1,42.2c-3.8,21.9,7.3,44.6,26.7,55.3
				c19.9,11,45.8,10.3,62.5-6.1c20-19.6,20.1-50.1,5.5-72.9c-1.3-2.1-4.6-0.2-3.3,1.9c11.8,19.3,14,43,0.2,62.1
				c-12.7,17.7-35.2,22.3-55.2,15.1c-20.1-7.3-34-26.7-33.3-48.3c0.6-19.7,14-37.4,32.5-43.9c18.5-6.5,43.8-1.9,55.7,14.7
				C441.6,185.8,444.6,184.2,443.3,182.3L443.3,182.3z"/>
		</g>
	</g>
	<g>
		<path class="st11" d="M441.8,183.2c-11.1-16.8-38.8-22.9-59-15.2c-20.2,7.7-32.1,26.5-32.7,45.3c-0.5,15.1,5.9,30.8,19.1,41.5
			c13.2,10.6,33.4,15.3,49.9,9.9c14.3-4.7,24.1-15.9,29.1-28.1c7.2-17.7,4.6-36.2-6.3-53.1"/>
	</g>
	<g>
		<g>
			<path class="st11" d="M482.5,135.6c-27.1-32.8-78.7-38.6-117.2-26.2c-42.6,13.8-73.3,53.4-76.5,98
				c-3.3,47.4,25.8,92.7,69.4,110.9C403,337,457.9,329.2,489,289.8c16.4-20.7,25-47.4,24.7-73.7c-0.4-29.6-12.5-57.3-30.8-80.1
				c-1.5-1.9-4.2,0.8-2.7,2.7c15.8,20.1,27.1,43.7,29.2,69.4c1.9,23-3.3,46.6-14.9,66.6c-11.5,19.9-29.4,35.8-51.2,43.5
				c-22.2,7.9-47,7.6-69.5,1.4c-44.7-12.4-78.4-51.8-81.2-98.5c-2.6-43.2,22.6-84.7,61.6-103.1c39.1-18.5,96.4-14.3,125.8,20.1
				C481.5,139.8,483.9,137.3,482.5,135.6L482.5,135.6z"/>
		</g>
	</g>
	<g>
		<g>
			<path class="st11" d="M463,76.2c-50.9-28.7-119.9-10-162.4,25.7c-49.1,41.2-66.3,112.7-41.4,171.7c24.8,58.7,85.8,95.2,149,91.8
				c31.9-1.7,64-12.1,89.7-31.3c26.6-19.9,44.5-49.2,51.2-81.7c6.2-30.6,3-63.2-9-92.1c-11.7-28.3-31.7-52.2-56.1-70.5
				c-6.5-4.9-13.3-9.3-20.4-13.4c-2.1-1.2-4.1,2.1-1.9,3.3c26.1,15.5,49.2,36,64.8,62.2c15.2,25.6,22.7,55.6,21.7,85.3
				c-1.2,32.7-13.2,65-35.9,89c-21.3,22.5-50.6,36.5-80.7,42.4c-30.9,6-63.2,3.4-92.1-9.3c-27.5-12.1-51-32.6-66.8-58.2
				c-32.7-53.3-26.1-123.7,14.8-170.8C323.7,78.6,389.1,54.9,443,71.5c6.3,2,12.4,4.5,18.2,7.7C463.2,80.3,465,77.3,463,76.2
				L463,76.2z"/>
		</g>
	</g>
	<path class="st17" d="M721.9,360.6c-1.7-0.8-3.7-1.1-5.6-0.9c-4.7,0.5-8.4,3.2-9.2,8c-0.7,4.2,0.1,10,3.9,12.5
		c4,2.7,10.1,3.3,14.2,0.4C731.5,376.1,730.2,361.2,721.9,360.6z"/>
	<g>
		<g>
			<path class="st17" d="M692.7,376.2c3-6.9,7.5-13.2,11.7-19.4c4.5-6.7,9.3-13.1,14.8-18.9c5.2-5.4,11-10.3,17.7-13.9
				c4.4-2.4,11.2-5.2,13.2,1.6c1.3,4.4,0.1,10.1-0.6,14.5c-4.4,28-17.1,61.7-44.4,75.1c-4.9,2.4-11.7,4.2-15.2-1.3
				c-2.5-3.9-2.8-9-2.5-13.5c0.7-9.8,5.2-18.8,7-28.4c0.3-1.9-2.5-3.6-3.5-1.5c-4,9.1-7.3,19.9-8.1,29.9c-0.6,7.1,0.9,16.7,7.9,20.5
				c7.5,4.1,16.9-1.1,23-5.4c7-4.9,13-11,18.1-17.7c12.2-16.1,18.6-35.9,21.6-55.6c1-6.7,3.9-18.9-2.8-23.6
				c-6.5-4.5-15.3,1.1-20.7,4.8c-8.8,5.9-16.1,13.8-22.4,22.3c-6.6,8.9-13.6,18.9-17.2,29.4C689.7,376.6,692.1,377.6,692.7,376.2
				L692.7,376.2z"/>
		</g>
	</g>
	<g>
		<g>
			<path class="st17" d="M708.7,323.8c-5-5-13.6-7.8-19.9-3.3c-7.5,5.4-5.9,16.3-4.8,24.1c2.7,20,9.9,39.6,23.3,54.9
				c6.1,7,13.5,13.1,21.8,17.4c6.9,3.5,16.5,6.6,22.2-0.5c5.9-7.3,2.5-17.6,0.3-25.6c-2.8-10.4-6.8-20.2-12-29.7
				c-2.7-5-5.4-10.2-8.9-14.6c-2.8-3.5-6-6.6-9.1-9.9c-2.8-3-5.6-5.9-8.4-8.9c-1.2-1.2-4.3-3.3-4.7-3.7c-0.9-1-2.4,0.5-1.5,1.5
				c-0.3-0.3,0.6,1.8,0.9,2.2c1.2,1.9,3.2,3.6,4.8,5.3c3.7,4,7.3,7.9,11,11.8c5.6,5.9,9.4,12.9,13.2,20c4.3,8.1,7.7,16.4,10.2,25.2
				c2,7.3,7.1,20.3-1.1,25.5c-7.5,4.7-19.8-4.4-25.7-9c-12.9-10.1-22.1-24.3-27.5-39.7c-3.1-8.9-5.1-18.3-6.1-27.7
				c-0.5-5.1-0.9-11.3,3.1-15.2c4.7-4.6,12.5-2,16.8,1.8C708.1,327,710,325.1,708.7,323.8z"/>
		</g>
	</g>
	<g>
		<g>
			<path class="st17" d="M762.4,354.8c-16.9-8.9-39.8-8.3-58.3-6.2c-9.6,1.1-19.1,3.1-28.1,6.7c-6.2,2.4-14.7,5.5-17.2,12.4
				c-2.5,6.7,2.1,13.1,7.7,16.4c8.4,4.9,19,6.5,28.5,7.7c19.6,2.5,41.6,4.7,60.5-2.6c7.4-2.9,18-8.6,20.7-16.7
				c3.3-9.8-6.4-14.3-13.7-17.8c-2.1-1-3.9,2.1-1.8,3.1c2.8,1.3,5.6,2.7,8.2,4.3c6.5,3.9,4.4,10.7-0.3,15.1
				c-5.5,5.1-13.4,8.2-20.6,10c-15.7,4.1-32.5,2.5-48.4,1c-8.1-0.8-16.3-1.9-24.1-4.5c-7.3-2.3-19.5-9.9-10.4-18.2
				c5.4-5,14-7.4,20.9-9.3c7.3-2.1,14.8-3.3,22.4-3.9c18-1.5,35.6-0.1,52.9,5.4C762.9,358,763.9,355.6,762.4,354.8L762.4,354.8z"/>
		</g>
	</g>
</g>
<g id="Layer_3">
	<g>
		<g>
			<g>
				<path class="st11" d="M591.5,79.4c1.8-3.8,1-10.1-3.6-11.4c-5.8-1.6-7.8,3.4-8.1,8.2c-0.4,4.7-0.3,12,5.5,12.9c6.4,1,7-5,7.2-10
					c0.1-2.5-3.8-2.5-3.9,0c-0.1,2,0.3,6.4-2.5,6.2c-2.9-0.2-2.6-5-2.6-7.2c0-1.8-0.2-6.4,2.4-6.7c3.4-0.4,3.1,5.7,3.7,7.6
					C589.8,80,591.1,80.3,591.5,79.4L591.5,79.4z"/>
			</g>
		</g>
		<g>
			<g>
				<path class="st11" d="M597,68.7c-1.2,4.2-1.5,9.6-0.8,14c0.6,3.7,3,6.2,6.8,6.5c3.4,0.3,5.6-1.6,6.2-4.9
					c0.8-4.7,0.2-10.3-0.4-15c-0.3-2.6-4.2-2.7-4.1,0c0.1,2.6,2.2,15.4-1.3,15.8c-5.1,0.6-3.4-13.2-4.1-16.3
					C599.2,67.4,597.4,67.5,597,68.7L597,68.7z"/>
			</g>
		</g>
		<g>
			<g>
				<path class="st11" d="M613.8,69.7c-0.9,2.4-0.7,5.2-0.8,7.7c-0.1,2.9-0.1,5.7-0.1,8.6c0,2.7,4.3,2.7,4.2,0
					c-0.1-2.9-0.2-5.7-0.2-8.6c0-2.6,0.3-5.3-0.5-7.7C615.9,68.4,614.2,68.5,613.8,69.7L613.8,69.7z"/>
			</g>
		</g>
		<g>
			<g>
				<path class="st11" d="M615.2,71.4c1.7,0.5,5.2,0.2,5.9,2.2c0.7,2-3.1,2.8-4.4,2.7c-2.9-0.1-2.7,4,0,4.4c3.9,0.5,9.5-2.9,8.6-7.3
					c-0.8-4.3-6.4-5.8-10.1-4.6C613.9,69.2,613.9,71,615.2,71.4L615.2,71.4z"/>
			</g>
		</g>
		<g>
			<g>
				<path class="st11" d="M619.2,79c0.4,1.4,1,2.8,1.5,4.2c0.5,1.4,0.8,2.8,1.4,4.2c1,2.1,4.5,0.6,3.8-1.6c-0.4-1.4-1.2-2.7-1.9-4
					c-0.7-1.3-1.3-2.7-2-4C621.1,76.4,618.6,77.3,619.2,79L619.2,79z"/>
			</g>
		</g>
		<g>
			<g>
				<path class="st11" d="M640.1,72.3c0.2-2.6-2.1-4.6-4.5-5c-2.9-0.5-5.5,1.2-6.8,3.8c-1.2,2.4-1.1,5.4,1.2,7.1
					c1.6,1.2,3.8,1.3,5.4,2.4c1.4,0.9,2.6,3-0.1,3.1c-1.4,0-2.7-0.8-3.7-1.8c-2.1-2.1-5.3,1.2-3.2,3.2c3.6,3.5,13.1,5,13.2-2.3
					c0-3.1-2.4-5.3-5-6.4c-1.4-0.6-4.4-0.9-4.2-2.8c0.1-1.4,1.9-2.5,3.2-2c0.7,0.3,1.4,1.3,1.8,1.8C638.3,74.6,640,73.5,640.1,72.3
					L640.1,72.3z"/>
			</g>
		</g>
	</g>
	<g>
		<g>
			<g>
				<path class="st11" d="M60.2,49.1c1.8,0.6,3.9,0.3,5.8,0.2c2.1-0.1,4.3-0.1,6.4-0.3c2.7-0.2,2.8-4.3,0-4.3
					c-2.3,0-4.6,0.3-6.8,0.6c-1.9,0.3-4,0.3-5.7,1.3C58.8,47.3,59.1,48.7,60.2,49.1L60.2,49.1z"/>
			</g>
		</g>
		<g>
			<g>
				<path class="st11" d="M64.8,47.9c0.4,6-0.3,11.9-0.3,17.9c0,2.9,4.4,2.9,4.5,0c0.2-6.2,0.4-12.2-1-18.3
					C67.7,45.6,64.7,46,64.8,47.9L64.8,47.9z"/>
			</g>
		</g>
		<g>
			<g>
				<path class="st11" d="M78.1,47.8C78.1,47.8,78.1,47.7,78.1,47.8c-0.7-0.1-1.5-0.1-2.3-0.1c-0.1-1-0.2-1.2-0.2-0.4
					c-0.1,0.9-0.2,1.8-0.3,2.7c-0.1,1.6-0.2,3.2-0.3,4.7c-0.2,3.4-0.4,6.8-0.3,10.1c1.4-0.4,2.8-0.8,4.2-1.1
					c-0.1-0.1-0.2-0.2-0.3-0.3c-1-1.3-3.3-1.4-3.8,0.5c0,0.1-0.1,0.3-0.1,0.4c-0.7,3.2,4.2,3.9,4.4,0.6c0.2-3.8,0.1-7.7,0-11.5
					c0-2,0.6-5.9-1-7.4c-0.8-0.7-2.3-0.5-2.5,0.7c-0.1,0.5,0,0.8,0.2,1.2C76.3,48.8,77.5,48.5,78.1,47.8L78.1,47.8z"/>
			</g>
		</g>
		<g>
			<g>
				<path class="st11" d="M78.2,57.3c1.2,0,2.5,0,3.7,0c1.1,0,2.2,0.2,3.2-0.2c0.9-0.3,1.7-1.1,1.7-2.2c0-0.1,0-0.2,0-0.2
					c0-1.3-1.3-2.4-2.6-2c-0.6,0.2-1,0.5-1.5,0.8c0.3-0.2,0.6-0.4,1-0.6c-1.8,0.7-4.1,0.6-5.9,0.9C75.7,54.1,76.3,57.2,78.2,57.3
					L78.2,57.3z"/>
			</g>
		</g>
		<g>
			<g>
				<path class="st11" d="M85,47.1c-0.3,2.7-0.1,5.5-0.1,8.2c0,2.7-0.3,5.5,0,8.2c0.3,2.8,4.1,2.8,4.4,0c0.6-5.3-0.1-11.7-1.3-16.9
					C87.6,44.9,85.2,45.5,85,47.1L85,47.1z"/>
			</g>
		</g>
		<g>
			<g>
				<path class="st11" d="M92.5,46.7c-1.3,5.4-0.3,11.9-0.5,17.5c0,1.2,1.1,2.4,2.3,2.3c2.4-0.2,5.3-0.3,7.5-1.1
					c1.3-0.5,1.8-1.5,1.6-2.9c0-0.1,0-0.2,0-0.3c-0.2-1.4-2.1-1.9-3.1-1.3c-1.5,0.9-4.3,0.8-6,0.9c0.8,0.8,1.5,1.5,2.3,2.3
					C96.5,58.7,97,51.8,95,46.7C94.6,45.5,92.8,45.3,92.5,46.7L92.5,46.7z"/>
			</g>
		</g>
		<g>
			<g>
				<path class="st11" d="M95.6,57.6c1.3,0,2.6,0.1,3.9-0.2c1.1-0.2,1.8-1.6,1.5-2.6c-0.4-1.1-1.5-1.8-2.6-1.5
					c-0.6,0.2-1,0.4-1.6,0.6c-0.6,0.2-1,0.3-1.6,0.4c-0.8,0.1-1.3,1.1-1.2,1.8C94.1,57,94.8,57.7,95.6,57.6L95.6,57.6z"/>
			</g>
		</g>
		<g>
			<g>
				<path class="st11" d="M93.8,49c2.2,0.3,4.7,0.9,6.9,0.6c2.7-0.3,2.8-4.1,0-4.3c-2.1-0.1-4.3,0.3-6.4,0.3
					C92.4,45.7,91.8,48.7,93.8,49L93.8,49z"/>
			</g>
		</g>
		<g>
			<g>
				<path class="st11" d="M107.1,46.7c-1.4,5.3-0.8,11.9-0.8,17.4c0,3,4.8,3,4.7,0c-0.1-5.5,0.2-12.1-1.3-17.4
					C109.4,45.4,107.5,45.3,107.1,46.7L107.1,46.7z"/>
			</g>
		</g>
		<g>
			<g>
				<path class="st11" d="M116.2,48.6c0.1,0,0.1-0.1,0.2-0.1c-0.8-0.4-1.5-0.9-2.3-1.3c-0.4,5.6-0.3,11.9,0.3,17.5
					c0.3,2.6,4.1,2.7,4.2,0c0.1-5.7-0.3-12.3-1.4-17.9c-0.5-2.8-4.9,0.2-2.3,1.7C115.3,48.7,115.7,48.8,116.2,48.6L116.2,48.6z"/>
			</g>
		</g>
		<g>
			<g>
				<path class="st11" d="M116.7,49.6c1.4-0.3,5.2,0.3,5.6,2.1c0.4,1.6-1.5,2.5-2.9,2.3c-1.2-0.2-2.4,0.3-2.7,1.6
					c-0.3,1,0.4,2.6,1.6,2.7c4.2,0.6,8.9-2,8.1-6.9c-0.8-4.8-6.6-5.4-10.4-4.5C114.2,47.3,115,49.9,116.7,49.6L116.7,49.6z"/>
			</g>
		</g>
		<g>
			<g>
				<path class="st11" d="M119.8,57.4c0.2,1.3,0.9,2.5,1.3,3.7c0.4,1.2,0.6,2.4,1.2,3.5c0.3,0.7,1.2,1.1,2,1.1c0.1,0,0.1,0,0.2,0
					c1,0,2.2-1,2.1-2.1c-0.2-1.3-1-2.7-1.6-3.9c-0.7-1.3-1.5-2.8-2.6-3.8C121.1,55,119.6,56,119.8,57.4L119.8,57.4z"/>
			</g>
		</g>
		<g>
			<g>
				<path class="st11" d="M140.9,49.8c-2.2-4.2-9.8-6.3-11.6-0.5c-0.8,2.5,0.7,4.6,2.5,6.2c1.3,1.1,3.3,1.7,4.4,2.9
					c2.8,3-2.1,4.4-3.3,1.7c-1.2-2.6-5.1-0.3-3.9,2.3c2.3,5,10.8,4.8,12.9-0.3c1-2.6-0.2-5-2.3-6.7c-1.4-1.1-3-1.8-4.5-2.9
					c-1.2-0.9-1.9-2.8,0.5-2.4c1,0.2,2.2,0.8,2.9,1.5C139.8,52.7,141.7,51.3,140.9,49.8L140.9,49.8z"/>
			</g>
		</g>
	</g>
	<g>
		<g>
			<g>
				<path class="st11" d="M48.3,371.1c-0.2,5.8,0,11.5,0.1,17.3c0.1,2.7,4.3,2.7,4.2,0c-0.3-5.8-0.5-11.6-1-17.3
					C51.4,369,48.4,368.9,48.3,371.1L48.3,371.1z"/>
			</g>
		</g>
		<g>
			<g>
				<path class="st11" d="M50.3,373.1c1.8,0.5,4.8,0.5,5.7,2.5c1.1,2.4-2.9,3.2-4.4,3.2c-2.8-0.1-2.8,4.4,0,4.4
					c4,0.1,9.5-2.6,8.7-7.4c-0.7-4.4-5.7-6-9.6-5.6C49.1,370.3,48.5,372.7,50.3,373.1L50.3,373.1z"/>
			</g>
		</g>
		<g>
			<g>
				<path class="st11" d="M63.7,371.5c-0.1,5.5,0.1,11.3,0.5,16.8c0.2,2.7,4.1,2.7,4.2,0c0.2-5.6-0.3-11.8-1.4-17.3
					C66.7,369.1,63.7,369.6,63.7,371.5L63.7,371.5z"/>
			</g>
		</g>
		<g>
			<g>
				<path class="st11" d="M65.7,373.4c1.8,0.8,4.8,0.4,6.1,2.2c1.6,2.2-3,2.9-4.3,3.1c-2.4,0.4-1.8,4.1,0.6,4.1c3.9,0,9.3-3,8.1-7.6
					c-1.1-4-6.5-5.5-10.1-4.2C65.1,371.3,64.6,372.9,65.7,373.4L65.7,373.4z"/>
			</g>
		</g>
		<g>
			<g>
				<path class="st11" d="M69.3,382c1.2,2.1,2.6,4.5,3.2,6.8c0.9,3.2,5.8,0.9,4-1.7c-1.6-2.4-3.1-4.7-4.9-6.9
					C70.5,379,68.5,380.6,69.3,382L69.3,382z"/>
			</g>
		</g>
		<g>
			<g>
				<path class="st11" d="M79.7,371.6c-0.3,3,0,6.2-0.1,9.2c-0.1,2.5-0.6,5.3-0.2,7.7c0.1,0.7,0.8,1.3,1.5,1.5
					c2.1,0.6,4.9,0.2,7.1,0.2c2.9,0.1,2.9-4.7,0-4.5c-1.7,0.1-4.3,0.7-6,0.2c0.5,0.5,1,1,1.5,1.5c-0.5-2.5,0.1-5.8-0.1-8.4
					c-0.2-2.6-0.3-5.2-1-7.7C82,369.7,79.8,370.1,79.7,371.6L79.7,371.6z"/>
			</g>
		</g>
		<g>
			<g>
				<path class="st11" d="M82.6,382c0.6,0,1.2,0,1.9,0c0.7,0.1,1.4,0.3,2.1,0c0.8-0.3,1.4-0.9,1.4-1.8c0-0.8-0.6-1.6-1.4-1.8
					c-0.9-0.2-1.6,0-2.4,0.2c-0.6,0.2-1.3,0.2-1.9,0.3c-0.8,0.1-1.2,1-1.1,1.7C81.2,381.4,81.8,382,82.6,382L82.6,382z"/>
			</g>
		</g>
		<g>
			<g>
				<path class="st11" d="M80.4,373.5c2.2,0.4,4.2,0.6,6.4,0.5c2.9-0.1,2.4-4.5-0.5-3.9c-1.8,0.3-3.7,0.6-5.5,0.6
					C79.2,370.7,78.8,373.2,80.4,373.5L80.4,373.5z"/>
			</g>
		</g>
		<g>
			<g>
				<path class="st11" d="M104.9,374.4c-1.2-5.3-9.5-6.4-11.7-1.2c-1,2.5,0.2,5.1,2.1,6.8c1.2,1.1,2.6,1.6,4,2.4
					c0.9,0.5,2.9,1.5,2.6,3c-0.4,1.8-4.6,0.9-4.6,0.7c0.9-2.3-2.9-3.9-3.9-1.7c-2.9,6.1,8.3,8.4,11.6,4.1c1.9-2.5,1.3-5.7-0.8-7.9
					c-1.2-1.2-2.7-1.8-4.1-2.6c-1.6-0.8-2.7-1-1.8-2.9c0.1-1.2,0.7-1.6,1.7-1.2c0.9,0.2,1.7,0.7,2.2,1.5
					C103.2,376.9,105.3,376.1,104.9,374.4L104.9,374.4z"/>
			</g>
		</g>
		<g>
			<g>
				<path class="st11" d="M109.6,371.1c-0.6,3-0.5,6.1-0.6,9.1c-0.1,2.6-0.8,6,0,8.5c0.2,0.7,0.8,1.4,1.6,1.6c2.5,0.5,5.5,0,8.1-0.1
					c2.9-0.1,2.9-4.6,0-4.5c-2.1,0-4.9,0.7-6.9,0.3c0.5,0.5,1.1,1.1,1.6,1.6c-0.7-2.4-0.2-5.9-0.3-8.5c-0.1-2.6-0.1-5.3-0.6-7.9
					C112.2,369.7,109.8,369.7,109.6,371.1L109.6,371.1z"/>
			</g>
		</g>
		<g>
			<g>
				<path class="st11" d="M111.7,381.2c0.7,0.1,1.4,0.4,2.2,0.5c0.7,0.1,1.5,0.2,2.2,0.3c1.2,0.2,2.4-0.4,2.6-1.7
					c0.2-1.2-0.8-2.3-2-2.4c-0.8,0-1.5,0-2.3,0c-0.8,0-1.5,0.1-2.3,0.1C110.4,378.1,109.9,380.9,111.7,381.2L111.7,381.2z"/>
			</g>
		</g>
		<g>
			<g>
				<path class="st11" d="M111.1,372.9c2,0.4,4,0.5,6,1.1c3,0.9,3.8-4.3,0.6-4.3c-2.1,0-4.5-0.2-6.5,0.2
					C109.6,370.2,109.6,372.6,111.1,372.9L111.1,372.9z"/>
			</g>
		</g>
		<g>
			<g>
				<path class="st11" d="M123.2,371.4c-0.4,5.5-0.3,11.2-0.6,16.7c-0.1,2.7,4,2.7,4.2,0c0.4-5.6,0.5-11.6-0.5-17.2
					C125.9,369.2,123.3,369.8,123.2,371.4L123.2,371.4z"/>
			</g>
		</g>
		<g>
			<g>
				<path class="st11" d="M124.5,371.2c1.1,6.5,4.7,13.1,7.7,18.9c1.3,2.5,5.1,0.3,3.7-2.2c-3.1-5.8-5.5-12.3-9.1-17.7
					C126,368.9,124.3,369.8,124.5,371.2L124.5,371.2z"/>
			</g>
		</g>
		<g>
			<g>
				<path class="st11" d="M133,371.3c-0.9,5.4-0.3,11.2-0.5,16.7c-0.1,2.8,4.4,2.8,4.4,0c0.1-5.4,0.3-11.6-1.3-16.7
					C135.2,370.1,133.2,369.9,133,371.3L133,371.3z"/>
			</g>
		</g>
		<g>
			<g>
				<path class="st11" d="M139.3,373.1c3.4,0.6,6.9,0.8,10.4,1.4c3.1,0.5,3.7-4.2,0.6-4.2c-3.5-0.1-7.2-0.3-10.6,0.2
					C138.3,370.6,137.6,372.8,139.3,373.1L139.3,373.1z"/>
			</g>
		</g>
		<g>
			<g>
				<path class="st11" d="M143.8,372.3c-0.3,5.3-0.1,10.6-0.6,15.9c1.4-0.2,2.9-0.4,4.3-0.6c-0.1-0.1-0.1-0.3-0.2-0.4
					c-0.6-1.5-2.7-2.1-3.6-0.5c-0.1,0.1-0.1,0.2-0.2,0.4c-1.8,3.1,3.9,4.9,4.1,1.1c0.3-5.4,0.4-11.1-1-16.3
					C146.2,370.3,143.9,370.7,143.8,372.3L143.8,372.3z"/>
			</g>
		</g>
		<g>
			<g>
				<path class="st11" d="M157,370.8c-1.9,5.2-4,11.3-4.8,16.7c-0.3,2.1,2.7,3.9,3.8,1.6c2.4-5.3,3.6-12.1,4-17.9
					C160,369.4,157.5,369.3,157,370.8L157,370.8z"/>
			</g>
		</g>
		<g>
			<g>
				<path class="st11" d="M157.9,371.5c0.7,5.8,2.8,11.5,4,17.2c0.6,3,5.3,1.7,4.6-1.3c-1.4-5.5-2.8-11.8-5.8-16.7
					C159.9,369.7,157.8,370,157.9,371.5L157.9,371.5z"/>
			</g>
		</g>
		<g>
			<g>
				<path class="st11" d="M157.5,385.8c1.7,0,4,0.5,5.5-0.4c0.9-0.5,1.2-1.6,0.8-2.5c-0.4-1-1.3-1.3-2.3-1.1c-1.3,0.2-2.6,0.5-4,0.7
					c-0.9,0.1-1.6,0.7-1.6,1.6C155.9,385,156.6,385.8,157.5,385.8L157.5,385.8z"/>
			</g>
		</g>
		<g>
			<g>
				<path class="st11" d="M166.1,372.9c2,0.7,4,0.6,6,0.9c1.9,0.3,3.7,0.4,5.5,0c2.3-0.5,1.8-4.1-0.6-4.1c-1.7,0-3.4,0.2-5.2,0.1
					c-1.8-0.1-3.6,0.4-5.4,0.2C164.7,369.9,164.6,372.4,166.1,372.9L166.1,372.9z"/>
			</g>
		</g>
		<g>
			<g>
				<path class="st11" d="M170.1,372.7c-0.3,5.3,0,10.7-0.1,16c0,2.9,4.5,2.9,4.5,0c-0.1-5.4-0.2-11.1-1.5-16.4
					C172.7,370.6,170.2,371.1,170.1,372.7L170.1,372.7z"/>
			</g>
		</g>
		<g>
			<g>
				<path class="st11" d="M181.3,371c-0.8,3.2-0.2,6.9-0.2,10.2c0,2.4-0.8,6.6,0.5,8.6c1.2,1.8,3.7,1,3.9-1.1c0,0,0-0.1,0-0.1
					c0.1-1.1-1.1-2.1-2.1-2.1c0,0-0.1,0-0.1,0c-1.7,0-2.8,2.3-1.4,3.5c0,0,0,0,0.1,0.1c0-1,0-2,0-2.9c0,0-0.1,0.1-0.1,0.1
					c1.2,0.3,2.4,0.6,3.5,0.9c-0.5-1.3-0.1-3.6-0.1-5c0-1.5-0.1-3.1-0.2-4.6c-0.2-2.7-0.2-5.4-1.3-7.9
					C183.4,369.5,181.6,369.9,181.3,371L181.3,371z"/>
			</g>
		</g>
		<g>
			<g>
				<path class="st11" d="M200.9,379.7c0.5-4.1-1.2-9.8-6.3-9.1c-4.7,0.6-6.2,5.8-5.8,9.8c0.3,3.9,1.7,8.9,6.1,9.9
					c5.4,1.2,6.4-5.7,6.3-9.5c-0.1-2.5-3.9-2.5-3.9,0c0,1.1,0.1,2.6-0.3,3.7c-0.6,1.5-2,2.5-3.2,0.7c-1.1-1.6-1.4-3.9-1.5-5.8
					c-0.1-1.7,0.9-6.6,3.9-4.9c1.3,0.8,1.5,4.2,1.7,5.5C198.1,382,200.7,381.3,200.9,379.7L200.9,379.7z"/>
			</g>
		</g>
		<g>
			<g>
				<path class="st11" d="M205,371c-0.5,5.6-0.3,11.4-0.2,17c0.1,2.7,4.2,2.7,4.2,0c0-5.8-0.2-11.7-1.5-17.4
					C207.2,369.1,205.1,369.6,205,371L205,371z"/>
			</g>
		</g>
		<g>
			<g>
				<path class="st11" d="M205.7,371.3c0.6,2.9,2.1,5.7,3.3,8.4c1.3,3.1,2.7,6.1,4,9.2c1.1,2.5,5.1,0.4,3.8-2.2
					c-2.7-5.4-5.1-12.1-9-16.6C206.9,369.1,205.5,370.2,205.7,371.3L205.7,371.3z"/>
			</g>
		</g>
		<g>
			<g>
				<path class="st11" d="M214.4,371.2c-0.9,5.5-0.5,11.5-0.5,17.1c0,2.9,4.4,2.9,4.4,0c0-5.6,0.3-11.7-1-17.1
					C216.9,369.8,214.6,369.7,214.4,371.2L214.4,371.2z"/>
			</g>
		</g>
		<g>
			<g>
				<path class="st11" d="M225.4,370.3c-2.4,5.4-3.7,11.4-5.3,17.1c-0.8,2.8,3.6,4,4.3,1.2c1.5-5.7,3.3-11.6,3.6-17.5
					C228.1,369.6,226,369,225.4,370.3L225.4,370.3z"/>
			</g>
		</g>
		<g>
			<g>
				<path class="st11" d="M226.2,371.3c1.6,6.1,2.8,12.1,4,18.3c0.5,2.4,4.4,1.9,4.3-0.6c-0.2-6.5-2.5-13.3-5.7-18.8
					C227.9,368.8,225.8,369.7,226.2,371.3L226.2,371.3z"/>
			</g>
		</g>
		<g>
			<g>
				<path class="st11" d="M224.7,385.3c1.3,0.4,2.8,0.3,4.2,0.4c1.3,0.1,2.7-0.1,3.3-1.4c0.5-1,0.3-2.3-0.8-2.9
					c-0.9-0.5-2.4-0.3-2.9,0.8c0.8-0.4,0.9-0.6,0.4-0.5c-0.1,0-0.2,0-0.2,0c-0.5,0.1-0.9,0.1-1.4,0.2c-0.8,0.1-1.8,0.1-2.6,0.4
					C223.4,383,223.2,384.8,224.7,385.3L224.7,385.3z"/>
			</g>
		</g>
		<g>
			<g>
				<path class="st11" d="M237.7,371.2c-0.9,2.5-0.6,5.4-0.5,8c0.1,3,0.1,6,0.2,9c0.1,2.8,4.5,2.8,4.3,0c-0.2-3.2-0.4-6.4-0.6-9.6
					c-0.2-2.6-0.2-5.2-1.3-7.6C239.4,370,238.1,370.4,237.7,371.2L237.7,371.2z"/>
			</g>
		</g>
		<g>
			<g>
				<path class="st11" d="M239.5,390.2c2.1,0.3,4.2,0.3,6.3,0.4c2.6,0.1,2.6-4.2,0-4c-2.1,0.1-4.2,0.1-6.3,0.4
					C237.4,387.2,237.4,389.9,239.5,390.2L239.5,390.2z"/>
			</g>
		</g>
	</g>
	<path class="st11" d="M518.5,195.4c-3.8-4.6-10.9-3.3-13.7,1.1c-1.2,1.2-2,2.8-2.1,4.6c0,0.8,0.1,1.5,0.2,2.2
		c0,0.9,0.1,1.8,0.5,2.7c1.5,3.2,5.3,4.7,8.7,4.3C519.5,209.6,523.3,201.2,518.5,195.4z"/>
	<g>
		<g>
			<path class="st11" d="M516.9,201c8-9.8,14-21.8,20.6-32.6c10.9-17.9,21.8-35.8,32.6-53.7c2.5-4.1,5-8.2,7.5-12.4
				c-0.7,0.4-1.3,0.8-2,1.1c34.1-0.3,68.1-0.6,102.2-0.8c3.4,0,6.8,0,10.3-0.1c1.1,0,2.2-0.1,3.4-0.3c0.9-0.1,1.9-0.1,0.5-0.1
				c2.9,0,2.9-4.6,0-4.5c0.5,0-0.2,0-0.8-0.1c-0.8-0.1-1.6-0.2-2.5-0.2c-2.8-0.1-5.7,0.1-8.5,0.1c-9.4,0.1-18.8,0.2-28.2,0.4
				c-21,0.3-41.9,0.5-62.9,0.7c-4.1,0-9.2-0.7-13.3,0.2c-3,0.6-4.6,5.4-6.1,7.8c-10.2,17-20.4,33.9-30.6,50.9
				c-5.7,9.6-11.4,19.2-17.1,28.8c-2.5,4.2-5.2,8.4-7.2,12.9C514.1,200.7,515.8,202.4,516.9,201L516.9,201z"/>
		</g>
	</g>
	<path class="st11" d="M273.8,141.6c-3.8-4.6-10.9-3.3-13.7,1.1c-1.2,1.2-2,2.8-2.1,4.6c0,0.8,0.1,1.5,0.2,2.2
		c0,0.9,0.1,1.8,0.5,2.7c1.5,3.2,5.3,4.7,8.7,4.3C274.8,155.8,278.6,147.4,273.8,141.6z"/>
	<g>
		<g>
			<path class="st11" d="M272.1,145.3c-3.1-3.6-6.7-6.6-10.2-9.8c-7.9-7.2-15.8-14.3-23.7-21.4c-13.6-12.2-26.9-24.8-40.8-36.5
				c-2.2-1.9-4.3-1.5-7.2-1.5c-7.4,0-14.8,0-22.1,0c-22.8,0-45.6-0.1-68.3-0.1c-10.7,0-21.3-0.1-32-0.1c-3.3,0-6.6-0.1-9.8,0
				c-0.9,0-1.7,0.1-2.5,0.2c-1.2,0.1-2.1,0.1-0.8,0.1c-2.9,0-2.9,4.5,0,4.5c0.2,0,0.4,0.1-0.3-0.1c-1.2-0.3,0.6,0.2,0.9,0.2
				c0.7,0.1,1.3,0.2,2,0.2c2.6,0.1,5.2,0,7.7,0c8.7,0,17.5-0.1,26.2-0.1c22.9-0.1,45.7-0.1,68.6-0.1c8.6,0,17.1,0,25.7,0
				c2.4,0,4.9,0,7.3,0c0.4,0,1.4,0.2,1.7,0c0.9-0.6-0.9,0.2-1.1-0.6c0.2,0.9,3.1,2.8,3.8,3.4c2.8,2.5,5.6,4.9,8.3,7.4
				c8,7.1,16.1,14.3,24.1,21.4c9.2,8.1,18.4,16.3,27.7,24.4c4.3,3.8,8.4,7.7,13.2,10.9C271.8,148.4,273.1,146.4,272.1,145.3
				L272.1,145.3z"/>
		</g>
	</g>
	<g>
		<g>
			<path class="st11" d="M386.2,233.8c-13.4,18.4-24.8,38.5-36.9,57.8c-19.3,30.9-38.6,61.7-57.9,92.6c-4.4,7.1-8.8,14.2-13.3,21.3
				c0.7-0.4,1.3-0.8,2-1.1c-27.3,0-54.6-0.1-81.9-0.1c-43.1,0-86.3-0.1-129.4-0.2c-7.3,0-14.6,0-21.9-0.1c-2,0-4,0-6,0.2
				c-1.2,0.1-1.9,0.2-2.1,0.2c-2.9,0-2.9,4.5,0,4.5c0.1,0,0.2,0,0.3,0c-0.8-0.2,0.7,0.1,1.1,0.1c1.4,0.1,2.8,0.2,4.2,0.2
				c5.1,0.1,10.3,0,15.4,0c16.9,0,33.7-0.1,50.6-0.1c41.5-0.1,83-0.1,124.5-0.1c13,0,26,0,39,0c1.9,0,4.4,0.4,6.3,0
				c2.2-0.5,3.1-3,4.3-4.8c18-28.9,36-57.8,53.9-86.7c10.6-17.1,21.2-34.2,31.7-51.3c6-9.7,12.7-19.3,17.8-29.5
				c0.2-0.5,0.5-1,0.8-1.4C389.4,233.6,387.2,232.4,386.2,233.8L386.2,233.8z"/>
		</g>
	</g>
	<g>
		<g>
			<g>
				<path class="st11" d="M589.9,132.3c0.9-3.4-0.2-8.6-4.3-9.2c-5.7-0.8-6,5.9-5.7,9.8c0.2,3.6,1.4,8.5,6.1,7.7
					c4.1-0.7,4.9-5.1,4.2-8.6c-0.3-1.5-2.7-1.2-2.7,0.4c0,1.4,0.3,3.6-0.7,4.7c-1.3,1.4-3.3,0.1-3.7-1.3c-0.3-1.1-0.3-2.2-0.4-3.3
					c-0.1-1.1-0.1-2.2,0-3.3c0.1-1.8,1.7-4.4,3.7-2.4c1.3,1.3,0.8,4,1.3,5.6C588,133.3,589.6,133.4,589.9,132.3L589.9,132.3z"/>
			</g>
		</g>
		<g>
			<g>
				<path class="st11" d="M597.7,122.6c-2.5-0.5-4.2,1.4-4.6,3.8c-0.7,4.1,0,8.9,0.1,13c0,1.9,3,1.9,3,0c-0.1-2.4-0.1-4.7-0.2-7.1
					c-0.1-2.5-0.8-6.3,2-7.7C598.9,124.3,598.6,122.8,597.7,122.6L597.7,122.6z"/>
			</g>
		</g>
		<g>
			<g>
				<path class="st11" d="M591.8,129.9c0.8,0.3,1.7,0.2,2.6,0.2c0.9,0,1.8,0.1,2.7,0.1c2.1,0,2-3.1,0-3.2c-1-0.1-1.9,0-2.9,0.1
					c-0.9,0.1-1.9,0.1-2.7,0.6C590.6,128.3,590.8,129.6,591.8,129.9L591.8,129.9z"/>
			</g>
		</g>
		<g>
			<g>
				<path class="st11" d="M603.8,122.3c-2.6-0.1-3.2,1.9-3.5,4.2c-0.4,4.1-0.5,8.2-0.6,12.4c-0.1,2.3,3.6,2.2,3.5,0
					c-0.1-1.6-0.8-13.5,0.9-13.8C605.8,124.8,605.3,122.4,603.8,122.3L603.8,122.3z"/>
			</g>
		</g>
		<g>
			<g>
				<path class="st11" d="M598.4,130c0.9,0.2,1.7,0.1,2.6,0.2c0.9,0.1,1.8,0.2,2.6,0.3c1.8,0.1,2.2-2.9,0.4-3.2
					c-1.7-0.2-4-0.3-5.7,0.3C597.4,128,597.2,129.8,598.4,130L598.4,130z"/>
			</g>
		</g>
		<g>
			<g>
				<path class="st11" d="M607.6,134.2c2.2,0.4,4.7,0.3,6.9,0.1c2.1-0.2,2.1-3.5,0-3.3c-2.3,0.2-4.7,0.4-6.9,0.9
					C606.5,132.2,606.4,134,607.6,134.2L607.6,134.2z"/>
			</g>
		</g>
		<g>
			<g>
				<path class="st11" d="M615.6,132.5c0.9-2.7-1-5.2-3.7-5.5c-2.7-0.4-4.7,1.4-5.1,4c-0.3,2.3-0.4,6.8,1.5,8.6c2.2,2,5.6,0.5,7-1.6
					c1.2-1.8-1.6-3.3-2.8-1.6c-1,1.4-2.2,1-2.6-0.6c-0.3-1-0.3-2.1-0.2-3.1c0-0.9-0.1-2.2,0.9-2.6c1.1-0.5,2.9,0.5,2.6,1.9
					C613,133.4,615.1,134,615.6,132.5L615.6,132.5z"/>
			</g>
		</g>
		<g>
			<g>
				<path class="st11" d="M618.2,127.9c-0.2,3.6,0.1,7.3-0.2,11c-0.2,2.1,3.4,2.2,3.4,0c0-3.7,0.2-7.7-0.7-11.3
					C620.3,126.1,618.3,126.5,618.2,127.9L618.2,127.9z"/>
			</g>
		</g>
		<g>
			<g>
				<path class="st11" d="M623.3,126.8c-2.2,0.4-4.5,2.5-5.1,4.7c-0.4,1.4,1.6,2.8,2.6,1.5c0.6-0.7,1-1.5,1.6-2.1
					c0.6-0.6,1.3-1,2-1.5C625.7,128.4,624.9,126.5,623.3,126.8L623.3,126.8z"/>
			</g>
		</g>
		<g>
			<g>
				<path class="st11" d="M634.1,130.3c1.1-3.7-6.6-4.6-7.5-0.6c-0.5,2.2,1,4,2.8,5c0.5,0.3,1.1,0.5,1.6,0.7
					c0.7,0.3,0.9,0.3,0.8,1.2c-0.2,2-2.5,0.5-3.2-0.4c-1.1-1.3-3.4,0.4-2.4,1.9c2,3.1,7.5,3.5,8.9-0.4c0.6-1.7-0.3-3.4-1.7-4.3
					c-1-0.6-2.1-0.8-3-1.5c-0.7-0.5-1.4-2,0.2-1.7c0.4,0.1,1.3,0.7,1.2,0.5C632.2,131.7,633.8,131.2,634.1,130.3L634.1,130.3z"/>
			</g>
		</g>
		<g>
			<g>
				<path class="st11" d="M643.8,124.9c-0.3,3.7-0.2,7.5,0,11.2c0.1,2.2,0.6,4,2.9,4.7c1.9,0.6,2.7-2.3,0.8-2.9
					c-1.3-0.4-0.8-6.2-0.9-7.3c-0.1-2-0.2-4-0.4-5.9C645.9,123.2,643.9,123.7,643.8,124.9L643.8,124.9z"/>
			</g>
		</g>
		<g>
			<g>
				<path class="st11" d="M643.5,128.9c0,0-0.1-0.1-0.1-0.1c-0.4,0.5-0.8,1-1.2,1.5c0.6,0.4,1.4,0.3,2.2,0.3c0.8,0,1.5-0.1,2.3,0
					c2.1,0.1,1.8-3.4-0.4-2.9c-0.7,0.2-1.5,0.2-2.3,0.4c-0.7,0.1-1.5,0.2-2,0.7c-0.5,0.5-0.3,1.4,0.4,1.6c0,0,0.1,0,0.1,0
					C643.5,130.7,644.1,129.6,643.5,128.9L643.5,128.9z"/>
			</g>
		</g>
		<g>
			<g>
				<path class="st11" d="M650.4,123.8c0.1,5-0.3,10-0.1,15c0.1,2.1,3,2,3.2,0c0.5-4.9-0.1-10.1-0.7-15
					C652.7,122.3,650.4,122.2,650.4,123.8L650.4,123.8z"/>
			</g>
		</g>
		<g>
			<g>
				<path class="st11" d="M653.6,131.4c0.7-0.4,1.8-1.3,2.6-1.4c0.7,0,0.3-0.1,0.6,0.4c0.2,0.4,0.1,1.4,0.1,1.8
					c0.1,2.1-0.1,4.1-0.3,6.2c-0.2,2.2,3.3,2.3,3.5,0c0.2-1.9,0.2-3.9,0.1-5.8c-0.1-1.4,0-3.2-0.9-4.4c-2-2.8-5.4-0.2-7.1,1.5
					C651.4,130.6,652.5,132.2,653.6,131.4L653.6,131.4z"/>
			</g>
		</g>
		<g>
			<g>
				<path class="st11" d="M663.5,134.5c1.3,0.1,2.7,0,4-0.1c1-0.1,2.2,0,3.1-0.4c0.7-0.3,1-0.7,1.1-1.4c0.3-2.5-1-5.5-3.8-5.7
					c-2.8-0.2-5,1.5-5.4,4.3c-0.4,2.8-0.2,6.2,2.4,7.9c2.1,1.4,5,0.9,6.2-1.4c0.9-1.7-1.8-3.1-2.5-1.5c-0.6,1.5-2.2,0.9-2.9-0.2
					c-0.7-1.1-0.7-2.7-0.5-4c0.2-1.3,1.1-2.6,2.6-2.2c0.9,0.3,1.1,1.8,1.1,2.7c0.2-0.4,0.5-0.8,0.7-1.3c-0.9,0.4-2.5,0.3-3.4,0.4
					c-1,0.1-1.9,0.2-2.9,0.3C661.8,132.4,662.3,134.4,663.5,134.5L663.5,134.5z"/>
			</g>
		</g>
		<g>
			<g>
				<path class="st11" d="M682.8,131.2c0.9-0.5,1.8-1.1,2.8-1.3c1.8-0.4,1.8,1,1.7,2.4c0,2.4-0.2,4.7-0.2,7.1c0,2,3.3,2,3.2,0
					c-0.1-2.2-0.2-4.5-0.2-6.7c0-1.6,0-3.6-1.2-4.9c-2-2.1-6.3,0-7.6,1.9C680.7,130.6,681.9,131.7,682.8,131.2L682.8,131.2z"/>
			</g>
		</g>
		<g>
			<g>
				<path class="st11" d="M687.5,131.4c-2.5,1.2-8.2,2.7-7.3,6.5c0.9,4,6.6,1.2,8.7,0c1.7-1,0.1-3.6-1.5-2.6
					c-0.9,0.6-1.8,1.2-2.8,1.5c-0.5,0.1-1.2,0-1.6,0.2c-0.3-0.1-0.4,0,0,0.3c0-0.3,0.1-0.5,0.3-0.7c0.5-0.7,1.7-1.1,2.4-1.5
					c1-0.6,2-1.1,3.1-1.7C690.1,132.7,688.9,130.7,687.5,131.4L687.5,131.4z"/>
			</g>
		</g>
		<g>
			<g>
				<path class="st11" d="M693.5,123.6c0,5.1,0.3,10.1,0.2,15.2c0,2.1,3.2,2.1,3.2,0c0.1-5.1-0.1-10.5-1.1-15.5
					C695.5,122,693.5,122.3,693.5,123.6L693.5,123.6z"/>
			</g>
		</g>
		<g>
			<g>
				<path class="st11" d="M696.3,131.1c0.5-0.4,1.8-1.3,2.5-0.9c0.7,0.4,0.5,2.4,0.5,2.9c0,0.9,0,1.8-0.2,2.7c-0.3,1.2-0.8,1-2,0.9
					c-2-0.3-2.9,2.8-0.9,3.1c2,0.3,4.2,0.5,5.3-1.5c1.2-2,1-5,0.7-7.2c-0.6-4.5-5.3-4.7-7.7-1.4
					C693.8,130.8,695.4,131.8,696.3,131.1L696.3,131.1z"/>
			</g>
		</g>
		<g>
			<g>
				<path class="st11" d="M707.6,128.9c0.1-0.1,0.1-0.1,0.2-0.2c-0.7-0.3-1.3-0.6-2-0.8c-0.3,1.7-0.2,3.3-0.2,5
					c0,1.8-0.1,3.7,0.1,5.5c0.1,2,3,2,3.1,0c0.1-1.8-0.1-3.7-0.2-5.5c-0.1-1.7-0.1-3.4-0.7-5c-0.6-1.6-3-0.3-1.8,1
					c0,0.1,0.1,0.1,0.1,0.2C706.6,129.6,707.3,129.3,707.6,128.9L707.6,128.9z"/>
			</g>
		</g>
		<g>
			<g>
				<path class="st11" d="M706.7,125c0.7,0,1.4-0.6,1.4-1.4c0-0.7-0.6-1.4-1.4-1.4c-0.7,0-1.4,0.6-1.4,1.4
					C705.3,124.4,705.9,125,706.7,125L706.7,125z"/>
			</g>
		</g>
		<g>
			<g>
				<path class="st11" d="M712.7,123.7c-1,4.4-0.8,9.9-0.6,14.3c0.1,2.2,3.3,2.2,3.4,0c0.2-4.5,0.2-10-0.9-14.3
					C714.4,122.8,713,122.8,712.7,123.7L712.7,123.7z"/>
			</g>
		</g>
		<g>
			<g>
				<path class="st11" d="M718.8,128.1c-0.3,3.6-0.3,7.2-0.3,10.8c0,2.1,3.3,2.1,3.2,0c-0.1-3.6-0.2-7.2-0.5-10.8
					C721.1,126.6,718.9,126.5,718.8,128.1L718.8,128.1z"/>
			</g>
		</g>
		<g>
			<g>
				<path class="st11" d="M719.8,125.1c1.8,0,1.8-2.8,0-2.8C718,122.2,718,125.1,719.8,125.1L719.8,125.1z"/>
			</g>
		</g>
		<g>
			<g>
				<path class="st11" d="M725.3,124.9c-0.6,1.8-0.3,3.9-0.4,5.8c0,2-0.1,4.2,0.1,6.2c0.3,2.5,2.1,4.1,4.6,3
					c1.6-0.7,0.5-3.4-1.2-2.9c0.4-0.1-0.8-11.1-1.2-12.2C726.9,124,725.6,123.9,725.3,124.9L725.3,124.9z"/>
			</g>
		</g>
		<g>
			<g>
				<path class="st11" d="M723.6,130.2c1,0.2,1.9,0.5,2.9,0.8c1,0.2,1.8,0.6,2.8,0.1c1.4-0.7,0.6-2.7-0.8-2.8
					c-1.6-0.1-3.1,0-4.7-0.1C722.7,128.1,722.5,130,723.6,130.2L723.6,130.2z"/>
			</g>
		</g>
		<g>
			<g>
				<path class="st11" d="M731,128.4c0.6,3.4,2.1,6.5,3,9.8c0.6,2.4,4.3,1,3.2-1.3c-1.4-3.1-2.3-6.4-4.1-9.4
					C732.3,126.4,730.8,127.2,731,128.4L731,128.4z"/>
			</g>
		</g>
		<g>
			<g>
				<path class="st11" d="M737.8,127.8c-0.7,2.3-1.5,4.7-2.2,7c-0.6,1.9-1.3,6.9-4,6.9c-2.2,0-2.2,3.5,0,3.5
					c7.3,0,7.5-11.8,8.3-16.8C740.1,127,738.2,126.4,737.8,127.8L737.8,127.8z"/>
			</g>
		</g>
		<g>
			<g>
				<path class="st11" d="M580.3,151c-0.4,3.6-0.7,7.7-0.1,11.3c0.3,2,1.1,3.9,3.4,3.5c1.4-0.2,0.8-2.4-0.6-2.1
					c-0.4,0.1-0.6-11.7-0.6-12.7C582.2,149.7,580.4,149.7,580.3,151L580.3,151z"/>
			</g>
		</g>
		<g>
			<g>
				<path class="st11" d="M578.5,155.8c0.8,0.4,1.8,0.4,2.6,0.5c1,0.1,1.9,0.3,2.9,0.2c1.3-0.2,1.2-2.2,0-2.5
					c-0.9-0.2-1.8-0.1-2.7-0.1c-0.8,0-1.8-0.1-2.6,0.2C578,154.3,577.7,155.4,578.5,155.8L578.5,155.8z"/>
			</g>
		</g>
		<g>
			<g>
				<path class="st11" d="M595.2,158.7c0.2-2.9-1.4-6.7-5-5.7c-3.8,1-4.3,4.3-3.8,7.7c0.4,3,1.7,5.8,5.2,5.7
					c4.1-0.1,3.8-4.4,3.8-7.3c0-1.7-2.6-1.7-2.7,0c0,1.3,0.7,4.1-1.1,4.6c-1.7,0.5-2.2-1.8-2.4-2.9c-0.3-1.4-0.7-3.6,0.7-4.5
					c2.4-1.6,2.9,1.2,3.3,2.8C593.6,160.1,595.1,159.7,595.2,158.7L595.2,158.7z"/>
			</g>
		</g>
		<g>
			<g>
				<path class="st11" d="M611.6,149.2c-0.7,5.1-0.3,10.4-0.5,15.5c-0.1,2,3,2,3.1,0c0.1-5.1,0.4-10.7-0.7-15.8
					C613.4,147.8,611.8,148.2,611.6,149.2L611.6,149.2z"/>
			</g>
		</g>
		<g>
			<g>
				<path class="st11" d="M612.5,154.9c-1.4-1.5-3.9-2.5-5.8-1.3c-2.1,1.3-1.8,4.6-1.6,6.6c0.2,1.9,0.8,5,2.9,5.6
					c2.1,0.6,4.4-0.8,5.1-2.8c0.5-1.4-1.4-2.2-2.3-1.3c-0.4,0.4-1.4,1.6-2,1.4c-0.7-0.2-1.1-2.9-1.2-3.4c-0.1-0.8-0.4-2.2-0.1-3
					c0.7-1.7,2.6-1,3.8-0.2C612.3,157,613.3,155.7,612.5,154.9L612.5,154.9z"/>
			</g>
		</g>
		<g>
			<g>
				<path class="st11" d="M625.9,157.6c1-2.7-1.8-5.1-4.4-4.7c-3.6,0.5-4.8,4.6-4.5,7.7c0.2,3,1.9,5.9,5.4,5.5
					c3.5-0.4,3.8-5.4,3.9-8.1c0-1.7-2.5-1.7-2.7,0c-0.1,1.3-0.1,3.5-0.9,4.7c-0.6,0.8-1.5,0.7-2.2,0.2c-0.7-0.6-0.7-1.4-0.8-2.3
					c-0.1-1.4-0.1-3.3,1-4.4c1.6-1.6,2.7-0.1,3.2,1.3C624.3,158.5,625.5,158.6,625.9,157.6L625.9,157.6z"/>
			</g>
		</g>
		<g>
			<g>
				<path class="st11" d="M644.4,159.6c0.4-2.8-0.1-6.9-3.8-7.1c-3.5-0.2-4.7,3.9-4.8,6.7c-0.2,2.9,1,6.2,4,7.1
					c1.3,0.4,2.8,0.2,3.7-0.9c1.1-1.3,0.9-3.2,1.1-4.9c0.2-1.4-2.3-1.8-2.5-0.3c-0.2,1.2,0.1,3.9-1.8,3.4c-1.3-0.3-1.8-2.6-1.8-3.7
					c0-1.2,0-2.7,0.7-3.7c0.9-1.4,2.6-0.7,3,0.8c0.2,0.9,0.2,1.8,0.2,2.7C642.4,160.9,644.2,160.9,644.4,159.6L644.4,159.6z"/>
			</g>
		</g>
		<g>
			<g>
				<path class="st11" d="M648.1,150.9c-0.8,3.5-0.8,8.2-0.1,11.8c0.5,2.4,1.9,3.9,4.4,3.5c1.8-0.2,1.1-3.1-0.8-2.8
					c-1.1,0.2-1.5-11.4-1.7-12.6C649.7,150,648.3,150,648.1,150.9L648.1,150.9z"/>
			</g>
		</g>
		<g>
			<g>
				<path class="st11" d="M646.6,155.9c1.6,0.5,3.6,0.3,5.3,0.4c1.8,0.1,1.8-2.9,0-2.8c-1.7,0.1-3.7-0.1-5.3,0.4
					C645.6,154.2,645.6,155.6,646.6,155.9L646.6,155.9z"/>
			</g>
		</g>
		<g>
			<g>
				<path class="st11" d="M655,149.4c-1.1,4.9-0.4,10.5-0.5,15.6c-0.1,2,3.1,2,3.1,0c0.1-4.9,0.6-10.8-0.9-15.6
					C656.5,148.6,655.2,148.5,655,149.4L655,149.4z"/>
			</g>
		</g>
		<g>
			<g>
				<path class="st11" d="M657.5,157.6c0.6-0.4,1.8-1.4,2.5-1.4c0.7,0,0.1-0.5,0.4,0.5c0.2,0.6,0,1.5,0,2.1
					c-0.1,2.3-0.3,4.5-0.3,6.8c0,2.1,3.3,2.1,3.2,0c-0.1-2,0-4,0.1-6.1c0.1-1.6,0.3-3.7-0.6-5.1c-1.7-2.6-5,0.2-6.5,1.6
					C655.3,156.7,656.5,158.3,657.5,157.6L657.5,157.6z"/>
			</g>
		</g>
		<g>
			<g>
				<path class="st11" d="M667.4,159.8c2.1,0.2,5.3,0.4,7.4-0.3c0.4-0.1,0.9-0.5,1-1c0.4-2.7-1.3-5.7-4.2-5.8
					c-3.2-0.1-5,1.6-5.5,4.7c-0.4,2.8,0.2,5.9,2.7,7.5c2.2,1.4,5.1,0.7,6.5-1.5c1-1.6-1.6-3.1-2.5-1.5c-0.6,1.1-1.9,1.1-2.8,0.3
					c-1-0.8-1.2-2.2-1.2-3.5c0-1.1,0.1-2.8,1.4-3.2c1.7-0.5,2.8,0.9,2.7,2.5c0.4-0.5,0.7-0.9,1.1-1.4c-2.1,0.8-4.7,0.5-6.8,1.1
					C666,158.1,666.3,159.7,667.4,159.8L667.4,159.8z"/>
			</g>
		</g>
		<g>
			<g>
				<path class="st11" d="M678.4,153.8c-0.3,3.5-0.3,7.1-0.3,10.6c0,2,3.1,2,3.1,0c-0.1-3.5-0.1-7.1-0.4-10.6
					C680.7,152.3,678.6,152.3,678.4,153.8L678.4,153.8z"/>
			</g>
		</g>
		<g>
			<g>
				<path class="st11" d="M683.2,152.6c-1,0.4-1.8,0.9-2.6,1.6c-0.7,0.6-1.4,1.5-1.9,2.3c-0.5,1,0.4,2.6,1.6,2.1
					c1.1-0.4,1.4-1.2,2.1-2c0.6-0.7,1.2-1.3,1.9-1.8C685.5,154,684.4,152.1,683.2,152.6L683.2,152.6z"/>
			</g>
		</g>
		<g>
			<g>
				<path class="st11" d="M693.5,153.8c-0.3,3.6-0.3,7.3-0.5,10.9c-0.2,2,3.1,2.1,3.2,0c0.2-3.7,0.2-7.5-0.9-11.2
					C695,152.5,693.6,152.8,693.5,153.8L693.5,153.8z"/>
			</g>
		</g>
		<g>
			<g>
				<path class="st11" d="M695.5,157.4c0.7-0.5,1.7-1.2,2.6-1.3c0.6-0.1,0.6-0.2,0.9,0.4c0.2,0.4,0,1.2,0,1.6
					c-0.1,2.1-0.3,4.2-0.4,6.4c-0.1,1.8,2.7,1.8,2.8,0c0.2-2.1,0.3-4.2,0.4-6.4c0-1.3,0.1-3.1-0.9-4.1c-1.8-2-5.4,0.6-6.7,2.1
					C693.3,156.9,694.6,158.1,695.5,157.4L695.5,157.4z"/>
			</g>
		</g>
		<g>
			<g>
				<path class="st11" d="M701.3,157.9c0.7-0.7,1.4-1.1,2.2-1.6c0.8-0.4,0.5-0.5,0.8,0.1c0.2,0.5,0,1.5,0,2c0,2.2,0,4.5-0.2,6.7
					c-0.2,2.1,3.2,2.1,3.3,0c0.1-2.2,0.1-4.5,0-6.7c-0.1-1.3,0-3.2-1-4.2c-2.2-2.4-5.4,1-6.6,2.7
					C699.3,157.7,700.6,158.6,701.3,157.9L701.3,157.9z"/>
			</g>
		</g>
		<g>
			<g>
				<path class="st11" d="M711,160c1.3,0.3,2.7,0.2,4,0.1c1.3,0,2.7,0.1,3.9-0.2c1.2-0.4,1.4-2.3,0-2.7c-1.3-0.3-2.8,0-4.2,0.1
					c-1.3,0.1-2.7,0.1-3.9,0.7C709.9,158.5,710.2,159.8,711,160L711,160z"/>
			</g>
		</g>
		<g>
			<g>
				<path class="st11" d="M719.5,158.4c0.3-3.1-0.4-5.4-3.8-5.7c-3.2-0.4-5,1.7-5.4,4.7c-0.3,2.8,0,6.7,2.8,8.2
					c2.4,1.3,5.3,0.3,6.8-1.8c0.9-1.4-1.1-2.9-2.3-1.8c-0.9,0.9-2.1,1.6-3.3,0.7c-1.1-0.8-1.2-2.7-1.2-4c0-1.4,0.2-3.2,2-3.2
					c1.9,0,2.2,1.6,2.5,3.2C717.8,159.9,719.4,159.5,719.5,158.4L719.5,158.4z"/>
			</g>
		</g>
		<g>
			<g>
				<path class="st11" d="M722.4,150.3c-0.4,2.8-1.8,17.6,4.1,15.7c1.9-0.6,0.9-3.6-0.8-2.9c0.2-0.1-0.8-11.5-1-12.5
					C724.6,149.4,722.6,148.8,722.4,150.3L722.4,150.3z"/>
			</g>
		</g>
		<g>
			<g>
				<path class="st11" d="M721.4,155.6c1.5,0.4,3,0.1,4.4,0.6c1.9,0.6,2.6-2.6,0.4-2.8c-1.5-0.2-3.4-0.1-4.8,0.4
					C720.5,154.1,720.5,155.3,721.4,155.6L721.4,155.6z"/>
			</g>
		</g>
		<g>
			<g>
				<path class="st11" d="M729.1,149.3c-0.4,2.2,0,4.7,0.1,6.9c0.1,2.9,0.2,5.9-0.1,8.9c-0.2,2,2.9,2,3.1,0c0.3-3.7,0-7.5-0.3-11.2
					c-0.1-1.5,0.2-4.6-1.5-5.3C729.9,148.4,729.2,148.8,729.1,149.3L729.1,149.3z"/>
			</g>
		</g>
		<g>
			<g>
				<path class="st11" d="M731.9,157.1c0.8-0.3,1.5-0.7,2.3-1c0.2-0.1,0.9-0.5,1.2-0.4c0.3,0.2,0.2,1.1,0.2,1.5
					c0,2.3-0.3,4.6-0.3,6.9c0.1,2.1,3.4,2.1,3.3,0c-0.2-2,0-4.1,0-6.1c0-1.4,0.1-3.2-0.9-4.3c-1.8-2.1-5.4,0.3-6.8,1.7
					C730.2,156.1,730.9,157.5,731.9,157.1L731.9,157.1z"/>
			</g>
		</g>
		<g>
			<g>
				<path class="st11" d="M750,159.2c0.4-2.7-0.9-5.7-3.9-6c-3.7-0.4-4.5,4.3-4.4,7.1c0.1,2.7,1.6,6.4,4.9,6.1
					c3.5-0.4,4.2-4.4,3.7-7.2c-0.3-1.5-2.4-1-2.5,0.3c-0.1,1.1,0.3,3.5-1,4c-1,0.4-1.7-0.7-2-1.4c-0.3-0.7-0.3-1.5-0.4-2.2
					c0-1.1,0-2.9,1-3.6c1.4-0.9,2.4,1.4,2.3,2.5C747.7,160.2,749.8,160.5,750,159.2L750,159.2z"/>
			</g>
		</g>
		<g>
			<g>
				<path class="st11" d="M759.8,149.4c-0.7,5,0,10.4-0.3,15.5c-0.1,2,3,2,3.1,0c0.4-4.9,0.8-10.8-1.1-15.5
					C761.4,148.6,760,148.3,759.8,149.4L759.8,149.4z"/>
			</g>
		</g>
		<g>
			<g>
				<path class="st11" d="M761,156.3c-1.5-1.3-3.7-2.8-5.7-2.2c-2.2,0.6-2.1,3.4-2,5.2c0.1,1.9,0.1,4.6,1.7,6c2,1.6,3.9,0,5.7-1
					c1.7-1,0.1-3.6-1.5-2.6c-0.5,0.3-1.9,1.7-2.5,1.2c-0.6-0.4-0.7-2.8-0.7-3.3c-0.1-1-0.4-3,0.9-3.2c1-0.1,2.3,0.8,3.1,1.3
					C760.7,158.5,761.8,157,761,156.3L761,156.3z"/>
			</g>
		</g>
		<g>
			<g>
				<path class="st11" d="M772.8,155.6c-1-2.9-6.3-4.1-7.7-0.8c-0.7,1.7,0.2,3.5,1.4,4.7c0.8,0.8,1.7,1.4,2.6,1.9
					c0.4,0.2,1.4,0.6,1.2,1.3c-0.3,0.2-0.6,0.3-0.9,0.5c-0.7,0.3-1.3,0.1-1.8-0.7c-0.9-1.7-3.7-0.1-2.6,1.5c1.8,2.9,7.4,3.2,8.5-0.6
					c0.5-1.7-0.5-3.2-1.9-4.2c-0.9-0.6-1.9-0.9-2.7-1.6c-0.4-0.4-1.4-1.3-0.8-2c0.5-0.5,2.1,0.4,2.3,0.8
					C771.2,157.7,773.3,157,772.8,155.6L772.8,155.6z"/>
			</g>
		</g>
	</g>
	<g>
		<g>
			<g>
				<path class="st11" d="M71.8,102.5c0.7-3-2.3-5.5-5.2-5c-3.6,0.6-4.5,4.3-4.6,7.5c-0.1,3.2,0.3,7.8,3.6,9.3c3,1.4,6-0.6,6.8-3.6
					c0.5-1.8-2.4-2.6-2.8-0.8c-0.3,2-1.6,2.4-3.8,1c-0.3-0.5-0.5-1.1-0.6-1.7c-0.3-1.2-0.4-2.5-0.4-3.7c0-1,0-2.2,0.3-3.2
					c0.4-1.8,1.7-2.2,3.7-1.3c0.3,0.6,0.7,1.1,1,1.7C70.3,103.5,71.6,103.4,71.8,102.5L71.8,102.5z"/>
			</g>
		</g>
		<g>
			<g>
				<path class="st11" d="M83.9,107.6c0.4-2.7-0.9-5.6-4-5.4c-3.8,0.3-4.5,3.5-4.2,6.7c0.2,2.6,1.2,5.8,4.2,6.2
					c3.5,0.5,4.8-3.3,4.8-6.2c0-1.7-2.5-1.6-2.6,0c-0.1,1.2-0.6,4.8-2.6,3.1c-0.9-0.8-1-2.4-1.1-3.5c-0.1-1-0.3-2.6,0.6-3.2
					c1.7-1.3,2.8,0.9,3,2.2C82.2,108.5,83.8,108.6,83.9,107.6L83.9,107.6z"/>
			</g>
		</g>
		<g>
			<g>
				<path class="st11" d="M87.3,103.1c0,3.6,0.5,7.2,0.4,10.9c0,2,3.1,2,3,0c-0.1-3.7-0.2-7.6-1.2-11.2
					C89.3,101.5,87.3,101.8,87.3,103.1L87.3,103.1z"/>
			</g>
		</g>
		<g>
			<g>
				<path class="st11" d="M90.6,106c0.6-0.4,1.7-1.4,2.4-1.4c1.1,0.1,1,2.1,1,2.9c0,1.9-0.2,3.9-0.1,5.8c0.1,2,3.3,2.1,3.2,0
					c-0.2-3.1,0.7-7.4-1.1-10.1c-0.7-1-1.7-1.4-2.9-1.2c-1.6,0.3-2.4,1.6-3.5,2.6C88.7,105.3,89.7,106.6,90.6,106L90.6,106z"/>
			</g>
		</g>
		<g>
			<g>
				<path class="st11" d="M100.3,102.2c-0.1,0-0.1,0.1-0.2,0.1c-0.4,0.2-0.7,0.7-0.7,1.1c0,3.5,0.1,6.9-0.2,10.3
					c-0.1,1.9,2.9,1.9,3,0c0.1-3.5,0.1-6.9-0.2-10.3c0-0.4-0.2-1-0.7-1.1C101,102.1,100.7,102,100.3,102.2L100.3,102.2z"/>
			</g>
		</g>
		<g>
			<g>
				<path class="st11" d="M101.9,106.3c0.8-0.6,1.8-1.2,2.7-1.5c1.5-0.4,1.3,0.3,1.3,1.6c0.1,2.3,0.1,4.6-0.3,6.9
					c-0.4,2.2,3,2.7,3,0.4c0.1-2.2,0.3-4.3,0.2-6.5c0-1.4,0.2-3.5-0.7-4.7c-1.8-2.4-6.1,0.6-7.5,2.2
					C100.1,105.5,100.9,107,101.9,106.3L101.9,106.3z"/>
			</g>
		</g>
		<g>
			<g>
				<path class="st11" d="M113.5,108.7C113.5,108.6,113.5,108.6,113.5,108.7c-0.2,0-0.5,0-0.7,0c0.9,0.3,2,0.3,2.9,0.3
					c1,0.1,2,0.2,3,0.1c1.9-0.2,1.9-2.7,0-2.9c-1.2-0.2-2.6,0-3.9,0.1c-0.9,0-2.3,0-2.7,0.9C111.7,108.1,112.5,109.4,113.5,108.7
					L113.5,108.7z"/>
			</g>
		</g>
		<g>
			<g>
				<path class="st11" d="M120.3,107.4c0.4-2.8-1.1-6-4.3-6c-3,0-5,2.7-5.4,5.4c-0.4,2.6-0.2,6.4,2.2,8.1c2.5,1.9,6.4,0.1,7.6-2.6
					c0.6-1.4-1.2-3.2-2.3-1.8c-0.4,0.5-0.8,0.9-1.3,1.3c-0.9,0.6-1.1,0.8-2,0.2c-1.2-0.8-1.2-2.4-1.2-3.8c0-1.2,0.3-2.7,1.5-3.4
					c1.7-0.9,2.8,1.1,2.8,2.6C117.9,109,120.1,108.9,120.3,107.4L120.3,107.4z"/>
			</g>
		</g>
		<g>
			<g>
				<path class="st11" d="M132.4,105.4c-0.7-2.7-2.8-4.4-5.6-3.4c-2.5,0.9-3.3,3.5-3.5,6c-0.2,2.6,0.3,5.6,3,6.8
					c2.6,1.1,5.5-0.4,6.4-3c0.6-1.6-1.7-2.3-2.6-1.1c-0.8,1.1-2.2,2.4-3.4,0.9c-0.7-0.9-0.6-2.5-0.5-3.6c0.1-1,0.3-2.1,1.1-2.7
					c1.3-1.2,2.2-0.1,2.8,1.1C130.7,107.7,132.7,106.8,132.4,105.4L132.4,105.4z"/>
			</g>
		</g>
		<g>
			<g>
				<path class="st11" d="M135.6,99.6c-0.9,2.7-2.4,18.3,4,15.1c1.8-0.9,0.2-3.7-1.6-2.7c0.5-0.3-0.1-5.9-0.1-6.6
					c0-1.9,0.2-4-0.5-5.7C137,98.8,135.9,98.7,135.6,99.6L135.6,99.6z"/>
			</g>
		</g>
		<g>
			<g>
				<path class="st11" d="M134.1,105.3c1.5,0.3,3,0.4,4.5,0.3c0.7-0.1,1.4-0.6,1.4-1.4c0-0.7-0.6-1.5-1.4-1.4
					c-1.4,0.1-2.8,0.2-4.2,0.3C133.2,103.1,132.8,105.1,134.1,105.3L134.1,105.3z"/>
			</g>
		</g>
		<g>
			<g>
				<path class="st11" d="M149.6,105.4c1.1-4-5.4-4.4-7-1.6c-1,1.7-0.3,3.6,1,4.8c0.7,0.7,1.9,1,2.5,1.7c0.6,0.7,1.2,2.5-0.8,2.1
					c-0.7-0.1-1.2-0.9-1.6-1.4c-1-1.3-3,0.4-2.2,1.7c1.6,2.9,6.2,3.8,7.9,0.5c0.7-1.4,0.5-2.9-0.4-4.1c-0.6-0.7-1.3-1.2-2-1.7
					c-0.3-0.2-0.9-0.4-1.1-0.7c-1.8-2.1,1.1-2.6,1.8-1.1C148,106.5,149.3,106.2,149.6,105.4L149.6,105.4z"/>
			</g>
		</g>
		<g>
			<g>
				<path class="st11" d="M62.1,125.5c-0.6,3.5-0.7,7.8-0.3,11.3c0.2,2.1,1.4,4.8,3.9,4c1.8-0.6,1-3.4-0.8-2.9c0,0-0.2-6.4-0.3-6.7
					c0-1.9,0-3.9-0.5-5.8C63.9,124.5,62.3,124.5,62.1,125.5L62.1,125.5z"/>
			</g>
		</g>
		<g>
			<g>
				<path class="st11" d="M60.9,130.7c1.4,0.2,2.8,0.2,4.3,0.3c0.9,0.1,1.6-0.9,1.5-1.7c-0.1-1-1-1.4-1.9-1.3
					c-1.4,0.2-2.8,0.2-4.2,0.4c-0.6,0.1-0.9,0.7-0.8,1.3C59.8,130.3,60.3,130.6,60.9,130.7L60.9,130.7z"/>
			</g>
		</g>
		<g>
			<g>
				<path class="st11" d="M77.3,133.3c0.8-2.7-0.4-5.6-3.7-5.1c-4.1,0.6-4.7,3.8-4.3,7.4c0.3,2.8,2.1,6.6,5.6,5.7
					c3.5-0.9,3.5-6.1,3.2-8.9c-0.2-1.8-3-1.8-2.8,0c0.2,1.6,0.3,3.4-0.2,4.9c-0.4,1.2-1.5,1.7-2.3,0.5c-0.4-0.7-0.6-1.7-0.7-2.4
					c-0.2-1.5-0.4-3.5,1.2-4.2c1.8-0.8,2.1,0.7,2.4,2.1C75.8,134.1,77.1,134,77.3,133.3L77.3,133.3z"/>
			</g>
		</g>
		<g>
			<g>
				<path class="st11" d="M95.2,130.5c-1.1-3.1-6.4-4.6-7.8-1c-0.7,1.6,0.1,3.3,1.4,4.3c1,0.8,2.6,1.1,3.4,2.1
					c0.6,0.6,1.1,1.9-0.1,2.2c-0.8,0.2-1.7-0.6-2.3-1c-1.5-1.2-3.5,0.7-2.1,2.1c2.3,2.5,7.8,2.6,8.2-1.7c0.2-1.9-1.1-3.4-2.6-4.4
					c-0.5-0.3-3.8-1.6-3.1-2.6c0.5-0.7,3,1.1,3.6,1.3C94.6,132,95.4,131.2,95.2,130.5L95.2,130.5z"/>
			</g>
		</g>
		<g>
			<g>
				<path class="st11" d="M99.7,127.1c0.1-0.1,0.3-0.2,0.4-0.4c-0.6-0.4-1.3-0.7-1.9-1.1c-0.7,3.6-0.6,7.6-0.4,11.3
					c0.1,2.2,0.7,4,2.9,4.6c1.8,0.5,2.6-2.3,0.8-2.8c-1.6-0.4-0.9-5-0.9-6.2c0-2.2,0.1-4.4-0.1-6.6c-0.2-1.4-2.5-1.5-2.3,0
					c0,0.2,0,0.4,0.1,0.6C98.3,127.2,99.1,127.6,99.7,127.1L99.7,127.1z"/>
			</g>
		</g>
		<g>
			<g>
				<path class="st11" d="M96.9,130.2c0.8,0.1,1.6,0.1,2.4,0.1c0.7,0.1,1.4,0.3,2.1,0.2c0.7-0.1,1.3-0.6,1.3-1.3
					c0-0.7-0.6-1.4-1.3-1.3c-1.6,0.2-3.1-0.1-4.7,0.5C95.6,128.7,95.8,130.1,96.9,130.2L96.9,130.2z"/>
			</g>
		</g>
		<g>
			<g>
				<path class="st11" d="M106.3,131.5c1.1-0.7,2.6-1.9,3.6-0.3c0.4,0.6,0.2,2,0.3,2.7c0.1,1.9,0.2,3.9,0.2,5.8c0,2,3.1,2,3.2,0
					c0-2.1,0-4.1-0.2-6.2c-0.1-1.5-0.2-3.2-1.2-4.4c-2.1-2.6-5.1-0.9-7,0.9C104.5,130.8,105.5,132.2,106.3,131.5L106.3,131.5z"/>
			</g>
		</g>
		<g>
			<g>
				<path class="st11" d="M110.7,132.6c-2.3,1-6.8,2.4-6.2,5.7c0.7,3.8,5.6,2.4,7.6,0.6c1.4-1.3-0.7-3.4-2.1-2.1
					c-0.5,0.5-1.1,0.9-1.9,1.1c-1.1,0.2-1.1-0.3-0.4-0.9c1.1-1.1,2.7-1.8,3.9-2.7C112.7,133.6,111.8,132.1,110.7,132.6L110.7,132.6z
					"/>
			</g>
		</g>
		<g>
			<g>
				<path class="st11" d="M117.1,125.6c-0.5,2-0.4,4.1-0.3,6.1c0,2.1-0.1,4.4,0.1,6.5c0.3,2.3,2.1,4.1,4.4,2.8
					c1.4-0.8,0.5-3.4-1.2-2.7c0.1,0-0.4-6.2-0.4-6.6c-0.1-2,0-4.2-0.6-6.1C118.8,124.6,117.4,124.5,117.1,125.6L117.1,125.6z"/>
			</g>
		</g>
		<g>
			<g>
				<path class="st11" d="M115.3,130.3c0.7,0.5,1.6,0.5,2.4,0.6c0.8,0.1,1.7,0.2,2.6,0.2c1.8-0.1,1.9-2.9,0-2.9
					c-0.9,0-1.7,0.1-2.6,0.2c-0.8,0.1-1.6,0-2.4,0.4C114.6,129.1,114.8,130,115.3,130.3L115.3,130.3z"/>
			</g>
		</g>
		<g>
			<g>
				<path class="st11" d="M124.5,135c2.2,0.2,4.5,0,6.7-0.2c0.8-0.1,1.6-0.7,1.5-1.5c-0.3-2.5-1.3-5.5-4.2-5.7
					c-2.8-0.2-4.6,2.2-5,4.7c-0.4,2.4-0.4,6,1.7,7.7c1.9,1.6,5,0.8,6.5-1c1.3-1.5-0.6-3.4-2.1-2.1c-1,0.8-2.1,1.4-3,0.2
					c-0.6-0.8-0.6-2.4-0.6-3.5c0-1,0.5-3,1.8-3.1c1.5-0.1,1.7,2.1,1.9,3.1c0.4-0.6,0.7-1.3,1.1-1.9c-2.2,0.4-4.4,0.7-6.6,1
					C122.9,133,123.3,134.9,124.5,135L124.5,135z"/>
			</g>
		</g>
	</g>
</g>
</svg>
